<svg version="1.1" xmlns="http://www.w3.org/2000/svg" xmlns:xlink="http://www.w3.org/1999/xlink" width="950.72998046875" height="828"><defs/><g><g transform="translate(-166,-22) scale(1,1)"><path fill="#C0C0C0" stroke="none" d="M 367 601 L 692 601 L 692 846 L 367 846" opacity="0.2"/></g><g transform="translate(-166,-22) scale(1,1)"><path fill="#C0C0C0" stroke="none" d="M 367 601 L 377 591 L 702 591 L 692 601" opacity="0.2"/></g><g transform="translate(-166,-22) scale(1,1)"><path fill="#C0C0C0" stroke="none" d="M 702 591 L 692 601 L 692 846 L 702 836" opacity="0.2"/></g><g transform="translate(-166,-22) scale(1,1)"><path fill="#ffffff" stroke="none" d="M 360 594 L 685 594 L 685 839 L 360 839"/></g><g transform="translate(-166,-22) scale(1,1)"><path fill="#ffffff" stroke="none" d="M 360 594 L 370 584 L 695 584 L 685 594"/></g><g transform="translate(-166,-22) scale(1,1)"><path fill="#ffffff" stroke="none" d="M 695 584 L 685 594 L 685 839 L 695 829"/></g><g transform="translate(-166,-22) scale(1,1)"><path fill="none" stroke="#000000" d="M 360 594 L 685 594 L 685 839 L 360 839 L 360 594" stroke-miterlimit="10"/></g><g transform="translate(-166,-22) scale(1,1)"><path fill="none" stroke="#000000" d="M 360 594 L 370 584 L 695 584 L 685 594 L 360 594" stroke-miterlimit="10"/></g><g transform="translate(-166,-22) scale(1,1)"><path fill="none" stroke="#000000" d="M 695 584 L 685 594 L 685 839 L 695 829 L 695 584" stroke-miterlimit="10"/></g><g transform="translate(-166,-22) scale(1,1)"><g><path fill="none" stroke="none"/><text fill="#000000" stroke="none" font-family="Arial" font-size="13px" font-style="normal" font-weight="normal" text-decoration="none" x="496.98095703125" y="611.5">«device»</text></g></g><g transform="translate(-166,-22) scale(1,1)"><g><path fill="none" stroke="none"/><text fill="#000000" stroke="none" font-family="Arial" font-size="13px" font-style="normal" font-weight="bold" text-decoration="none" x="464.826904296875" y="626.5">smartphone-android</text></g></g><g transform="translate(-166,-22) scale(1,1)"><path fill="#C0C0C0" stroke="none" d="M 183 81 L 472.76171875 81 L 472.76171875 366 L 183 366" opacity="0.2"/></g><g transform="translate(-166,-22) scale(1,1)"><path fill="#C0C0C0" stroke="none" d="M 183 81 L 193 71 L 482.76171875 71 L 472.76171875 81" opacity="0.2"/></g><g transform="translate(-166,-22) scale(1,1)"><path fill="#C0C0C0" stroke="none" d="M 482.76171875 71 L 472.76171875 81 L 472.76171875 366 L 482.76171875 356" opacity="0.2"/></g><g transform="translate(-166,-22) scale(1,1)"><path fill="#ffffff" stroke="none" d="M 176 74 L 465.76171875 74 L 465.76171875 359 L 176 359"/></g><g transform="translate(-166,-22) scale(1,1)"><path fill="#ffffff" stroke="none" d="M 176 74 L 186 64 L 475.76171875 64 L 465.76171875 74"/></g><g transform="translate(-166,-22) scale(1,1)"><path fill="#ffffff" stroke="none" d="M 475.76171875 64 L 465.76171875 74 L 465.76171875 359 L 475.76171875 349"/></g><g transform="translate(-166,-22) scale(1,1)"><path fill="none" stroke="#000000" d="M 176 74 L 465.76171875 74 L 465.76171875 359 L 176 359 L 176 74" stroke-miterlimit="10"/></g><g transform="translate(-166,-22) scale(1,1)"><path fill="none" stroke="#000000" d="M 176 74 L 186 64 L 475.76171875 64 L 465.76171875 74 L 176 74" stroke-miterlimit="10"/></g><g transform="translate(-166,-22) scale(1,1)"><path fill="none" stroke="#000000" d="M 475.76171875 64 L 465.76171875 74 L 465.76171875 359 L 475.76171875 349 L 475.76171875 64" stroke-miterlimit="10"/></g><g transform="translate(-166,-22) scale(1,1)"><g><path fill="none" stroke="none"/><text fill="#000000" stroke="none" font-family="Arial" font-size="13px" font-style="normal" font-weight="normal" text-decoration="none" x="301.864990234375" y="91.5">«host»</text></g></g><g transform="translate(-166,-22) scale(1,1)"><g><path fill="none" stroke="none"/><text fill="#000000" stroke="none" font-family="Arial" font-size="13px" font-style="normal" font-weight="bold" text-decoration="none" x="243.330078125" y="106.5">back.eight.inside.esiag.info</text></g></g><g transform="translate(-166,-22) scale(1,1)"><path fill="#C0C0C0" stroke="none" d="M 807 49 L 1102.72998046875 49 L 1102.72998046875 342 L 807 342" opacity="0.2"/></g><g transform="translate(-166,-22) scale(1,1)"><path fill="#C0C0C0" stroke="none" d="M 807 49 L 817 39 L 1112.72998046875 39 L 1102.72998046875 49" opacity="0.2"/></g><g transform="translate(-166,-22) scale(1,1)"><path fill="#C0C0C0" stroke="none" d="M 1112.72998046875 39 L 1102.72998046875 49 L 1102.72998046875 342 L 1112.72998046875 332" opacity="0.2"/></g><g transform="translate(-166,-22) scale(1,1)"><path fill="#ffffff" stroke="none" d="M 800 42 L 1095.72998046875 42 L 1095.72998046875 335 L 800 335"/></g><g transform="translate(-166,-22) scale(1,1)"><path fill="#ffffff" stroke="none" d="M 800 42 L 810 32 L 1105.72998046875 32 L 1095.72998046875 42"/></g><g transform="translate(-166,-22) scale(1,1)"><path fill="#ffffff" stroke="none" d="M 1105.72998046875 32 L 1095.72998046875 42 L 1095.72998046875 335 L 1105.72998046875 325"/></g><g transform="translate(-166,-22) scale(1,1)"><path fill="none" stroke="#000000" d="M 800 42 L 1095.72998046875 42 L 1095.72998046875 335 L 800 335 L 800 42" stroke-miterlimit="10"/></g><g transform="translate(-166,-22) scale(1,1)"><path fill="none" stroke="#000000" d="M 800 42 L 810 32 L 1105.72998046875 32 L 1095.72998046875 42 L 800 42" stroke-miterlimit="10"/></g><g transform="translate(-166,-22) scale(1,1)"><path fill="none" stroke="#000000" d="M 1105.72998046875 32 L 1095.72998046875 42 L 1095.72998046875 335 L 1105.72998046875 325 L 1105.72998046875 32" stroke-miterlimit="10"/></g><g transform="translate(-166,-22) scale(1,1)"><g><path fill="none" stroke="none"/><text fill="#000000" stroke="none" font-family="Arial" font-size="13px" font-style="normal" font-weight="normal" text-decoration="none" x="928.84912109375" y="59.5">«host»</text></g></g><g transform="translate(-166,-22) scale(1,1)"><g><path fill="none" stroke="none"/><text fill="#000000" stroke="none" font-family="Arial" font-size="13px" font-style="normal" font-weight="bold" text-decoration="none" x="869.60009765625" y="74.5">mom.eight.inside.esiag.info</text></g></g><g transform="translate(-166,-22) scale(1,1)"><path fill="#C0C0C0" stroke="none" d="M 527 457 L 674.48974609375 457 L 674.48974609375 493 L 527 493" opacity="0.2"/></g><g transform="translate(-166,-22) scale(1,1)"><path fill="#C0C0C0" stroke="none" d="M 527 457 L 537 447 L 684.48974609375 447 L 674.48974609375 457" opacity="0.2"/></g><g transform="translate(-166,-22) scale(1,1)"><path fill="#C0C0C0" stroke="none" d="M 684.48974609375 447 L 674.48974609375 457 L 674.48974609375 493 L 684.48974609375 483" opacity="0.2"/></g><g transform="translate(-166,-22) scale(1,1)"><path fill="#ffffff" stroke="none" d="M 520 450 L 667.48974609375 450 L 667.48974609375 486 L 520 486"/></g><g transform="translate(-166,-22) scale(1,1)"><path fill="#ffffff" stroke="none" d="M 520 450 L 530 440 L 677.48974609375 440 L 667.48974609375 450"/></g><g transform="translate(-166,-22) scale(1,1)"><path fill="#ffffff" stroke="none" d="M 677.48974609375 440 L 667.48974609375 450 L 667.48974609375 486 L 677.48974609375 476"/></g><g transform="translate(-166,-22) scale(1,1)"><path fill="none" stroke="#000000" d="M 520 450 L 667.48974609375 450 L 667.48974609375 486 L 520 486 L 520 450" stroke-miterlimit="10"/></g><g transform="translate(-166,-22) scale(1,1)"><path fill="none" stroke="#000000" d="M 520 450 L 530 440 L 677.48974609375 440 L 667.48974609375 450 L 520 450" stroke-miterlimit="10"/></g><g transform="translate(-166,-22) scale(1,1)"><path fill="none" stroke="#000000" d="M 677.48974609375 440 L 667.48974609375 450 L 667.48974609375 486 L 677.48974609375 476 L 677.48974609375 440" stroke-miterlimit="10"/></g><g transform="translate(-166,-22) scale(1,1)"><g><path fill="none" stroke="none"/><text fill="#000000" stroke="none" font-family="Arial" font-size="13px" font-style="normal" font-weight="normal" text-decoration="none" x="566.7880859375" y="467.5">«firewall»</text></g></g><g transform="translate(-166,-22) scale(1,1)"><g><path fill="none" stroke="none"/><text fill="#000000" stroke="none" font-family="Arial" font-size="13px" font-style="normal" font-weight="bold" text-decoration="none" x="531.72998046875" y="482.5">eight.inside.esiag.info</text></g></g><g transform="translate(-166,-22) scale(1,1)"><rect fill="#C0C0C0" stroke="none" x="257" y="183" width="170.71533203125" height="44" opacity="0.2"/></g><g transform="translate(-166,-22) scale(1,1)"><rect fill="#ffffff" stroke="none" x="250" y="176" width="170.71533203125" height="44"/></g><g transform="translate(-166,-22) scale(1,1)"><path fill="none" stroke="#000000" d="M 250 176 L 420.71533203125 176 L 420.71533203125 220 L 250 220 L 250 176 Z Z" stroke-miterlimit="10"/></g><g transform="translate(-166,-22) scale(1,1)"><rect fill="#ffffff" stroke="none" x="240" y="183" width="20" height="10"/></g><g transform="translate(-166,-22) scale(1,1)"><path fill="none" stroke="#000000" d="M 240 183 L 260 183 L 260 193 L 240 193 L 240 183 Z Z" stroke-miterlimit="10"/></g><g transform="translate(-166,-22) scale(1,1)"><rect fill="#ffffff" stroke="none" x="240" y="203" width="20" height="10"/></g><g transform="translate(-166,-22) scale(1,1)"><path fill="none" stroke="#000000" d="M 240 203 L 260 203 L 260 213 L 240 213 L 240 203 Z Z" stroke-miterlimit="10"/></g><g transform="translate(-166,-22) scale(1,1)"><g><path fill="none" stroke="none"/><text fill="#000000" stroke="none" font-family="Arial" font-size="13px" font-style="normal" font-weight="normal" text-decoration="none" x="324.09814453125" y="193.5">«,jar»</text></g></g><g transform="translate(-166,-22) scale(1,1)"><g><path fill="none" stroke="none"/><text fill="#000000" stroke="none" font-family="Arial" font-size="13px" font-style="normal" font-weight="bold" text-decoration="none" x="267.010498046875" y="208.5">back-end-1.0.0RELEASE</text></g></g><g transform="translate(-166,-22) scale(1,1)"><rect fill="#C0C0C0" stroke="none" x="289" y="287" width="98.44091796875" height="44" opacity="0.2"/></g><g transform="translate(-166,-22) scale(1,1)"><rect fill="#ffffff" stroke="none" x="282" y="280" width="98.44091796875" height="44"/></g><g transform="translate(-166,-22) scale(1,1)"><path fill="none" stroke="#000000" d="M 282 280 L 380.44091796875 280 L 380.44091796875 324 L 282 324 L 282 280 Z Z" stroke-miterlimit="10"/></g><g transform="translate(-166,-22) scale(1,1)"><rect fill="#ffffff" stroke="none" x="272" y="287" width="20" height="10"/></g><g transform="translate(-166,-22) scale(1,1)"><path fill="none" stroke="#000000" d="M 272 287 L 292 287 L 292 297 L 272 297 L 272 287 Z Z" stroke-miterlimit="10"/></g><g transform="translate(-166,-22) scale(1,1)"><rect fill="#ffffff" stroke="none" x="272" y="307" width="20" height="10"/></g><g transform="translate(-166,-22) scale(1,1)"><path fill="none" stroke="#000000" d="M 272 307 L 292 307 L 292 317 L 272 317 L 272 307 Z Z" stroke-miterlimit="10"/></g><g transform="translate(-166,-22) scale(1,1)"><g><path fill="none" stroke="none"/><text fill="#000000" stroke="none" font-family="Arial" font-size="13px" font-style="normal" font-weight="normal" text-decoration="none" x="321.766845703125" y="297.5">«jar»</text></g></g><g transform="translate(-166,-22) scale(1,1)"><g><path fill="none" stroke="none"/><text fill="#000000" stroke="none" font-family="Arial" font-size="13px" font-style="normal" font-weight="bold" text-decoration="none" x="304.431396484375" y="312.5">JavaJRE-8</text></g></g><g transform="translate(-166,-22) scale(1,1)"><rect fill="#C0C0C0" stroke="none" x="857" y="151" width="134.62255859375" height="44" opacity="0.2"/></g><g transform="translate(-166,-22) scale(1,1)"><rect fill="#ffffff" stroke="none" x="850" y="144" width="134.62255859375" height="44"/></g><g transform="translate(-166,-22) scale(1,1)"><path fill="none" stroke="#000000" d="M 850 144 L 984.62255859375 144 L 984.62255859375 188 L 850 188 L 850 144 Z Z" stroke-miterlimit="10"/></g><g transform="translate(-166,-22) scale(1,1)"><rect fill="#ffffff" stroke="none" x="840" y="151" width="20" height="10"/></g><g transform="translate(-166,-22) scale(1,1)"><path fill="none" stroke="#000000" d="M 840 151 L 860 151 L 860 161 L 840 161 L 840 151 Z Z" stroke-miterlimit="10"/></g><g transform="translate(-166,-22) scale(1,1)"><rect fill="#ffffff" stroke="none" x="840" y="171" width="20" height="10"/></g><g transform="translate(-166,-22) scale(1,1)"><path fill="none" stroke="#000000" d="M 840 171 L 860 171 L 860 181 L 840 181 L 840 171 Z Z" stroke-miterlimit="10"/></g><g transform="translate(-166,-22) scale(1,1)"><g><path fill="none" stroke="none"/><text fill="#000000" stroke="none" font-family="Arial" font-size="13px" font-style="normal" font-weight="normal" text-decoration="none" x="900.63720703125" y="161.5">«mom»</text></g></g><g transform="translate(-166,-22) scale(1,1)"><g><path fill="none" stroke="none"/><text fill="#000000" stroke="none" font-family="Arial" font-size="13px" font-style="normal" font-weight="bold" text-decoration="none" x="866.66455078125" y="176.5">apache-kafka-1.0.0</text></g></g><g transform="translate(-166,-22) scale(1,1)"><rect fill="#C0C0C0" stroke="none" x="457" y="679" width="196.68994140625" height="44" opacity="0.2"/></g><g transform="translate(-166,-22) scale(1,1)"><rect fill="#ffffff" stroke="none" x="450" y="672" width="196.68994140625" height="44"/></g><g transform="translate(-166,-22) scale(1,1)"><path fill="none" stroke="#000000" d="M 450 672 L 646.68994140625 672 L 646.68994140625 716 L 450 716 L 450 672 Z Z" stroke-miterlimit="10"/></g><g transform="translate(-166,-22) scale(1,1)"><rect fill="#ffffff" stroke="none" x="440" y="679" width="20" height="10"/></g><g transform="translate(-166,-22) scale(1,1)"><path fill="none" stroke="#000000" d="M 440 679 L 460 679 L 460 689 L 440 689 L 440 679 Z Z" stroke-miterlimit="10"/></g><g transform="translate(-166,-22) scale(1,1)"><rect fill="#ffffff" stroke="none" x="440" y="699" width="20" height="10"/></g><g transform="translate(-166,-22) scale(1,1)"><path fill="none" stroke="#000000" d="M 440 699 L 460 699 L 460 709 L 440 709 L 440 699 Z Z" stroke-miterlimit="10"/></g><g transform="translate(-166,-22) scale(1,1)"><g><path fill="none" stroke="none"/><text fill="#000000" stroke="none" font-family="Arial" font-size="13px" font-style="normal" font-weight="normal" text-decoration="none" x="535.635009765625" y="689.5">«apk»</text></g></g><g transform="translate(-166,-22) scale(1,1)"><g><path fill="none" stroke="none"/><text fill="#000000" stroke="none" font-family="Arial" font-size="13px" font-style="normal" font-weight="bold" text-decoration="none" x="468.794189453125" y="704.5">eight-android-1.0.0RELEASE</text></g></g><g transform="translate(-166,-22) scale(1,1)"><path fill="none" stroke="#000000" d="M 478 268 L 591 309" stroke-miterlimit="10"/></g><g transform="translate(-166,-22) scale(1,1)"><g><path fill="none" stroke="none"/><text fill="#000000" stroke="none" font-family="Arial" font-size="13px" font-style="normal" font-weight="normal" text-decoration="none" x="520.5" y="279.5">+8080</text></g></g><g transform="translate(-166,-22) scale(1,1)"><g><path fill="none" stroke="none"/><text fill="#000000" stroke="none" font-family="Arial" font-size="13px" font-style="normal" font-weight="normal" text-decoration="none" x="525.5" y="265.5">«port»</text></g></g><g transform="translate(-166,-22) scale(1,1)"><path fill="none" stroke="#000000" d="M 799 254 L 688 305" stroke-miterlimit="10"/></g><g transform="translate(-166,-22) scale(1,1)"><g><path fill="none" stroke="none"/><text fill="#000000" stroke="none" font-family="Arial" font-size="13px" font-style="normal" font-weight="normal" text-decoration="none" x="736.5" y="312.5">«port»</text></g></g><g transform="translate(-166,-22) scale(1,1)"><path fill="none" stroke="#000000" d="M 592 488 L 565 583" stroke-miterlimit="10"/></g><g transform="translate(-166,-22) scale(1,1)"><g><path fill="none" stroke="none"/><text fill="#000000" stroke="none" font-family="Arial" font-size="13px" font-style="normal" font-weight="normal" text-decoration="none" x="580.5" y="544.5">+80</text></g></g><g transform="translate(-166,-22) scale(1,1)"><g><path fill="none" stroke="none"/><text fill="#000000" stroke="none" font-family="Arial" font-size="13px" font-style="normal" font-weight="normal" text-decoration="none" x="614.5" y="540.5">«port»</text></g></g><g transform="translate(-166,-22) scale(1,1)"><path fill="#C0C0C0" stroke="none" d="M 599 321 L 682.83544921875 321 L 682.83544921875 357 L 599 357" opacity="0.2"/></g><g transform="translate(-166,-22) scale(1,1)"><path fill="#C0C0C0" stroke="none" d="M 599 321 L 609 311 L 692.83544921875 311 L 682.83544921875 321" opacity="0.2"/></g><g transform="translate(-166,-22) scale(1,1)"><path fill="#C0C0C0" stroke="none" d="M 692.83544921875 311 L 682.83544921875 321 L 682.83544921875 357 L 692.83544921875 347" opacity="0.2"/></g><g transform="translate(-166,-22) scale(1,1)"><path fill="#ffffff" stroke="none" d="M 592 314 L 675.83544921875 314 L 675.83544921875 350 L 592 350"/></g><g transform="translate(-166,-22) scale(1,1)"><path fill="#ffffff" stroke="none" d="M 592 314 L 602 304 L 685.83544921875 304 L 675.83544921875 314"/></g><g transform="translate(-166,-22) scale(1,1)"><path fill="#ffffff" stroke="none" d="M 685.83544921875 304 L 675.83544921875 314 L 675.83544921875 350 L 685.83544921875 340"/></g><g transform="translate(-166,-22) scale(1,1)"><path fill="none" stroke="#000000" d="M 592 314 L 675.83544921875 314 L 675.83544921875 350 L 592 350 L 592 314" stroke-miterlimit="10"/></g><g transform="translate(-166,-22) scale(1,1)"><path fill="none" stroke="#000000" d="M 592 314 L 602 304 L 685.83544921875 304 L 675.83544921875 314 L 592 314" stroke-miterlimit="10"/></g><g transform="translate(-166,-22) scale(1,1)"><path fill="none" stroke="#000000" d="M 685.83544921875 304 L 675.83544921875 314 L 675.83544921875 350 L 685.83544921875 340 L 685.83544921875 304" stroke-miterlimit="10"/></g><g transform="translate(-166,-22) scale(1,1)"><g><path fill="none" stroke="none"/><text fill="#000000" stroke="none" font-family="Arial" font-size="13px" font-style="normal" font-weight="normal" text-decoration="none" x="609.128662109375" y="331.5">«switch»</text></g></g><g transform="translate(-166,-22) scale(1,1)"><g><path fill="none" stroke="none"/><text fill="#000000" stroke="none" font-family="Arial" font-size="13px" font-style="normal" font-weight="bold" text-decoration="none" x="600.09912109375" y="346.5">switch-eight</text></g></g><g transform="translate(-166,-22) scale(1,1)"><path fill="none" stroke="#000000" d="M 632 352 L 606 439" stroke-miterlimit="10"/></g></g></svg>