<svg version="1.1" xmlns="http://www.w3.org/2000/svg" xmlns:xlink="http://www.w3.org/1999/xlink" width="2127.138671875" height="808"><defs/><g><g transform="translate(-38,-62) scale(1,1)"><rect fill="#C0C0C0" stroke="none" x="207" y="223" width="162.21337890625" height="85" opacity="0.2"/></g><g transform="translate(-38,-62) scale(1,1)"><rect fill="#ffffff" stroke="none" x="200" y="216" width="162.21337890625" height="85"/></g><g transform="translate(-38,-62) scale(1,1)"><path fill="none" stroke="#000000" d="M 200 216 L 362.21337890625 216 L 362.21337890625 301 L 200 301 L 200 216 Z Z" stroke-miterlimit="10"/></g><g transform="translate(-38,-62) scale(1,1)"><path fill="none" stroke="#000000" d="M 200 241 L 362.21337890625 241" stroke-miterlimit="10"/></g><g transform="translate(-38,-62) scale(1,1)"><path fill="none" stroke="#000000" d="M 200 279 L 362.21337890625 279" stroke-miterlimit="10"/></g><g transform="translate(-38,-62) scale(1,1)"><g><path fill="none" stroke="none"/><text fill="#000000" stroke="none" font-family="Arial" font-size="13px" font-style="normal" font-weight="bold" text-decoration="none" x="235.958984375" y="235.5">RssServiceImpl</text></g></g><g transform="translate(-38,-62) scale(1,1)"><g><path fill="none" stroke="none"/><text fill="#000000" stroke="none" font-family="Arial" font-size="13px" font-style="normal" font-weight="normal" text-decoration="none" x="205" y="258.5">-logger {readOnly}</text><path fill="none" stroke="#000000" d="M 205 258.5 L 310.5107421875 258.5" stroke-miterlimit="10"/></g></g><g transform="translate(-38,-62) scale(1,1)"><g><path fill="none" stroke="none"/><text fill="#000000" stroke="none" font-family="Arial" font-size="13px" font-style="normal" font-weight="normal" text-decoration="none" x="205" y="273.5">-reader</text></g></g><g transform="translate(-38,-62) scale(1,1)"><g><path fill="none" stroke="none"/><text fill="#000000" stroke="none" font-family="Arial" font-size="13px" font-style="normal" font-weight="normal" text-decoration="none" x="205" y="296.5">+getOne(id: int): null</text></g></g><g transform="translate(-38,-62) scale(1,1)"><rect fill="#C0C0C0" stroke="none" x="775" y="519" width="197.23974609375" height="85" opacity="0.2"/></g><g transform="translate(-38,-62) scale(1,1)"><rect fill="#ffffff" stroke="none" x="768" y="512" width="197.23974609375" height="85"/></g><g transform="translate(-38,-62) scale(1,1)"><path fill="none" stroke="#000000" d="M 768 512 L 965.23974609375 512 L 965.23974609375 597 L 768 597 L 768 512 Z Z" stroke-miterlimit="10"/></g><g transform="translate(-38,-62) scale(1,1)"><path fill="none" stroke="#000000" d="M 768 537 L 965.23974609375 537" stroke-miterlimit="10"/></g><g transform="translate(-38,-62) scale(1,1)"><path fill="none" stroke="#000000" d="M 768 575 L 965.23974609375 575" stroke-miterlimit="10"/></g><g transform="translate(-38,-62) scale(1,1)"><g><path fill="none" stroke="none"/><text fill="#000000" stroke="none" font-family="Arial" font-size="13px" font-style="normal" font-weight="bold" text-decoration="none" x="825.07763671875" y="531.5">RSSController</text></g></g><g transform="translate(-38,-62) scale(1,1)"><g><path fill="none" stroke="none"/><text fill="#000000" stroke="none" font-family="Arial" font-size="13px" font-style="normal" font-weight="normal" text-decoration="none" x="773" y="554.5">-logger {readOnly}</text><path fill="none" stroke="#000000" d="M 773 554.5 L 878.5107421875 554.5" stroke-miterlimit="10"/></g></g><g transform="translate(-38,-62) scale(1,1)"><g><path fill="none" stroke="none"/><text fill="#000000" stroke="none" font-family="Arial" font-size="13px" font-style="normal" font-weight="normal" text-decoration="none" x="773" y="569.5">-IRssService: IRssService</text></g></g><g transform="translate(-38,-62) scale(1,1)"><g><path fill="none" stroke="none"/><text fill="#000000" stroke="none" font-family="Arial" font-size="13px" font-style="normal" font-weight="normal" text-decoration="none" x="773" y="592.5">+getOne(id: int): null</text></g></g><g transform="translate(-38,-62) scale(1,1)"><rect fill="#C0C0C0" stroke="none" x="631" y="119" width="494.1767578125" height="280" opacity="0.2"/></g><g transform="translate(-38,-62) scale(1,1)"><rect fill="#ffffff" stroke="none" x="624" y="112" width="494.1767578125" height="280"/></g><g transform="translate(-38,-62) scale(1,1)"><path fill="none" stroke="#000000" d="M 624 112 L 1118.1767578125 112 L 1118.1767578125 392 L 624 392 L 624 112 Z Z" stroke-miterlimit="10"/></g><g transform="translate(-38,-62) scale(1,1)"><path fill="none" stroke="#000000" d="M 624 137 L 1118.1767578125 137" stroke-miterlimit="10"/></g><g transform="translate(-38,-62) scale(1,1)"><path fill="none" stroke="#000000" d="M 624 205 L 1118.1767578125 205" stroke-miterlimit="10"/></g><g transform="translate(-38,-62) scale(1,1)"><g><path fill="none" stroke="none"/><text fill="#000000" stroke="none" font-family="Arial" font-size="13px" font-style="normal" font-weight="bold" text-decoration="none" x="842.907958984375" y="131.5">RSSFeed</text></g></g><g transform="translate(-38,-62) scale(1,1)"><g><path fill="none" stroke="none"/><text fill="#000000" stroke="none" font-family="Arial" font-size="13px" font-style="normal" font-weight="normal" text-decoration="none" x="629" y="154.5">-title: String</text></g></g><g transform="translate(-38,-62) scale(1,1)"><g><path fill="none" stroke="none"/><text fill="#000000" stroke="none" font-family="Arial" font-size="13px" font-style="normal" font-weight="normal" text-decoration="none" x="629" y="169.5">-link: String</text></g></g><g transform="translate(-38,-62) scale(1,1)"><g><path fill="none" stroke="none"/><text fill="#000000" stroke="none" font-family="Arial" font-size="13px" font-style="normal" font-weight="normal" text-decoration="none" x="629" y="184.5">-description: String</text></g></g><g transform="translate(-38,-62) scale(1,1)"><g><path fill="none" stroke="none"/><text fill="#000000" stroke="none" font-family="Arial" font-size="13px" font-style="normal" font-weight="normal" text-decoration="none" x="629" y="199.5">-imgLink: String</text></g></g><g transform="translate(-38,-62) scale(1,1)"><g><path fill="none" stroke="none"/><text fill="#000000" stroke="none" font-family="Arial" font-size="13px" font-style="normal" font-weight="normal" text-decoration="none" x="629" y="222.5">«constructor»+RSSFeed()</text></g></g><g transform="translate(-38,-62) scale(1,1)"><g><path fill="none" stroke="none"/><text fill="#000000" stroke="none" font-family="Arial" font-size="13px" font-style="normal" font-weight="normal" text-decoration="none" x="629" y="237.5">«constructor»+RSSFeed(title: String, link: String, description: String)</text></g></g><g transform="translate(-38,-62) scale(1,1)"><g><path fill="none" stroke="none"/><text fill="#000000" stroke="none" font-family="Arial" font-size="13px" font-style="normal" font-weight="normal" text-decoration="none" x="629" y="252.5">«constructor»+RSSFeed(title: String, link: String, description: String, imgLink: String)</text></g></g><g transform="translate(-38,-62) scale(1,1)"><g><path fill="none" stroke="none"/><text fill="#000000" stroke="none" font-family="Arial" font-size="13px" font-style="normal" font-weight="normal" text-decoration="none" x="629" y="267.5">+getTitle(): String</text></g></g><g transform="translate(-38,-62) scale(1,1)"><g><path fill="none" stroke="none"/><text fill="#000000" stroke="none" font-family="Arial" font-size="13px" font-style="normal" font-weight="normal" text-decoration="none" x="629" y="282.5">+setTitle(title: String): void</text></g></g><g transform="translate(-38,-62) scale(1,1)"><g><path fill="none" stroke="none"/><text fill="#000000" stroke="none" font-family="Arial" font-size="13px" font-style="normal" font-weight="normal" text-decoration="none" x="629" y="297.5">+getLink(): String</text></g></g><g transform="translate(-38,-62) scale(1,1)"><g><path fill="none" stroke="none"/><text fill="#000000" stroke="none" font-family="Arial" font-size="13px" font-style="normal" font-weight="normal" text-decoration="none" x="629" y="312.5">+setLink(link: String): void</text></g></g><g transform="translate(-38,-62) scale(1,1)"><g><path fill="none" stroke="none"/><text fill="#000000" stroke="none" font-family="Arial" font-size="13px" font-style="normal" font-weight="normal" text-decoration="none" x="629" y="327.5">+getDescription(): String</text></g></g><g transform="translate(-38,-62) scale(1,1)"><g><path fill="none" stroke="none"/><text fill="#000000" stroke="none" font-family="Arial" font-size="13px" font-style="normal" font-weight="normal" text-decoration="none" x="629" y="342.5">+setDescription(description: String): void</text></g></g><g transform="translate(-38,-62) scale(1,1)"><g><path fill="none" stroke="none"/><text fill="#000000" stroke="none" font-family="Arial" font-size="13px" font-style="normal" font-weight="normal" text-decoration="none" x="629" y="357.5">+getImgLink(): String</text></g></g><g transform="translate(-38,-62) scale(1,1)"><g><path fill="none" stroke="none"/><text fill="#000000" stroke="none" font-family="Arial" font-size="13px" font-style="normal" font-weight="normal" text-decoration="none" x="629" y="372.5">+setImgLink(imgLink: String): void</text></g></g><g transform="translate(-38,-62) scale(1,1)"><g><path fill="none" stroke="none"/><text fill="#000000" stroke="none" font-family="Arial" font-size="13px" font-style="normal" font-weight="normal" text-decoration="none" x="629" y="387.5">+toString(): String</text></g></g><g transform="translate(-38,-62) scale(1,1)"><rect fill="#C0C0C0" stroke="none" x="231" y="431" width="173.38525390625" height="70" opacity="0.2"/></g><g transform="translate(-38,-62) scale(1,1)"><rect fill="#ffffff" stroke="none" x="224" y="424" width="173.38525390625" height="70"/></g><g transform="translate(-38,-62) scale(1,1)"><path fill="none" stroke="#000000" d="M 224 424 L 397.38525390625 424 L 397.38525390625 494 L 224 494 L 224 424 Z Z" stroke-miterlimit="10"/></g><g transform="translate(-38,-62) scale(1,1)"><path fill="none" stroke="#000000" d="M 224 449 L 397.38525390625 449" stroke-miterlimit="10"/></g><g transform="translate(-38,-62) scale(1,1)"><path fill="none" stroke="#000000" d="M 224 472 L 397.38525390625 472" stroke-miterlimit="10"/></g><g transform="translate(-38,-62) scale(1,1)"><g><path fill="none" stroke="none"/><text fill="#000000" stroke="none" font-family="Arial" font-size="13px" font-style="normal" font-weight="bold" text-decoration="none" x="276.009033203125" y="443.5">RSSReader</text></g></g><g transform="translate(-38,-62) scale(1,1)"><g><path fill="none" stroke="none"/><text fill="#000000" stroke="none" font-family="Arial" font-size="13px" font-style="normal" font-weight="normal" text-decoration="none" x="229" y="466.5">-logger {readOnly}</text><path fill="none" stroke="#000000" d="M 229 466.5 L 334.5107421875 466.5" stroke-miterlimit="10"/></g></g><g transform="translate(-38,-62) scale(1,1)"><g><path fill="none" stroke="none"/><text fill="#000000" stroke="none" font-family="Arial" font-size="13px" font-style="normal" font-weight="normal" text-decoration="none" x="229" y="489.5">+read(url: String): null</text></g></g><g transform="translate(-38,-62) scale(1,1)"><path fill="#C0C0C0" stroke="none" d="M 620.86083984375 506.5 C 620.86083984375 500.1487248 626.00956464375 495 632.36083984375 495 C 638.71211504375 495 643.86083984375 500.1487248 643.86083984375 506.5 C 643.86083984375 512.8512752 638.71211504375 518 632.36083984375 518 C 626.00956464375 518 620.86083984375 512.8512752 620.86083984375 506.5 Z" opacity="0.2"/></g><g transform="translate(-38,-62) scale(1,1)"><path fill="#ffffff" stroke="none" d="M 613.86083984375 499.5 C 613.86083984375 493.1487248 619.00956464375 488 625.36083984375 488 C 631.71211504375 488 636.86083984375 493.1487248 636.86083984375 499.5 C 636.86083984375 505.8512752 631.71211504375 511 625.36083984375 511 C 619.00956464375 511 613.86083984375 505.8512752 613.86083984375 499.5 Z"/></g><g transform="translate(-38,-62) scale(1,1)"><path fill="none" stroke="#000000" d="M 613.86083984375 499.5 C 613.86083984375 493.1487248 619.00956464375 488 625.36083984375 488 C 631.71211504375 488 636.86083984375 493.1487248 636.86083984375 499.5 C 636.86083984375 505.8512752 631.71211504375 511 625.36083984375 511 C 619.00956464375 511 613.86083984375 505.8512752 613.86083984375 499.5 Z" stroke-miterlimit="10"/></g><g transform="translate(-38,-62) scale(1,1)"><g><path fill="none" stroke="none"/><text fill="#000000" stroke="none" font-family="Arial" font-size="13px" font-style="normal" font-weight="bold" text-decoration="none" x="590.686767578125" y="530.5">IRssService</text></g></g><g transform="translate(-38,-62) scale(1,1)"><path fill="none" stroke="#000000" d="M 341 302 L 613.86083984375 495.06853170955884" stroke-miterlimit="10"/></g><g transform="translate(-38,-62) scale(1,1)"><path fill="none" stroke="#000000" d="M 767 537 L 668 519" stroke-miterlimit="10"/></g><g transform="translate(-38,-62) scale(1,1)"><path fill="#FFFFFF" stroke="none" d="M 689.5035428538816 514.3526733780293 L 668 519 L 686.4914571402994 530.9191448027309"/></g><g transform="translate(-38,-62) scale(1,1)"><path fill="none" stroke="#000000" d="M 689.5035428538816 514.3526733780293 L 668 519 L 686.4914571402994 530.9191448027309 L 689.5035428538816 514.3526733780293" stroke-miterlimit="10"/></g><g transform="translate(-38,-62) scale(1,1)"><path fill="none" stroke="#000000" d="M 287 302 L 305 423" stroke-miterlimit="10"/></g><g transform="translate(-38,-62) scale(1,1)"><path fill="none" stroke="#000000" d="M 867 511 L 869 393" stroke-miterlimit="10"/></g><g transform="translate(-38,-62) scale(1,1)"><path fill="none" stroke="#000000" d="M 363 257 L 623 255" stroke-miterlimit="10"/></g><g transform="translate(-38,-62) scale(1,1)"><rect fill="#C0C0C0" stroke="none" x="1535" y="551" width="290.43603515625" height="115" opacity="0.2"/></g><g transform="translate(-38,-62) scale(1,1)"><rect fill="#ffffff" stroke="none" x="1528" y="544" width="290.43603515625" height="115"/></g><g transform="translate(-38,-62) scale(1,1)"><path fill="none" stroke="#000000" d="M 1528 544 L 1818.43603515625 544 L 1818.43603515625 659 L 1528 659 L 1528 544 Z Z" stroke-miterlimit="10"/></g><g transform="translate(-38,-62) scale(1,1)"><path fill="none" stroke="#000000" d="M 1528 569 L 1818.43603515625 569" stroke-miterlimit="10"/></g><g transform="translate(-38,-62) scale(1,1)"><path fill="none" stroke="#000000" d="M 1528 607 L 1818.43603515625 607" stroke-miterlimit="10"/></g><g transform="translate(-38,-62) scale(1,1)"><g><path fill="none" stroke="none"/><text fill="#000000" stroke="none" font-family="Arial" font-size="13px" font-style="normal" font-weight="bold" text-decoration="none" x="1626.245361328125" y="563.5">DownloadImage</text></g></g><g transform="translate(-38,-62) scale(1,1)"><g><path fill="none" stroke="none"/><text fill="#000000" stroke="none" font-family="Arial" font-size="13px" font-style="normal" font-weight="normal" text-decoration="none" x="1533" y="586.5">-imgv</text></g></g><g transform="translate(-38,-62) scale(1,1)"><g><path fill="none" stroke="none"/><text fill="#000000" stroke="none" font-family="Arial" font-size="13px" font-style="normal" font-weight="normal" text-decoration="none" x="1533" y="601.5">-bit</text></g></g><g transform="translate(-38,-62) scale(1,1)"><g><path fill="none" stroke="none"/><text fill="#000000" stroke="none" font-family="Arial" font-size="13px" font-style="normal" font-weight="normal" text-decoration="none" x="1533" y="624.5">«constructor»+DownloadImage(img)</text></g></g><g transform="translate(-38,-62) scale(1,1)"><g><path fill="none" stroke="none"/><text fill="#000000" stroke="none" font-family="Arial" font-size="13px" font-style="normal" font-weight="normal" text-decoration="none" x="1533" y="639.5">#doInBackground(geturl: String): null</text></g></g><g transform="translate(-38,-62) scale(1,1)"><g><path fill="none" stroke="none"/><text fill="#000000" stroke="none" font-family="Arial" font-size="13px" font-style="normal" font-weight="normal" text-decoration="none" x="1533" y="654.5">#onPostExecute(bit): void</text></g></g><g transform="translate(-38,-62) scale(1,1)"><rect fill="#C0C0C0" stroke="none" x="1247" y="79" width="284.9072265625" height="85" opacity="0.2"/></g><g transform="translate(-38,-62) scale(1,1)"><rect fill="#ffffff" stroke="none" x="1240" y="72" width="284.9072265625" height="85"/></g><g transform="translate(-38,-62) scale(1,1)"><path fill="none" stroke="#000000" d="M 1240 72 L 1524.9072265625 72 L 1524.9072265625 157 L 1240 157 L 1240 72 Z Z" stroke-miterlimit="10"/></g><g transform="translate(-38,-62) scale(1,1)"><path fill="none" stroke="#000000" d="M 1240 97 L 1524.9072265625 97" stroke-miterlimit="10"/></g><g transform="translate(-38,-62) scale(1,1)"><path fill="none" stroke="#000000" d="M 1240 120 L 1524.9072265625 120" stroke-miterlimit="10"/></g><g transform="translate(-38,-62) scale(1,1)"><g><path fill="none" stroke="none"/><text fill="#000000" stroke="none" font-family="Arial" font-size="13px" font-style="normal" font-weight="bold" text-decoration="none" x="1371.976806640625" y="91.5">API</text></g></g><g transform="translate(-38,-62) scale(1,1)"><g><path fill="none" stroke="none"/><text fill="#000000" stroke="none" font-family="Arial" font-size="13px" font-style="normal" font-weight="normal" text-decoration="none" x="1245" y="114.5">+URL: String = "http://10.0.2.2:8080" {readOnly}</text><path fill="none" stroke="#000000" d="M 1245 114.5 L 1520.9072265625 114.5" stroke-miterlimit="10"/></g></g><g transform="translate(-38,-62) scale(1,1)"><g><path fill="none" stroke="none"/><text fill="#000000" stroke="none" font-family="Arial" font-size="13px" font-style="normal" font-weight="normal" text-decoration="none" x="1245" y="137.5">+get(): API</text><path fill="none" stroke="#000000" d="M 1245 137.5 L 1307.4990234375 137.5" stroke-miterlimit="10"/></g></g><g transform="translate(-38,-62) scale(1,1)"><g><path fill="none" stroke="none"/><text fill="#000000" stroke="none" font-family="Arial" font-size="13px" font-style="normal" font-weight="normal" text-decoration="none" x="1245" y="152.5">+getRetrofitService(): null</text></g></g><g transform="translate(-38,-62) scale(1,1)"><rect fill="#C0C0C0" stroke="none" x="1175" y="239" width="271.44384765625" height="100" opacity="0.2"/></g><g transform="translate(-38,-62) scale(1,1)"><rect fill="#ffffff" stroke="none" x="1168" y="232" width="271.44384765625" height="100"/></g><g transform="translate(-38,-62) scale(1,1)"><path fill="none" stroke="#000000" d="M 1168 232 L 1439.44384765625 232 L 1439.44384765625 332 L 1168 332 L 1168 232 Z Z" stroke-miterlimit="10"/></g><g transform="translate(-38,-62) scale(1,1)"><path fill="none" stroke="#000000" d="M 1168 257 L 1439.44384765625 257" stroke-miterlimit="10"/></g><g transform="translate(-38,-62) scale(1,1)"><path fill="none" stroke="#000000" d="M 1168 295 L 1439.44384765625 295" stroke-miterlimit="10"/></g><g transform="translate(-38,-62) scale(1,1)"><g><path fill="none" stroke="none"/><text fill="#000000" stroke="none" font-family="Arial" font-size="13px" font-style="normal" font-weight="bold" text-decoration="none" x="1266.88330078125" y="251.5">NewsActivity</text></g></g><g transform="translate(-38,-62) scale(1,1)"><g><path fill="none" stroke="none"/><text fill="#000000" stroke="none" font-family="Arial" font-size="13px" font-style="normal" font-weight="normal" text-decoration="none" x="1173" y="274.5">-TAG: String = "NEWS ACTIVITY" {readOnly}</text><path fill="none" stroke="#000000" d="M 1173 274.5 L 1435.44384765625 274.5" stroke-miterlimit="10"/></g></g><g transform="translate(-38,-62) scale(1,1)"><g><path fill="none" stroke="none"/><text fill="#000000" stroke="none" font-family="Arial" font-size="13px" font-style="normal" font-weight="normal" text-decoration="none" x="1173" y="289.5">-recList</text></g></g><g transform="translate(-38,-62) scale(1,1)"><g><path fill="none" stroke="none"/><text fill="#000000" stroke="none" font-family="Arial" font-size="13px" font-style="normal" font-weight="normal" text-decoration="none" x="1173" y="312.5">#onCreate(savedInstanceState): void</text></g></g><g transform="translate(-38,-62) scale(1,1)"><g><path fill="none" stroke="none"/><text fill="#000000" stroke="none" font-family="Arial" font-size="13px" font-style="normal" font-weight="normal" text-decoration="none" x="1173" y="327.5">#callOneNews(): void</text></g></g><g transform="translate(-38,-62) scale(1,1)"><rect fill="#C0C0C0" stroke="none" x="1775" y="751" width="271.32958984375" height="70" opacity="0.2"/></g><g transform="translate(-38,-62) scale(1,1)"><rect fill="#ffffff" stroke="none" x="1768" y="744" width="271.32958984375" height="70"/></g><g transform="translate(-38,-62) scale(1,1)"><path fill="none" stroke="#000000" d="M 1768 744 L 2039.32958984375 744 L 2039.32958984375 814 L 1768 814 L 1768 744 Z Z" stroke-miterlimit="10"/></g><g transform="translate(-38,-62) scale(1,1)"><path fill="none" stroke="#000000" d="M 1768 769 L 2039.32958984375 769" stroke-miterlimit="10"/></g><g transform="translate(-38,-62) scale(1,1)"><path fill="none" stroke="#000000" d="M 1768 792 L 2039.32958984375 792" stroke-miterlimit="10"/></g><g transform="translate(-38,-62) scale(1,1)"><g><path fill="none" stroke="none"/><text fill="#000000" stroke="none" font-family="Arial" font-size="13px" font-style="normal" font-weight="bold" text-decoration="none" x="1865.01708984375" y="763.5">RssWebView</text></g></g><g transform="translate(-38,-62) scale(1,1)"><g><path fill="none" stroke="none"/><text fill="#000000" stroke="none" font-family="Arial" font-size="13px" font-style="normal" font-weight="normal" text-decoration="none" x="1773" y="786.5">-TAG: String = "RssWebView" {readOnly}</text><path fill="none" stroke="#000000" d="M 1773 786.5 L 2011.62109375 786.5" stroke-miterlimit="10"/></g></g><g transform="translate(-38,-62) scale(1,1)"><g><path fill="none" stroke="none"/><text fill="#000000" stroke="none" font-family="Arial" font-size="13px" font-style="normal" font-weight="normal" text-decoration="none" x="1773" y="809.5">#onCreate(savedInstanceState): void</text></g></g><g transform="translate(-38,-62) scale(1,1)"><path fill="none" stroke="#000000" d="M 1361 158 L 1327 231" stroke-miterlimit="10"/></g><g transform="translate(-38,-62) scale(1,1)"><path fill="none" stroke="#000000" d="M 1167 273 L 1119 269" stroke-miterlimit="10"/></g><g transform="translate(-38,-62) scale(1,1)"><rect fill="#C0C0C0" stroke="none" x="1759" y="223" width="403.138671875" height="145" opacity="0.2"/></g><g transform="translate(-38,-62) scale(1,1)"><rect fill="#ffffff" stroke="none" x="1752" y="216" width="403.138671875" height="145"/></g><g transform="translate(-38,-62) scale(1,1)"><path fill="none" stroke="#000000" d="M 1752 216 L 2155.138671875 216 L 2155.138671875 361 L 1752 361 L 1752 216 Z Z" stroke-miterlimit="10"/></g><g transform="translate(-38,-62) scale(1,1)"><path fill="none" stroke="#000000" d="M 1752 241 L 2155.138671875 241" stroke-miterlimit="10"/></g><g transform="translate(-38,-62) scale(1,1)"><path fill="none" stroke="#000000" d="M 1752 294 L 2155.138671875 294" stroke-miterlimit="10"/></g><g transform="translate(-38,-62) scale(1,1)"><g><path fill="none" stroke="none"/><text fill="#000000" stroke="none" font-family="Arial" font-size="13px" font-style="normal" font-weight="bold" text-decoration="none" x="1917.4384765625" y="235.5">RSSAdapter</text></g></g><g transform="translate(-38,-62) scale(1,1)"><g><path fill="none" stroke="none"/><text fill="#000000" stroke="none" font-family="Arial" font-size="13px" font-style="normal" font-weight="normal" text-decoration="none" x="1757" y="258.5">-List&lt;RSSFeed&gt; rssFeeds</text></g></g><g transform="translate(-38,-62) scale(1,1)"><g><path fill="none" stroke="none"/><text fill="#000000" stroke="none" font-family="Arial" font-size="13px" font-style="normal" font-weight="normal" text-decoration="none" x="1757" y="273.5">-Context context</text></g></g><g transform="translate(-38,-62) scale(1,1)"><g><path fill="none" stroke="none"/><text fill="#000000" stroke="none" font-family="Arial" font-size="13px" font-style="normal" font-weight="normal" text-decoration="none" x="1757" y="288.5">-String TAG  = "RSS ADAPTER"</text></g></g><g transform="translate(-38,-62) scale(1,1)"><g><path fill="none" stroke="none"/><text fill="#000000" stroke="none" font-family="Arial" font-size="13px" font-style="normal" font-weight="normal" text-decoration="none" x="1757" y="311.5">+getItemCount() : int()</text></g></g><g transform="translate(-38,-62) scale(1,1)"><g><path fill="none" stroke="none"/><text fill="#000000" stroke="none" font-family="Arial" font-size="13px" font-style="normal" font-weight="normal" text-decoration="none" x="1757" y="326.5">+onBindViewHolder(RSSViewHolder RSSViewHolder, int i)</text></g></g><g transform="translate(-38,-62) scale(1,1)"><g><path fill="none" stroke="none"/><text fill="#000000" stroke="none" font-family="Arial" font-size="13px" font-style="normal" font-weight="normal" text-decoration="none" x="1757" y="341.5">+onCreateViewHolder(ViewGroup viewGroup, int i): RSSViewHolder</text></g></g><g transform="translate(-38,-62) scale(1,1)"><rect fill="#C0C0C0" stroke="none" x="1919" y="599" width="235.50341796875" height="115" opacity="0.2"/></g><g transform="translate(-38,-62) scale(1,1)"><rect fill="#ffffff" stroke="none" x="1912" y="592" width="235.50341796875" height="115"/></g><g transform="translate(-38,-62) scale(1,1)"><path fill="none" stroke="#000000" d="M 1912 592 L 2147.50341796875 592 L 2147.50341796875 707 L 1912 707 L 1912 592 Z Z" stroke-miterlimit="10"/></g><g transform="translate(-38,-62) scale(1,1)"><path fill="none" stroke="#000000" d="M 1912 617 L 2147.50341796875 617" stroke-miterlimit="10"/></g><g transform="translate(-38,-62) scale(1,1)"><path fill="none" stroke="#000000" d="M 1912 685 L 2147.50341796875 685" stroke-miterlimit="10"/></g><g transform="translate(-38,-62) scale(1,1)"><g><path fill="none" stroke="none"/><text fill="#000000" stroke="none" font-family="Arial" font-size="13px" font-style="normal" font-weight="bold" text-decoration="none" x="1983.150390625" y="611.5">RSSViewHolder</text></g></g><g transform="translate(-38,-62) scale(1,1)"><g><path fill="none" stroke="none"/><text fill="#000000" stroke="none" font-family="Arial" font-size="13px" font-style="normal" font-weight="normal" text-decoration="none" x="1917" y="634.5">#TextView title</text></g></g><g transform="translate(-38,-62) scale(1,1)"><g><path fill="none" stroke="none"/><text fill="#000000" stroke="none" font-family="Arial" font-size="13px" font-style="normal" font-weight="normal" text-decoration="none" x="1917" y="649.5">#String link</text></g></g><g transform="translate(-38,-62) scale(1,1)"><g><path fill="none" stroke="none"/><text fill="#000000" stroke="none" font-family="Arial" font-size="13px" font-style="normal" font-weight="normal" text-decoration="none" x="1917" y="664.5">#TextView description</text></g></g><g transform="translate(-38,-62) scale(1,1)"><g><path fill="none" stroke="none"/><text fill="#000000" stroke="none" font-family="Arial" font-size="13px" font-style="normal" font-weight="normal" text-decoration="none" x="1917" y="679.5">#ImageView img</text></g></g><g transform="translate(-38,-62) scale(1,1)"><g><path fill="none" stroke="none"/><text fill="#000000" stroke="none" font-family="Arial" font-size="13px" font-style="normal" font-weight="normal" text-decoration="none" x="1917" y="702.5">«constructor»+RSSViewHolder(View v)</text></g></g><g transform="translate(-38,-62) scale(1,1)"><path fill="none" stroke="#000000" d="M 2017 591 L 1969 362" stroke-miterlimit="10"/></g><g transform="translate(-38,-62) scale(1,1)"><path fill="#FFFFFF" stroke="none" d="M 1981.4096906581242 380.16589050307374 L 1969 362 L 1964.9297520557714 383.6202007778027"/></g><g transform="translate(-38,-62) scale(1,1)"><path fill="none" stroke="#000000" d="M 1981.4096906581242 380.16589050307374 L 1969 362 L 1964.9297520557714 383.6202007778027 L 1981.4096906581242 380.16589050307374" stroke-miterlimit="10"/></g><g transform="translate(-38,-62) scale(1,1)"><path fill="none" stroke="#000000" d="M 1440 283 L 1751 286" stroke-miterlimit="10"/></g><g transform="translate(-38,-62) scale(1,1)"><rect fill="#C0C0C0" stroke="none" x="1839" y="471" width="77.64990234375" height="44" opacity="0.2"/></g><g transform="translate(-38,-62) scale(1,1)"><rect fill="#ffffff" stroke="none" x="1832" y="464" width="77.64990234375" height="44"/></g><g transform="translate(-38,-62) scale(1,1)"><path fill="none" stroke="#000000" d="M 1832 464 L 1909.64990234375 464 L 1909.64990234375 508 L 1832 508 L 1832 464 Z Z" stroke-miterlimit="10"/></g><g transform="translate(-38,-62) scale(1,1)"><path fill="none" stroke="#000000" d="M 1832 489 L 1909.64990234375 489" stroke-miterlimit="10"/></g><g transform="translate(-38,-62) scale(1,1)"><path fill="none" stroke="#000000" d="M 1832 499 L 1909.64990234375 499" stroke-miterlimit="10"/></g><g transform="translate(-38,-62) scale(1,1)"><g><path fill="none" stroke="none"/><text fill="#000000" stroke="none" font-family="Arial" font-size="13px" font-style="normal" font-weight="bold" text-decoration="none" x="1839.0390625" y="483.5">AsyncTask</text></g></g><g transform="translate(-38,-62) scale(1,1)"><path fill="none" stroke="#000000" d="M 1772 543 L 1831 509" stroke-miterlimit="10"/></g><g transform="translate(-38,-62) scale(1,1)"><path fill="#FFFFFF" stroke="none" d="M 1817.5931208038269 526.4429237864305 L 1831 509 L 1809.1858951127322 511.8539144989423"/></g><g transform="translate(-38,-62) scale(1,1)"><path fill="none" stroke="#000000" d="M 1817.5931208038269 526.4429237864305 L 1831 509 L 1809.1858951127322 511.8539144989423 L 1817.5931208038269 526.4429237864305" stroke-miterlimit="10"/></g><g transform="translate(-38,-62) scale(1,1)"><path fill="none" stroke="#000000" d="M 1887 362 L 1725 543" stroke-miterlimit="10"/></g><g transform="translate(-38,-62) scale(1,1)"><rect fill="#C0C0C0" stroke="none" x="871" y="823" width="53.052734375" height="44" opacity="0.2"/></g><g transform="translate(-38,-62) scale(1,1)"><rect fill="#ffffff" stroke="none" x="864" y="816" width="53.052734375" height="44"/></g><g transform="translate(-38,-62) scale(1,1)"><path fill="none" stroke="#000000" d="M 864 816 L 917.052734375 816 L 917.052734375 860 L 864 860 L 864 816 Z Z" stroke-miterlimit="10"/></g><g transform="translate(-38,-62) scale(1,1)"><path fill="none" stroke="#000000" d="M 864 841 L 917.052734375 841" stroke-miterlimit="10"/></g><g transform="translate(-38,-62) scale(1,1)"><path fill="none" stroke="#000000" d="M 864 851 L 917.052734375 851" stroke-miterlimit="10"/></g><g transform="translate(-38,-62) scale(1,1)"><g><path fill="none" stroke="none"/><text fill="#000000" stroke="none" font-family="Arial" font-size="13px" font-style="normal" font-weight="bold" text-decoration="none" x="870.286865234375" y="835.5">Logger</text></g></g><g transform="translate(-38,-62) scale(1,1)"><path fill="none" stroke="#000000" d="M 365 495 L 863 820" stroke-miterlimit="10"/></g><g transform="translate(-38,-62) scale(1,1)"><path fill="none" stroke="#000000" d="M 327 302 L 866 815" stroke-miterlimit="10"/></g><g transform="translate(-38,-62) scale(1,1)"><path fill="none" stroke="#000000" d="M 870 598 L 888 815" stroke-miterlimit="10"/></g><g transform="translate(-38,-62) scale(1,1)"><path fill="none" stroke="#000000" d="M 1265 333 L 907 815" stroke-miterlimit="10"/></g><g transform="translate(-38,-62) scale(1,1)"><path fill="none" stroke="#000000" d="M 1766 362 L 1448 488 L 918 820" stroke-miterlimit="10"/></g><g transform="translate(-38,-62) scale(1,1)"><path fill="none" stroke="#000000" d="M 1911 669 L 918 833" stroke-miterlimit="10"/></g><g transform="translate(-38,-62) scale(1,1)"><path fill="none" stroke="#000000" d="M 1527 645 L 918 830" stroke-miterlimit="10"/></g><g transform="translate(-38,-62) scale(1,1)"><path fill="none" stroke="#000000" d="M 1767 787 L 918 836" stroke-miterlimit="10"/></g><g transform="translate(-38,-62) scale(1,1)"><rect fill="#C0C0C0" stroke="none" x="55" y="455" width="71.12451171875" height="44" opacity="0.2"/></g><g transform="translate(-38,-62) scale(1,1)"><rect fill="#ffffff" stroke="none" x="48" y="448" width="71.12451171875" height="44"/></g><g transform="translate(-38,-62) scale(1,1)"><path fill="none" stroke="#000000" d="M 48 448 L 119.12451171875 448 L 119.12451171875 492 L 48 492 L 48 448 Z Z" stroke-miterlimit="10"/></g><g transform="translate(-38,-62) scale(1,1)"><path fill="none" stroke="#000000" d="M 48 473 L 119.12451171875 473" stroke-miterlimit="10"/></g><g transform="translate(-38,-62) scale(1,1)"><path fill="none" stroke="#000000" d="M 48 483 L 119.12451171875 483" stroke-miterlimit="10"/></g><g transform="translate(-38,-62) scale(1,1)"><g><path fill="none" stroke="none"/><text fill="#000000" stroke="none" font-family="Arial" font-size="13px" font-style="normal" font-weight="bold" text-decoration="none" x="53.931396484375" y="467.5">SyndFeed</text></g></g><g transform="translate(-38,-62) scale(1,1)"><path fill="none" stroke="#000000" d="M 223 463 L 120 468" stroke-miterlimit="10"/></g></g></svg>