<svg version="1.1" xmlns="http://www.w3.org/2000/svg" xmlns:xlink="http://www.w3.org/1999/xlink" width="1265.025390625" height="680"><defs/><g><g transform="translate(-70,-14) scale(1,1)"><path fill="#C0C0C0" stroke="none" d="M 1207 201 L 1254.72998046875 201 L 1254.72998046875 234 L 1207 234" opacity="0.2"/></g><g transform="translate(-70,-14) scale(1,1)"><path fill="#C0C0C0" stroke="none" d="M 1207 201 L 1217 191 L 1264.72998046875 191 L 1254.72998046875 201" opacity="0.2"/></g><g transform="translate(-70,-14) scale(1,1)"><path fill="#C0C0C0" stroke="none" d="M 1264.72998046875 191 L 1254.72998046875 201 L 1254.72998046875 234 L 1264.72998046875 224" opacity="0.2"/></g><g transform="translate(-70,-14) scale(1,1)"><path fill="#ffffff" stroke="none" d="M 1200 194 L 1247.72998046875 194 L 1247.72998046875 227 L 1200 227"/></g><g transform="translate(-70,-14) scale(1,1)"><path fill="#ffffff" stroke="none" d="M 1200 194 L 1210 184 L 1257.72998046875 184 L 1247.72998046875 194"/></g><g transform="translate(-70,-14) scale(1,1)"><path fill="#ffffff" stroke="none" d="M 1257.72998046875 184 L 1247.72998046875 194 L 1247.72998046875 227 L 1257.72998046875 217"/></g><g transform="translate(-70,-14) scale(1,1)"><path fill="none" stroke="#000000" d="M 1200 194 L 1247.72998046875 194 L 1247.72998046875 227 L 1200 227 L 1200 194" stroke-miterlimit="10"/></g><g transform="translate(-70,-14) scale(1,1)"><path fill="none" stroke="#000000" d="M 1200 194 L 1210 184 L 1257.72998046875 184 L 1247.72998046875 194 L 1200 194" stroke-miterlimit="10"/></g><g transform="translate(-70,-14) scale(1,1)"><path fill="none" stroke="#000000" d="M 1257.72998046875 184 L 1247.72998046875 194 L 1247.72998046875 227 L 1257.72998046875 217 L 1257.72998046875 184" stroke-miterlimit="10"/></g><g transform="translate(-70,-14) scale(1,1)"><g><path fill="none" stroke="none"/><text fill="#000000" stroke="none" font-family="Arial" font-size="13px" font-style="normal" font-weight="bold" text-decoration="none" x="1211.364990234375" y="213.5">TCP</text></g></g><g transform="translate(-70,-14) scale(1,1)"><path fill="#C0C0C0" stroke="none" d="M 1055 201 L 1102.72998046875 201 L 1102.72998046875 234 L 1055 234" opacity="0.2"/></g><g transform="translate(-70,-14) scale(1,1)"><path fill="#C0C0C0" stroke="none" d="M 1055 201 L 1065 191 L 1112.72998046875 191 L 1102.72998046875 201" opacity="0.2"/></g><g transform="translate(-70,-14) scale(1,1)"><path fill="#C0C0C0" stroke="none" d="M 1112.72998046875 191 L 1102.72998046875 201 L 1102.72998046875 234 L 1112.72998046875 224" opacity="0.2"/></g><g transform="translate(-70,-14) scale(1,1)"><path fill="#ffffff" stroke="none" d="M 1048 194 L 1095.72998046875 194 L 1095.72998046875 227 L 1048 227"/></g><g transform="translate(-70,-14) scale(1,1)"><path fill="#ffffff" stroke="none" d="M 1048 194 L 1058 184 L 1105.72998046875 184 L 1095.72998046875 194"/></g><g transform="translate(-70,-14) scale(1,1)"><path fill="#ffffff" stroke="none" d="M 1105.72998046875 184 L 1095.72998046875 194 L 1095.72998046875 227 L 1105.72998046875 217"/></g><g transform="translate(-70,-14) scale(1,1)"><path fill="none" stroke="#000000" d="M 1048 194 L 1095.72998046875 194 L 1095.72998046875 227 L 1048 227 L 1048 194" stroke-miterlimit="10"/></g><g transform="translate(-70,-14) scale(1,1)"><path fill="none" stroke="#000000" d="M 1048 194 L 1058 184 L 1105.72998046875 184 L 1095.72998046875 194 L 1048 194" stroke-miterlimit="10"/></g><g transform="translate(-70,-14) scale(1,1)"><path fill="none" stroke="#000000" d="M 1105.72998046875 184 L 1095.72998046875 194 L 1095.72998046875 227 L 1105.72998046875 217 L 1105.72998046875 184" stroke-miterlimit="10"/></g><g transform="translate(-70,-14) scale(1,1)"><g><path fill="none" stroke="none"/><text fill="#000000" stroke="none" font-family="Arial" font-size="13px" font-style="normal" font-weight="bold" text-decoration="none" x="1059.364990234375" y="213.5">TCP</text></g></g><g transform="translate(-70,-14) scale(1,1)"><path fill="#C0C0C0" stroke="none" d="M 383 233 L 430.72998046875 233 L 430.72998046875 266 L 383 266" opacity="0.2"/></g><g transform="translate(-70,-14) scale(1,1)"><path fill="#C0C0C0" stroke="none" d="M 383 233 L 393 223 L 440.72998046875 223 L 430.72998046875 233" opacity="0.2"/></g><g transform="translate(-70,-14) scale(1,1)"><path fill="#C0C0C0" stroke="none" d="M 440.72998046875 223 L 430.72998046875 233 L 430.72998046875 266 L 440.72998046875 256" opacity="0.2"/></g><g transform="translate(-70,-14) scale(1,1)"><path fill="#ffffff" stroke="none" d="M 376 226 L 423.72998046875 226 L 423.72998046875 259 L 376 259"/></g><g transform="translate(-70,-14) scale(1,1)"><path fill="#ffffff" stroke="none" d="M 376 226 L 386 216 L 433.72998046875 216 L 423.72998046875 226"/></g><g transform="translate(-70,-14) scale(1,1)"><path fill="#ffffff" stroke="none" d="M 433.72998046875 216 L 423.72998046875 226 L 423.72998046875 259 L 433.72998046875 249"/></g><g transform="translate(-70,-14) scale(1,1)"><path fill="none" stroke="#000000" d="M 376 226 L 423.72998046875 226 L 423.72998046875 259 L 376 259 L 376 226" stroke-miterlimit="10"/></g><g transform="translate(-70,-14) scale(1,1)"><path fill="none" stroke="#000000" d="M 376 226 L 386 216 L 433.72998046875 216 L 423.72998046875 226 L 376 226" stroke-miterlimit="10"/></g><g transform="translate(-70,-14) scale(1,1)"><path fill="none" stroke="#000000" d="M 433.72998046875 216 L 423.72998046875 226 L 423.72998046875 259 L 433.72998046875 249 L 433.72998046875 216" stroke-miterlimit="10"/></g><g transform="translate(-70,-14) scale(1,1)"><g><path fill="none" stroke="none"/><text fill="#000000" stroke="none" font-family="Arial" font-size="13px" font-style="normal" font-weight="bold" text-decoration="none" x="387.364990234375" y="245.5">TCP</text></g></g><g transform="translate(-70,-14) scale(1,1)"><rect fill="#C0C0C0" stroke="none" x="441" y="447" width="207.51904296875" height="44" opacity="0.2"/></g><g transform="translate(-70,-14) scale(1,1)"><rect fill="#ffffff" stroke="none" x="434" y="440" width="207.51904296875" height="44"/></g><g transform="translate(-70,-14) scale(1,1)"><path fill="none" stroke="#000000" d="M 434 440 L 641.51904296875 440 L 641.51904296875 484 L 434 484 L 434 440 Z Z" stroke-miterlimit="10"/></g><g transform="translate(-70,-14) scale(1,1)"><rect fill="#ffffff" stroke="none" x="424" y="447" width="20" height="10"/></g><g transform="translate(-70,-14) scale(1,1)"><path fill="none" stroke="#000000" d="M 424 447 L 444 447 L 444 457 L 424 457 L 424 447 Z Z" stroke-miterlimit="10"/></g><g transform="translate(-70,-14) scale(1,1)"><rect fill="#ffffff" stroke="none" x="424" y="467" width="20" height="10"/></g><g transform="translate(-70,-14) scale(1,1)"><path fill="none" stroke="#000000" d="M 424 467 L 444 467 L 444 477 L 424 477 L 424 467 Z Z" stroke-miterlimit="10"/></g><g transform="translate(-70,-14) scale(1,1)"><g><path fill="none" stroke="none"/><text fill="#000000" stroke="none" font-family="Arial" font-size="13px" font-style="normal" font-weight="normal" text-decoration="none" x="516.740478515625" y="457.5">«device»</text></g></g><g transform="translate(-70,-14) scale(1,1)"><g><path fill="none" stroke="none"/><text fill="#000000" stroke="none" font-family="Arial" font-size="13px" font-style="normal" font-weight="bold" text-decoration="none" x="488.201416015625" y="472.5">smartphone-anroid</text></g></g><g transform="translate(-70,-14) scale(1,1)"><rect fill="#C0C0C0" stroke="none" x="753" y="583" width="147.603515625" height="44" opacity="0.2"/></g><g transform="translate(-70,-14) scale(1,1)"><rect fill="#ffffff" stroke="none" x="746" y="576" width="147.603515625" height="44"/></g><g transform="translate(-70,-14) scale(1,1)"><path fill="none" stroke="#000000" d="M 746 576 L 893.603515625 576 L 893.603515625 620 L 746 620 L 746 576 Z Z" stroke-miterlimit="10"/></g><g transform="translate(-70,-14) scale(1,1)"><rect fill="#ffffff" stroke="none" x="736" y="583" width="20" height="10"/></g><g transform="translate(-70,-14) scale(1,1)"><path fill="none" stroke="#000000" d="M 736 583 L 756 583 L 756 593 L 736 593 L 736 583 Z Z" stroke-miterlimit="10"/></g><g transform="translate(-70,-14) scale(1,1)"><rect fill="#ffffff" stroke="none" x="736" y="603" width="20" height="10"/></g><g transform="translate(-70,-14) scale(1,1)"><path fill="none" stroke="#000000" d="M 736 603 L 756 603 L 756 613 L 736 613 L 736 603 Z Z" stroke-miterlimit="10"/></g><g transform="translate(-70,-14) scale(1,1)"><g><path fill="none" stroke="none"/><text fill="#000000" stroke="none" font-family="Arial" font-size="13px" font-style="normal" font-weight="normal" text-decoration="none" x="810.34814453125" y="593.5">«jar»</text></g></g><g transform="translate(-70,-14) scale(1,1)"><g><path fill="none" stroke="none"/><text fill="#000000" stroke="none" font-family="Arial" font-size="13px" font-style="normal" font-weight="bold" text-decoration="none" x="763.734130859375" y="608.5">appcompat-v7:26.1.0</text></g></g><g transform="translate(-70,-14) scale(1,1)"><rect fill="#C0C0C0" stroke="none" x="609" y="647" width="157.6962890625" height="44" opacity="0.2"/></g><g transform="translate(-70,-14) scale(1,1)"><rect fill="#ffffff" stroke="none" x="602" y="640" width="157.6962890625" height="44"/></g><g transform="translate(-70,-14) scale(1,1)"><path fill="none" stroke="#000000" d="M 602 640 L 759.6962890625 640 L 759.6962890625 684 L 602 684 L 602 640 Z Z" stroke-miterlimit="10"/></g><g transform="translate(-70,-14) scale(1,1)"><rect fill="#ffffff" stroke="none" x="592" y="647" width="20" height="10"/></g><g transform="translate(-70,-14) scale(1,1)"><path fill="none" stroke="#000000" d="M 592 647 L 612 647 L 612 657 L 592 657 L 592 647 Z Z" stroke-miterlimit="10"/></g><g transform="translate(-70,-14) scale(1,1)"><rect fill="#ffffff" stroke="none" x="592" y="667" width="20" height="10"/></g><g transform="translate(-70,-14) scale(1,1)"><path fill="none" stroke="#000000" d="M 592 667 L 612 667 L 612 677 L 592 677 L 592 667 Z Z" stroke-miterlimit="10"/></g><g transform="translate(-70,-14) scale(1,1)"><g><path fill="none" stroke="none"/><text fill="#000000" stroke="none" font-family="Arial" font-size="13px" font-style="normal" font-weight="bold" text-decoration="none" x="621.8955078125" y="659.5">constraint-layout:1.0.2</text></g></g><g transform="translate(-70,-14) scale(1,1)"><rect fill="#C0C0C0" stroke="none" x="801" y="511" width="141.78271484375" height="44" opacity="0.2"/></g><g transform="translate(-70,-14) scale(1,1)"><rect fill="#ffffff" stroke="none" x="794" y="504" width="141.78271484375" height="44"/></g><g transform="translate(-70,-14) scale(1,1)"><path fill="none" stroke="#000000" d="M 794 504 L 935.78271484375 504 L 935.78271484375 548 L 794 548 L 794 504 Z Z" stroke-miterlimit="10"/></g><g transform="translate(-70,-14) scale(1,1)"><rect fill="#ffffff" stroke="none" x="784" y="511" width="20" height="10"/></g><g transform="translate(-70,-14) scale(1,1)"><path fill="none" stroke="#000000" d="M 784 511 L 804 511 L 804 521 L 784 521 L 784 511 Z Z" stroke-miterlimit="10"/></g><g transform="translate(-70,-14) scale(1,1)"><rect fill="#ffffff" stroke="none" x="784" y="531" width="20" height="10"/></g><g transform="translate(-70,-14) scale(1,1)"><path fill="none" stroke="#000000" d="M 784 531 L 804 531 L 804 541 L 784 541 L 784 531 Z Z" stroke-miterlimit="10"/></g><g transform="translate(-70,-14) scale(1,1)"><g><path fill="none" stroke="none"/><text fill="#000000" stroke="none" font-family="Arial" font-size="13px" font-style="normal" font-weight="bold" text-decoration="none" x="813.168701171875" y="523.5">android-platform-26</text></g></g><g transform="translate(-70,-14) scale(1,1)"><rect fill="#C0C0C0" stroke="none" x="1001" y="455" width="133.9052734375" height="44" opacity="0.2"/></g><g transform="translate(-70,-14) scale(1,1)"><rect fill="#ffffff" stroke="none" x="994" y="448" width="133.9052734375" height="44"/></g><g transform="translate(-70,-14) scale(1,1)"><path fill="none" stroke="#000000" d="M 994 448 L 1127.9052734375 448 L 1127.9052734375 492 L 994 492 L 994 448 Z Z" stroke-miterlimit="10"/></g><g transform="translate(-70,-14) scale(1,1)"><rect fill="#ffffff" stroke="none" x="984" y="455" width="20" height="10"/></g><g transform="translate(-70,-14) scale(1,1)"><path fill="none" stroke="#000000" d="M 984 455 L 1004 455 L 1004 465 L 984 465 L 984 455 Z Z" stroke-miterlimit="10"/></g><g transform="translate(-70,-14) scale(1,1)"><rect fill="#ffffff" stroke="none" x="984" y="475" width="20" height="10"/></g><g transform="translate(-70,-14) scale(1,1)"><path fill="none" stroke="#000000" d="M 984 475 L 1004 475 L 1004 485 L 984 485 L 984 475 Z Z" stroke-miterlimit="10"/></g><g transform="translate(-70,-14) scale(1,1)"><g><path fill="none" stroke="none"/><text fill="#000000" stroke="none" font-family="Arial" font-size="13px" font-style="normal" font-weight="bold" text-decoration="none" x="1011.397705078125" y="467.5">cardview-v7:26.1.0</text></g></g><g transform="translate(-70,-14) scale(1,1)"><rect fill="#C0C0C0" stroke="none" x="113" y="527" width="156.3251953125" height="44" opacity="0.2"/></g><g transform="translate(-70,-14) scale(1,1)"><rect fill="#ffffff" stroke="none" x="106" y="520" width="156.3251953125" height="44"/></g><g transform="translate(-70,-14) scale(1,1)"><path fill="none" stroke="#000000" d="M 106 520 L 262.3251953125 520 L 262.3251953125 564 L 106 564 L 106 520 Z Z" stroke-miterlimit="10"/></g><g transform="translate(-70,-14) scale(1,1)"><rect fill="#ffffff" stroke="none" x="96" y="527" width="20" height="10"/></g><g transform="translate(-70,-14) scale(1,1)"><path fill="none" stroke="#000000" d="M 96 527 L 116 527 L 116 537 L 96 537 L 96 527 Z Z" stroke-miterlimit="10"/></g><g transform="translate(-70,-14) scale(1,1)"><rect fill="#ffffff" stroke="none" x="96" y="547" width="20" height="10"/></g><g transform="translate(-70,-14) scale(1,1)"><path fill="none" stroke="#000000" d="M 96 547 L 116 547 L 116 557 L 96 557 L 96 547 Z Z" stroke-miterlimit="10"/></g><g transform="translate(-70,-14) scale(1,1)"><g><path fill="none" stroke="none"/><text fill="#000000" stroke="none" font-family="Arial" font-size="13px" font-style="normal" font-weight="bold" text-decoration="none" x="124.4990234375" y="539.5">recyclerview-v7:26.1.0</text></g></g><g transform="translate(-70,-14) scale(1,1)"><rect fill="#C0C0C0" stroke="none" x="97" y="447" width="98.44091796875" height="44" opacity="0.2"/></g><g transform="translate(-70,-14) scale(1,1)"><rect fill="#ffffff" stroke="none" x="90" y="440" width="98.44091796875" height="44"/></g><g transform="translate(-70,-14) scale(1,1)"><path fill="none" stroke="#000000" d="M 90 440 L 188.44091796875 440 L 188.44091796875 484 L 90 484 L 90 440 Z Z" stroke-miterlimit="10"/></g><g transform="translate(-70,-14) scale(1,1)"><rect fill="#ffffff" stroke="none" x="80" y="447" width="20" height="10"/></g><g transform="translate(-70,-14) scale(1,1)"><path fill="none" stroke="#000000" d="M 80 447 L 100 447 L 100 457 L 80 457 L 80 447 Z Z" stroke-miterlimit="10"/></g><g transform="translate(-70,-14) scale(1,1)"><rect fill="#ffffff" stroke="none" x="80" y="467" width="20" height="10"/></g><g transform="translate(-70,-14) scale(1,1)"><path fill="none" stroke="#000000" d="M 80 467 L 100 467 L 100 477 L 80 477 L 80 467 Z Z" stroke-miterlimit="10"/></g><g transform="translate(-70,-14) scale(1,1)"><g><path fill="none" stroke="none"/><text fill="#000000" stroke="none" font-family="Arial" font-size="13px" font-style="normal" font-weight="bold" text-decoration="none" x="109.17822265625" y="459.5">retrofit-2.3.0</text></g></g><g transform="translate(-70,-14) scale(1,1)"><rect fill="#C0C0C0" stroke="none" x="593" y="223" width="182.99169921875" height="44" opacity="0.2"/></g><g transform="translate(-70,-14) scale(1,1)"><rect fill="#ffffff" stroke="none" x="586" y="216" width="182.99169921875" height="44"/></g><g transform="translate(-70,-14) scale(1,1)"><path fill="none" stroke="#000000" d="M 586 216 L 768.99169921875 216 L 768.99169921875 260 L 586 260 L 586 216 Z Z" stroke-miterlimit="10"/></g><g transform="translate(-70,-14) scale(1,1)"><rect fill="#ffffff" stroke="none" x="576" y="223" width="20" height="10"/></g><g transform="translate(-70,-14) scale(1,1)"><path fill="none" stroke="#000000" d="M 576 223 L 596 223 L 596 233 L 576 233 L 576 223 Z Z" stroke-miterlimit="10"/></g><g transform="translate(-70,-14) scale(1,1)"><rect fill="#ffffff" stroke="none" x="576" y="243" width="20" height="10"/></g><g transform="translate(-70,-14) scale(1,1)"><path fill="none" stroke="#000000" d="M 576 243 L 596 243 L 596 253 L 576 253 L 576 243 Z Z" stroke-miterlimit="10"/></g><g transform="translate(-70,-14) scale(1,1)"><g><path fill="none" stroke="none"/><text fill="#000000" stroke="none" font-family="Arial" font-size="13px" font-style="normal" font-weight="bold" text-decoration="none" x="604.813232421875" y="235.5">back-end-1.0.0REALEASE</text></g></g><g transform="translate(-70,-14) scale(1,1)"><path fill="#C0C0C0" stroke="none" d="M 614.7099609375 330.5 C 614.7099609375 324.1487248 619.8586857375 319 626.2099609375 319 C 632.5612361375 319 637.7099609375 324.1487248 637.7099609375 330.5 C 637.7099609375 336.8512752 632.5612361375 342 626.2099609375 342 C 619.8586857375 342 614.7099609375 336.8512752 614.7099609375 330.5 Z" opacity="0.2"/></g><g transform="translate(-70,-14) scale(1,1)"><path fill="none" stroke="#000000" d="M 629.4974098967916 327.6962096906699 A 11.5 11.5 0 0 1 608.5025901032084 318.3037903093301" stroke-miterlimit="10"/></g><g transform="translate(-70,-14) scale(1,1)"><path fill="#ffffff" stroke="none" d="M 610.7099609375 323.5 C 610.7099609375 318.8055792 614.5155401375 315 619.2099609375 315 C 623.9043817375 315 627.7099609375 318.8055792 627.7099609375 323.5 C 627.7099609375 328.1944208 623.9043817375 332 619.2099609375 332 C 614.5155401375 332 610.7099609375 328.1944208 610.7099609375 323.5 Z"/></g><g transform="translate(-70,-14) scale(1,1)"><path fill="none" stroke="#000000" d="M 610.7099609375 323.5 C 610.7099609375 318.8055792 614.5155401375 315 619.2099609375 315 C 623.9043817375 315 627.7099609375 318.8055792 627.7099609375 323.5 C 627.7099609375 328.1944208 623.9043817375 332 619.2099609375 332 C 614.5155401375 332 610.7099609375 328.1944208 610.7099609375 323.5 Z" stroke-miterlimit="10"/></g><g transform="translate(-70,-14) scale(1,1)"><g><path fill="none" stroke="none"/><text fill="#000000" stroke="none" font-family="Arial" font-size="13px" font-style="normal" font-weight="bold" text-decoration="none" x="601.87451171875" y="354.5">REST</text></g></g><g transform="translate(-70,-14) scale(1,1)"><path fill="none" stroke="#000000" d="M 660 261 L 630.7099609375 312.962890625" stroke-miterlimit="10"/></g><g transform="translate(-70,-14) scale(1,1)"><path fill="none" stroke="#000000" d="M 423 462 L 189 462" stroke-miterlimit="10" stroke-dasharray="3"/></g><g transform="translate(-70,-14) scale(1,1)"><path fill="none" stroke="#000000" d="M 199.16267485762415 457.790482243984 L 189 462 L 199.16267485762415 466.209517756016" stroke-miterlimit="10"/></g><g transform="translate(-70,-14) scale(1,1)"><path fill="none" stroke="#000000" d="M 431 485 L 263 523" stroke-miterlimit="10" stroke-dasharray="3"/></g><g transform="translate(-70,-14) scale(1,1)"><path fill="none" stroke="#000000" d="M 271.98357902127094 516.6521414659288 L 263 523 L 273.84096346072056 524.8637358298113" stroke-miterlimit="10"/></g><g transform="translate(-70,-14) scale(1,1)"><path fill="none" stroke="#000000" d="M 548 485 L 659 639" stroke-miterlimit="10" stroke-dasharray="3"/></g><g transform="translate(-70,-14) scale(1,1)"><path fill="none" stroke="#000000" d="M 649.6427649889007 633.2170809319983 L 659 639 L 656.4725769585325 628.2942943824585" stroke-miterlimit="10"/></g><g transform="translate(-70,-14) scale(1,1)"><path fill="none" stroke="#000000" d="M 580 485 L 766 575" stroke-miterlimit="10" stroke-dasharray="3"/></g><g transform="translate(-70,-14) scale(1,1)"><path fill="none" stroke="#000000" d="M 755.0184727471 574.3627722590669 L 766 575 L 758.6854756684636 566.7842995549155" stroke-miterlimit="10"/></g><g transform="translate(-70,-14) scale(1,1)"><path fill="none" stroke="#000000" d="M 643 484 L 783 511" stroke-miterlimit="10" stroke-dasharray="3"/></g><g transform="translate(-70,-14) scale(1,1)"><path fill="none" stroke="#000000" d="M 772.2240595400009 513.2088701189872 L 783 511 L 773.818352387176 504.94216646696833" stroke-miterlimit="10"/></g><g transform="translate(-70,-14) scale(1,1)"><path fill="none" stroke="#000000" d="M 643 464 L 983 469" stroke-miterlimit="10" stroke-dasharray="3"/></g><g transform="translate(-70,-14) scale(1,1)"><path fill="none" stroke="#000000" d="M 972.7765258891982 473.0596277053154 L 983 469 L 972.9003218494456 464.6415024084882" stroke-miterlimit="10"/></g><g transform="translate(-70,-14) scale(1,1)"><rect fill="#C0C0C0" stroke="none" x="385" y="191" width="98.44091796875" height="44" opacity="0.2"/></g><g transform="translate(-70,-14) scale(1,1)"><rect fill="#ffffff" stroke="none" x="378" y="184" width="98.44091796875" height="44"/></g><g transform="translate(-70,-14) scale(1,1)"><path fill="none" stroke="#000000" d="M 378 184 L 476.44091796875 184 L 476.44091796875 228 L 378 228 L 378 184 Z Z" stroke-miterlimit="10"/></g><g transform="translate(-70,-14) scale(1,1)"><rect fill="#ffffff" stroke="none" x="368" y="191" width="20" height="10"/></g><g transform="translate(-70,-14) scale(1,1)"><path fill="none" stroke="#000000" d="M 368 191 L 388 191 L 388 201 L 368 201 L 368 191 Z Z" stroke-miterlimit="10"/></g><g transform="translate(-70,-14) scale(1,1)"><rect fill="#ffffff" stroke="none" x="368" y="211" width="20" height="10"/></g><g transform="translate(-70,-14) scale(1,1)"><path fill="none" stroke="#000000" d="M 368 211 L 388 211 L 388 221 L 368 221 L 368 211 Z Z" stroke-miterlimit="10"/></g><g transform="translate(-70,-14) scale(1,1)"><g><path fill="none" stroke="none"/><text fill="#000000" stroke="none" font-family="Arial" font-size="13px" font-style="normal" font-weight="normal" text-decoration="none" x="417.766845703125" y="201.5">«jar»</text></g></g><g transform="translate(-70,-14) scale(1,1)"><g><path fill="none" stroke="none"/><text fill="#000000" stroke="none" font-family="Arial" font-size="13px" font-style="normal" font-weight="bold" text-decoration="none" x="400.418701171875" y="216.5">kafka_2.12</text></g></g><g transform="translate(-70,-14) scale(1,1)"><rect fill="#C0C0C0" stroke="none" x="985" y="159" width="125.92626953125" height="44" opacity="0.2"/></g><g transform="translate(-70,-14) scale(1,1)"><rect fill="#ffffff" stroke="none" x="978" y="152" width="125.92626953125" height="44"/></g><g transform="translate(-70,-14) scale(1,1)"><path fill="none" stroke="#000000" d="M 978 152 L 1103.92626953125 152 L 1103.92626953125 196 L 978 196 L 978 152 Z Z" stroke-miterlimit="10"/></g><g transform="translate(-70,-14) scale(1,1)"><rect fill="#ffffff" stroke="none" x="968" y="159" width="20" height="10"/></g><g transform="translate(-70,-14) scale(1,1)"><path fill="none" stroke="#000000" d="M 968 159 L 988 159 L 988 169 L 968 169 L 968 159 Z Z" stroke-miterlimit="10"/></g><g transform="translate(-70,-14) scale(1,1)"><rect fill="#ffffff" stroke="none" x="968" y="179" width="20" height="10"/></g><g transform="translate(-70,-14) scale(1,1)"><path fill="none" stroke="#000000" d="M 968 179 L 988 179 L 988 189 L 968 189 L 968 179 Z Z" stroke-miterlimit="10"/></g><g transform="translate(-70,-14) scale(1,1)"><g><path fill="none" stroke="none"/><text fill="#000000" stroke="none" font-family="Arial" font-size="13px" font-style="normal" font-weight="normal" text-decoration="none" x="1031.509521484375" y="169.5">«jar»</text></g></g><g transform="translate(-70,-14) scale(1,1)"><g><path fill="none" stroke="none"/><text fill="#000000" stroke="none" font-family="Arial" font-size="13px" font-style="normal" font-weight="bold" text-decoration="none" x="995.7373046875" y="184.5">postgresql-42.1.4</text></g></g><g transform="translate(-70,-14) scale(1,1)"><path fill="none" stroke="#000000" d="M 575 226 L 477 213" stroke-miterlimit="10" stroke-dasharray="3"/></g><g transform="translate(-70,-14) scale(1,1)"><path fill="none" stroke="#000000" d="M 487.6279786698349 210.16344057112585 L 477 213 L 486.52086619514176 218.50936538035066" stroke-miterlimit="10"/></g><g transform="translate(-70,-14) scale(1,1)"><path fill="none" stroke="#000000" d="M 770 221 L 967 186" stroke-miterlimit="10" stroke-dasharray="3"/></g><g transform="translate(-70,-14) scale(1,1)"><path fill="none" stroke="#000000" d="M 957.730369628643 191.9223266355728 L 967 186 L 956.2576641809054 183.63309882973587" stroke-miterlimit="10"/></g><g transform="translate(-70,-14) scale(1,1)"><path fill="none" stroke="#000000" d="M 548 439 L 613.6315789473684 335" stroke-miterlimit="10"/></g><g transform="translate(-70,-14) scale(1,1)"><path fill="#C0C0C0" stroke="none" d="M 183 225 L 230.72998046875 225 L 230.72998046875 258 L 183 258" opacity="0.2"/></g><g transform="translate(-70,-14) scale(1,1)"><path fill="#C0C0C0" stroke="none" d="M 183 225 L 193 215 L 240.72998046875 215 L 230.72998046875 225" opacity="0.2"/></g><g transform="translate(-70,-14) scale(1,1)"><path fill="#C0C0C0" stroke="none" d="M 240.72998046875 215 L 230.72998046875 225 L 230.72998046875 258 L 240.72998046875 248" opacity="0.2"/></g><g transform="translate(-70,-14) scale(1,1)"><path fill="#ffffff" stroke="none" d="M 176 218 L 223.72998046875 218 L 223.72998046875 251 L 176 251"/></g><g transform="translate(-70,-14) scale(1,1)"><path fill="#ffffff" stroke="none" d="M 176 218 L 186 208 L 233.72998046875 208 L 223.72998046875 218"/></g><g transform="translate(-70,-14) scale(1,1)"><path fill="#ffffff" stroke="none" d="M 233.72998046875 208 L 223.72998046875 218 L 223.72998046875 251 L 233.72998046875 241"/></g><g transform="translate(-70,-14) scale(1,1)"><path fill="none" stroke="#000000" d="M 176 218 L 223.72998046875 218 L 223.72998046875 251 L 176 251 L 176 218" stroke-miterlimit="10"/></g><g transform="translate(-70,-14) scale(1,1)"><path fill="none" stroke="#000000" d="M 176 218 L 186 208 L 233.72998046875 208 L 223.72998046875 218 L 176 218" stroke-miterlimit="10"/></g><g transform="translate(-70,-14) scale(1,1)"><path fill="none" stroke="#000000" d="M 233.72998046875 208 L 223.72998046875 218 L 223.72998046875 251 L 233.72998046875 241 L 233.72998046875 208" stroke-miterlimit="10"/></g><g transform="translate(-70,-14) scale(1,1)"><g><path fill="none" stroke="none"/><text fill="#000000" stroke="none" font-family="Arial" font-size="13px" font-style="normal" font-weight="bold" text-decoration="none" x="187.364990234375" y="237.5">TCP</text></g></g><g transform="translate(-70,-14) scale(1,1)"><path fill="none" stroke="#000000" d="M 375 237 L 236 231" stroke-miterlimit="10"/></g><g transform="translate(-70,-14) scale(1,1)"><rect fill="#C0C0C0" stroke="none" x="137" y="183" width="134.62255859375" height="44" opacity="0.2"/></g><g transform="translate(-70,-14) scale(1,1)"><rect fill="#ffffff" stroke="none" x="130" y="176" width="134.62255859375" height="44"/></g><g transform="translate(-70,-14) scale(1,1)"><path fill="none" stroke="#000000" d="M 130 176 L 264.62255859375 176 L 264.62255859375 220 L 130 220 L 130 176 Z Z" stroke-miterlimit="10"/></g><g transform="translate(-70,-14) scale(1,1)"><rect fill="#ffffff" stroke="none" x="120" y="183" width="20" height="10"/></g><g transform="translate(-70,-14) scale(1,1)"><path fill="none" stroke="#000000" d="M 120 183 L 140 183 L 140 193 L 120 193 L 120 183 Z Z" stroke-miterlimit="10"/></g><g transform="translate(-70,-14) scale(1,1)"><rect fill="#ffffff" stroke="none" x="120" y="203" width="20" height="10"/></g><g transform="translate(-70,-14) scale(1,1)"><path fill="none" stroke="#000000" d="M 120 203 L 140 203 L 140 213 L 120 213 L 120 203 Z Z" stroke-miterlimit="10"/></g><g transform="translate(-70,-14) scale(1,1)"><g><path fill="none" stroke="none"/><text fill="#000000" stroke="none" font-family="Arial" font-size="13px" font-style="normal" font-weight="normal" text-decoration="none" x="180.63720703125" y="193.5">«mom»</text></g></g><g transform="translate(-70,-14) scale(1,1)"><g><path fill="none" stroke="none"/><text fill="#000000" stroke="none" font-family="Arial" font-size="13px" font-style="normal" font-weight="bold" text-decoration="none" x="146.66455078125" y="208.5">apache-kafka-1.0.0</text></g></g><g transform="translate(-70,-14) scale(1,1)"><rect fill="#C0C0C0" stroke="none" x="977" y="303" width="98.44091796875" height="44" opacity="0.2"/></g><g transform="translate(-70,-14) scale(1,1)"><rect fill="#ffffff" stroke="none" x="970" y="296" width="98.44091796875" height="44"/></g><g transform="translate(-70,-14) scale(1,1)"><path fill="none" stroke="#000000" d="M 970 296 L 1068.44091796875 296 L 1068.44091796875 340 L 970 340 L 970 296 Z Z" stroke-miterlimit="10"/></g><g transform="translate(-70,-14) scale(1,1)"><rect fill="#ffffff" stroke="none" x="960" y="303" width="20" height="10"/></g><g transform="translate(-70,-14) scale(1,1)"><path fill="none" stroke="#000000" d="M 960 303 L 980 303 L 980 313 L 960 313 L 960 303 Z Z" stroke-miterlimit="10"/></g><g transform="translate(-70,-14) scale(1,1)"><rect fill="#ffffff" stroke="none" x="960" y="323" width="20" height="10"/></g><g transform="translate(-70,-14) scale(1,1)"><path fill="none" stroke="#000000" d="M 960 323 L 980 323 L 980 333 L 960 333 L 960 323 Z Z" stroke-miterlimit="10"/></g><g transform="translate(-70,-14) scale(1,1)"><g><path fill="none" stroke="none"/><text fill="#000000" stroke="none" font-family="Arial" font-size="13px" font-style="normal" font-weight="normal" text-decoration="none" x="1009.766845703125" y="313.5">«jar»</text></g></g><g transform="translate(-70,-14) scale(1,1)"><g><path fill="none" stroke="none"/><text fill="#000000" stroke="none" font-family="Arial" font-size="13px" font-style="normal" font-weight="bold" text-decoration="none" x="992.7900390625" y="328.5">rome-1.8.0</text></g></g><g transform="translate(-70,-14) scale(1,1)"><path fill="none" stroke="#000000" d="M 770 261 L 959 305" stroke-miterlimit="10" stroke-dasharray="3"/></g><g transform="translate(-70,-14) scale(1,1)"><path fill="none" stroke="#000000" d="M 948.147541051996 306.79558758680474 L 959 305 L 950.0564805264737 298.59582484416177" stroke-miterlimit="10"/></g><g transform="translate(-70,-14) scale(1,1)"><rect fill="#C0C0C0" stroke="none" x="273" y="31" width="263.8671875" height="44" opacity="0.2"/></g><g transform="translate(-70,-14) scale(1,1)"><rect fill="#ffffff" stroke="none" x="266" y="24" width="263.8671875" height="44"/></g><g transform="translate(-70,-14) scale(1,1)"><path fill="none" stroke="#000000" d="M 266 24 L 529.8671875 24 L 529.8671875 68 L 266 68 L 266 24 Z Z" stroke-miterlimit="10"/></g><g transform="translate(-70,-14) scale(1,1)"><rect fill="#ffffff" stroke="none" x="256" y="31" width="20" height="10"/></g><g transform="translate(-70,-14) scale(1,1)"><path fill="none" stroke="#000000" d="M 256 31 L 276 31 L 276 41 L 256 41 L 256 31 Z Z" stroke-miterlimit="10"/></g><g transform="translate(-70,-14) scale(1,1)"><rect fill="#ffffff" stroke="none" x="256" y="51" width="20" height="10"/></g><g transform="translate(-70,-14) scale(1,1)"><path fill="none" stroke="#000000" d="M 256 51 L 276 51 L 276 61 L 256 61 L 256 51 Z Z" stroke-miterlimit="10"/></g><g transform="translate(-70,-14) scale(1,1)"><g><path fill="none" stroke="none"/><text fill="#000000" stroke="none" font-family="Arial" font-size="13px" font-style="normal" font-weight="normal" text-decoration="none" x="388.47998046875" y="41.5">«jar»</text></g></g><g transform="translate(-70,-14) scale(1,1)"><g><path fill="none" stroke="none"/><text fill="#000000" stroke="none" font-family="Arial" font-size="13px" font-style="normal" font-weight="bold" text-decoration="none" x="287.326904296875" y="56.5">spring-boot-starter-web-1.5.8.RELEASE</text></g></g><g transform="translate(-70,-14) scale(1,1)"><rect fill="#C0C0C0" stroke="none" x="609" y="31" width="234.25537109375" height="44" opacity="0.2"/></g><g transform="translate(-70,-14) scale(1,1)"><rect fill="#ffffff" stroke="none" x="602" y="24" width="234.25537109375" height="44"/></g><g transform="translate(-70,-14) scale(1,1)"><path fill="none" stroke="#000000" d="M 602 24 L 836.25537109375 24 L 836.25537109375 68 L 602 68 L 602 24 Z Z" stroke-miterlimit="10"/></g><g transform="translate(-70,-14) scale(1,1)"><rect fill="#ffffff" stroke="none" x="592" y="31" width="20" height="10"/></g><g transform="translate(-70,-14) scale(1,1)"><path fill="none" stroke="#000000" d="M 592 31 L 612 31 L 612 41 L 592 41 L 592 31 Z Z" stroke-miterlimit="10"/></g><g transform="translate(-70,-14) scale(1,1)"><rect fill="#ffffff" stroke="none" x="592" y="51" width="20" height="10"/></g><g transform="translate(-70,-14) scale(1,1)"><path fill="none" stroke="#000000" d="M 592 51 L 612 51 L 612 61 L 592 61 L 592 51 Z Z" stroke-miterlimit="10"/></g><g transform="translate(-70,-14) scale(1,1)"><g><path fill="none" stroke="none"/><text fill="#000000" stroke="none" font-family="Arial" font-size="13px" font-style="normal" font-weight="normal" text-decoration="none" x="709.674072265625" y="41.5">«jar»</text></g></g><g transform="translate(-70,-14) scale(1,1)"><g><path fill="none" stroke="none"/><text fill="#000000" stroke="none" font-family="Arial" font-size="13px" font-style="normal" font-weight="bold" text-decoration="none" x="622.609619140625" y="56.5">spring-boot-starter-1.5.8.RELEASE</text></g></g><g transform="translate(-70,-14) scale(1,1)"><rect fill="#C0C0C0" stroke="none" x="889" y="63" width="108.59716796875" height="44" opacity="0.2"/></g><g transform="translate(-70,-14) scale(1,1)"><rect fill="#ffffff" stroke="none" x="882" y="56" width="108.59716796875" height="44"/></g><g transform="translate(-70,-14) scale(1,1)"><path fill="none" stroke="#000000" d="M 882 56 L 990.59716796875 56 L 990.59716796875 100 L 882 100 L 882 56 Z Z" stroke-miterlimit="10"/></g><g transform="translate(-70,-14) scale(1,1)"><rect fill="#ffffff" stroke="none" x="872" y="63" width="20" height="10"/></g><g transform="translate(-70,-14) scale(1,1)"><path fill="none" stroke="#000000" d="M 872 63 L 892 63 L 892 73 L 872 73 L 872 63 Z Z" stroke-miterlimit="10"/></g><g transform="translate(-70,-14) scale(1,1)"><rect fill="#ffffff" stroke="none" x="872" y="83" width="20" height="10"/></g><g transform="translate(-70,-14) scale(1,1)"><path fill="none" stroke="#000000" d="M 872 83 L 892 83 L 892 93 L 872 93 L 872 83 Z Z" stroke-miterlimit="10"/></g><g transform="translate(-70,-14) scale(1,1)"><g><path fill="none" stroke="none"/><text fill="#000000" stroke="none" font-family="Arial" font-size="13px" font-style="normal" font-weight="normal" text-decoration="none" x="926.844970703125" y="73.5">«jar»</text></g></g><g transform="translate(-70,-14) scale(1,1)"><g><path fill="none" stroke="none"/><text fill="#000000" stroke="none" font-family="Arial" font-size="13px" font-style="normal" font-weight="bold" text-decoration="none" x="898.66455078125" y="88.5">slf4j-api-1.7.25</text></g></g><g transform="translate(-70,-14) scale(1,1)"><path fill="none" stroke="#000000" d="M 638 215 L 426 69" stroke-miterlimit="10" stroke-dasharray="3"/></g><g transform="translate(-70,-14) scale(1,1)"><path fill="none" stroke="#000000" d="M 436.757448202844 71.2972392481256 L 426 69 L 431.9822711221365 78.23105802285153" stroke-miterlimit="10"/></g><g transform="translate(-70,-14) scale(1,1)"><path fill="none" stroke="#000000" d="M 677 215 L 709 69" stroke-miterlimit="10" stroke-dasharray="3"/></g><g transform="translate(-70,-14) scale(1,1)"><path fill="none" stroke="#000000" d="M 710.9361229207533 79.8282698542165 L 709 69 L 702.712302604041 78.0257886889097" stroke-miterlimit="10"/></g><g transform="translate(-70,-14) scale(1,1)"><path fill="none" stroke="#000000" d="M 709 215 L 894 101" stroke-miterlimit="10" stroke-dasharray="3"/></g><g transform="translate(-70,-14) scale(1,1)"><path fill="none" stroke="#000000" d="M 887.5564451378068 109.91518932709263 L 894 101 L 883.1397278332465 102.74770949074478" stroke-miterlimit="10"/></g><g transform="translate(-70,-14) scale(1,1)"><rect fill="#C0C0C0" stroke="none" x="169" y="615" width="146.87353515625" height="44" opacity="0.2"/></g><g transform="translate(-70,-14) scale(1,1)"><rect fill="#ffffff" stroke="none" x="162" y="608" width="146.87353515625" height="44"/></g><g transform="translate(-70,-14) scale(1,1)"><path fill="none" stroke="#000000" d="M 162 608 L 308.87353515625 608 L 308.87353515625 652 L 162 652 L 162 608 Z Z" stroke-miterlimit="10"/></g><g transform="translate(-70,-14) scale(1,1)"><rect fill="#ffffff" stroke="none" x="152" y="615" width="20" height="10"/></g><g transform="translate(-70,-14) scale(1,1)"><path fill="none" stroke="#000000" d="M 152 615 L 172 615 L 172 625 L 152 625 L 152 615 Z Z" stroke-miterlimit="10"/></g><g transform="translate(-70,-14) scale(1,1)"><rect fill="#ffffff" stroke="none" x="152" y="635" width="20" height="10"/></g><g transform="translate(-70,-14) scale(1,1)"><path fill="none" stroke="#000000" d="M 152 635 L 172 635 L 172 645 L 152 645 L 152 635 Z Z" stroke-miterlimit="10"/></g><g transform="translate(-70,-14) scale(1,1)"><g><path fill="none" stroke="none"/><text fill="#000000" stroke="none" font-family="Arial" font-size="13px" font-style="normal" font-weight="bold" text-decoration="none" x="180.819580078125" y="627.5">converter-gson:2.3.0</text></g></g><g transform="translate(-70,-14) scale(1,1)"><rect fill="#C0C0C0" stroke="none" x="401" y="623" width="132.4326171875" height="44" opacity="0.2"/></g><g transform="translate(-70,-14) scale(1,1)"><rect fill="#ffffff" stroke="none" x="394" y="616" width="132.4326171875" height="44"/></g><g transform="translate(-70,-14) scale(1,1)"><path fill="none" stroke="#000000" d="M 394 616 L 526.4326171875 616 L 526.4326171875 660 L 394 660 L 394 616 Z Z" stroke-miterlimit="10"/></g><g transform="translate(-70,-14) scale(1,1)"><rect fill="#ffffff" stroke="none" x="384" y="623" width="20" height="10"/></g><g transform="translate(-70,-14) scale(1,1)"><path fill="none" stroke="#000000" d="M 384 623 L 404 623 L 404 633 L 384 633 L 384 623 Z Z" stroke-miterlimit="10"/></g><g transform="translate(-70,-14) scale(1,1)"><rect fill="#ffffff" stroke="none" x="384" y="643" width="20" height="10"/></g><g transform="translate(-70,-14) scale(1,1)"><path fill="none" stroke="#000000" d="M 384 643 L 404 643 L 404 653 L 384 653 L 384 643 Z Z" stroke-miterlimit="10"/></g><g transform="translate(-70,-14) scale(1,1)"><g><path fill="none" stroke="none"/><text fill="#000000" stroke="none" font-family="Arial" font-size="13px" font-style="normal" font-weight="bold" text-decoration="none" x="412.102294921875" y="635.5">customtabs:26.1.0</text></g></g><g transform="translate(-70,-14) scale(1,1)"><path fill="none" stroke="#000000" d="M 522 485 L 465 615" stroke-miterlimit="10" stroke-dasharray="3"/></g><g transform="translate(-70,-14) scale(1,1)"><path fill="none" stroke="#000000" d="M 465.22568366712767 604.0023153853917 L 465 615 L 472.9361198197695 607.3830450830885" stroke-miterlimit="10"/></g><g transform="translate(-70,-14) scale(1,1)"><path fill="none" stroke="#000000" d="M 491 485 L 271 607" stroke-miterlimit="10" stroke-dasharray="3"/></g><g transform="translate(-70,-14) scale(1,1)"><path fill="none" stroke="#000000" d="M 277.84610426181484 598.3900722165421 L 271 607 L 281.92906506944894 605.7527884270298" stroke-miterlimit="10"/></g><g transform="translate(-70,-14) scale(1,1)"><rect fill="#C0C0C0" stroke="none" x="1209" y="159" width="123.025390625" height="44" opacity="0.2"/></g><g transform="translate(-70,-14) scale(1,1)"><rect fill="#ffffff" stroke="none" x="1202" y="152" width="123.025390625" height="44"/></g><g transform="translate(-70,-14) scale(1,1)"><path fill="none" stroke="#000000" d="M 1202 152 L 1325.025390625 152 L 1325.025390625 196 L 1202 196 L 1202 152 Z Z" stroke-miterlimit="10"/></g><g transform="translate(-70,-14) scale(1,1)"><rect fill="#ffffff" stroke="none" x="1192" y="159" width="20" height="10"/></g><g transform="translate(-70,-14) scale(1,1)"><path fill="none" stroke="#000000" d="M 1192 159 L 1212 159 L 1212 169 L 1192 169 L 1192 159 Z Z" stroke-miterlimit="10"/></g><g transform="translate(-70,-14) scale(1,1)"><rect fill="#ffffff" stroke="none" x="1192" y="179" width="20" height="10"/></g><g transform="translate(-70,-14) scale(1,1)"><path fill="none" stroke="#000000" d="M 1192 179 L 1212 179 L 1212 189 L 1192 189 L 1192 179 Z Z" stroke-miterlimit="10"/></g><g transform="translate(-70,-14) scale(1,1)"><g><path fill="none" stroke="none"/><text fill="#000000" stroke="none" font-family="Arial" font-size="13px" font-style="normal" font-weight="normal" text-decoration="none" x="1234.536865234375" y="169.5">«database»</text></g></g><g transform="translate(-70,-14) scale(1,1)"><g><path fill="none" stroke="none"/><text fill="#000000" stroke="none" font-family="Arial" font-size="13px" font-style="normal" font-weight="bold" text-decoration="none" x="1219.37548828125" y="184.5">postgresSQL-9.4</text></g></g><g transform="translate(-70,-14) scale(1,1)"><path fill="none" stroke="#000000" d="M 1108 206 L 1199 206" stroke-miterlimit="10"/></g><g transform="translate(-70,-14) scale(1,1)"><g><path fill="none" stroke="none"/><text fill="#000000" stroke="none" font-family="Arial" font-size="13px" font-style="normal" font-weight="normal" text-decoration="none" x="1134.5" y="197.5">+5432</text></g></g><g transform="translate(-70,-14) scale(1,1)"><g><path fill="none" stroke="none"/><text fill="#000000" stroke="none" font-family="Arial" font-size="13px" font-style="normal" font-weight="normal" text-decoration="none" x="1134.5" y="182.5">«port»</text></g></g><g transform="translate(-70,-14) scale(1,1)"><rect fill="#C0C0C0" stroke="none" x="137" y="375" width="98.44091796875" height="44" opacity="0.2"/></g><g transform="translate(-70,-14) scale(1,1)"><rect fill="#ffffff" stroke="none" x="130" y="368" width="98.44091796875" height="44"/></g><g transform="translate(-70,-14) scale(1,1)"><path fill="none" stroke="#000000" d="M 130 368 L 228.44091796875 368 L 228.44091796875 412 L 130 412 L 130 368 Z Z" stroke-miterlimit="10"/></g><g transform="translate(-70,-14) scale(1,1)"><rect fill="#ffffff" stroke="none" x="120" y="375" width="20" height="10"/></g><g transform="translate(-70,-14) scale(1,1)"><path fill="none" stroke="#000000" d="M 120 375 L 140 375 L 140 385 L 120 385 L 120 375 Z Z" stroke-miterlimit="10"/></g><g transform="translate(-70,-14) scale(1,1)"><rect fill="#ffffff" stroke="none" x="120" y="395" width="20" height="10"/></g><g transform="translate(-70,-14) scale(1,1)"><path fill="none" stroke="#000000" d="M 120 395 L 140 395 L 140 405 L 120 405 L 120 395 Z Z" stroke-miterlimit="10"/></g><g transform="translate(-70,-14) scale(1,1)"><g><path fill="none" stroke="none"/><text fill="#000000" stroke="none" font-family="Arial" font-size="13px" font-style="normal" font-weight="bold" text-decoration="none" x="152.431396484375" y="387.5">JavaJRE-8</text></g></g><g transform="translate(-70,-14) scale(1,1)"><path fill="none" stroke="#000000" d="M 597 261 L 229 373" stroke-miterlimit="10" stroke-dasharray="3"/></g><g transform="translate(-70,-14) scale(1,1)"><path fill="none" stroke="#000000" d="M 237.49671560007252 366.01388348139795 L 229 373 L 239.94801558308765 374.06815485416195" stroke-miterlimit="10"/></g></g></svg>