<svg version="1.1" xmlns="http://www.w3.org/2000/svg" xmlns:xlink="http://www.w3.org/1999/xlink" width="892" height="539"><defs/><g><g transform="translate(-54,-14) scale(1,1)"><path fill="#C0C0C0" stroke="none" d="M 71 41 L 380 41 L 380 334 L 71 334" opacity="0.2"/></g><g transform="translate(-54,-14) scale(1,1)"><path fill="#C0C0C0" stroke="none" d="M 71 41 L 81 31 L 390 31 L 380 41" opacity="0.2"/></g><g transform="translate(-54,-14) scale(1,1)"><path fill="#C0C0C0" stroke="none" d="M 390 31 L 380 41 L 380 334 L 390 324" opacity="0.2"/></g><g transform="translate(-54,-14) scale(1,1)"><path fill="#ffffff" stroke="none" d="M 64 34 L 373 34 L 373 327 L 64 327"/></g><g transform="translate(-54,-14) scale(1,1)"><path fill="#ffffff" stroke="none" d="M 64 34 L 74 24 L 383 24 L 373 34"/></g><g transform="translate(-54,-14) scale(1,1)"><path fill="#ffffff" stroke="none" d="M 383 24 L 373 34 L 373 327 L 383 317"/></g><g transform="translate(-54,-14) scale(1,1)"><path fill="none" stroke="#000000" d="M 64 34 L 373 34 L 373 327 L 64 327 L 64 34" stroke-miterlimit="10"/></g><g transform="translate(-54,-14) scale(1,1)"><path fill="none" stroke="#000000" d="M 64 34 L 74 24 L 383 24 L 373 34 L 64 34" stroke-miterlimit="10"/></g><g transform="translate(-54,-14) scale(1,1)"><path fill="none" stroke="#000000" d="M 383 24 L 373 34 L 373 327 L 383 317 L 383 24" stroke-miterlimit="10"/></g><g transform="translate(-54,-14) scale(1,1)"><g><path fill="none" stroke="none"/><text fill="#000000" stroke="none" font-family="Arial" font-size="13px" font-style="normal" font-weight="normal" text-decoration="none" x="199.484130859375" y="51.5">«host»</text></g></g><g transform="translate(-54,-14) scale(1,1)"><g><path fill="none" stroke="none"/><text fill="#000000" stroke="none" font-family="Arial" font-size="13px" font-style="normal" font-weight="bold" text-decoration="none" x="131.919677734375" y="66.5">back-int.eight.inside.esiag.info</text></g></g><g transform="translate(-54,-14) scale(1,1)"><rect fill="#C0C0C0" stroke="none" x="129" y="111" width="181.54443359375" height="44" opacity="0.2"/></g><g transform="translate(-54,-14) scale(1,1)"><rect fill="#ffffff" stroke="none" x="122" y="104" width="181.54443359375" height="44"/></g><g transform="translate(-54,-14) scale(1,1)"><path fill="none" stroke="#000000" d="M 122 104 L 303.54443359375 104 L 303.54443359375 148 L 122 148 L 122 104 Z Z" stroke-miterlimit="10"/></g><g transform="translate(-54,-14) scale(1,1)"><rect fill="#ffffff" stroke="none" x="112" y="111" width="20" height="10"/></g><g transform="translate(-54,-14) scale(1,1)"><path fill="none" stroke="#000000" d="M 112 111 L 132 111 L 132 121 L 112 121 L 112 111 Z Z" stroke-miterlimit="10"/></g><g transform="translate(-54,-14) scale(1,1)"><rect fill="#ffffff" stroke="none" x="112" y="131" width="20" height="10"/></g><g transform="translate(-54,-14) scale(1,1)"><path fill="none" stroke="#000000" d="M 112 131 L 132 131 L 132 141 L 112 141 L 112 131 Z Z" stroke-miterlimit="10"/></g><g transform="translate(-54,-14) scale(1,1)"><g><path fill="none" stroke="none"/><text fill="#000000" stroke="none" font-family="Arial" font-size="13px" font-style="normal" font-weight="normal" text-decoration="none" x="203.318603515625" y="121.5">«jar»</text></g></g><g transform="translate(-54,-14) scale(1,1)"><g><path fill="none" stroke="none"/><text fill="#000000" stroke="none" font-family="Arial" font-size="13px" font-style="normal" font-weight="bold" text-decoration="none" x="144.425048828125" y="136.5">back-end-1.0.0RELEASE</text></g></g><g transform="translate(-54,-14) scale(1,1)"><rect fill="#C0C0C0" stroke="none" x="161" y="167" width="98.44091796875" height="44" opacity="0.2"/></g><g transform="translate(-54,-14) scale(1,1)"><rect fill="#ffffff" stroke="none" x="154" y="160" width="98.44091796875" height="44"/></g><g transform="translate(-54,-14) scale(1,1)"><path fill="none" stroke="#000000" d="M 154 160 L 252.44091796875 160 L 252.44091796875 204 L 154 204 L 154 160 Z Z" stroke-miterlimit="10"/></g><g transform="translate(-54,-14) scale(1,1)"><rect fill="#ffffff" stroke="none" x="144" y="167" width="20" height="10"/></g><g transform="translate(-54,-14) scale(1,1)"><path fill="none" stroke="#000000" d="M 144 167 L 164 167 L 164 177 L 144 177 L 144 167 Z Z" stroke-miterlimit="10"/></g><g transform="translate(-54,-14) scale(1,1)"><rect fill="#ffffff" stroke="none" x="144" y="187" width="20" height="10"/></g><g transform="translate(-54,-14) scale(1,1)"><path fill="none" stroke="#000000" d="M 144 187 L 164 187 L 164 197 L 144 197 L 144 187 Z Z" stroke-miterlimit="10"/></g><g transform="translate(-54,-14) scale(1,1)"><g><path fill="none" stroke="none"/><text fill="#000000" stroke="none" font-family="Arial" font-size="13px" font-style="normal" font-weight="bold" text-decoration="none" x="176.431396484375" y="179.5">JavaJRE-8</text></g></g><g transform="translate(-54,-14) scale(1,1)"><path fill="#C0C0C0" stroke="none" d="M 311 513 L 455.51904296875 513 L 455.51904296875 549 L 311 549" opacity="0.2"/></g><g transform="translate(-54,-14) scale(1,1)"><path fill="#C0C0C0" stroke="none" d="M 311 513 L 321 503 L 465.51904296875 503 L 455.51904296875 513" opacity="0.2"/></g><g transform="translate(-54,-14) scale(1,1)"><path fill="#C0C0C0" stroke="none" d="M 465.51904296875 503 L 455.51904296875 513 L 455.51904296875 549 L 465.51904296875 539" opacity="0.2"/></g><g transform="translate(-54,-14) scale(1,1)"><path fill="#ffffff" stroke="none" d="M 304 506 L 448.51904296875 506 L 448.51904296875 542 L 304 542"/></g><g transform="translate(-54,-14) scale(1,1)"><path fill="#ffffff" stroke="none" d="M 304 506 L 314 496 L 458.51904296875 496 L 448.51904296875 506"/></g><g transform="translate(-54,-14) scale(1,1)"><path fill="#ffffff" stroke="none" d="M 458.51904296875 496 L 448.51904296875 506 L 448.51904296875 542 L 458.51904296875 532"/></g><g transform="translate(-54,-14) scale(1,1)"><path fill="none" stroke="#000000" d="M 304 506 L 448.51904296875 506 L 448.51904296875 542 L 304 542 L 304 506" stroke-miterlimit="10"/></g><g transform="translate(-54,-14) scale(1,1)"><path fill="none" stroke="#000000" d="M 304 506 L 314 496 L 458.51904296875 496 L 448.51904296875 506 L 304 506" stroke-miterlimit="10"/></g><g transform="translate(-54,-14) scale(1,1)"><path fill="none" stroke="#000000" d="M 458.51904296875 496 L 448.51904296875 506 L 448.51904296875 542 L 458.51904296875 532 L 458.51904296875 496" stroke-miterlimit="10"/></g><g transform="translate(-54,-14) scale(1,1)"><g><path fill="none" stroke="none"/><text fill="#000000" stroke="none" font-family="Arial" font-size="13px" font-style="normal" font-weight="normal" text-decoration="none" x="349.302734375" y="523.5">«firewall»</text></g></g><g transform="translate(-54,-14) scale(1,1)"><g><path fill="none" stroke="none"/><text fill="#000000" stroke="none" font-family="Arial" font-size="13px" font-style="normal" font-weight="bold" text-decoration="none" x="314.24462890625" y="538.5">eight.inside.esiag.info</text></g></g><g transform="translate(-54,-14) scale(1,1)"><path fill="#C0C0C0" stroke="none" d="M 631 249 L 932 249 L 932 454 L 631 454" opacity="0.2"/></g><g transform="translate(-54,-14) scale(1,1)"><path fill="#C0C0C0" stroke="none" d="M 631 249 L 641 239 L 942 239 L 932 249" opacity="0.2"/></g><g transform="translate(-54,-14) scale(1,1)"><path fill="#C0C0C0" stroke="none" d="M 942 239 L 932 249 L 932 454 L 942 444" opacity="0.2"/></g><g transform="translate(-54,-14) scale(1,1)"><path fill="#ffffff" stroke="none" d="M 624 242 L 925 242 L 925 447 L 624 447"/></g><g transform="translate(-54,-14) scale(1,1)"><path fill="#ffffff" stroke="none" d="M 624 242 L 634 232 L 935 232 L 925 242"/></g><g transform="translate(-54,-14) scale(1,1)"><path fill="#ffffff" stroke="none" d="M 935 232 L 925 242 L 925 447 L 935 437"/></g><g transform="translate(-54,-14) scale(1,1)"><path fill="none" stroke="#000000" d="M 624 242 L 925 242 L 925 447 L 624 447 L 624 242" stroke-miterlimit="10"/></g><g transform="translate(-54,-14) scale(1,1)"><path fill="none" stroke="#000000" d="M 624 242 L 634 232 L 935 232 L 925 242 L 624 242" stroke-miterlimit="10"/></g><g transform="translate(-54,-14) scale(1,1)"><path fill="none" stroke="#000000" d="M 935 232 L 925 242 L 925 447 L 935 437 L 935 232" stroke-miterlimit="10"/></g><g transform="translate(-54,-14) scale(1,1)"><g><path fill="none" stroke="none"/><text fill="#000000" stroke="none" font-family="Arial" font-size="13px" font-style="normal" font-weight="normal" text-decoration="none" x="748.98095703125" y="259.5">«device»</text></g></g><g transform="translate(-54,-14) scale(1,1)"><g><path fill="none" stroke="none"/><text fill="#000000" stroke="none" font-family="Arial" font-size="13px" font-style="normal" font-weight="bold" text-decoration="none" x="716.826904296875" y="274.5">smartphone-android</text></g></g><g transform="translate(-54,-14) scale(1,1)"><path fill="none" stroke="#000000" d="M 294 329 L 370 495" stroke-miterlimit="10"/></g><g transform="translate(-54,-14) scale(1,1)"><g><path fill="none" stroke="none"/><text fill="#000000" stroke="none" font-family="Arial" font-size="13px" font-style="normal" font-weight="normal" text-decoration="none" x="326.5" y="411.5">+8080</text></g></g><g transform="translate(-54,-14) scale(1,1)"><g><path fill="none" stroke="none"/><text fill="#000000" stroke="none" font-family="Arial" font-size="13px" font-style="normal" font-weight="normal" text-decoration="none" x="326.5" y="388.5">«port»</text></g></g><g transform="translate(-54,-14) scale(1,1)"><path fill="none" stroke="#000000" d="M 623 410 L 434 495" stroke-miterlimit="10"/></g><g transform="translate(-54,-14) scale(1,1)"><g><path fill="none" stroke="none"/><text fill="#000000" stroke="none" font-family="Arial" font-size="13px" font-style="normal" font-weight="normal" text-decoration="none" x="522.5" y="471.5">+80</text></g></g><g transform="translate(-54,-14) scale(1,1)"><g><path fill="none" stroke="none"/><text fill="#000000" stroke="none" font-family="Arial" font-size="13px" font-style="normal" font-weight="normal" text-decoration="none" x="521.5" y="485.5">«port»</text></g></g><g transform="translate(-54,-14) scale(1,1)"><rect fill="#C0C0C0" stroke="none" x="665" y="311" width="260.287109375" height="44" opacity="0.2"/></g><g transform="translate(-54,-14) scale(1,1)"><rect fill="#ffffff" stroke="none" x="658" y="304" width="260.287109375" height="44"/></g><g transform="translate(-54,-14) scale(1,1)"><path fill="none" stroke="#000000" d="M 658 304 L 918.287109375 304 L 918.287109375 348 L 658 348 L 658 304 Z Z" stroke-miterlimit="10"/></g><g transform="translate(-54,-14) scale(1,1)"><rect fill="#ffffff" stroke="none" x="648" y="311" width="20" height="10"/></g><g transform="translate(-54,-14) scale(1,1)"><path fill="none" stroke="#000000" d="M 648 311 L 668 311 L 668 321 L 648 321 L 648 311 Z Z" stroke-miterlimit="10"/></g><g transform="translate(-54,-14) scale(1,1)"><rect fill="#ffffff" stroke="none" x="648" y="331" width="20" height="10"/></g><g transform="translate(-54,-14) scale(1,1)"><path fill="none" stroke="#000000" d="M 648 331 L 668 331 L 668 341 L 648 341 L 648 331 Z Z" stroke-miterlimit="10"/></g><g transform="translate(-54,-14) scale(1,1)"><g><path fill="none" stroke="none"/><text fill="#000000" stroke="none" font-family="Arial" font-size="13px" font-style="normal" font-weight="normal" text-decoration="none" x="775.43359375" y="321.5">«apk»</text></g></g><g transform="translate(-54,-14) scale(1,1)"><g><path fill="none" stroke="none"/><text fill="#000000" stroke="none" font-family="Arial" font-size="13px" font-style="normal" font-weight="bold" text-decoration="none" x="708.5927734375" y="336.5">eight-android-1.0.0RELEASE</text></g></g><g transform="translate(-54,-14) scale(1,1)"><rect fill="#C0C0C0" stroke="none" x="161" y="247" width="134.62255859375" height="44" opacity="0.2"/></g><g transform="translate(-54,-14) scale(1,1)"><rect fill="#ffffff" stroke="none" x="154" y="240" width="134.62255859375" height="44"/></g><g transform="translate(-54,-14) scale(1,1)"><path fill="none" stroke="#000000" d="M 154 240 L 288.62255859375 240 L 288.62255859375 284 L 154 284 L 154 240 Z Z" stroke-miterlimit="10"/></g><g transform="translate(-54,-14) scale(1,1)"><rect fill="#ffffff" stroke="none" x="144" y="247" width="20" height="10"/></g><g transform="translate(-54,-14) scale(1,1)"><path fill="none" stroke="#000000" d="M 144 247 L 164 247 L 164 257 L 144 257 L 144 247 Z Z" stroke-miterlimit="10"/></g><g transform="translate(-54,-14) scale(1,1)"><rect fill="#ffffff" stroke="none" x="144" y="267" width="20" height="10"/></g><g transform="translate(-54,-14) scale(1,1)"><path fill="none" stroke="#000000" d="M 144 267 L 164 267 L 164 277 L 144 277 L 144 267 Z Z" stroke-miterlimit="10"/></g><g transform="translate(-54,-14) scale(1,1)"><g><path fill="none" stroke="none"/><text fill="#000000" stroke="none" font-family="Arial" font-size="13px" font-style="normal" font-weight="normal" text-decoration="none" x="204.63720703125" y="257.5">«mom»</text></g></g><g transform="translate(-54,-14) scale(1,1)"><g><path fill="none" stroke="none"/><text fill="#000000" stroke="none" font-family="Arial" font-size="13px" font-style="normal" font-weight="bold" text-decoration="none" x="170.66455078125" y="272.5">apache-kafka-1.0.0</text></g></g></g></svg>