<svg version="1.1" xmlns="http://www.w3.org/2000/svg" xmlns:xlink="http://www.w3.org/1999/xlink" width="872.1767578125" height="597"><defs/><g><g transform="translate(-1256,-101) scale(1,1)"><rect fill="#C0C0C0" stroke="none" x="1273" y="318" width="159.2490234375" height="98" opacity="0.2"/></g><g transform="translate(-1256,-101) scale(1,1)"><rect fill="#a3ffa3" stroke="none" x="1266" y="311" width="159.2490234375" height="98"/></g><g transform="translate(-1256,-101) scale(1,1)"><path fill="none" stroke="#000000" d="M 1266 311 L 1425.2490234375 311 L 1425.2490234375 409 L 1266 409 L 1266 311 Z Z" stroke-miterlimit="10"/></g><g transform="translate(-1256,-101) scale(1,1)"><path fill="none" stroke="#000000" d="M 1266 349 L 1425.2490234375 349" stroke-miterlimit="10"/></g><g transform="translate(-1256,-101) scale(1,1)"><path fill="none" stroke="#000000" d="M 1266 387 L 1425.2490234375 387" stroke-miterlimit="10"/></g><g transform="translate(-1256,-101) scale(1,1)"><g><path fill="none" stroke="none"/><text fill="#000000" stroke="none" font-family="Arial" font-size="13px" font-style="normal" font-weight="normal" text-decoration="none" x="1313.10546875" y="328.5">«controler»</text></g></g><g transform="translate(-1256,-101) scale(1,1)"><g><path fill="none" stroke="none"/><text fill="#000000" stroke="none" font-family="Arial" font-size="13px" font-style="normal" font-weight="bold" text-decoration="none" x="1304.082275390625" y="343.5">RSSController</text></g></g><g transform="translate(-1256,-101) scale(1,1)"><g><path fill="none" stroke="none"/><text fill="#000000" stroke="none" font-family="Arial" font-size="13px" font-style="normal" font-weight="normal" text-decoration="none" x="1271" y="366.5">-logger {readOnly}</text><path fill="none" stroke="#000000" d="M 1271 366.5 L 1376.5107421875 366.5" stroke-miterlimit="10"/></g></g><g transform="translate(-1256,-101) scale(1,1)"><g><path fill="none" stroke="none"/><text fill="#000000" stroke="none" font-family="Arial" font-size="13px" font-style="normal" font-weight="normal" text-decoration="none" x="1271" y="381.5">-IRssService: IRssService</text></g></g><g transform="translate(-1256,-101) scale(1,1)"><g><path fill="none" stroke="none"/><text fill="#000000" stroke="none" font-family="Arial" font-size="13px" font-style="normal" font-weight="normal" text-decoration="none" x="1271" y="404.5">+getOne(id: int): null</text></g></g><g transform="translate(-1256,-101) scale(1,1)"><rect fill="#C0C0C0" stroke="none" x="1631" y="415" width="494.1767578125" height="280" opacity="0.2"/></g><g transform="translate(-1256,-101) scale(1,1)"><rect fill="#ffadad" stroke="none" x="1624" y="408" width="494.1767578125" height="280"/></g><g transform="translate(-1256,-101) scale(1,1)"><path fill="none" stroke="#000000" d="M 1624 408 L 2118.1767578125 408 L 2118.1767578125 688 L 1624 688 L 1624 408 Z Z" stroke-miterlimit="10"/></g><g transform="translate(-1256,-101) scale(1,1)"><path fill="none" stroke="#000000" d="M 1624 433 L 2118.1767578125 433" stroke-miterlimit="10"/></g><g transform="translate(-1256,-101) scale(1,1)"><path fill="none" stroke="#000000" d="M 1624 501 L 2118.1767578125 501" stroke-miterlimit="10"/></g><g transform="translate(-1256,-101) scale(1,1)"><g><path fill="none" stroke="none"/><text fill="#000000" stroke="none" font-family="Arial" font-size="13px" font-style="normal" font-weight="bold" text-decoration="none" x="1842.907958984375" y="427.5">RSSFeed</text></g></g><g transform="translate(-1256,-101) scale(1,1)"><g><path fill="none" stroke="none"/><text fill="#000000" stroke="none" font-family="Arial" font-size="13px" font-style="normal" font-weight="normal" text-decoration="none" x="1629" y="450.5">-title: String</text></g></g><g transform="translate(-1256,-101) scale(1,1)"><g><path fill="none" stroke="none"/><text fill="#000000" stroke="none" font-family="Arial" font-size="13px" font-style="normal" font-weight="normal" text-decoration="none" x="1629" y="465.5">-link: String</text></g></g><g transform="translate(-1256,-101) scale(1,1)"><g><path fill="none" stroke="none"/><text fill="#000000" stroke="none" font-family="Arial" font-size="13px" font-style="normal" font-weight="normal" text-decoration="none" x="1629" y="480.5">-description: String</text></g></g><g transform="translate(-1256,-101) scale(1,1)"><g><path fill="none" stroke="none"/><text fill="#000000" stroke="none" font-family="Arial" font-size="13px" font-style="normal" font-weight="normal" text-decoration="none" x="1629" y="495.5">-imgLink: String</text></g></g><g transform="translate(-1256,-101) scale(1,1)"><g><path fill="none" stroke="none"/><text fill="#000000" stroke="none" font-family="Arial" font-size="13px" font-style="normal" font-weight="normal" text-decoration="none" x="1629" y="518.5">«constructor»+RSSFeed()</text></g></g><g transform="translate(-1256,-101) scale(1,1)"><g><path fill="none" stroke="none"/><text fill="#000000" stroke="none" font-family="Arial" font-size="13px" font-style="normal" font-weight="normal" text-decoration="none" x="1629" y="533.5">«constructor»+RSSFeed(title: String, link: String, description: String)</text></g></g><g transform="translate(-1256,-101) scale(1,1)"><g><path fill="none" stroke="none"/><text fill="#000000" stroke="none" font-family="Arial" font-size="13px" font-style="normal" font-weight="normal" text-decoration="none" x="1629" y="548.5">«constructor»+RSSFeed(title: String, link: String, description: String, imgLink: String)</text></g></g><g transform="translate(-1256,-101) scale(1,1)"><g><path fill="none" stroke="none"/><text fill="#000000" stroke="none" font-family="Arial" font-size="13px" font-style="normal" font-weight="normal" text-decoration="none" x="1629" y="563.5">+getTitle(): String</text></g></g><g transform="translate(-1256,-101) scale(1,1)"><g><path fill="none" stroke="none"/><text fill="#000000" stroke="none" font-family="Arial" font-size="13px" font-style="normal" font-weight="normal" text-decoration="none" x="1629" y="578.5">+setTitle(title: String): void</text></g></g><g transform="translate(-1256,-101) scale(1,1)"><g><path fill="none" stroke="none"/><text fill="#000000" stroke="none" font-family="Arial" font-size="13px" font-style="normal" font-weight="normal" text-decoration="none" x="1629" y="593.5">+getLink(): String</text></g></g><g transform="translate(-1256,-101) scale(1,1)"><g><path fill="none" stroke="none"/><text fill="#000000" stroke="none" font-family="Arial" font-size="13px" font-style="normal" font-weight="normal" text-decoration="none" x="1629" y="608.5">+setLink(link: String): void</text></g></g><g transform="translate(-1256,-101) scale(1,1)"><g><path fill="none" stroke="none"/><text fill="#000000" stroke="none" font-family="Arial" font-size="13px" font-style="normal" font-weight="normal" text-decoration="none" x="1629" y="623.5">+getDescription(): String</text></g></g><g transform="translate(-1256,-101) scale(1,1)"><g><path fill="none" stroke="none"/><text fill="#000000" stroke="none" font-family="Arial" font-size="13px" font-style="normal" font-weight="normal" text-decoration="none" x="1629" y="638.5">+setDescription(description: String): void</text></g></g><g transform="translate(-1256,-101) scale(1,1)"><g><path fill="none" stroke="none"/><text fill="#000000" stroke="none" font-family="Arial" font-size="13px" font-style="normal" font-weight="normal" text-decoration="none" x="1629" y="653.5">+getImgLink(): String</text></g></g><g transform="translate(-1256,-101) scale(1,1)"><g><path fill="none" stroke="none"/><text fill="#000000" stroke="none" font-family="Arial" font-size="13px" font-style="normal" font-weight="normal" text-decoration="none" x="1629" y="668.5">+setImgLink(imgLink: String): void</text></g></g><g transform="translate(-1256,-101) scale(1,1)"><g><path fill="none" stroke="none"/><text fill="#000000" stroke="none" font-family="Arial" font-size="13px" font-style="normal" font-weight="normal" text-decoration="none" x="1629" y="683.5">+toString(): String</text></g></g><g transform="translate(-1256,-101) scale(1,1)"><path fill="none" stroke="#000000" d="M 1426 389 L 1623 459" stroke-miterlimit="10"/></g><g transform="translate(-1256,-101) scale(1,1)"><path fill="#ffffff" stroke="none" d="M 1388.8766354758523 120.68 C 1388.8766354758523 115.886167936 1392.7624778007978 112 1397.555908203125 112 C 1402.3493386054522 112 1406.2351809303977 115.886167936 1406.2351809303977 120.68 C 1406.2351809303977 125.473832064 1402.3493386054522 129.36 1397.555908203125 129.36 C 1392.7624778007978 129.36 1388.8766354758523 125.473832064 1388.8766354758523 120.68 Z"/></g><g transform="translate(-1256,-101) scale(1,1)"><path fill="none" stroke="#000000" d="M 1388.8766354758523 120.68 C 1388.8766354758523 115.886167936 1392.7624778007978 112 1397.555908203125 112 C 1402.3493386054522 112 1406.2351809303977 115.886167936 1406.2351809303977 120.68 C 1406.2351809303977 125.473832064 1402.3493386054522 129.36 1397.555908203125 129.36 C 1392.7624778007978 129.36 1388.8766354758523 125.473832064 1388.8766354758523 120.68 Z" stroke-miterlimit="10"/></g><g transform="translate(-1256,-101) scale(1,1)"><path fill="none" stroke="#000000" d="M 1397.555908203125 129.36 L 1397.555908203125 146.64" stroke-miterlimit="10"/></g><g transform="translate(-1256,-101) scale(1,1)"><path fill="none" stroke="#000000" d="M 1388.3660900213067 135.84 L 1406.7457263849433 135.84" stroke-miterlimit="10"/></g><g transform="translate(-1256,-101) scale(1,1)"><path fill="none" stroke="#000000" d="M 1397.555908203125 146.64 L 1384.7922718394886 164" stroke-miterlimit="10"/></g><g transform="translate(-1256,-101) scale(1,1)"><path fill="none" stroke="#000000" d="M 1397.555908203125 146.64 L 1410.3195445667614 164" stroke-miterlimit="10"/></g><g transform="translate(-1256,-101) scale(1,1)"><g><path fill="none" stroke="none"/><text fill="#000000" stroke="none" font-family="Arial" font-size="13px" font-style="normal" font-weight="bold" text-decoration="none" x="1380.937744140625" y="184.5">Client</text></g></g><g transform="translate(-1256,-101) scale(1,1)"><rect fill="#C0C0C0" stroke="none" x="1639" y="159" width="271.44384765625" height="113" opacity="0.2"/></g><g transform="translate(-1256,-101) scale(1,1)"><rect fill="#568eff" stroke="none" x="1632" y="152" width="271.44384765625" height="113"/></g><g transform="translate(-1256,-101) scale(1,1)"><path fill="none" stroke="#000000" d="M 1632 152 L 1903.44384765625 152 L 1903.44384765625 265 L 1632 265 L 1632 152 Z Z" stroke-miterlimit="10"/></g><g transform="translate(-1256,-101) scale(1,1)"><path fill="none" stroke="#000000" d="M 1632 190 L 1903.44384765625 190" stroke-miterlimit="10"/></g><g transform="translate(-1256,-101) scale(1,1)"><path fill="none" stroke="#000000" d="M 1632 228 L 1903.44384765625 228" stroke-miterlimit="10"/></g><g transform="translate(-1256,-101) scale(1,1)"><g><path fill="none" stroke="none"/><text fill="#000000" stroke="none" font-family="Arial" font-size="13px" font-style="normal" font-weight="normal" text-decoration="none" x="1743.143798828125" y="169.5">«dialog»</text></g></g><g transform="translate(-1256,-101) scale(1,1)"><g><path fill="none" stroke="none"/><text fill="#000000" stroke="none" font-family="Arial" font-size="13px" font-style="normal" font-weight="bold" text-decoration="none" x="1730.88330078125" y="184.5">NewsActivity</text></g></g><g transform="translate(-1256,-101) scale(1,1)"><g><path fill="none" stroke="none"/><text fill="#000000" stroke="none" font-family="Arial" font-size="13px" font-style="normal" font-weight="normal" text-decoration="none" x="1637" y="207.5">-TAG: String = "NEWS ACTIVITY" {readOnly}</text><path fill="none" stroke="#000000" d="M 1637 207.5 L 1899.44384765625 207.5" stroke-miterlimit="10"/></g></g><g transform="translate(-1256,-101) scale(1,1)"><g><path fill="none" stroke="none"/><text fill="#000000" stroke="none" font-family="Arial" font-size="13px" font-style="normal" font-weight="normal" text-decoration="none" x="1637" y="222.5">-recList</text></g></g><g transform="translate(-1256,-101) scale(1,1)"><g><path fill="none" stroke="none"/><text fill="#000000" stroke="none" font-family="Arial" font-size="13px" font-style="normal" font-weight="normal" text-decoration="none" x="1637" y="245.5">#onCreate(savedInstanceState): void</text></g></g><g transform="translate(-1256,-101) scale(1,1)"><g><path fill="none" stroke="none"/><text fill="#000000" stroke="none" font-family="Arial" font-size="13px" font-style="normal" font-weight="normal" text-decoration="none" x="1637" y="260.5">#callOneNews(): void</text></g></g><g transform="translate(-1256,-101) scale(1,1)"><path fill="none" stroke="#000000" d="M 1631 257 L 1426 331" stroke-miterlimit="10"/></g><g transform="translate(-1256,-101) scale(1,1)"><path fill="none" stroke="#000000" d="M 1421 154 L 1631 187" stroke-miterlimit="10"/></g></g></svg>