<svg version="1.1" xmlns="http://www.w3.org/2000/svg" xmlns:xlink="http://www.w3.org/1999/xlink" width="1468" height="580"><defs/><g><g transform="translate(-38,-62) scale(1,1)"><rect fill="#C0C0C0" stroke="none" x="1327" y="383" width="70.40000000000009" height="15" opacity="0.2"/></g><g transform="translate(-38,-62) scale(1,1)"><rect fill="#C0C0C0" stroke="none" x="1327" y="397" width="176" height="98" opacity="0.2"/></g><g transform="translate(-38,-62) scale(1,1)"><rect fill="#ffffff" stroke="none" x="1320" y="391" width="176" height="97"/></g><g transform="translate(-38,-62) scale(1,1)"><path fill="none" stroke="#000000" d="M 1320 391 L 1496 391 L 1496 488 L 1320 488 L 1320 391 Z Z" stroke-miterlimit="10"/></g><g transform="translate(-38,-62) scale(1,1)"><rect fill="#ffffff" stroke="none" x="1320" y="376" width="70.40000000000009" height="15"/></g><g transform="translate(-38,-62) scale(1,1)"><path fill="none" stroke="#000000" d="M 1320 376 L 1390.4 376 L 1390.4 391 L 1320 391 L 1320 376 Z Z" stroke-miterlimit="10"/></g><g transform="translate(-38,-62) scale(1,1)"><rect fill="#ffffff" stroke="none" x="1320" y="390" width="176" height="98"/></g><g transform="translate(-38,-62) scale(1,1)"><path fill="none" stroke="#000000" d="M 1320 390 L 1496 390 L 1496 488 L 1320 488 L 1320 390 Z Z" stroke-miterlimit="10"/></g><g transform="translate(-38,-62) scale(1,1)"><g><path fill="none" stroke="none"/><text fill="#000000" stroke="none" font-family="Arial" font-size="13px" font-style="normal" font-weight="bold" text-decoration="none" x="1373.31640625" y="410.5">bankservice</text></g></g><g transform="translate(-38,-62) scale(1,1)"><rect fill="#C0C0C0" stroke="none" x="55" y="79" width="249.60000000000002" height="15" opacity="0.2"/></g><g transform="translate(-38,-62) scale(1,1)"><rect fill="#C0C0C0" stroke="none" x="55" y="93" width="624" height="474" opacity="0.2"/></g><g transform="translate(-38,-62) scale(1,1)"><rect fill="#ffffff" stroke="none" x="48" y="87" width="624" height="473"/></g><g transform="translate(-38,-62) scale(1,1)"><path fill="none" stroke="#000000" d="M 48 87 L 672 87 L 672 560 L 48 560 L 48 87 Z Z" stroke-miterlimit="10"/></g><g transform="translate(-38,-62) scale(1,1)"><rect fill="#ffffff" stroke="none" x="48" y="72" width="249.60000000000002" height="15"/></g><g transform="translate(-38,-62) scale(1,1)"><path fill="none" stroke="#000000" d="M 48 72 L 297.6 72 L 297.6 87 L 48 87 L 48 72 Z Z" stroke-miterlimit="10"/></g><g transform="translate(-38,-62) scale(1,1)"><rect fill="#ffffff" stroke="none" x="48" y="86" width="624" height="474"/></g><g transform="translate(-38,-62) scale(1,1)"><path fill="none" stroke="#000000" d="M 48 86 L 672 86 L 672 560 L 48 560 L 48 86 Z Z" stroke-miterlimit="10"/></g><g transform="translate(-38,-62) scale(1,1)"><g><path fill="none" stroke="none"/><text fill="#000000" stroke="none" font-family="Arial" font-size="13px" font-style="normal" font-weight="bold" text-decoration="none" x="306.8955078125" y="106.5">transfers-manager</text></g></g><g transform="translate(-38,-62) scale(1,1)"><rect fill="#C0C0C0" stroke="none" x="735" y="279" width="204.79999999999995" height="15" opacity="0.2"/></g><g transform="translate(-38,-62) scale(1,1)"><rect fill="#C0C0C0" stroke="none" x="735" y="293" width="512" height="346" opacity="0.2"/></g><g transform="translate(-38,-62) scale(1,1)"><rect fill="#ffffff" stroke="none" x="728" y="287" width="512" height="345"/></g><g transform="translate(-38,-62) scale(1,1)"><path fill="none" stroke="#000000" d="M 728 287 L 1240 287 L 1240 632 L 728 632 L 728 287 Z Z" stroke-miterlimit="10"/></g><g transform="translate(-38,-62) scale(1,1)"><rect fill="#ffffff" stroke="none" x="728" y="272" width="204.79999999999995" height="15"/></g><g transform="translate(-38,-62) scale(1,1)"><path fill="none" stroke="#000000" d="M 728 272 L 932.8 272 L 932.8 287 L 728 287 L 728 272 Z Z" stroke-miterlimit="10"/></g><g transform="translate(-38,-62) scale(1,1)"><rect fill="#ffffff" stroke="none" x="728" y="286" width="512" height="346"/></g><g transform="translate(-38,-62) scale(1,1)"><path fill="none" stroke="#000000" d="M 728 286 L 1240 286 L 1240 632 L 728 632 L 728 286 Z Z" stroke-miterlimit="10"/></g><g transform="translate(-38,-62) scale(1,1)"><g><path fill="none" stroke="none"/><text fill="#000000" stroke="none" font-family="Arial" font-size="13px" font-style="normal" font-weight="bold" text-decoration="none" x="942.819580078125" y="306.5">back-transfers</text></g></g><g transform="translate(-38,-62) scale(1,1)"><rect fill="#C0C0C0" stroke="none" x="823" y="95" width="198" height="15" opacity="0.2"/></g><g transform="translate(-38,-62) scale(1,1)"><rect fill="#C0C0C0" stroke="none" x="823" y="109" width="495" height="145" opacity="0.2"/></g><g transform="translate(-38,-62) scale(1,1)"><rect fill="#ffffff" stroke="none" x="816" y="103" width="495" height="144"/></g><g transform="translate(-38,-62) scale(1,1)"><path fill="none" stroke="#000000" d="M 816 103 L 1311 103 L 1311 247 L 816 247 L 816 103 Z Z" stroke-miterlimit="10"/></g><g transform="translate(-38,-62) scale(1,1)"><rect fill="#ffffff" stroke="none" x="816" y="88" width="198" height="15"/></g><g transform="translate(-38,-62) scale(1,1)"><path fill="none" stroke="#000000" d="M 816 88 L 1014 88 L 1014 103 L 816 103 L 816 88 Z Z" stroke-miterlimit="10"/></g><g transform="translate(-38,-62) scale(1,1)"><rect fill="#ffffff" stroke="none" x="816" y="102" width="495" height="145"/></g><g transform="translate(-38,-62) scale(1,1)"><path fill="none" stroke="#000000" d="M 816 102 L 1311 102 L 1311 247 L 816 247 L 816 102 Z Z" stroke-miterlimit="10"/></g><g transform="translate(-38,-62) scale(1,1)"><g><path fill="none" stroke="none"/><text fill="#000000" stroke="none" font-family="Arial" font-size="13px" font-style="normal" font-weight="bold" text-decoration="none" x="1038.569580078125" y="122.5">frontweb</text></g></g><g transform="translate(-38,-62) scale(1,1)"><rect fill="#C0C0C0" stroke="none" x="799" y="447" width="157.4716796875" height="72" opacity="0.2"/></g><g transform="translate(-38,-62) scale(1,1)"><rect fill="#ffffff" stroke="none" x="792" y="440" width="157.4716796875" height="72"/></g><g transform="translate(-38,-62) scale(1,1)"><path fill="none" stroke="#000000" d="M 792 440 L 949.4716796875 440 L 949.4716796875 512 L 792 512 L 792 440 Z Z" stroke-miterlimit="10"/></g><g transform="translate(-38,-62) scale(1,1)"><path fill="none" stroke="#000000" d="M 792 465 L 949.4716796875 465" stroke-miterlimit="10"/></g><g transform="translate(-38,-62) scale(1,1)"><path fill="none" stroke="#000000" d="M 792 475 L 949.4716796875 475" stroke-miterlimit="10"/></g><g transform="translate(-38,-62) scale(1,1)"><g><path fill="none" stroke="none"/><text fill="#000000" stroke="none" font-family="Arial" font-size="13px" font-style="normal" font-weight="bold" text-decoration="none" x="816.55224609375" y="459.5">TransferConsumer</text></g></g><g transform="translate(-38,-62) scale(1,1)"><g><path fill="none" stroke="none"/><text fill="#000000" stroke="none" font-family="Arial" font-size="13px" font-style="normal" font-weight="normal" text-decoration="none" x="797" y="492.5">+consumeTransfer(): void</text></g></g><g transform="translate(-38,-62) scale(1,1)"><g><path fill="none" stroke="none"/><text fill="#000000" stroke="none" font-family="Arial" font-size="13px" font-style="normal" font-weight="normal" text-decoration="none" x="797" y="507.5">+stop(): void</text></g></g><g transform="translate(-38,-62) scale(1,1)"><rect fill="#C0C0C0" stroke="none" x="879" y="143" width="377.1259765625" height="72" opacity="0.2"/></g><g transform="translate(-38,-62) scale(1,1)"><rect fill="#ffffff" stroke="none" x="872" y="136" width="377.1259765625" height="72"/></g><g transform="translate(-38,-62) scale(1,1)"><path fill="none" stroke="#000000" d="M 872 136 L 1249.1259765625 136 L 1249.1259765625 208 L 872 208 L 872 136 Z Z" stroke-miterlimit="10"/></g><g transform="translate(-38,-62) scale(1,1)"><path fill="none" stroke="#000000" d="M 872 161 L 1249.1259765625 161" stroke-miterlimit="10"/></g><g transform="translate(-38,-62) scale(1,1)"><path fill="none" stroke="#000000" d="M 872 171 L 1249.1259765625 171" stroke-miterlimit="10"/></g><g transform="translate(-38,-62) scale(1,1)"><g><path fill="none" stroke="none"/><text fill="#000000" stroke="none" font-family="Arial" font-size="13px" font-style="normal" font-weight="bold" text-decoration="none" x="1008.185302734375" y="155.5">TransferController</text></g></g><g transform="translate(-38,-62) scale(1,1)"><g><path fill="none" stroke="none"/><text fill="#000000" stroke="none" font-family="Arial" font-size="13px" font-style="normal" font-weight="normal" text-decoration="none" x="877" y="188.5">+getSendingAccountSelectionForm(): ModelAndView</text></g></g><g transform="translate(-38,-62) scale(1,1)"><g><path fill="none" stroke="none"/><text fill="#000000" stroke="none" font-family="Arial" font-size="13px" font-style="normal" font-weight="normal" text-decoration="none" x="877" y="203.5">+submitTransfer(TransferModel, BindingResult): ModelAndView</text></g></g><g transform="translate(-38,-62) scale(1,1)"><rect fill="#C0C0C0" stroke="none" x="1095" y="463" width="117.36083984375" height="57" opacity="0.2"/></g><g transform="translate(-38,-62) scale(1,1)"><rect fill="#ffffff" stroke="none" x="1088" y="456" width="117.36083984375" height="57"/></g><g transform="translate(-38,-62) scale(1,1)"><path fill="none" stroke="#000000" d="M 1088 456 L 1205.36083984375 456 L 1205.36083984375 513 L 1088 513 L 1088 456 Z Z" stroke-miterlimit="10"/></g><g transform="translate(-38,-62) scale(1,1)"><path fill="none" stroke="#000000" d="M 1088 494 L 1205.36083984375 494" stroke-miterlimit="10"/></g><g transform="translate(-38,-62) scale(1,1)"><path fill="none" stroke="#000000" d="M 1088 504 L 1205.36083984375 504" stroke-miterlimit="10"/></g><g transform="translate(-38,-62) scale(1,1)"><g><path fill="none" stroke="none"/><text fill="#000000" stroke="none" font-family="Arial" font-size="13px" font-style="normal" font-weight="normal" text-decoration="none" x="1111.622314453125" y="473.5">«Runnable»</text></g></g><g transform="translate(-38,-62) scale(1,1)"><g><path fill="none" stroke="none"/><text fill="#000000" stroke="none" font-family="Arial" font-size="13px" font-style="normal" font-weight="bold" text-decoration="none" x="1096.470458984375" y="488.5">TransferSubmiter</text></g></g><g transform="translate(-38,-62) scale(1,1)"><path fill="none" stroke="#000000" d="M 1087 482 L 950 478" stroke-miterlimit="10"/></g><g transform="translate(-38,-62) scale(1,1)"><path fill="#000000" stroke="none" d="M 960.2811992146985 474.0888693824315 L 950 478 L 960.0354926652321 482.5043187016541 L 971.9906288265809 478.6420621555206"/></g><g transform="translate(-38,-62) scale(1,1)"><path fill="none" stroke="#000000" d="M 960.2811992146985 474.0888693824315 L 950 478 L 960.0354926652321 482.5043187016541 L 971.9906288265809 478.6420621555206 L 960.2811992146985 474.0888693824315" stroke-miterlimit="10"/></g><g transform="translate(-38,-62) scale(1,1)"><rect fill="#C0C0C0" stroke="none" x="783" y="559" width="378.5732421875" height="57" opacity="0.2"/></g><g transform="translate(-38,-62) scale(1,1)"><rect fill="#ffffff" stroke="none" x="776" y="552" width="378.5732421875" height="57"/></g><g transform="translate(-38,-62) scale(1,1)"><path fill="none" stroke="#000000" d="M 776 552 L 1154.5732421875 552 L 1154.5732421875 609 L 776 609 L 776 552 Z Z" stroke-miterlimit="10"/></g><g transform="translate(-38,-62) scale(1,1)"><path fill="none" stroke="#000000" d="M 776 577 L 1154.5732421875 577" stroke-miterlimit="10"/></g><g transform="translate(-38,-62) scale(1,1)"><path fill="none" stroke="#000000" d="M 776 587 L 1154.5732421875 587" stroke-miterlimit="10"/></g><g transform="translate(-38,-62) scale(1,1)"><g><path fill="none" stroke="none"/><text fill="#000000" stroke="none" font-family="Arial" font-size="13px" font-style="normal" font-weight="bold" text-decoration="none" x="932.777099609375" y="571.5">XMLParser</text></g></g><g transform="translate(-38,-62) scale(1,1)"><g><path fill="none" stroke="none"/><text fill="#000000" stroke="none" font-family="Arial" font-size="13px" font-style="normal" font-weight="normal" text-decoration="none" x="781" y="604.5">+convertToSCTFormat(String, double, String, LocalDate, String)</text><path fill="none" stroke="#000000" d="M 781 604.5 L 1150.5732421875 604.5" stroke-miterlimit="10"/></g></g><g transform="translate(-38,-62) scale(1,1)"><rect fill="#C0C0C0" stroke="none" x="63" y="439" width="201.54345703125" height="57" opacity="0.2"/></g><g transform="translate(-38,-62) scale(1,1)"><rect fill="#ffffff" stroke="none" x="56" y="432" width="201.54345703125" height="57"/></g><g transform="translate(-38,-62) scale(1,1)"><path fill="none" stroke="#000000" d="M 56 432 L 257.54345703125 432 L 257.54345703125 489 L 56 489 L 56 432 Z Z" stroke-miterlimit="10"/></g><g transform="translate(-38,-62) scale(1,1)"><path fill="none" stroke="#000000" d="M 56 457 L 257.54345703125 457" stroke-miterlimit="10"/></g><g transform="translate(-38,-62) scale(1,1)"><path fill="none" stroke="#000000" d="M 56 467 L 257.54345703125 467" stroke-miterlimit="10"/></g><g transform="translate(-38,-62) scale(1,1)"><g><path fill="none" stroke="none"/><text fill="#000000" stroke="none" font-family="Arial" font-size="13px" font-style="normal" font-weight="bold" text-decoration="none" x="106.19677734375" y="451.5">TransferProducer</text></g></g><g transform="translate(-38,-62) scale(1,1)"><g><path fill="none" stroke="none"/><text fill="#000000" stroke="none" font-family="Arial" font-size="13px" font-style="normal" font-weight="normal" text-decoration="none" x="61" y="484.5">+sendTransfer(TransferDto): void</text></g></g><g transform="translate(-38,-62) scale(1,1)"><rect fill="#C0C0C0" stroke="none" x="63" y="287" width="278.84521484375" height="87" opacity="0.2"/></g><g transform="translate(-38,-62) scale(1,1)"><rect fill="#ffffff" stroke="none" x="56" y="280" width="278.84521484375" height="87"/></g><g transform="translate(-38,-62) scale(1,1)"><path fill="none" stroke="#000000" d="M 56 280 L 334.84521484375 280 L 334.84521484375 367 L 56 367 L 56 280 Z Z" stroke-miterlimit="10"/></g><g transform="translate(-38,-62) scale(1,1)"><path fill="none" stroke="#000000" d="M 56 305 L 334.84521484375 305" stroke-miterlimit="10"/></g><g transform="translate(-38,-62) scale(1,1)"><path fill="none" stroke="#000000" d="M 56 315 L 334.84521484375 315" stroke-miterlimit="10"/></g><g transform="translate(-38,-62) scale(1,1)"><g><path fill="none" stroke="none"/><text fill="#000000" stroke="none" font-family="Arial" font-size="13px" font-style="normal" font-weight="bold" text-decoration="none" x="143.044921875" y="299.5">TransferController</text></g></g><g transform="translate(-38,-62) scale(1,1)"><g><path fill="none" stroke="none"/><text fill="#000000" stroke="none" font-family="Arial" font-size="13px" font-style="normal" font-weight="normal" text-decoration="none" x="61" y="332.5">+submitTransfer(TransferDto): ResponseEntity</text></g></g><g transform="translate(-38,-62) scale(1,1)"><g><path fill="none" stroke="none"/><text fill="#000000" stroke="none" font-family="Arial" font-size="13px" font-style="normal" font-weight="normal" text-decoration="none" x="61" y="347.5">+getAccounts(): ResponseEntity</text></g></g><g transform="translate(-38,-62) scale(1,1)"><g><path fill="none" stroke="none"/><text fill="#000000" stroke="none" font-family="Arial" font-size="13px" font-style="normal" font-weight="normal" text-decoration="none" x="61" y="362.5">+getBeneficiaryAccounts(): ResponseEntity</text></g></g><g transform="translate(-38,-62) scale(1,1)"><rect fill="#C0C0C0" stroke="none" x="343" y="199" width="322.955078125" height="57" opacity="0.2"/></g><g transform="translate(-38,-62) scale(1,1)"><rect fill="#ffffff" stroke="none" x="336" y="192" width="322.955078125" height="57"/></g><g transform="translate(-38,-62) scale(1,1)"><path fill="none" stroke="#000000" d="M 336 192 L 658.955078125 192 L 658.955078125 249 L 336 249 L 336 192 Z Z" stroke-miterlimit="10"/></g><g transform="translate(-38,-62) scale(1,1)"><path fill="none" stroke="#000000" d="M 336 217 L 658.955078125 217" stroke-miterlimit="10"/></g><g transform="translate(-38,-62) scale(1,1)"><path fill="none" stroke="#000000" d="M 336 227 L 658.955078125 227" stroke-miterlimit="10"/></g><g transform="translate(-38,-62) scale(1,1)"><g><path fill="none" stroke="none"/><text fill="#000000" stroke="none" font-family="Arial" font-size="13px" font-style="normal" font-weight="bold" text-decoration="none" x="451.60302734375" y="211.5">TransferService</text></g></g><g transform="translate(-38,-62) scale(1,1)"><g><path fill="none" stroke="none"/><text fill="#000000" stroke="none" font-family="Arial" font-size="13px" font-style="normal" font-weight="normal" text-decoration="none" x="341" y="244.5">+createTransferAndTransaction(TransferDto): boolean</text></g></g><g transform="translate(-38,-62) scale(1,1)"><rect fill="#C0C0C0" stroke="none" x="423" y="335" width="246.38330078125" height="57" opacity="0.2"/></g><g transform="translate(-38,-62) scale(1,1)"><rect fill="#ffffff" stroke="none" x="416" y="328" width="246.38330078125" height="57"/></g><g transform="translate(-38,-62) scale(1,1)"><path fill="none" stroke="#000000" d="M 416 328 L 662.38330078125 328 L 662.38330078125 385 L 416 385 L 416 328 Z Z" stroke-miterlimit="10"/></g><g transform="translate(-38,-62) scale(1,1)"><path fill="none" stroke="#000000" d="M 416 353 L 662.38330078125 353" stroke-miterlimit="10"/></g><g transform="translate(-38,-62) scale(1,1)"><path fill="none" stroke="#000000" d="M 416 363 L 662.38330078125 363" stroke-miterlimit="10"/></g><g transform="translate(-38,-62) scale(1,1)"><g><path fill="none" stroke="none"/><text fill="#000000" stroke="none" font-family="Arial" font-size="13px" font-style="normal" font-weight="bold" text-decoration="none" x="494.03125" y="347.5">AccountService</text></g></g><g transform="translate(-38,-62) scale(1,1)"><g><path fill="none" stroke="none"/><text fill="#000000" stroke="none" font-family="Arial" font-size="13px" font-style="normal" font-weight="normal" text-decoration="none" x="421" y="380.5">+getAllAccount(): Iterable&lt;AccounEntity&gt;</text></g></g><g transform="translate(-38,-62) scale(1,1)"><path fill="none" stroke="#000000" d="M 336 337 L 415 344" stroke-miterlimit="10"/></g><g transform="translate(-38,-62) scale(1,1)"><path fill="none" stroke="#000000" d="M 404.5054473211794 347.2961134797607 L 415 344 L 405.24852644218737 338.9099348283857" stroke-miterlimit="10"/></g><g transform="translate(-38,-62) scale(1,1)"><g><path fill="none" stroke="none"/><text fill="#000000" stroke="none" font-family="Arial" font-size="13px" font-style="normal" font-weight="normal" text-decoration="none" x="345.5" y="314.5">+delegate</text></g></g><g transform="translate(-38,-62) scale(1,1)"><path fill="none" stroke="#000000" d="M 324 279 L 409 250" stroke-miterlimit="10"/></g><g transform="translate(-38,-62) scale(1,1)"><path fill="none" stroke="#000000" d="M 400.7409663534895 257.2655600765397 L 409 250 L 398.0224545032651 249.29750810174403" stroke-miterlimit="10"/></g><g transform="translate(-38,-62) scale(1,1)"><g><path fill="none" stroke="none"/><text fill="#000000" stroke="none" font-family="Arial" font-size="13px" font-style="normal" font-weight="normal" text-decoration="none" x="305.5" y="266.5">+delegate</text></g></g><g transform="translate(-38,-62) scale(1,1)"><path fill="none" stroke="#000000" d="M 208 279 L 239 178" stroke-miterlimit="10"/></g><g transform="translate(-38,-62) scale(1,1)"><path fill="none" stroke="#000000" d="M 240.04229049203647 188.9505082315941 L 239 178 L 231.99383204688593 186.48018930288455" stroke-miterlimit="10"/></g><g transform="translate(-38,-62) scale(1,1)"><g><path fill="none" stroke="none"/><text fill="#000000" stroke="none" font-family="Arial" font-size="13px" font-style="normal" font-weight="normal" text-decoration="none" x="179.5" y="229.5">+delegate</text></g></g><g transform="translate(-38,-62) scale(1,1)"><rect fill="#C0C0C0" stroke="none" x="63" y="127" width="385.111328125" height="57" opacity="0.2"/></g><g transform="translate(-38,-62) scale(1,1)"><rect fill="#ffffff" stroke="none" x="56" y="120" width="385.111328125" height="57"/></g><g transform="translate(-38,-62) scale(1,1)"><path fill="none" stroke="#000000" d="M 56 120 L 441.111328125 120 L 441.111328125 177 L 56 177 L 56 120 Z Z" stroke-miterlimit="10"/></g><g transform="translate(-38,-62) scale(1,1)"><path fill="none" stroke="#000000" d="M 56 145 L 441.111328125 145" stroke-miterlimit="10"/></g><g transform="translate(-38,-62) scale(1,1)"><path fill="none" stroke="#000000" d="M 56 155 L 441.111328125 155" stroke-miterlimit="10"/></g><g transform="translate(-38,-62) scale(1,1)"><g><path fill="none" stroke="none"/><text fill="#000000" stroke="none" font-family="Arial" font-size="13px" font-style="normal" font-weight="bold" text-decoration="none" x="171.2412109375" y="139.5">BeneficiaryAccountService</text></g></g><g transform="translate(-38,-62) scale(1,1)"><g><path fill="none" stroke="none"/><text fill="#000000" stroke="none" font-family="Arial" font-size="13px" font-style="normal" font-weight="normal" text-decoration="none" x="61" y="172.5">+getAllBeneficiaryAccounts(): Iterable&lt;BeneficiaryAccountEntity&gt;</text></g></g><g transform="translate(-38,-62) scale(1,1)"><path fill="none" stroke="#000000" d="M 1089 514 L 1020 551" stroke-miterlimit="10"/></g><g transform="translate(-38,-62) scale(1,1)"><path fill="none" stroke="#000000" d="M 1026.9669476970848 542.4875597044041 L 1020 551 L 1030.9455802182422 549.9071717033191" stroke-miterlimit="10"/></g><g transform="translate(-38,-62) scale(1,1)"><g><path fill="none" stroke="none"/><text fill="#000000" stroke="none" font-family="Arial" font-size="13px" font-style="normal" font-weight="normal" text-decoration="none" x="1055.5" y="545.5">+uses</text></g></g><g transform="translate(-38,-62) scale(1,1)"><rect fill="#C0C0C0" stroke="none" x="815" y="375" width="108.6962890625" height="44" opacity="0.2"/></g><g transform="translate(-38,-62) scale(1,1)"><rect fill="#ff5656" stroke="none" x="808" y="368" width="108.6962890625" height="44"/></g><g transform="translate(-38,-62) scale(1,1)"><path fill="none" stroke="#000000" d="M 808 368 L 916.6962890625 368 L 916.6962890625 412 L 808 412 L 808 368 Z Z" stroke-miterlimit="10"/></g><g transform="translate(-38,-62) scale(1,1)"><path fill="none" stroke="#000000" d="M 808 393 L 916.6962890625 393" stroke-miterlimit="10"/></g><g transform="translate(-38,-62) scale(1,1)"><path fill="none" stroke="#000000" d="M 808 403 L 916.6962890625 403" stroke-miterlimit="10"/></g><g transform="translate(-38,-62) scale(1,1)"><g><path fill="none" stroke="none"/><text fill="#000000" stroke="none" font-family="Arial" font-size="13px" font-style="normal" font-weight="bold" text-decoration="none" x="815.74365234375" y="387.5">KafkaConsumer</text></g></g><g transform="translate(-38,-62) scale(1,1)"><path fill="none" stroke="#000000" d="M 867 439 L 864 413" stroke-miterlimit="10"/></g><g transform="translate(-38,-62) scale(1,1)"><path fill="none" stroke="#000000" d="M 869.3466600948326 422.6131797980858 L 864 413 L 860.9831149857636 423.5782042337476" stroke-miterlimit="10"/></g><g transform="translate(-38,-62) scale(1,1)"><g><path fill="none" stroke="none"/><text fill="#000000" stroke="none" font-family="Arial" font-size="13px" font-style="normal" font-weight="normal" text-decoration="none" x="832.5" y="433.5">+uses</text></g></g><g transform="translate(-38,-62) scale(1,1)"><path fill="none" stroke="#000000" d="M 918 382 L 983 373" stroke-miterlimit="10"/></g><g transform="translate(-38,-62) scale(1,1)"><path fill="none" stroke="#000000" d="M 973.5107120087343 378.5635791913859 L 983 373 L 972.3560155388467 370.22410468664134" stroke-miterlimit="10"/></g><g transform="translate(-38,-62) scale(1,1)"><g><path fill="none" stroke="none"/><text fill="#000000" stroke="none" font-family="Arial" font-size="13px" font-style="normal" font-weight="normal" text-decoration="none" x="930.5" y="368.5">+uses</text></g></g><g transform="translate(-38,-62) scale(1,1)"><path fill="none" stroke="#000000" d="M 259 489 L 367 520" stroke-miterlimit="10"/></g><g transform="translate(-38,-62) scale(1,1)"><path fill="none" stroke="#000000" d="M 356.0703744283611 521.2422901689126 L 367 520 L 358.3931558398248 513.1500194451037" stroke-miterlimit="10"/></g><g transform="translate(-38,-62) scale(1,1)"><g><path fill="none" stroke="none"/><text fill="#000000" stroke="none" font-family="Arial" font-size="13px" font-style="normal" font-weight="normal" text-decoration="none" x="299.5" y="495.5">+uses</text></g></g><g transform="translate(-38,-62) scale(1,1)"><path fill="none" stroke="#000000" d="M 426 511 L 440 474" stroke-miterlimit="10"/></g><g transform="translate(-38,-62) scale(1,1)"><path fill="none" stroke="#000000" d="M 440.3406137869996 484.9947252011183 L 440 474 L 432.4664055715597 482.0152950655464" stroke-miterlimit="10"/></g><g transform="translate(-38,-62) scale(1,1)"><g><path fill="none" stroke="none"/><text fill="#000000" stroke="none" font-family="Arial" font-size="13px" font-style="normal" font-weight="normal" text-decoration="none" x="395.5" y="505.5">+uses</text></g></g><g transform="translate(-38,-62) scale(1,1)"><path fill="none" stroke="#000000" d="M 182 368 L 164 431" stroke-miterlimit="10"/></g><g transform="translate(-38,-62) scale(1,1)"><path fill="none" stroke="#000000" d="M 162.7443493689122 420.07190128647034 L 164 431 L 170.83945362976945 422.38478821814385" stroke-miterlimit="10"/></g><g transform="translate(-38,-62) scale(1,1)"><g><path fill="none" stroke="none"/><text fill="#000000" stroke="none" font-family="Arial" font-size="13px" font-style="normal" font-weight="normal" text-decoration="none" x="191.5" y="404.5">+sendTransfer(TransferDto)</text></g></g><g transform="translate(-38,-62) scale(1,1)"><rect fill="#C0C0C0" stroke="none" x="375" y="519" width="101.47900390625" height="44" opacity="0.2"/></g><g transform="translate(-38,-62) scale(1,1)"><rect fill="#ff5656" stroke="none" x="368" y="512" width="101.47900390625" height="44"/></g><g transform="translate(-38,-62) scale(1,1)"><path fill="none" stroke="#000000" d="M 368 512 L 469.47900390625 512 L 469.47900390625 556 L 368 556 L 368 512 Z Z" stroke-miterlimit="10"/></g><g transform="translate(-38,-62) scale(1,1)"><path fill="none" stroke="#000000" d="M 368 537 L 469.47900390625 537" stroke-miterlimit="10"/></g><g transform="translate(-38,-62) scale(1,1)"><path fill="none" stroke="#000000" d="M 368 547 L 469.47900390625 547" stroke-miterlimit="10"/></g><g transform="translate(-38,-62) scale(1,1)"><g><path fill="none" stroke="none"/><text fill="#000000" stroke="none" font-family="Arial" font-size="13px" font-style="normal" font-weight="bold" text-decoration="none" x="375.74365234375" y="531.5">KafkaProducer</text></g></g><g transform="translate(-38,-62) scale(1,1)"><rect fill="#C0C0C0" stroke="none" x="351" y="423" width="214.54345703125" height="57" opacity="0.2"/></g><g transform="translate(-38,-62) scale(1,1)"><rect fill="#ffffff" stroke="none" x="344" y="416" width="214.54345703125" height="57"/></g><g transform="translate(-38,-62) scale(1,1)"><path fill="none" stroke="#000000" d="M 344 416 L 558.54345703125 416 L 558.54345703125 473 L 344 473 L 344 416 Z Z" stroke-miterlimit="10"/></g><g transform="translate(-38,-62) scale(1,1)"><path fill="none" stroke="#000000" d="M 344 441 L 558.54345703125 441" stroke-miterlimit="10"/></g><g transform="translate(-38,-62) scale(1,1)"><path fill="none" stroke="#000000" d="M 344 451 L 558.54345703125 451" stroke-miterlimit="10"/></g><g transform="translate(-38,-62) scale(1,1)"><g><path fill="none" stroke="none"/><text fill="#000000" stroke="none" font-family="Arial" font-size="13px" font-style="normal" font-weight="bold" text-decoration="none" x="399.9794921875" y="435.5">TransferSerializer</text></g></g><g transform="translate(-38,-62) scale(1,1)"><g><path fill="none" stroke="none"/><text fill="#000000" stroke="none" font-family="Arial" font-size="13px" font-style="normal" font-weight="normal" text-decoration="none" x="349" y="468.5">+serialize(String, TransferDto): byte</text></g></g><g transform="translate(-38,-62) scale(1,1)"><rect fill="#C0C0C0" stroke="none" x="991" y="335" width="229.00341796875" height="57" opacity="0.2"/></g><g transform="translate(-38,-62) scale(1,1)"><rect fill="#ffffff" stroke="none" x="984" y="328" width="229.00341796875" height="57"/></g><g transform="translate(-38,-62) scale(1,1)"><path fill="none" stroke="#000000" d="M 984 328 L 1213.00341796875 328 L 1213.00341796875 385 L 984 385 L 984 328 Z Z" stroke-miterlimit="10"/></g><g transform="translate(-38,-62) scale(1,1)"><path fill="none" stroke="#000000" d="M 984 353 L 1213.00341796875 353" stroke-miterlimit="10"/></g><g transform="translate(-38,-62) scale(1,1)"><path fill="none" stroke="#000000" d="M 984 363 L 1213.00341796875 363" stroke-miterlimit="10"/></g><g transform="translate(-38,-62) scale(1,1)"><g><path fill="none" stroke="none"/><text fill="#000000" stroke="none" font-family="Arial" font-size="13px" font-style="normal" font-weight="bold" text-decoration="none" x="1039.98583984375" y="347.5">TransferDeserializer</text></g></g><g transform="translate(-38,-62) scale(1,1)"><g><path fill="none" stroke="none"/><text fill="#000000" stroke="none" font-family="Arial" font-size="13px" font-style="normal" font-weight="normal" text-decoration="none" x="989" y="380.5">+deserialize(String, byte): TransferDto</text></g></g><g transform="translate(-38,-62) scale(1,1)"><path fill="none" stroke="#000000" d="M 807 408 L 470 517" stroke-miterlimit="10"/></g><g transform="translate(-38,-62) scale(1,1)"><g><path fill="none" stroke="none"/><text fill="#000000" stroke="none" font-family="Arial" font-size="13px" font-style="normal" font-weight="normal" text-decoration="none" x="625.5" y="482.5">+TCP</text></g></g><g transform="translate(-38,-62) scale(1,1)"><path fill="none" stroke="#000000" d="M 673 250 L 815 220" stroke-miterlimit="10" stroke-dasharray="3"/></g><g transform="translate(-38,-62) scale(1,1)"><rect fill="#C0C0C0" stroke="none" x="1351" y="431" width="120.22998046875" height="44" opacity="0.2"/></g><g transform="translate(-38,-62) scale(1,1)"><rect fill="#ffffff" stroke="none" x="1344" y="424" width="120.22998046875" height="44"/></g><g transform="translate(-38,-62) scale(1,1)"><path fill="none" stroke="#000000" d="M 1344 424 L 1464.22998046875 424 L 1464.22998046875 468 L 1344 468 L 1344 424 Z Z" stroke-miterlimit="10"/></g><g transform="translate(-38,-62) scale(1,1)"><path fill="none" stroke="#000000" d="M 1344 449 L 1464.22998046875 449" stroke-miterlimit="10"/></g><g transform="translate(-38,-62) scale(1,1)"><path fill="none" stroke="#000000" d="M 1344 459 L 1464.22998046875 459" stroke-miterlimit="10"/></g><g transform="translate(-38,-62) scale(1,1)"><g><path fill="none" stroke="none"/><text fill="#000000" stroke="none" font-family="Arial" font-size="13px" font-style="normal" font-weight="bold" text-decoration="none" x="1353.17822265625" y="443.5">RestApiController</text></g></g><g transform="translate(-38,-62) scale(1,1)"><path fill="none" stroke="#000000" d="M 1241 440 L 1319 436" stroke-miterlimit="10" stroke-dasharray="3"/></g><g transform="translate(-38,-62) scale(1,1)"><g><path fill="none" stroke="none"/><text fill="#000000" stroke="none" font-family="Arial" font-size="13px" font-style="normal" font-weight="normal" text-decoration="none" x="1261" y="458">HTTP</text><text fill="#000000" stroke="none" font-family="Arial" font-size="13px" font-style="normal" font-weight="normal" text-decoration="none" x="1261" y="471">REST</text></g></g><g transform="translate(-38,-62) scale(1,1)"><g><path fill="none" stroke="none"/><text fill="#000000" stroke="none" font-family="Arial" font-size="13px" font-style="normal" font-weight="normal" text-decoration="none" x="717" y="210">HTTP</text><text fill="#000000" stroke="none" font-family="Arial" font-size="13px" font-style="normal" font-weight="normal" text-decoration="none" x="717" y="223">REST</text></g></g></g></svg>