<svg version="1.1" xmlns="http://www.w3.org/2000/svg" xmlns:xlink="http://www.w3.org/1999/xlink" width="943.5478515625" height="533"><defs/><g><g transform="translate(-46,-78) scale(1,1)"><rect fill="#C0C0C0" stroke="none" x="287" y="207" width="156.4052734375" height="115" opacity="0.2"/></g><g transform="translate(-46,-78) scale(1,1)"><rect fill="#ff5656" stroke="none" x="280" y="200" width="156.4052734375" height="115"/></g><g transform="translate(-46,-78) scale(1,1)"><path fill="none" stroke="#000000" d="M 280 200 L 436.4052734375 200 L 436.4052734375 315 L 280 315 L 280 200 Z Z" stroke-miterlimit="10"/></g><g transform="translate(-46,-78) scale(1,1)"><path fill="none" stroke="#000000" d="M 280 238 L 436.4052734375 238" stroke-miterlimit="10"/></g><g transform="translate(-46,-78) scale(1,1)"><path fill="none" stroke="#000000" d="M 280 306 L 436.4052734375 306" stroke-miterlimit="10"/></g><g transform="translate(-46,-78) scale(1,1)"><g><path fill="none" stroke="none"/><text fill="#000000" stroke="none" font-family="Arial" font-size="13px" font-style="normal" font-weight="normal" text-decoration="none" x="335.436767578125" y="217.5">«entity»</text></g></g><g transform="translate(-46,-78) scale(1,1)"><g><path fill="none" stroke="none"/><text fill="#000000" stroke="none" font-family="Arial" font-size="13px" font-style="normal" font-weight="bold" text-decoration="none" x="307.986328125" y="232.5">TransactionEntity</text></g></g><g transform="translate(-46,-78) scale(1,1)"><g><path fill="none" stroke="none"/><text fill="#000000" stroke="none" font-family="Arial" font-size="13px" font-style="normal" font-weight="normal" text-decoration="none" x="285" y="255.5">-idTransaction: int</text></g></g><g transform="translate(-46,-78) scale(1,1)"><g><path fill="none" stroke="none"/><text fill="#000000" stroke="none" font-family="Arial" font-size="13px" font-style="normal" font-weight="normal" text-decoration="none" x="285" y="270.5">-valueDate: LocalDate</text></g></g><g transform="translate(-46,-78) scale(1,1)"><g><path fill="none" stroke="none"/><text fill="#000000" stroke="none" font-family="Arial" font-size="13px" font-style="normal" font-weight="normal" text-decoration="none" x="285" y="285.5">-amount: double</text></g></g><g transform="translate(-46,-78) scale(1,1)"><g><path fill="none" stroke="none"/><text fill="#000000" stroke="none" font-family="Arial" font-size="13px" font-style="normal" font-weight="normal" text-decoration="none" x="285" y="300.5">-wording: String</text></g></g><g transform="translate(-46,-78) scale(1,1)"><rect fill="#C0C0C0" stroke="none" x="543" y="231" width="120" height="85" opacity="0.2"/></g><g transform="translate(-46,-78) scale(1,1)"><rect fill="#ff5656" stroke="none" x="536" y="224" width="120" height="85"/></g><g transform="translate(-46,-78) scale(1,1)"><path fill="none" stroke="#000000" d="M 536 224 L 656 224 L 656 309 L 536 309 L 536 224 Z Z" stroke-miterlimit="10"/></g><g transform="translate(-46,-78) scale(1,1)"><path fill="none" stroke="#000000" d="M 536 262 L 656 262" stroke-miterlimit="10"/></g><g transform="translate(-46,-78) scale(1,1)"><path fill="none" stroke="#000000" d="M 536 300 L 656 300" stroke-miterlimit="10"/></g><g transform="translate(-46,-78) scale(1,1)"><g><path fill="none" stroke="none"/><text fill="#000000" stroke="none" font-family="Arial" font-size="13px" font-style="normal" font-weight="normal" text-decoration="none" x="573.234130859375" y="241.5">«entity»</text></g></g><g transform="translate(-46,-78) scale(1,1)"><g><path fill="none" stroke="none"/><text fill="#000000" stroke="none" font-family="Arial" font-size="13px" font-style="normal" font-weight="bold" text-decoration="none" x="556.25732421875" y="256.5">AccountEntity</text></g></g><g transform="translate(-46,-78) scale(1,1)"><g><path fill="none" stroke="none"/><text fill="#000000" stroke="none" font-family="Arial" font-size="13px" font-style="normal" font-weight="normal" text-decoration="none" x="541" y="279.5">-IBAN: String</text></g></g><g transform="translate(-46,-78) scale(1,1)"><g><path fill="none" stroke="none"/><text fill="#000000" stroke="none" font-family="Arial" font-size="13px" font-style="normal" font-weight="normal" text-decoration="none" x="541" y="294.5">-balance: double</text></g></g><g transform="translate(-46,-78) scale(1,1)"><path fill="none" stroke="#000000" d="M 437 270 L 496 280 L 535 275" stroke-miterlimit="10"/></g><g transform="translate(-46,-78) scale(1,1)"><g><path fill="none" stroke="none"/><text fill="#000000" stroke="none" font-family="Arial" font-size="13px" font-style="normal" font-weight="normal" text-decoration="none" x="450.94775390625" y="265.5">+0..*</text></g></g><g transform="translate(-46,-78) scale(1,1)"><g><path fill="none" stroke="none"/><text fill="#000000" stroke="none" font-family="Arial" font-size="13px" font-style="normal" font-weight="normal" text-decoration="none" x="499.089111328125" y="269.5">+1</text></g></g><g transform="translate(-46,-78) scale(1,1)"><rect fill="#C0C0C0" stroke="none" x="63" y="247" width="184.576171875" height="85" opacity="0.2"/></g><g transform="translate(-46,-78) scale(1,1)"><rect fill="#ff5656" stroke="none" x="56" y="240" width="184.576171875" height="85"/></g><g transform="translate(-46,-78) scale(1,1)"><path fill="none" stroke="#000000" d="M 56 240 L 240.576171875 240 L 240.576171875 325 L 56 325 L 56 240 Z Z" stroke-miterlimit="10"/></g><g transform="translate(-46,-78) scale(1,1)"><path fill="none" stroke="#000000" d="M 56 278 L 240.576171875 278" stroke-miterlimit="10"/></g><g transform="translate(-46,-78) scale(1,1)"><path fill="none" stroke="#000000" d="M 56 316 L 240.576171875 316" stroke-miterlimit="10"/></g><g transform="translate(-46,-78) scale(1,1)"><g><path fill="none" stroke="none"/><text fill="#000000" stroke="none" font-family="Arial" font-size="13px" font-style="normal" font-weight="normal" text-decoration="none" x="125.522216796875" y="257.5">«entity»</text></g></g><g transform="translate(-46,-78) scale(1,1)"><g><path fill="none" stroke="none"/><text fill="#000000" stroke="none" font-family="Arial" font-size="13px" font-style="normal" font-weight="bold" text-decoration="none" x="107.831298828125" y="272.5">TransferEntity</text></g></g><g transform="translate(-46,-78) scale(1,1)"><g><path fill="none" stroke="none"/><text fill="#000000" stroke="none" font-family="Arial" font-size="13px" font-style="normal" font-weight="normal" text-decoration="none" x="61" y="295.5">-idTransfer: int</text></g></g><g transform="translate(-46,-78) scale(1,1)"><g><path fill="none" stroke="none"/><text fill="#000000" stroke="none" font-family="Arial" font-size="13px" font-style="normal" font-weight="normal" text-decoration="none" x="61" y="310.5">-beneficiaryIban: String</text></g></g><g transform="translate(-46,-78) scale(1,1)"><path fill="none" stroke="#000000" d="M 242 271 L 279 266" stroke-miterlimit="10"/></g><g transform="translate(-46,-78) scale(1,1)"><path fill="#FFFFFF" stroke="none" d="M 259.98519180887865 277.065128533138 L 279 266 L 257.73027276461397 260.37872760557923"/></g><g transform="translate(-46,-78) scale(1,1)"><path fill="none" stroke="#000000" d="M 259.98519180887865 277.065128533138 L 279 266 L 257.73027276461397 260.37872760557923 L 259.98519180887865 277.065128533138" stroke-miterlimit="10"/></g><g transform="translate(-46,-78) scale(1,1)"><rect fill="#C0C0C0" stroke="none" x="751" y="143" width="235.5478515625" height="100" opacity="0.2"/></g><g transform="translate(-46,-78) scale(1,1)"><rect fill="#ff5656" stroke="none" x="744" y="136" width="235.5478515625" height="100"/></g><g transform="translate(-46,-78) scale(1,1)"><path fill="none" stroke="#000000" d="M 744 136 L 979.5478515625 136 L 979.5478515625 236 L 744 236 L 744 136 Z Z" stroke-miterlimit="10"/></g><g transform="translate(-46,-78) scale(1,1)"><path fill="none" stroke="#000000" d="M 744 174 L 979.5478515625 174" stroke-miterlimit="10"/></g><g transform="translate(-46,-78) scale(1,1)"><path fill="none" stroke="#000000" d="M 744 227 L 979.5478515625 227" stroke-miterlimit="10"/></g><g transform="translate(-46,-78) scale(1,1)"><g><path fill="none" stroke="none"/><text fill="#000000" stroke="none" font-family="Arial" font-size="13px" font-style="normal" font-weight="normal" text-decoration="none" x="839.008056640625" y="153.5">«entity»</text></g></g><g transform="translate(-46,-78) scale(1,1)"><g><path fill="none" stroke="none"/><text fill="#000000" stroke="none" font-family="Arial" font-size="13px" font-style="normal" font-weight="bold" text-decoration="none" x="828.8994140625" y="168.5">ClientEntity</text></g></g><g transform="translate(-46,-78) scale(1,1)"><g><path fill="none" stroke="none"/><text fill="#000000" stroke="none" font-family="Arial" font-size="13px" font-style="normal" font-weight="normal" text-decoration="none" x="749" y="191.5">-idClient: int</text></g></g><g transform="translate(-46,-78) scale(1,1)"><g><path fill="none" stroke="none"/><text fill="#000000" stroke="none" font-family="Arial" font-size="13px" font-style="normal" font-weight="normal" text-decoration="none" x="749" y="206.5">-name: String</text></g></g><g transform="translate(-46,-78) scale(1,1)"><g><path fill="none" stroke="none"/><text fill="#000000" stroke="none" font-family="Arial" font-size="13px" font-style="normal" font-weight="normal" text-decoration="none" x="749" y="221.5">-lastName: String</text></g></g><g transform="translate(-46,-78) scale(1,1)"><path fill="none" stroke="#000000" d="M 657 248 L 743 222" stroke-miterlimit="10"/></g><g transform="translate(-46,-78) scale(1,1)"><g><path fill="none" stroke="none"/><text fill="#000000" stroke="none" font-family="Arial" font-size="13px" font-style="normal" font-weight="normal" text-decoration="none" x="655.94775390625" y="262.5">+1..*</text></g></g><g transform="translate(-46,-78) scale(1,1)"><g><path fill="none" stroke="none"/><text fill="#000000" stroke="none" font-family="Arial" font-size="13px" font-style="normal" font-weight="normal" text-decoration="none" x="722.089111328125" y="238.5">+1</text></g></g><g transform="translate(-46,-78) scale(1,1)"><rect fill="#C0C0C0" stroke="none" x="783" y="279" width="161.115234375" height="85" opacity="0.2"/></g><g transform="translate(-46,-78) scale(1,1)"><rect fill="#ff5656" stroke="none" x="776" y="272" width="161.115234375" height="85"/></g><g transform="translate(-46,-78) scale(1,1)"><path fill="none" stroke="#000000" d="M 776 272 L 937.115234375 272 L 937.115234375 357 L 776 357 L 776 272 Z Z" stroke-miterlimit="10"/></g><g transform="translate(-46,-78) scale(1,1)"><path fill="none" stroke="#000000" d="M 776 310 L 937.115234375 310" stroke-miterlimit="10"/></g><g transform="translate(-46,-78) scale(1,1)"><path fill="none" stroke="#000000" d="M 776 348 L 937.115234375 348" stroke-miterlimit="10"/></g><g transform="translate(-46,-78) scale(1,1)"><g><path fill="none" stroke="none"/><text fill="#000000" stroke="none" font-family="Arial" font-size="13px" font-style="normal" font-weight="normal" text-decoration="none" x="833.791748046875" y="289.5">«entity»</text></g></g><g transform="translate(-46,-78) scale(1,1)"><g><path fill="none" stroke="none"/><text fill="#000000" stroke="none" font-family="Arial" font-size="13px" font-style="normal" font-weight="bold" text-decoration="none" x="802.364501953125" y="304.5">AccountTypeEntity</text></g></g><g transform="translate(-46,-78) scale(1,1)"><g><path fill="none" stroke="none"/><text fill="#000000" stroke="none" font-family="Arial" font-size="13px" font-style="normal" font-weight="normal" text-decoration="none" x="781" y="327.5">-idTypeAccount: int</text></g></g><g transform="translate(-46,-78) scale(1,1)"><g><path fill="none" stroke="none"/><text fill="#000000" stroke="none" font-family="Arial" font-size="13px" font-style="normal" font-weight="normal" text-decoration="none" x="781" y="342.5">-label: String</text></g></g><g transform="translate(-46,-78) scale(1,1)"><path fill="none" stroke="#000000" d="M 657 277 L 775 299" stroke-miterlimit="10"/></g><g transform="translate(-46,-78) scale(1,1)"><g><path fill="none" stroke="none"/><text fill="#000000" stroke="none" font-family="Arial" font-size="13px" font-style="normal" font-weight="normal" text-decoration="none" x="670.94775390625" y="273.5">+0..*</text></g></g><g transform="translate(-46,-78) scale(1,1)"><g><path fill="none" stroke="none"/><text fill="#000000" stroke="none" font-family="Arial" font-size="13px" font-style="normal" font-weight="normal" text-decoration="none" x="744.089111328125" y="285.5">+1</text></g></g><g transform="translate(-46,-78) scale(1,1)"><rect fill="#C0C0C0" stroke="none" x="479" y="95" width="131.0908203125" height="102" opacity="0.2"/></g><g transform="translate(-46,-78) scale(1,1)"><rect fill="#ff5656" stroke="none" x="472" y="88" width="131.0908203125" height="102"/></g><g transform="translate(-46,-78) scale(1,1)"><path fill="none" stroke="#000000" d="M 472 88 L 603.0908203125 88 L 603.0908203125 190 L 472 190 L 472 88 Z Z" stroke-miterlimit="10"/></g><g transform="translate(-46,-78) scale(1,1)"><path fill="none" stroke="#000000" d="M 472 126 L 603.0908203125 126" stroke-miterlimit="10"/></g><g transform="translate(-46,-78) scale(1,1)"><path fill="none" stroke="#000000" d="M 472 179 L 603.0908203125 179" stroke-miterlimit="10"/></g><g transform="translate(-46,-78) scale(1,1)"><g><path fill="none" stroke="none"/><text fill="#000000" stroke="none" font-family="Arial" font-size="13px" font-style="normal" font-weight="normal" text-decoration="none" x="514.779541015625" y="105.5">«entity»</text></g></g><g transform="translate(-46,-78) scale(1,1)"><g><path fill="none" stroke="none"/><text fill="#000000" stroke="none" font-family="Arial" font-size="13px" font-style="normal" font-weight="bold" text-decoration="none" x="481.905029296875" y="120.5">BeneficiaryAccount</text></g></g><g transform="translate(-46,-78) scale(1,1)"><g><path fill="none" stroke="none"/><text fill="#000000" stroke="none" font-family="Arial" font-size="13px" font-style="normal" font-weight="normal" text-decoration="none" x="477" y="143.5">-idBeneficiary: int</text></g></g><g transform="translate(-46,-78) scale(1,1)"><g><path fill="none" stroke="none"/><text fill="#000000" stroke="none" font-family="Arial" font-size="13px" font-style="normal" font-weight="normal" text-decoration="none" x="477" y="158.5">-iban: String</text></g></g><g transform="translate(-46,-78) scale(1,1)"><g><path fill="none" stroke="none"/><text fill="#000000" stroke="none" font-family="Arial" font-size="13px" font-style="normal" font-weight="normal" text-decoration="none" x="477" y="173.5">-name: String</text></g></g><g transform="translate(-46,-78) scale(1,1)"><path fill="none" stroke="#000000" d="M 604 149 L 743 169" stroke-miterlimit="10"/></g><g transform="translate(-46,-78) scale(1,1)"><g><path fill="none" stroke="none"/><text fill="#000000" stroke="none" font-family="Arial" font-size="13px" font-style="normal" font-weight="normal" text-decoration="none" x="612.74365234375" y="170.5">0..*</text></g></g><g transform="translate(-46,-78) scale(1,1)"><g><path fill="none" stroke="none"/><text fill="#000000" stroke="none" font-family="Arial" font-size="13px" font-style="normal" font-weight="normal" text-decoration="none" x="714.885009765625" y="184.5">1</text></g></g><g transform="translate(-46,-78) scale(1,1)"><rect fill="#C0C0C0" stroke="none" x="359" y="415" width="123.130859375" height="57" opacity="0.2"/></g><g transform="translate(-46,-78) scale(1,1)"><rect fill="#38ff38" stroke="none" x="352" y="408" width="123.130859375" height="57"/></g><g transform="translate(-46,-78) scale(1,1)"><path fill="none" stroke="#000000" d="M 352 408 L 475.130859375 408 L 475.130859375 465 L 352 465 L 352 408 Z Z" stroke-miterlimit="10"/></g><g transform="translate(-46,-78) scale(1,1)"><path fill="none" stroke="#000000" d="M 352 446 L 475.130859375 446" stroke-miterlimit="10"/></g><g transform="translate(-46,-78) scale(1,1)"><path fill="none" stroke="#000000" d="M 352 456 L 475.130859375 456" stroke-miterlimit="10"/></g><g transform="translate(-46,-78) scale(1,1)"><g><path fill="none" stroke="none"/><text fill="#000000" stroke="none" font-family="Arial" font-size="13px" font-style="normal" font-weight="normal" text-decoration="none" x="386.825927734375" y="425.5">«control»</text></g></g><g transform="translate(-46,-78) scale(1,1)"><g><path fill="none" stroke="none"/><text fill="#000000" stroke="none" font-family="Arial" font-size="13px" font-style="normal" font-weight="bold" text-decoration="none" x="361.187744140625" y="440.5">TransferController</text></g></g><g transform="translate(-46,-78) scale(1,1)"><rect fill="#C0C0C0" stroke="none" x="191" y="551" width="134.708984375" height="57" opacity="0.2"/></g><g transform="translate(-46,-78) scale(1,1)"><rect fill="#568eff" stroke="none" x="184" y="544" width="134.708984375" height="57"/></g><g transform="translate(-46,-78) scale(1,1)"><path fill="none" stroke="#000000" d="M 184 544 L 318.708984375 544 L 318.708984375 601 L 184 601 L 184 544 Z Z" stroke-miterlimit="10"/></g><g transform="translate(-46,-78) scale(1,1)"><path fill="none" stroke="#000000" d="M 184 582 L 318.708984375 582" stroke-miterlimit="10"/></g><g transform="translate(-46,-78) scale(1,1)"><path fill="none" stroke="#000000" d="M 184 592 L 318.708984375 592" stroke-miterlimit="10"/></g><g transform="translate(-46,-78) scale(1,1)"><g><path fill="none" stroke="none"/><text fill="#000000" stroke="none" font-family="Arial" font-size="13px" font-style="normal" font-weight="normal" text-decoration="none" x="226.7763671875" y="561.5">«dialog»</text></g></g><g transform="translate(-46,-78) scale(1,1)"><g><path fill="none" stroke="none"/><text fill="#000000" stroke="none" font-family="Arial" font-size="13px" font-style="normal" font-weight="bold" text-decoration="none" x="193.924072265625" y="576.5">createTransferForm</text></g></g><g transform="translate(-46,-78) scale(1,1)"><rect fill="#C0C0C0" stroke="none" x="455" y="551" width="119.5380859375" height="57" opacity="0.2"/></g><g transform="translate(-46,-78) scale(1,1)"><rect fill="#568eff" stroke="none" x="448" y="544" width="119.5380859375" height="57"/></g><g transform="translate(-46,-78) scale(1,1)"><path fill="none" stroke="#000000" d="M 448 544 L 567.5380859375 544 L 567.5380859375 601 L 448 601 L 448 544 Z Z" stroke-miterlimit="10"/></g><g transform="translate(-46,-78) scale(1,1)"><path fill="none" stroke="#000000" d="M 448 582 L 567.5380859375 582" stroke-miterlimit="10"/></g><g transform="translate(-46,-78) scale(1,1)"><path fill="none" stroke="#000000" d="M 448 592 L 567.5380859375 592" stroke-miterlimit="10"/></g><g transform="translate(-46,-78) scale(1,1)"><g><path fill="none" stroke="none"/><text fill="#000000" stroke="none" font-family="Arial" font-size="13px" font-style="normal" font-weight="normal" text-decoration="none" x="483.19091796875" y="561.5">«dialog»</text></g></g><g transform="translate(-46,-78) scale(1,1)"><g><path fill="none" stroke="none"/><text fill="#000000" stroke="none" font-family="Arial" font-size="13px" font-style="normal" font-weight="bold" text-decoration="none" x="456.464111328125" y="576.5">transferResponse</text></g></g><g transform="translate(-46,-78) scale(1,1)"><path fill="none" stroke="#000000" d="M 286 543 L 377 466" stroke-miterlimit="10"/></g><g transform="translate(-46,-78) scale(1,1)"><path fill="none" stroke="#000000" d="M 371.96105872583684 475.77798909978605 L 377 466 L 366.52284805621156 469.3510128538653" stroke-miterlimit="10"/></g><g transform="translate(-46,-78) scale(1,1)"><path fill="none" stroke="#000000" d="M 425 407 L 515 191" stroke-miterlimit="10"/></g><g transform="translate(-46,-78) scale(1,1)"><path fill="none" stroke="#000000" d="M 514.9769875987747 201.9999759285823 L 515 191 L 507.2055702030529 198.76188534703152" stroke-miterlimit="10"/></g><g transform="translate(-46,-78) scale(1,1)"><path fill="none" stroke="#000000" d="M 444 407 L 549 310" stroke-miterlimit="10"/></g><g transform="translate(-46,-78) scale(1,1)"><path fill="none" stroke="#000000" d="M 544.3916127224467 319.9881312916924 L 549 310 L 538.678702737971 313.8040534734455" stroke-miterlimit="10"/></g><g transform="translate(-46,-78) scale(1,1)"><path fill="none" stroke="#000000" d="M 404 407 L 376 316" stroke-miterlimit="10"/></g><g transform="translate(-46,-78) scale(1,1)"><path fill="none" stroke="#000000" d="M 383.01206757000654 324.4753116989089 L 376 316 L 374.96533015392174 326.95123090385806" stroke-miterlimit="10"/></g><g transform="translate(-46,-78) scale(1,1)"><path fill="none" stroke="#000000" d="M 434 466 L 487 543" stroke-miterlimit="10"/></g><g transform="translate(-46,-78) scale(1,1)"><path fill="none" stroke="#000000" d="M 477.7704339782735 537.0154272457767 L 487 543 L 484.70544325564384 532.2419793016127" stroke-miterlimit="10"/></g></g></svg>