<svg version="1.1" xmlns="http://www.w3.org/2000/svg" xmlns:xlink="http://www.w3.org/1999/xlink" width="716" height="550"><defs/><g><g transform="translate(-14,10) scale(1,1)"><path fill="none" stroke="#000000" d="M 24 0 L 720 0 L 720 528 L 24 528 L 24 0" stroke-miterlimit="10"/></g><g transform="translate(-14,10) scale(1,1)"><path fill="#ffffff" stroke="none" d="M 24 0 L 24 22 L 434.51318359375 22 L 445.51318359375 11 L 445.51318359375 0 L 24 0"/></g><g transform="translate(-14,10) scale(1,1)"><path fill="none" stroke="#000000" d="M 24 0 L 24 22 L 434.51318359375 22 L 445.51318359375 11 L 445.51318359375 0 L 24 0 L 24 0" stroke-miterlimit="10"/></g><g transform="translate(-14,10) scale(1,1)"><g><path fill="none" stroke="none"/><text fill="#000000" stroke="none" font-family="Arial" font-size="13px" font-style="normal" font-weight="normal" text-decoration="none" x="94.97900390625" y="17.5">US19 - Réaliser un virement (avec bénéficiaire enregistré)</text></g></g><g transform="translate(-14,10) scale(1,1)"><g><path fill="none" stroke="none"/><text fill="#000000" stroke="none" font-family="Arial" font-size="13px" font-style="normal" font-weight="bold" text-decoration="none" x="29" y="17.5">interaction</text></g></g><g transform="translate(-14,10) scale(1,1)"><rect fill="#C0C0C0" stroke="none" x="151" y="47" width="90.53173828125" height="39" opacity="0.2"/></g><g transform="translate(-14,10) scale(1,1)"><rect fill="#ffffff" stroke="none" x="144" y="40" width="90.53173828125" height="39"/></g><g transform="translate(-14,10) scale(1,1)"><path fill="none" stroke="#000000" d="M 144 40 L 234.53173828125 40 L 234.53173828125 79 L 144 79 L 144 40 Z Z" stroke-miterlimit="10"/></g><g transform="translate(-14,10) scale(1,1)"><g><path fill="none" stroke="none"/><text fill="#000000" stroke="none" font-family="Arial" font-size="13px" font-style="normal" font-weight="bold" text-decoration="none" x="160.36181640625" y="59.5">Sociétaire</text></g></g><g transform="translate(-14,10) scale(1,1)"><path fill="none" stroke="#000000" d="M 190.5 80 L 190.5 530" stroke-miterlimit="10" stroke-dasharray="3"/></g><g transform="translate(-14,10) scale(1,1)"><rect fill="#C0C0C0" stroke="none" x="495" y="47" width="71.736328125" height="39" opacity="0.2"/></g><g transform="translate(-14,10) scale(1,1)"><rect fill="#ffffff" stroke="none" x="488" y="40" width="71.736328125" height="39"/></g><g transform="translate(-14,10) scale(1,1)"><path fill="none" stroke="#000000" d="M 488 40 L 559.736328125 40 L 559.736328125 79 L 488 79 L 488 40 Z Z" stroke-miterlimit="10"/></g><g transform="translate(-14,10) scale(1,1)"><g><path fill="none" stroke="none"/><text fill="#000000" stroke="none" font-family="Arial" font-size="13px" font-style="normal" font-weight="bold" text-decoration="none" x="510.14453125" y="59.5">SUD</text></g></g><g transform="translate(-14,10) scale(1,1)"><path fill="none" stroke="#000000" d="M 524.5 80 L 524.5 530" stroke-miterlimit="10" stroke-dasharray="3"/></g><g transform="translate(-14,10) scale(1,1)"><path fill="none" stroke="#000000" d="M 190 105 L 517 105" stroke-miterlimit="10"/></g><g transform="translate(-14,10) scale(1,1)"><path fill="#000000" stroke="none" d="M 506.83732514237585 109.20951775601598 L 517 105 L 506.83732514237585 100.79048224398402"/></g><g transform="translate(-14,10) scale(1,1)"><path fill="none" stroke="#000000" d="M 506.83732514237585 109.20951775601598 L 517 105 L 506.83732514237585 100.79048224398402 L 506.83732514237585 109.20951775601598" stroke-miterlimit="10"/></g><g transform="translate(-14,10) scale(1,1)"><g><path fill="none" stroke="none"/><text fill="#000000" stroke="none" font-family="Arial" font-size="13px" font-style="normal" font-weight="normal" text-decoration="none" x="284.5" y="101.5">1 : Réaliser un virement</text></g></g><g transform="translate(-14,10) scale(1,1)"><rect fill="#ffffff" stroke="none" x="517" y="105" width="13" height="28"/></g><g transform="translate(-14,10) scale(1,1)"><path fill="none" stroke="#000000" d="M 517 105 L 530 105 L 530 133 L 517 133 L 517 105 Z Z" stroke-miterlimit="10"/></g><g transform="translate(-14,10) scale(1,1)"><path fill="none" stroke="#000000" d="M 517 130 L 196 130" stroke-miterlimit="10"/></g><g transform="translate(-14,10) scale(1,1)"><path fill="#000000" stroke="none" d="M 206.16267485762415 125.79048224398402 L 196 130 L 206.16267485762415 134.209517756016"/></g><g transform="translate(-14,10) scale(1,1)"><path fill="none" stroke="#000000" d="M 206.16267485762415 125.79048224398402 L 196 130 L 206.16267485762415 134.209517756016 L 206.16267485762415 125.79048224398402" stroke-miterlimit="10"/></g><g transform="translate(-14,10) scale(1,1)"><g><path fill="none" stroke="none"/><text fill="#000000" stroke="none" font-family="Arial" font-size="13px" font-style="normal" font-weight="normal" text-decoration="none" x="252.5" y="146.5">2 : Page sélection compte émetteur</text></g></g><g transform="translate(-14,10) scale(1,1)"><rect fill="#ffffff" stroke="none" x="183" y="130" width="13" height="54"/></g><g transform="translate(-14,10) scale(1,1)"><path fill="none" stroke="#000000" d="M 183 130 L 196 130 L 196 184 L 183 184 L 183 130 Z Z" stroke-miterlimit="10"/></g><g transform="translate(-14,10) scale(1,1)"><path fill="none" stroke="#000000" d="M 196 176 L 517 176" stroke-miterlimit="10"/></g><g transform="translate(-14,10) scale(1,1)"><path fill="#000000" stroke="none" d="M 506.83732514237585 180.209517756016 L 517 176 L 506.83732514237585 171.790482243984"/></g><g transform="translate(-14,10) scale(1,1)"><path fill="none" stroke="#000000" d="M 506.83732514237585 180.209517756016 L 517 176 L 506.83732514237585 171.790482243984 L 506.83732514237585 180.209517756016" stroke-miterlimit="10"/></g><g transform="translate(-14,10) scale(1,1)"><g><path fill="none" stroke="none"/><text fill="#000000" stroke="none" font-family="Arial" font-size="13px" font-style="normal" font-weight="normal" text-decoration="none" x="264.944091796875" y="172.5">3 : Sélectionner compte émetteur</text></g></g><g transform="translate(-14,10) scale(1,1)"><rect fill="#ffffff" stroke="none" x="517" y="176" width="13" height="28"/></g><g transform="translate(-14,10) scale(1,1)"><path fill="none" stroke="#000000" d="M 517 176 L 530 176 L 530 204 L 517 204 L 517 176 Z Z" stroke-miterlimit="10"/></g><g transform="translate(-14,10) scale(1,1)"><path fill="none" stroke="#000000" d="M 517 200 L 196 200" stroke-miterlimit="10"/></g><g transform="translate(-14,10) scale(1,1)"><path fill="#000000" stroke="none" d="M 206.16267485762415 195.790482243984 L 196 200 L 206.16267485762415 204.209517756016"/></g><g transform="translate(-14,10) scale(1,1)"><path fill="none" stroke="#000000" d="M 206.16267485762415 195.790482243984 L 196 200 L 206.16267485762415 204.209517756016 L 206.16267485762415 195.790482243984" stroke-miterlimit="10"/></g><g transform="translate(-14,10) scale(1,1)"><g><path fill="none" stroke="none"/><text fill="#000000" stroke="none" font-family="Arial" font-size="13px" font-style="normal" font-weight="normal" text-decoration="none" x="245.5" y="216.5">4 : Page sélection compte bénéficiaire</text></g></g><g transform="translate(-14,10) scale(1,1)"><rect fill="#ffffff" stroke="none" x="183" y="200" width="13" height="56"/></g><g transform="translate(-14,10) scale(1,1)"><path fill="none" stroke="#000000" d="M 183 200 L 196 200 L 196 256 L 183 256 L 183 200 Z Z" stroke-miterlimit="10"/></g><g transform="translate(-14,10) scale(1,1)"><path fill="none" stroke="#000000" d="M 196 248 L 517 248" stroke-miterlimit="10"/></g><g transform="translate(-14,10) scale(1,1)"><path fill="#000000" stroke="none" d="M 506.83732514237585 252.209517756016 L 517 248 L 506.83732514237585 243.790482243984"/></g><g transform="translate(-14,10) scale(1,1)"><path fill="none" stroke="#000000" d="M 506.83732514237585 252.209517756016 L 517 248 L 506.83732514237585 243.790482243984 L 506.83732514237585 252.209517756016" stroke-miterlimit="10"/></g><g transform="translate(-14,10) scale(1,1)"><g><path fill="none" stroke="none"/><text fill="#000000" stroke="none" font-family="Arial" font-size="13px" font-style="normal" font-weight="normal" text-decoration="none" x="252.5" y="244.5">5 : Sélectionner compte bénéficiaire</text></g></g><g transform="translate(-14,10) scale(1,1)"><rect fill="#ffffff" stroke="none" x="517" y="248" width="13" height="28"/></g><g transform="translate(-14,10) scale(1,1)"><path fill="none" stroke="#000000" d="M 517 248 L 530 248 L 530 276 L 517 276 L 517 248 Z Z" stroke-miterlimit="10"/></g><g transform="translate(-14,10) scale(1,1)"><path fill="none" stroke="#000000" d="M 517 272 L 196 272" stroke-miterlimit="10"/></g><g transform="translate(-14,10) scale(1,1)"><path fill="#000000" stroke="none" d="M 206.16267485762415 267.790482243984 L 196 272 L 206.16267485762415 276.209517756016"/></g><g transform="translate(-14,10) scale(1,1)"><path fill="none" stroke="#000000" d="M 206.16267485762415 267.790482243984 L 196 272 L 206.16267485762415 276.209517756016 L 206.16267485762415 267.790482243984" stroke-miterlimit="10"/></g><g transform="translate(-14,10) scale(1,1)"><g><path fill="none" stroke="none"/><text fill="#000000" stroke="none" font-family="Arial" font-size="13px" font-style="normal" font-weight="normal" text-decoration="none" x="288.5" y="288.5">6 : Formulaire virement</text></g></g><g transform="translate(-14,10) scale(1,1)"><rect fill="#ffffff" stroke="none" x="183" y="272" width="13" height="88"/></g><g transform="translate(-14,10) scale(1,1)"><path fill="none" stroke="#000000" d="M 183 272 L 196 272 L 196 360 L 183 360 L 183 272 Z Z" stroke-miterlimit="10"/></g><g transform="translate(-14,10) scale(1,1)"><path fill="none" stroke="#000000" d="M 196 314 L 517 314" stroke-miterlimit="10"/></g><g transform="translate(-14,10) scale(1,1)"><path fill="#000000" stroke="none" d="M 506.83732514237585 318.209517756016 L 517 314 L 506.83732514237585 309.790482243984"/></g><g transform="translate(-14,10) scale(1,1)"><path fill="none" stroke="#000000" d="M 506.83732514237585 318.209517756016 L 517 314 L 506.83732514237585 309.790482243984 L 506.83732514237585 318.209517756016" stroke-miterlimit="10"/></g><g transform="translate(-14,10) scale(1,1)"><g><path fill="none" stroke="none"/><text fill="#000000" stroke="none" font-family="Arial" font-size="13px" font-style="normal" font-weight="normal" text-decoration="none" x="248.719482421875" y="310.5">7 : Remplir formulaire(montant, motif)</text></g></g><g transform="translate(-14,10) scale(1,1)"><rect fill="#ffffff" stroke="none" x="517" y="314" width="13" height="63"/></g><g transform="translate(-14,10) scale(1,1)"><path fill="none" stroke="#000000" d="M 517 314 L 530 314 L 530 377 L 517 377 L 517 314 Z Z" stroke-miterlimit="10"/></g><g transform="translate(-14,10) scale(1,1)"><path fill="none" stroke="#000000" d="M 196 346 L 524 346" stroke-miterlimit="10"/></g><g transform="translate(-14,10) scale(1,1)"><path fill="#000000" stroke="none" d="M 513.8373251423759 350.209517756016 L 524 346 L 513.8373251423758 341.790482243984"/></g><g transform="translate(-14,10) scale(1,1)"><path fill="none" stroke="#000000" d="M 513.8373251423759 350.209517756016 L 524 346 L 513.8373251423758 341.790482243984 L 513.8373251423759 350.209517756016" stroke-miterlimit="10"/></g><g transform="translate(-14,10) scale(1,1)"><g><path fill="none" stroke="none"/><text fill="#000000" stroke="none" font-family="Arial" font-size="13px" font-style="normal" font-weight="normal" text-decoration="none" x="300.5" y="342.5">8 : Envoyer virement</text></g></g><g transform="translate(-14,10) scale(1,1)"><rect fill="#ffffff" stroke="none" x="524" y="346" width="13" height="28"/></g><g transform="translate(-14,10) scale(1,1)"><path fill="none" stroke="#000000" d="M 524 346 L 537 346 L 537 374 L 524 374 L 524 346 Z Z" stroke-miterlimit="10"/></g><g transform="translate(-14,10) scale(1,1)"><path fill="none" stroke="#000000" d="M 537 360 L 567 360 L 567 380 L 530 380" stroke-miterlimit="10"/></g><g transform="translate(-14,10) scale(1,1)"><path fill="#000000" stroke="none" d="M 540.1626748576241 375.790482243984 L 530 380 L 540.1626748576241 384.209517756016"/></g><g transform="translate(-14,10) scale(1,1)"><path fill="none" stroke="#000000" d="M 540.1626748576241 375.790482243984 L 530 380 L 540.1626748576241 384.209517756016 L 540.1626748576241 375.790482243984" stroke-miterlimit="10"/></g><g transform="translate(-14,10) scale(1,1)"><g><path fill="none" stroke="none"/><text fill="#000000" stroke="none" font-family="Arial" font-size="13px" font-style="normal" font-weight="normal" text-decoration="none" x="574.5" y="372.5">9 : Execution virement</text></g></g><g transform="translate(-14,10) scale(1,1)"><rect fill="#ffffff" stroke="none" x="517" y="380" width="13" height="28"/></g><g transform="translate(-14,10) scale(1,1)"><path fill="none" stroke="#000000" d="M 517 380 L 530 380 L 530 408 L 517 408 L 517 380 Z Z" stroke-miterlimit="10"/></g><g transform="translate(-14,10) scale(1,1)"><path fill="none" stroke="#000000" d="M 517 400 L 190 400" stroke-miterlimit="10" stroke-dasharray="3"/></g><g transform="translate(-14,10) scale(1,1)"><path fill="none" stroke="#000000" d="M 200.16267485762415 395.790482243984 L 190 400 L 200.16267485762415 404.209517756016" stroke-miterlimit="10"/></g><g transform="translate(-14,10) scale(1,1)"><g><path fill="none" stroke="none"/><text fill="#000000" stroke="none" font-family="Arial" font-size="13px" font-style="normal" font-weight="normal" text-decoration="none" x="275.5" y="416.5">10 : Confirmation virement</text></g></g></g></svg>