<svg version="1.1" xmlns="http://www.w3.org/2000/svg" xmlns:xlink="http://www.w3.org/1999/xlink" width="768.44091796875" height="200"><defs/><g><g transform="translate(-86,-126) scale(1,1)"><rect fill="#C0C0C0" stroke="none" x="449" y="143" width="116.5380859375" height="44" opacity="0.2"/></g><g transform="translate(-86,-126) scale(1,1)"><rect fill="#ffffff" stroke="none" x="442" y="136" width="116.5380859375" height="44"/></g><g transform="translate(-86,-126) scale(1,1)"><path fill="none" stroke="#000000" d="M 442 136 L 558.5380859375 136 L 558.5380859375 180 L 442 180 L 442 136 Z Z" stroke-miterlimit="10"/></g><g transform="translate(-86,-126) scale(1,1)"><rect fill="#ffffff" stroke="none" x="432" y="143" width="20" height="10"/></g><g transform="translate(-86,-126) scale(1,1)"><path fill="none" stroke="#000000" d="M 432 143 L 452 143 L 452 153 L 432 153 L 432 143 Z Z" stroke-miterlimit="10"/></g><g transform="translate(-86,-126) scale(1,1)"><rect fill="#ffffff" stroke="none" x="432" y="163" width="20" height="10"/></g><g transform="translate(-86,-126) scale(1,1)"><path fill="none" stroke="#000000" d="M 432 163 L 452 163 L 452 173 L 432 173 L 432 163 Z Z" stroke-miterlimit="10"/></g><g transform="translate(-86,-126) scale(1,1)"><g><path fill="none" stroke="none"/><text fill="#000000" stroke="none" font-family="Arial" font-size="13px" font-style="normal" font-weight="bold" text-decoration="none" x="459.013671875" y="155.5">openxpki-1.20.1</text></g></g><g transform="translate(-86,-126) scale(1,1)"><rect fill="#C0C0C0" stroke="none" x="113" y="279" width="104.2744140625" height="44" opacity="0.2"/></g><g transform="translate(-86,-126) scale(1,1)"><rect fill="#ffffff" stroke="none" x="106" y="272" width="104.2744140625" height="44"/></g><g transform="translate(-86,-126) scale(1,1)"><path fill="none" stroke="#000000" d="M 106 272 L 210.2744140625 272 L 210.2744140625 316 L 106 316 L 106 272 Z Z" stroke-miterlimit="10"/></g><g transform="translate(-86,-126) scale(1,1)"><rect fill="#ffffff" stroke="none" x="96" y="279" width="20" height="10"/></g><g transform="translate(-86,-126) scale(1,1)"><path fill="none" stroke="#000000" d="M 96 279 L 116 279 L 116 289 L 96 289 L 96 279 Z Z" stroke-miterlimit="10"/></g><g transform="translate(-86,-126) scale(1,1)"><rect fill="#ffffff" stroke="none" x="96" y="299" width="20" height="10"/></g><g transform="translate(-86,-126) scale(1,1)"><path fill="none" stroke="#000000" d="M 96 299 L 116 299 L 116 309 L 96 309 L 96 299 Z Z" stroke-miterlimit="10"/></g><g transform="translate(-86,-126) scale(1,1)"><g><path fill="none" stroke="none"/><text fill="#000000" stroke="none" font-family="Arial" font-size="13px" font-style="normal" font-weight="bold" text-decoration="none" x="121.575927734375" y="291.5">apache-2.4.10</text></g></g><g transform="translate(-86,-126) scale(1,1)"><rect fill="#C0C0C0" stroke="none" x="273" y="279" width="98.44091796875" height="44" opacity="0.2"/></g><g transform="translate(-86,-126) scale(1,1)"><rect fill="#ffffff" stroke="none" x="266" y="272" width="98.44091796875" height="44"/></g><g transform="translate(-86,-126) scale(1,1)"><path fill="none" stroke="#000000" d="M 266 272 L 364.44091796875 272 L 364.44091796875 316 L 266 316 L 266 272 Z Z" stroke-miterlimit="10"/></g><g transform="translate(-86,-126) scale(1,1)"><rect fill="#ffffff" stroke="none" x="256" y="279" width="20" height="10"/></g><g transform="translate(-86,-126) scale(1,1)"><path fill="none" stroke="#000000" d="M 256 279 L 276 279 L 276 289 L 256 289 L 256 279 Z Z" stroke-miterlimit="10"/></g><g transform="translate(-86,-126) scale(1,1)"><rect fill="#ffffff" stroke="none" x="256" y="299" width="20" height="10"/></g><g transform="translate(-86,-126) scale(1,1)"><path fill="none" stroke="#000000" d="M 256 299 L 276 299 L 276 309 L 256 309 L 256 299 Z Z" stroke-miterlimit="10"/></g><g transform="translate(-86,-126) scale(1,1)"><g><path fill="none" stroke="none"/><text fill="#000000" stroke="none" font-family="Arial" font-size="13px" font-style="normal" font-weight="bold" text-decoration="none" x="284.083251953125" y="291.5">python-2.7.9</text></g></g><g transform="translate(-86,-126) scale(1,1)"><rect fill="#C0C0C0" stroke="none" x="417" y="279" width="98.44091796875" height="44" opacity="0.2"/></g><g transform="translate(-86,-126) scale(1,1)"><rect fill="#ffffff" stroke="none" x="410" y="272" width="98.44091796875" height="44"/></g><g transform="translate(-86,-126) scale(1,1)"><path fill="none" stroke="#000000" d="M 410 272 L 508.44091796875 272 L 508.44091796875 316 L 410 316 L 410 272 Z Z" stroke-miterlimit="10"/></g><g transform="translate(-86,-126) scale(1,1)"><rect fill="#ffffff" stroke="none" x="400" y="279" width="20" height="10"/></g><g transform="translate(-86,-126) scale(1,1)"><path fill="none" stroke="#000000" d="M 400 279 L 420 279 L 420 289 L 400 289 L 400 279 Z Z" stroke-miterlimit="10"/></g><g transform="translate(-86,-126) scale(1,1)"><rect fill="#ffffff" stroke="none" x="400" y="299" width="20" height="10"/></g><g transform="translate(-86,-126) scale(1,1)"><path fill="none" stroke="#000000" d="M 400 299 L 420 299 L 420 309 L 400 309 L 400 299 Z Z" stroke-miterlimit="10"/></g><g transform="translate(-86,-126) scale(1,1)"><g><path fill="none" stroke="none"/><text fill="#000000" stroke="none" font-family="Arial" font-size="13px" font-style="normal" font-weight="bold" text-decoration="none" x="433.1455078125" y="291.5">perl-5.20.2</text></g></g><g transform="translate(-86,-126) scale(1,1)"><rect fill="#C0C0C0" stroke="none" x="577" y="279" width="104.97900390625" height="44" opacity="0.2"/></g><g transform="translate(-86,-126) scale(1,1)"><rect fill="#ffffff" stroke="none" x="570" y="272" width="104.97900390625" height="44"/></g><g transform="translate(-86,-126) scale(1,1)"><path fill="none" stroke="#000000" d="M 570 272 L 674.97900390625 272 L 674.97900390625 316 L 570 316 L 570 272 Z Z" stroke-miterlimit="10"/></g><g transform="translate(-86,-126) scale(1,1)"><rect fill="#ffffff" stroke="none" x="560" y="279" width="20" height="10"/></g><g transform="translate(-86,-126) scale(1,1)"><path fill="none" stroke="#000000" d="M 560 279 L 580 279 L 580 289 L 560 289 L 560 279 Z Z" stroke-miterlimit="10"/></g><g transform="translate(-86,-126) scale(1,1)"><rect fill="#ffffff" stroke="none" x="560" y="299" width="20" height="10"/></g><g transform="translate(-86,-126) scale(1,1)"><path fill="none" stroke="#000000" d="M 560 299 L 580 299 L 580 309 L 560 309 L 560 299 Z Z" stroke-miterlimit="10"/></g><g transform="translate(-86,-126) scale(1,1)"><g><path fill="none" stroke="none"/><text fill="#000000" stroke="none" font-family="Arial" font-size="13px" font-style="normal" font-weight="bold" text-decoration="none" x="587.016845703125" y="291.5">openssl.1.0.1t</text></g></g><g transform="translate(-86,-126) scale(1,1)"><path fill="none" stroke="#000000" d="M 437 181 L 211 271" stroke-miterlimit="10" stroke-dasharray="3"/></g><g transform="translate(-86,-126) scale(1,1)"><path fill="none" stroke="#000000" d="M 218.8841512947079 263.32926611319647 L 211 271 L 221.99896479242486 271.1509088963524" stroke-miterlimit="10"/></g><g transform="translate(-86,-126) scale(1,1)"><path fill="none" stroke="#000000" d="M 464 181 L 341 271" stroke-miterlimit="10" stroke-dasharray="3"/></g><g transform="translate(-86,-126) scale(1,1)"><path fill="none" stroke="#000000" d="M 346.7158244934439 261.6016304413932 L 341 271 L 351.6873491063744 268.3960474123983" stroke-miterlimit="10"/></g><g transform="translate(-86,-126) scale(1,1)"><path fill="none" stroke="#000000" d="M 488 181 L 461 271" stroke-miterlimit="10" stroke-dasharray="3"/></g><g transform="translate(-86,-126) scale(1,1)"><path fill="none" stroke="#000000" d="M 459.8882363772193 260.05632686676626 L 461 271 L 467.95220988685384 262.4755189196566" stroke-miterlimit="10"/></g><g transform="translate(-86,-126) scale(1,1)"><path fill="none" stroke="#000000" d="M 516 181 L 596 271" stroke-miterlimit="10" stroke-dasharray="3"/></g><g transform="translate(-86,-126) scale(1,1)"><path fill="none" stroke="#000000" d="M 586.1020535207979 266.2009734846691 L 596 271 L 592.3945191168192 260.6076707326501" stroke-miterlimit="10"/></g><g transform="translate(-86,-126) scale(1,1)"><rect fill="#C0C0C0" stroke="none" x="753" y="279" width="98.44091796875" height="44" opacity="0.2"/></g><g transform="translate(-86,-126) scale(1,1)"><rect fill="#ffffff" stroke="none" x="746" y="272" width="98.44091796875" height="44"/></g><g transform="translate(-86,-126) scale(1,1)"><path fill="none" stroke="#000000" d="M 746 272 L 844.44091796875 272 L 844.44091796875 316 L 746 316 L 746 272 Z Z" stroke-miterlimit="10"/></g><g transform="translate(-86,-126) scale(1,1)"><rect fill="#ffffff" stroke="none" x="736" y="279" width="20" height="10"/></g><g transform="translate(-86,-126) scale(1,1)"><path fill="none" stroke="#000000" d="M 736 279 L 756 279 L 756 289 L 736 289 L 736 279 Z Z" stroke-miterlimit="10"/></g><g transform="translate(-86,-126) scale(1,1)"><rect fill="#ffffff" stroke="none" x="736" y="299" width="20" height="10"/></g><g transform="translate(-86,-126) scale(1,1)"><path fill="none" stroke="#000000" d="M 736 299 L 756 299 L 756 309 L 736 309 L 736 299 Z Z" stroke-miterlimit="10"/></g><g transform="translate(-86,-126) scale(1,1)"><g><path fill="none" stroke="none"/><text fill="#000000" stroke="none" font-family="Arial" font-size="13px" font-style="normal" font-weight="bold" text-decoration="none" x="772.04638671875" y="291.5">mysql-5.5</text></g></g><g transform="translate(-86,-126) scale(1,1)"><path fill="none" stroke="#000000" d="M 545 181 L 740 271" stroke-miterlimit="10" stroke-dasharray="3"/></g><g transform="translate(-86,-126) scale(1,1)"><path fill="none" stroke="#000000" d="M 729.0086711525645 270.5633191468237 L 740 271 L 732.5367368302223 262.91917684523173" stroke-miterlimit="10"/></g></g></svg>