<svg version="1.1" xmlns="http://www.w3.org/2000/svg" xmlns:xlink="http://www.w3.org/1999/xlink" width="747.7236328125" height="940"><defs/><g><g transform="translate(-118,-38) scale(1,1)"><path fill="#C0C0C0" stroke="none" d="M 135 505 L 796 505 L 796 974 L 135 974" opacity="0.2"/></g><g transform="translate(-118,-38) scale(1,1)"><path fill="#C0C0C0" stroke="none" d="M 135 505 L 145 495 L 806 495 L 796 505" opacity="0.2"/></g><g transform="translate(-118,-38) scale(1,1)"><path fill="#C0C0C0" stroke="none" d="M 806 495 L 796 505 L 796 974 L 806 964" opacity="0.2"/></g><g transform="translate(-118,-38) scale(1,1)"><path fill="#ffffff" stroke="none" d="M 128 498 L 789 498 L 789 967 L 128 967"/></g><g transform="translate(-118,-38) scale(1,1)"><path fill="#ffffff" stroke="none" d="M 128 498 L 138 488 L 799 488 L 789 498"/></g><g transform="translate(-118,-38) scale(1,1)"><path fill="#ffffff" stroke="none" d="M 799 488 L 789 498 L 789 967 L 799 957"/></g><g transform="translate(-118,-38) scale(1,1)"><path fill="none" stroke="#000000" d="M 128 498 L 789 498 L 789 967 L 128 967 L 128 498" stroke-miterlimit="10"/></g><g transform="translate(-118,-38) scale(1,1)"><path fill="none" stroke="#000000" d="M 128 498 L 138 488 L 799 488 L 789 498 L 128 498" stroke-miterlimit="10"/></g><g transform="translate(-118,-38) scale(1,1)"><path fill="none" stroke="#000000" d="M 799 488 L 789 498 L 789 967 L 799 957 L 799 488" stroke-miterlimit="10"/></g><g transform="translate(-118,-38) scale(1,1)"><g><path fill="none" stroke="none"/><text fill="#000000" stroke="none" font-family="Arial" font-size="13px" font-style="normal" font-weight="normal" text-decoration="none" x="432.62548828125" y="515.5">«cluster»</text></g></g><g transform="translate(-118,-38) scale(1,1)"><g><path fill="none" stroke="none"/><text fill="#000000" stroke="none" font-family="Arial" font-size="13px" font-style="normal" font-weight="bold" text-decoration="none" x="428.27734375" y="530.5">10.10.1.85</text></g></g><g transform="translate(-118,-38) scale(1,1)"><path fill="#C0C0C0" stroke="none" d="M 239 65 L 620 65 L 620 454 L 239 454" opacity="0.2"/></g><g transform="translate(-118,-38) scale(1,1)"><path fill="#C0C0C0" stroke="none" d="M 239 65 L 249 55 L 630 55 L 620 65" opacity="0.2"/></g><g transform="translate(-118,-38) scale(1,1)"><path fill="#C0C0C0" stroke="none" d="M 630 55 L 620 65 L 620 454 L 630 444" opacity="0.2"/></g><g transform="translate(-118,-38) scale(1,1)"><path fill="#ffffff" stroke="none" d="M 232 58 L 613 58 L 613 447 L 232 447"/></g><g transform="translate(-118,-38) scale(1,1)"><path fill="#ffffff" stroke="none" d="M 232 58 L 242 48 L 623 48 L 613 58"/></g><g transform="translate(-118,-38) scale(1,1)"><path fill="#ffffff" stroke="none" d="M 623 48 L 613 58 L 613 447 L 623 437"/></g><g transform="translate(-118,-38) scale(1,1)"><path fill="none" stroke="#000000" d="M 232 58 L 613 58 L 613 447 L 232 447 L 232 58" stroke-miterlimit="10"/></g><g transform="translate(-118,-38) scale(1,1)"><path fill="none" stroke="#000000" d="M 232 58 L 242 48 L 623 48 L 613 58 L 232 58" stroke-miterlimit="10"/></g><g transform="translate(-118,-38) scale(1,1)"><path fill="none" stroke="#000000" d="M 623 48 L 613 58 L 613 447 L 623 437 L 623 48" stroke-miterlimit="10"/></g><g transform="translate(-118,-38) scale(1,1)"><g><path fill="none" stroke="none"/><text fill="#000000" stroke="none" font-family="Arial" font-size="13px" font-style="normal" font-weight="normal" text-decoration="none" x="403.484130859375" y="75.5">«host»</text></g></g><g transform="translate(-118,-38) scale(1,1)"><g><path fill="none" stroke="none"/><text fill="#000000" stroke="none" font-family="Arial" font-size="13px" font-style="normal" font-weight="bold" text-decoration="none" x="392.27734375" y="90.5">10.10.1.79</text></g></g><g transform="translate(-118,-38) scale(1,1)"><path fill="#C0C0C0" stroke="none" d="M 167 601 L 396 601 L 396 878 L 167 878" opacity="0.2"/></g><g transform="translate(-118,-38) scale(1,1)"><path fill="#C0C0C0" stroke="none" d="M 167 601 L 177 591 L 406 591 L 396 601" opacity="0.2"/></g><g transform="translate(-118,-38) scale(1,1)"><path fill="#C0C0C0" stroke="none" d="M 406 591 L 396 601 L 396 878 L 406 868" opacity="0.2"/></g><g transform="translate(-118,-38) scale(1,1)"><path fill="#ffffff" stroke="none" d="M 160 594 L 389 594 L 389 871 L 160 871"/></g><g transform="translate(-118,-38) scale(1,1)"><path fill="#ffffff" stroke="none" d="M 160 594 L 170 584 L 399 584 L 389 594"/></g><g transform="translate(-118,-38) scale(1,1)"><path fill="#ffffff" stroke="none" d="M 399 584 L 389 594 L 389 871 L 399 861"/></g><g transform="translate(-118,-38) scale(1,1)"><path fill="none" stroke="#000000" d="M 160 594 L 389 594 L 389 871 L 160 871 L 160 594" stroke-miterlimit="10"/></g><g transform="translate(-118,-38) scale(1,1)"><path fill="none" stroke="#000000" d="M 160 594 L 170 584 L 399 584 L 389 594 L 160 594" stroke-miterlimit="10"/></g><g transform="translate(-118,-38) scale(1,1)"><path fill="none" stroke="#000000" d="M 399 584 L 389 594 L 389 871 L 399 861 L 399 584" stroke-miterlimit="10"/></g><g transform="translate(-118,-38) scale(1,1)"><g><path fill="none" stroke="none"/><text fill="#000000" stroke="none" font-family="Arial" font-size="13px" font-style="normal" font-weight="normal" text-decoration="none" x="255.484130859375" y="611.5">«host»</text></g></g><g transform="translate(-118,-38) scale(1,1)"><g><path fill="none" stroke="none"/><text fill="#000000" stroke="none" font-family="Arial" font-size="13px" font-style="normal" font-weight="bold" text-decoration="none" x="244.27734375" y="626.5">10.10.1.80</text></g></g><g transform="translate(-118,-38) scale(1,1)"><path fill="#C0C0C0" stroke="none" d="M 471 601 L 724 601 L 724 870 L 471 870" opacity="0.2"/></g><g transform="translate(-118,-38) scale(1,1)"><path fill="#C0C0C0" stroke="none" d="M 471 601 L 481 591 L 734 591 L 724 601" opacity="0.2"/></g><g transform="translate(-118,-38) scale(1,1)"><path fill="#C0C0C0" stroke="none" d="M 734 591 L 724 601 L 724 870 L 734 860" opacity="0.2"/></g><g transform="translate(-118,-38) scale(1,1)"><path fill="#ffffff" stroke="none" d="M 464 594 L 717 594 L 717 863 L 464 863"/></g><g transform="translate(-118,-38) scale(1,1)"><path fill="#ffffff" stroke="none" d="M 464 594 L 474 584 L 727 584 L 717 594"/></g><g transform="translate(-118,-38) scale(1,1)"><path fill="#ffffff" stroke="none" d="M 727 584 L 717 594 L 717 863 L 727 853"/></g><g transform="translate(-118,-38) scale(1,1)"><path fill="none" stroke="#000000" d="M 464 594 L 717 594 L 717 863 L 464 863 L 464 594" stroke-miterlimit="10"/></g><g transform="translate(-118,-38) scale(1,1)"><path fill="none" stroke="#000000" d="M 464 594 L 474 584 L 727 584 L 717 594 L 464 594" stroke-miterlimit="10"/></g><g transform="translate(-118,-38) scale(1,1)"><path fill="none" stroke="#000000" d="M 727 584 L 717 594 L 717 863 L 727 853 L 727 584" stroke-miterlimit="10"/></g><g transform="translate(-118,-38) scale(1,1)"><g><path fill="none" stroke="none"/><text fill="#000000" stroke="none" font-family="Arial" font-size="13px" font-style="normal" font-weight="normal" text-decoration="none" x="571.484130859375" y="611.5">«host»</text></g></g><g transform="translate(-118,-38) scale(1,1)"><g><path fill="none" stroke="none"/><text fill="#000000" stroke="none" font-family="Arial" font-size="13px" font-style="normal" font-weight="bold" text-decoration="none" x="560.27734375" y="626.5">10.10.1.81</text></g></g><g transform="translate(-118,-38) scale(1,1)"><rect fill="#C0C0C0" stroke="none" x="233" y="655" width="112.208984375" height="44" opacity="0.2"/></g><g transform="translate(-118,-38) scale(1,1)"><rect fill="#ffffff" stroke="none" x="226" y="648" width="112.208984375" height="44"/></g><g transform="translate(-118,-38) scale(1,1)"><path fill="none" stroke="#000000" d="M 226 648 L 338.208984375 648 L 338.208984375 692 L 226 692 L 226 648 Z Z" stroke-miterlimit="10"/></g><g transform="translate(-118,-38) scale(1,1)"><rect fill="#ffffff" stroke="none" x="216" y="655" width="20" height="10"/></g><g transform="translate(-118,-38) scale(1,1)"><path fill="none" stroke="#000000" d="M 216 655 L 236 655 L 236 665 L 216 665 L 216 655 Z Z" stroke-miterlimit="10"/></g><g transform="translate(-118,-38) scale(1,1)"><rect fill="#ffffff" stroke="none" x="216" y="675" width="20" height="10"/></g><g transform="translate(-118,-38) scale(1,1)"><path fill="none" stroke="#000000" d="M 216 675 L 236 675 L 236 685 L 216 685 L 216 675 Z Z" stroke-miterlimit="10"/></g><g transform="translate(-118,-38) scale(1,1)"><g><path fill="none" stroke="none"/><text fill="#000000" stroke="none" font-family="Arial" font-size="13px" font-style="normal" font-weight="bold" text-decoration="none" x="241.937744140625" y="667.5">Heartbeat-3.0.6</text></g></g><g transform="translate(-118,-38) scale(1,1)"><rect fill="#C0C0C0" stroke="none" x="553" y="655" width="112.208984375" height="44" opacity="0.2"/></g><g transform="translate(-118,-38) scale(1,1)"><rect fill="#ffffff" stroke="none" x="546" y="648" width="112.208984375" height="44"/></g><g transform="translate(-118,-38) scale(1,1)"><path fill="none" stroke="#000000" d="M 546 648 L 658.208984375 648 L 658.208984375 692 L 546 692 L 546 648 Z Z" stroke-miterlimit="10"/></g><g transform="translate(-118,-38) scale(1,1)"><rect fill="#ffffff" stroke="none" x="536" y="655" width="20" height="10"/></g><g transform="translate(-118,-38) scale(1,1)"><path fill="none" stroke="#000000" d="M 536 655 L 556 655 L 556 665 L 536 665 L 536 655 Z Z" stroke-miterlimit="10"/></g><g transform="translate(-118,-38) scale(1,1)"><rect fill="#ffffff" stroke="none" x="536" y="675" width="20" height="10"/></g><g transform="translate(-118,-38) scale(1,1)"><path fill="none" stroke="#000000" d="M 536 675 L 556 675 L 556 685 L 536 685 L 536 675 Z Z" stroke-miterlimit="10"/></g><g transform="translate(-118,-38) scale(1,1)"><g><path fill="none" stroke="none"/><text fill="#000000" stroke="none" font-family="Arial" font-size="13px" font-style="normal" font-weight="bold" text-decoration="none" x="561.937744140625" y="667.5">Heartbeat-3.0.6</text></g></g><g transform="translate(-118,-38) scale(1,1)"><rect fill="#C0C0C0" stroke="none" x="233" y="719" width="99.91357421875" height="44" opacity="0.2"/></g><g transform="translate(-118,-38) scale(1,1)"><rect fill="#ffffff" stroke="none" x="226" y="712" width="99.91357421875" height="44"/></g><g transform="translate(-118,-38) scale(1,1)"><path fill="none" stroke="#000000" d="M 226 712 L 325.91357421875 712 L 325.91357421875 756 L 226 756 L 226 712 Z Z" stroke-miterlimit="10"/></g><g transform="translate(-118,-38) scale(1,1)"><rect fill="#ffffff" stroke="none" x="216" y="719" width="20" height="10"/></g><g transform="translate(-118,-38) scale(1,1)"><path fill="none" stroke="#000000" d="M 216 719 L 236 719 L 236 729 L 216 729 L 216 719 Z Z" stroke-miterlimit="10"/></g><g transform="translate(-118,-38) scale(1,1)"><rect fill="#ffffff" stroke="none" x="216" y="739" width="20" height="10"/></g><g transform="translate(-118,-38) scale(1,1)"><path fill="none" stroke="#000000" d="M 216 739 L 236 739 L 236 749 L 216 749 L 216 739 Z Z" stroke-miterlimit="10"/></g><g transform="translate(-118,-38) scale(1,1)"><g><path fill="none" stroke="none"/><text fill="#000000" stroke="none" font-family="Arial" font-size="13px" font-style="normal" font-weight="bold" text-decoration="none" x="241.931396484375" y="731.5">drbd-9.0.14-1</text></g></g><g transform="translate(-118,-38) scale(1,1)"><rect fill="#C0C0C0" stroke="none" x="553" y="727" width="99.91357421875" height="44" opacity="0.2"/></g><g transform="translate(-118,-38) scale(1,1)"><rect fill="#ffffff" stroke="none" x="546" y="720" width="99.91357421875" height="44"/></g><g transform="translate(-118,-38) scale(1,1)"><path fill="none" stroke="#000000" d="M 546 720 L 645.91357421875 720 L 645.91357421875 764 L 546 764 L 546 720 Z Z" stroke-miterlimit="10"/></g><g transform="translate(-118,-38) scale(1,1)"><rect fill="#ffffff" stroke="none" x="536" y="727" width="20" height="10"/></g><g transform="translate(-118,-38) scale(1,1)"><path fill="none" stroke="#000000" d="M 536 727 L 556 727 L 556 737 L 536 737 L 536 727 Z Z" stroke-miterlimit="10"/></g><g transform="translate(-118,-38) scale(1,1)"><rect fill="#ffffff" stroke="none" x="536" y="747" width="20" height="10"/></g><g transform="translate(-118,-38) scale(1,1)"><path fill="none" stroke="#000000" d="M 536 747 L 556 747 L 556 757 L 536 757 L 536 747 Z Z" stroke-miterlimit="10"/></g><g transform="translate(-118,-38) scale(1,1)"><g><path fill="none" stroke="none"/><text fill="#000000" stroke="none" font-family="Arial" font-size="13px" font-style="normal" font-weight="bold" text-decoration="none" x="561.931396484375" y="739.5">drbd-9.0.14-1</text></g></g><g transform="translate(-118,-38) scale(1,1)"><rect fill="#C0C0C0" stroke="none" x="233" y="799" width="122.33984375" height="44" opacity="0.2"/></g><g transform="translate(-118,-38) scale(1,1)"><rect fill="#ffffff" stroke="none" x="226" y="792" width="122.33984375" height="44"/></g><g transform="translate(-118,-38) scale(1,1)"><path fill="none" stroke="#000000" d="M 226 792 L 348.33984375 792 L 348.33984375 836 L 226 836 L 226 792 Z Z" stroke-miterlimit="10"/></g><g transform="translate(-118,-38) scale(1,1)"><rect fill="#ffffff" stroke="none" x="216" y="799" width="20" height="10"/></g><g transform="translate(-118,-38) scale(1,1)"><path fill="none" stroke="#000000" d="M 216 799 L 236 799 L 236 809 L 216 809 L 216 799 Z Z" stroke-miterlimit="10"/></g><g transform="translate(-118,-38) scale(1,1)"><rect fill="#ffffff" stroke="none" x="216" y="819" width="20" height="10"/></g><g transform="translate(-118,-38) scale(1,1)"><path fill="none" stroke="#000000" d="M 216 819 L 236 819 L 236 829 L 216 829 L 216 819 Z Z" stroke-miterlimit="10"/></g><g transform="translate(-118,-38) scale(1,1)"><g><path fill="none" stroke="none"/><text fill="#000000" stroke="none" font-family="Arial" font-size="13px" font-style="normal" font-weight="bold" text-decoration="none" x="243.772216796875" y="811.5">mysql-server-5.5</text></g></g><g transform="translate(-118,-38) scale(1,1)"><rect fill="#C0C0C0" stroke="none" x="553" y="799" width="122.33984375" height="44" opacity="0.2"/></g><g transform="translate(-118,-38) scale(1,1)"><rect fill="#ffffff" stroke="none" x="546" y="792" width="122.33984375" height="44"/></g><g transform="translate(-118,-38) scale(1,1)"><path fill="none" stroke="#000000" d="M 546 792 L 668.33984375 792 L 668.33984375 836 L 546 836 L 546 792 Z Z" stroke-miterlimit="10"/></g><g transform="translate(-118,-38) scale(1,1)"><rect fill="#ffffff" stroke="none" x="536" y="799" width="20" height="10"/></g><g transform="translate(-118,-38) scale(1,1)"><path fill="none" stroke="#000000" d="M 536 799 L 556 799 L 556 809 L 536 809 L 536 799 Z Z" stroke-miterlimit="10"/></g><g transform="translate(-118,-38) scale(1,1)"><rect fill="#ffffff" stroke="none" x="536" y="819" width="20" height="10"/></g><g transform="translate(-118,-38) scale(1,1)"><path fill="none" stroke="#000000" d="M 536 819 L 556 819 L 556 829 L 536 829 L 536 819 Z Z" stroke-miterlimit="10"/></g><g transform="translate(-118,-38) scale(1,1)"><g><path fill="none" stroke="none"/><text fill="#000000" stroke="none" font-family="Arial" font-size="13px" font-style="normal" font-weight="bold" text-decoration="none" x="563.772216796875" y="811.5">mysql-server-5.5</text></g></g><g transform="translate(-118,-38) scale(1,1)"><rect fill="#C0C0C0" stroke="none" x="377" y="135" width="116.5380859375" height="44" opacity="0.2"/></g><g transform="translate(-118,-38) scale(1,1)"><rect fill="#ffffff" stroke="none" x="370" y="128" width="116.5380859375" height="44"/></g><g transform="translate(-118,-38) scale(1,1)"><path fill="none" stroke="#000000" d="M 370 128 L 486.5380859375 128 L 486.5380859375 172 L 370 172 L 370 128 Z Z" stroke-miterlimit="10"/></g><g transform="translate(-118,-38) scale(1,1)"><rect fill="#ffffff" stroke="none" x="360" y="135" width="20" height="10"/></g><g transform="translate(-118,-38) scale(1,1)"><path fill="none" stroke="#000000" d="M 360 135 L 380 135 L 380 145 L 360 145 L 360 135 Z Z" stroke-miterlimit="10"/></g><g transform="translate(-118,-38) scale(1,1)"><rect fill="#ffffff" stroke="none" x="360" y="155" width="20" height="10"/></g><g transform="translate(-118,-38) scale(1,1)"><path fill="none" stroke="#000000" d="M 360 155 L 380 155 L 380 165 L 360 165 L 360 155 Z Z" stroke-miterlimit="10"/></g><g transform="translate(-118,-38) scale(1,1)"><g><path fill="none" stroke="none"/><text fill="#000000" stroke="none" font-family="Arial" font-size="13px" font-style="normal" font-weight="bold" text-decoration="none" x="387.013671875" y="147.5">openxpki-1.20.1</text></g></g><g transform="translate(-118,-38) scale(1,1)"><rect fill="#C0C0C0" stroke="none" x="385" y="191" width="98.44091796875" height="44" opacity="0.2"/></g><g transform="translate(-118,-38) scale(1,1)"><rect fill="#ffffff" stroke="none" x="378" y="184" width="98.44091796875" height="44"/></g><g transform="translate(-118,-38) scale(1,1)"><path fill="none" stroke="#000000" d="M 378 184 L 476.44091796875 184 L 476.44091796875 228 L 378 228 L 378 184 Z Z" stroke-miterlimit="10"/></g><g transform="translate(-118,-38) scale(1,1)"><rect fill="#ffffff" stroke="none" x="368" y="191" width="20" height="10"/></g><g transform="translate(-118,-38) scale(1,1)"><path fill="none" stroke="#000000" d="M 368 191 L 388 191 L 388 201 L 368 201 L 368 191 Z Z" stroke-miterlimit="10"/></g><g transform="translate(-118,-38) scale(1,1)"><rect fill="#ffffff" stroke="none" x="368" y="211" width="20" height="10"/></g><g transform="translate(-118,-38) scale(1,1)"><path fill="none" stroke="#000000" d="M 368 211 L 388 211 L 388 221 L 368 221 L 368 211 Z Z" stroke-miterlimit="10"/></g><g transform="translate(-118,-38) scale(1,1)"><g><path fill="none" stroke="none"/><text fill="#000000" stroke="none" font-family="Arial" font-size="13px" font-style="normal" font-weight="bold" text-decoration="none" x="396.083251953125" y="203.5">python-2.7.9</text></g></g><g transform="translate(-118,-38) scale(1,1)"><rect fill="#C0C0C0" stroke="none" x="385" y="247" width="98.44091796875" height="44" opacity="0.2"/></g><g transform="translate(-118,-38) scale(1,1)"><rect fill="#ffffff" stroke="none" x="378" y="240" width="98.44091796875" height="44"/></g><g transform="translate(-118,-38) scale(1,1)"><path fill="none" stroke="#000000" d="M 378 240 L 476.44091796875 240 L 476.44091796875 284 L 378 284 L 378 240 Z Z" stroke-miterlimit="10"/></g><g transform="translate(-118,-38) scale(1,1)"><rect fill="#ffffff" stroke="none" x="368" y="247" width="20" height="10"/></g><g transform="translate(-118,-38) scale(1,1)"><path fill="none" stroke="#000000" d="M 368 247 L 388 247 L 388 257 L 368 257 L 368 247 Z Z" stroke-miterlimit="10"/></g><g transform="translate(-118,-38) scale(1,1)"><rect fill="#ffffff" stroke="none" x="368" y="267" width="20" height="10"/></g><g transform="translate(-118,-38) scale(1,1)"><path fill="none" stroke="#000000" d="M 368 267 L 388 267 L 388 277 L 368 277 L 368 267 Z Z" stroke-miterlimit="10"/></g><g transform="translate(-118,-38) scale(1,1)"><g><path fill="none" stroke="none"/><text fill="#000000" stroke="none" font-family="Arial" font-size="13px" font-style="normal" font-weight="bold" text-decoration="none" x="401.1455078125" y="259.5">perl-5.20.2</text></g></g><g transform="translate(-118,-38) scale(1,1)"><rect fill="#C0C0C0" stroke="none" x="377" y="303" width="105.6962890625" height="44" opacity="0.2"/></g><g transform="translate(-118,-38) scale(1,1)"><rect fill="#ffffff" stroke="none" x="370" y="296" width="105.6962890625" height="44"/></g><g transform="translate(-118,-38) scale(1,1)"><path fill="none" stroke="#000000" d="M 370 296 L 475.6962890625 296 L 475.6962890625 340 L 370 340 L 370 296 Z Z" stroke-miterlimit="10"/></g><g transform="translate(-118,-38) scale(1,1)"><rect fill="#ffffff" stroke="none" x="360" y="303" width="20" height="10"/></g><g transform="translate(-118,-38) scale(1,1)"><path fill="none" stroke="#000000" d="M 360 303 L 380 303 L 380 313 L 360 313 L 360 303 Z Z" stroke-miterlimit="10"/></g><g transform="translate(-118,-38) scale(1,1)"><rect fill="#ffffff" stroke="none" x="360" y="323" width="20" height="10"/></g><g transform="translate(-118,-38) scale(1,1)"><path fill="none" stroke="#000000" d="M 360 323 L 380 323 L 380 333 L 360 333 L 360 323 Z Z" stroke-miterlimit="10"/></g><g transform="translate(-118,-38) scale(1,1)"><g><path fill="none" stroke="none"/><text fill="#000000" stroke="none" font-family="Arial" font-size="13px" font-style="normal" font-weight="bold" text-decoration="none" x="387.016845703125" y="315.5">openssl-1.0.1t</text></g></g><g transform="translate(-118,-38) scale(1,1)"><path fill="#C0C0C0" stroke="none" d="M 791 385 L 851.7236328125 385 L 851.7236328125 421 L 791 421" opacity="0.2"/></g><g transform="translate(-118,-38) scale(1,1)"><path fill="#C0C0C0" stroke="none" d="M 791 385 L 801 375 L 861.7236328125 375 L 851.7236328125 385" opacity="0.2"/></g><g transform="translate(-118,-38) scale(1,1)"><path fill="#C0C0C0" stroke="none" d="M 861.7236328125 375 L 851.7236328125 385 L 851.7236328125 421 L 861.7236328125 411" opacity="0.2"/></g><g transform="translate(-118,-38) scale(1,1)"><path fill="#ffffff" stroke="none" d="M 784 378 L 844.7236328125 378 L 844.7236328125 414 L 784 414"/></g><g transform="translate(-118,-38) scale(1,1)"><path fill="#ffffff" stroke="none" d="M 784 378 L 794 368 L 854.7236328125 368 L 844.7236328125 378"/></g><g transform="translate(-118,-38) scale(1,1)"><path fill="#ffffff" stroke="none" d="M 854.7236328125 368 L 844.7236328125 378 L 844.7236328125 414 L 854.7236328125 404"/></g><g transform="translate(-118,-38) scale(1,1)"><path fill="none" stroke="#000000" d="M 784 378 L 844.7236328125 378 L 844.7236328125 414 L 784 414 L 784 378" stroke-miterlimit="10"/></g><g transform="translate(-118,-38) scale(1,1)"><path fill="none" stroke="#000000" d="M 784 378 L 794 368 L 854.7236328125 368 L 844.7236328125 378 L 784 378" stroke-miterlimit="10"/></g><g transform="translate(-118,-38) scale(1,1)"><path fill="none" stroke="#000000" d="M 854.7236328125 368 L 844.7236328125 378 L 844.7236328125 414 L 854.7236328125 404 L 854.7236328125 368" stroke-miterlimit="10"/></g><g transform="translate(-118,-38) scale(1,1)"><g><path fill="none" stroke="none"/><text fill="#000000" stroke="none" font-family="Arial" font-size="13px" font-style="normal" font-weight="normal" text-decoration="none" x="789.57275390625" y="395.5">«switch»</text></g></g><g transform="translate(-118,-38) scale(1,1)"><g><path fill="none" stroke="none"/><text fill="#000000" stroke="none" font-family="Arial" font-size="13px" font-style="normal" font-weight="bold" text-decoration="none" x="790.658203125" y="410.5">eight-sw</text></g></g><g transform="translate(-118,-38) scale(1,1)"><path fill="none" stroke="#000000" d="M 625 320 L 783 378" stroke-miterlimit="10"/></g><g transform="translate(-118,-38) scale(1,1)"><path fill="none" stroke="#000000" d="M 793 416 L 718 487" stroke-miterlimit="10"/></g><g transform="translate(-118,-38) scale(1,1)"><rect fill="#C0C0C0" stroke="none" x="377" y="359" width="107.88623046875" height="44" opacity="0.2"/></g><g transform="translate(-118,-38) scale(1,1)"><rect fill="#ffffff" stroke="none" x="370" y="352" width="107.88623046875" height="44"/></g><g transform="translate(-118,-38) scale(1,1)"><path fill="none" stroke="#000000" d="M 370 352 L 477.88623046875 352 L 477.88623046875 396 L 370 396 L 370 352 Z Z" stroke-miterlimit="10"/></g><g transform="translate(-118,-38) scale(1,1)"><rect fill="#ffffff" stroke="none" x="360" y="359" width="20" height="10"/></g><g transform="translate(-118,-38) scale(1,1)"><path fill="none" stroke="#000000" d="M 360 359 L 380 359 L 380 369 L 360 369 L 360 359 Z Z" stroke-miterlimit="10"/></g><g transform="translate(-118,-38) scale(1,1)"><rect fill="#ffffff" stroke="none" x="360" y="379" width="20" height="10"/></g><g transform="translate(-118,-38) scale(1,1)"><path fill="none" stroke="#000000" d="M 360 379 L 380 379 L 380 389 L 360 389 L 360 379 Z Z" stroke-miterlimit="10"/></g><g transform="translate(-118,-38) scale(1,1)"><g><path fill="none" stroke="none"/><text fill="#000000" stroke="none" font-family="Arial" font-size="13px" font-style="normal" font-weight="bold" text-decoration="none" x="387.3818359375" y="371.5">apache-2.4.10</text></g></g></g></svg>