<svg version="1.1" xmlns="http://www.w3.org/2000/svg" xmlns:xlink="http://www.w3.org/1999/xlink" width="692" height="323"><defs/><g><g transform="translate(-134,-86) scale(1,1)"><rect fill="#C0C0C0" stroke="none" x="239" y="103" width="584" height="303" opacity="0.2"/></g><g transform="translate(-134,-86) scale(1,1)"><rect fill="#ffffff" stroke="none" x="232" y="96" width="584" height="303"/></g><g transform="translate(-134,-86) scale(1,1)"><path fill="none" stroke="#000000" d="M 232 96 L 816 96 L 816 399 L 232 399 L 232 96 Z Z" stroke-miterlimit="10"/></g><g transform="translate(-134,-86) scale(1,1)"><g><path fill="none" stroke="none"/><text fill="#000000" stroke="none" font-family="Arial" font-size="13px" font-style="normal" font-weight="bold" text-decoration="none" x="473.425048828125" y="115.5">Création certificat</text></g></g><g transform="translate(-134,-86) scale(1,1)"><path fill="#ffffff" stroke="none" d="M 171.60661594460228 249.68 C 171.60661594460228 244.886167936 175.49245826954774 241 180.285888671875 241 C 185.07931907420226 241 188.96516139914772 244.886167936 188.96516139914772 249.68 C 188.96516139914772 254.47383206400002 185.07931907420226 258.36 180.285888671875 258.36 C 175.49245826954774 258.36 171.60661594460228 254.47383206400002 171.60661594460228 249.68 Z"/></g><g transform="translate(-134,-86) scale(1,1)"><path fill="none" stroke="#000000" d="M 171.60661594460228 249.68 C 171.60661594460228 244.886167936 175.49245826954774 241 180.285888671875 241 C 185.07931907420226 241 188.96516139914772 244.886167936 188.96516139914772 249.68 C 188.96516139914772 254.47383206400002 185.07931907420226 258.36 180.285888671875 258.36 C 175.49245826954774 258.36 171.60661594460228 254.47383206400002 171.60661594460228 249.68 Z" stroke-miterlimit="10"/></g><g transform="translate(-134,-86) scale(1,1)"><path fill="none" stroke="#000000" d="M 180.285888671875 258.36 L 180.285888671875 275.64" stroke-miterlimit="10"/></g><g transform="translate(-134,-86) scale(1,1)"><path fill="none" stroke="#000000" d="M 171.09607049005683 264.84 L 189.47570685369317 264.84" stroke-miterlimit="10"/></g><g transform="translate(-134,-86) scale(1,1)"><path fill="none" stroke="#000000" d="M 180.285888671875 275.64 L 167.52225230823865 293" stroke-miterlimit="10"/></g><g transform="translate(-134,-86) scale(1,1)"><path fill="none" stroke="#000000" d="M 180.285888671875 275.64 L 193.04952503551135 293" stroke-miterlimit="10"/></g><g transform="translate(-134,-86) scale(1,1)"><g><path fill="none" stroke="none"/><text fill="#000000" stroke="none" font-family="Arial" font-size="13px" font-style="normal" font-weight="bold" text-decoration="none" x="151.38818359375" y="313.5">Utilisateur</text></g></g><g transform="translate(-134,-86) scale(1,1)"><path fill="#C0C0C0" stroke="none" d="M 295 216 C 295 206.6111584 342.2339536 199 400.5 199 C 458.7660464 199 506 206.6111584 506 216 C 506 225.3888416 458.7660464 233 400.5 233 C 342.2339536 233 295 225.3888416 295 216 Z" opacity="0.2"/></g><g transform="translate(-134,-86) scale(1,1)"><path fill="#ffffff" stroke="none" d="M 288 209 C 288 199.6111584 335.2339536 192 393.5 192 C 451.7660464 192 499 199.6111584 499 209 C 499 218.3888416 451.7660464 226 393.5 226 C 335.2339536 226 288 218.3888416 288 209 Z"/></g><g transform="translate(-134,-86) scale(1,1)"><path fill="none" stroke="#000000" d="M 288 209 C 288 199.6111584 335.2339536 192 393.5 192 C 451.7660464 192 499 199.6111584 499 209 C 499 218.3888416 451.7660464 226 393.5 226 C 335.2339536 226 288 218.3888416 288 209 Z" stroke-miterlimit="10"/></g><g transform="translate(-134,-86) scale(1,1)"><g><path fill="none" stroke="none"/><text fill="#000000" stroke="none" font-family="Arial" font-size="13px" font-style="normal" font-weight="bold" text-decoration="none" x="328.474609375" y="216">Créer un certificat web</text></g></g><g transform="translate(-134,-86) scale(1,1)"><path fill="#C0C0C0" stroke="none" d="M 295 320 C 295 310.6111584 353.8745488 303 426.5 303 C 499.1254512 303 558 310.6111584 558 320 C 558 329.3888416 499.1254512 337 426.5 337 C 353.8745488 337 295 329.3888416 295 320 Z" opacity="0.2"/></g><g transform="translate(-134,-86) scale(1,1)"><path fill="#ffffff" stroke="none" d="M 288 313 C 288 303.6111584 346.8745488 296 419.5 296 C 492.1254512 296 551 303.6111584 551 313 C 551 322.3888416 492.1254512 330 419.5 330 C 346.8745488 330 288 322.3888416 288 313 Z"/></g><g transform="translate(-134,-86) scale(1,1)"><path fill="none" stroke="#000000" d="M 288 313 C 288 303.6111584 346.8745488 296 419.5 296 C 492.1254512 296 551 303.6111584 551 313 C 551 322.3888416 492.1254512 330 419.5 330 C 346.8745488 330 288 322.3888416 288 313 Z" stroke-miterlimit="10"/></g><g transform="translate(-134,-86) scale(1,1)"><g><path fill="none" stroke="none"/><text fill="#000000" stroke="none" font-family="Arial" font-size="13px" font-style="normal" font-weight="bold" text-decoration="none" x="338.580078125" y="320">Créer un certificat utilisateur</text></g></g><g transform="translate(-134,-86) scale(1,1)"><path fill="#C0C0C0" stroke="none" d="M 607 312 C 607 302.6111584 651.77152 295 707 295 C 762.22848 295 807 302.6111584 807 312 C 807 321.3888416 762.22848 329 707 329 C 651.77152 329 607 321.3888416 607 312 Z" opacity="0.2"/></g><g transform="translate(-134,-86) scale(1,1)"><path fill="#ffffff" stroke="none" d="M 600 305 C 600 295.6111584 644.77152 288 700 288 C 755.22848 288 800 295.6111584 800 305 C 800 314.3888416 755.22848 322 700 322 C 644.77152 322 600 314.3888416 600 305 Z"/></g><g transform="translate(-134,-86) scale(1,1)"><path fill="none" stroke="#000000" d="M 600 305 C 600 295.6111584 644.77152 288 700 288 C 755.22848 288 800 295.6111584 800 305 C 800 314.3888416 755.22848 322 700 322 C 644.77152 322 600 314.3888416 600 305 Z" stroke-miterlimit="10"/></g><g transform="translate(-134,-86) scale(1,1)"><g><path fill="none" stroke="none"/><text fill="#000000" stroke="none" font-family="Arial" font-size="13px" font-style="normal" font-weight="bold" text-decoration="none" x="638.945068359375" y="312">Révoquer le certificat</text></g></g><g transform="translate(-134,-86) scale(1,1)"><path fill="none" stroke="#000000" d="M 599 308 L 552 309" stroke-miterlimit="10" stroke-dasharray="3"/></g><g transform="translate(-134,-86) scale(1,1)"><path fill="none" stroke="#000000" d="M 562.0708314078773 304.5752565323953 L 552 309 L 562.2499192916507 312.9923870697424" stroke-miterlimit="10"/></g><g transform="translate(-134,-86) scale(1,1)"><g><path fill="none" stroke="none"/><text fill="#000000" stroke="none" font-family="Arial" font-size="13px" font-style="normal" font-weight="normal" text-decoration="none" x="571.5" y="332.5">«extend»</text></g></g><g transform="translate(-134,-86) scale(1,1)"><path fill="none" stroke="#000000" d="M 642 287 L 451 227" stroke-miterlimit="10" stroke-dasharray="3"/></g><g transform="translate(-134,-86) scale(1,1)"><path fill="none" stroke="#000000" d="M 461.95712134117923 226.02969493731374 L 451 227 L 459.43396409227677 234.0617455129866" stroke-miterlimit="10"/></g><g transform="translate(-134,-86) scale(1,1)"><g><path fill="none" stroke="none"/><text fill="#000000" stroke="none" font-family="Arial" font-size="13px" font-style="normal" font-weight="normal" text-decoration="none" x="535.5" y="249.5">«extend»</text></g></g><g transform="translate(-134,-86) scale(1,1)"><path fill="none" stroke="#000000" d="M 218 267 L 338 227" stroke-miterlimit="10"/></g><g transform="translate(-134,-86) scale(1,1)"><path fill="none" stroke="#000000" d="M 329.6900064950472 234.20721915496142 L 338 227 L 327.02767370306094 226.22022077900252" stroke-miterlimit="10"/></g><g transform="translate(-134,-86) scale(1,1)"><path fill="none" stroke="#000000" d="M 218 284 L 292 295" stroke-miterlimit="10"/></g><g transform="translate(-134,-86) scale(1,1)"><path fill="none" stroke="#000000" d="M 281.32883906825316 297.6695176284789 L 292 295 L 282.5667157244344 289.3419837596233" stroke-miterlimit="10"/></g><g transform="translate(-134,-86) scale(1,1)"><path fill="#C0C0C0" stroke="none" d="M 591 184 C 591 174.6111584 638.2339536 167 696.5 167 C 754.7660464 167 802 174.6111584 802 184 C 802 193.3888416 754.7660464 201 696.5 201 C 638.2339536 201 591 193.3888416 591 184 Z" opacity="0.2"/></g><g transform="translate(-134,-86) scale(1,1)"><path fill="#ffffff" stroke="none" d="M 584 177 C 584 167.6111584 631.2339536 160 689.5 160 C 747.7660464 160 795 167.6111584 795 177 C 795 186.3888416 747.7660464 194 689.5 194 C 631.2339536 194 584 186.3888416 584 177 Z"/></g><g transform="translate(-134,-86) scale(1,1)"><path fill="none" stroke="#000000" d="M 584 177 C 584 167.6111584 631.2339536 160 689.5 160 C 747.7660464 160 795 167.6111584 795 177 C 795 186.3888416 747.7660464 194 689.5 194 C 631.2339536 194 584 186.3888416 584 177 Z" stroke-miterlimit="10"/></g><g transform="translate(-134,-86) scale(1,1)"><g><path fill="none" stroke="none"/><text fill="#000000" stroke="none" font-family="Arial" font-size="13px" font-style="normal" font-weight="bold" text-decoration="none" x="624.109619140625" y="184">Régénérer le certificat </text></g></g><g transform="translate(-134,-86) scale(1,1)"><path fill="none" stroke="#000000" d="M 583 188 L 500 197" stroke-miterlimit="10" stroke-dasharray="3"/></g><g transform="translate(-134,-86) scale(1,1)"><path fill="none" stroke="#000000" d="M 509.6496571762919 191.71945870387907 L 500 197 L 510.55724458430416 200.0894314666587" stroke-miterlimit="10"/></g><g transform="translate(-134,-86) scale(1,1)"><g><path fill="none" stroke="none"/><text fill="#000000" stroke="none" font-family="Arial" font-size="13px" font-style="normal" font-weight="normal" text-decoration="none" x="517.5" y="227.5">«extend»</text></g></g><g transform="translate(-134,-86) scale(1,1)"><path fill="none" stroke="#000000" d="M 653 195 L 455 295" stroke-miterlimit="10" stroke-dasharray="3"/></g><g transform="translate(-134,-86) scale(1,1)"><path fill="none" stroke="#000000" d="M 462.17365279828465 286.661012919445 L 455 295 L 465.96909285243237 294.1759842266575" stroke-miterlimit="10"/></g><g transform="translate(-134,-86) scale(1,1)"><g><path fill="none" stroke="none"/><text fill="#000000" stroke="none" font-family="Arial" font-size="13px" font-style="normal" font-weight="normal" text-decoration="none" x="540.5" y="277.5">«extend»</text></g></g></g></svg>