<svg version="1.1" xmlns="http://www.w3.org/2000/svg" xmlns:xlink="http://www.w3.org/1999/xlink" width="723" height="140"><defs/><g><g transform="translate(-30,-14) scale(1,1)"><path fill="#C0C0C0" stroke="none" d="M 47 56.5 C 47 51.2532944 51.2532944 47 56.5 47 C 61.7467056 47 66 51.2532944 66 56.5 C 66 61.7467056 61.7467056 66 56.5 66 C 51.2532944 66 47 61.7467056 47 56.5 Z" opacity="0.2"/></g><g transform="translate(-30,-14) scale(1,1)"><path fill="#000000" stroke="none" d="M 40 49.5 C 40 44.2532944 44.2532944 40 49.5 40 C 54.7467056 40 59 44.2532944 59 49.5 C 59 54.7467056 54.7467056 59 49.5 59 C 44.2532944 59 40 54.7467056 40 49.5 Z"/></g><g transform="translate(-30,-14) scale(1,1)"><path fill="#C0C0C0" stroke="none" d="M 129 31 L 430.1396484375 31 Q 440.1396484375 31 440.1396484375 41 L 440.1396484375 68 Q 440.1396484375 78 430.1396484375 78 L 129 78 Q 119 78 119 68 L 119 41 Q 119 31 129 31 Z" opacity="0.2"/></g><g transform="translate(-30,-14) scale(1,1)"><path fill="#ffffff" stroke="none" d="M 122 24 L 423.1396484375 24 Q 433.1396484375 24 433.1396484375 34 L 433.1396484375 61 Q 433.1396484375 71 423.1396484375 71 L 122 71 Q 112 71 112 61 L 112 34 Q 112 24 122 24 Z"/></g><g transform="translate(-30,-14) scale(1,1)"><path fill="none" stroke="#000000" d="M 122 24 L 423.1396484375 24 Q 433.1396484375 24 433.1396484375 34 L 433.1396484375 61 Q 433.1396484375 71 423.1396484375 71 L 122 71 Q 112 71 112 61 L 112 34 Q 112 24 122 24 Z" stroke-miterlimit="10"/></g><g transform="translate(-30,-14) scale(1,1)"><g><path fill="none" stroke="none"/><text fill="#000000" stroke="none" font-family="Arial" font-size="13px" font-style="normal" font-weight="bold" text-decoration="none" x="125.872314453125" y="43.5">ServiceETL récupére les données dans la base sql</text></g></g><g transform="translate(-30,-14) scale(1,1)"><path fill="#C0C0C0" stroke="none" d="M 465 31 L 740 31 Q 750 31 750 41 L 750 68 Q 750 78 740 78 L 465 78 Q 455 78 455 68 L 455 41 Q 455 31 465 31 Z" opacity="0.2"/></g><g transform="translate(-30,-14) scale(1,1)"><path fill="#ffffff" stroke="none" d="M 458 24 L 733 24 Q 743 24 743 34 L 743 61 Q 743 71 733 71 L 458 71 Q 448 71 448 61 L 448 34 Q 448 24 458 24 Z"/></g><g transform="translate(-30,-14) scale(1,1)"><path fill="none" stroke="#000000" d="M 458 24 L 733 24 Q 743 24 743 34 L 743 61 Q 743 71 733 71 L 458 71 Q 448 71 448 61 L 448 34 Q 448 24 458 24 Z" stroke-miterlimit="10"/></g><g transform="translate(-30,-14) scale(1,1)"><g><path fill="none" stroke="none"/><text fill="#000000" stroke="none" font-family="Arial" font-size="13px" font-style="normal" font-weight="bold" text-decoration="none" x="494.340576171875" y="43.5">ServiceETL exécute son traitement</text></g></g><g transform="translate(-30,-14) scale(1,1)"><path fill="#C0C0C0" stroke="none" d="M 145 111 L 456.22607421875 111 Q 466.22607421875 111 466.22607421875 121 L 466.22607421875 141 Q 466.22607421875 151 456.22607421875 151 L 145 151 Q 135 151 135 141 L 135 121 Q 135 111 145 111 Z" opacity="0.2"/></g><g transform="translate(-30,-14) scale(1,1)"><path fill="#ffffff" stroke="none" d="M 138 104 L 449.22607421875 104 Q 459.22607421875 104 459.22607421875 114 L 459.22607421875 134 Q 459.22607421875 144 449.22607421875 144 L 138 144 Q 128 144 128 134 L 128 114 Q 128 104 138 104 Z"/></g><g transform="translate(-30,-14) scale(1,1)"><path fill="none" stroke="#000000" d="M 138 104 L 449.22607421875 104 Q 459.22607421875 104 459.22607421875 114 L 459.22607421875 134 Q 459.22607421875 144 449.22607421875 144 L 138 144 Q 128 144 128 134 L 128 114 Q 128 104 138 104 Z" stroke-miterlimit="10"/></g><g transform="translate(-30,-14) scale(1,1)"><g><path fill="none" stroke="none"/><text fill="#000000" stroke="none" font-family="Arial" font-size="13px" font-style="normal" font-weight="bold" text-decoration="none" x="141.853271484375" y="123.5">ServiceETL injecte les données dans la base noSQL</text></g></g><g transform="translate(-30,-14) scale(1,1)"><path fill="none" stroke="#000000" d="M 60 49 L 111 48" stroke-miterlimit="10"/></g><g transform="translate(-30,-14) scale(1,1)"><path fill="none" stroke="#000000" d="M 100.92180188992005 52.40793861731092 L 111 48 L 100.75675448686641 43.99052106157562" stroke-miterlimit="10"/></g><g transform="translate(-30,-14) scale(1,1)"><path fill="none" stroke="#000000" d="M 434 47 L 447 47" stroke-miterlimit="10"/></g><g transform="translate(-30,-14) scale(1,1)"><path fill="none" stroke="#000000" d="M 436.83732514237585 51.20951775601599 L 447 47 L 436.83732514237585 42.790482243984016" stroke-miterlimit="10"/></g><g transform="translate(-30,-14) scale(1,1)"><path fill="none" stroke="#000000" d="M 497 72 L 375 103" stroke-miterlimit="10"/></g><g transform="translate(-30,-14) scale(1,1)"><path fill="none" stroke="#000000" d="M 383.8129837208541 96.41734719615556 L 375 103 L 385.8863589872976 104.57708211570753" stroke-miterlimit="10"/></g><g transform="translate(-30,-14) scale(1,1)"><path fill="#C0C0C0" stroke="none" d="M 535 131.5 C 535 124.59644 542.1634432 119 551 119 C 559.8365568 119 567 124.59644 567 131.5 C 567 138.40356 559.8365568 144 551 144 C 542.1634432 144 535 138.40356 535 131.5 Z" opacity="0.2"/></g><g transform="translate(-30,-14) scale(1,1)"><path fill="none" stroke="#000000" d="M 528 124.5 C 528 117.59644 535.1634432 112 544 112 C 552.8365568 112 560 117.59644 560 124.5 C 560 131.40356 552.8365568 137 544 137 C 535.1634432 137 528 131.40356 528 124.5 Z" stroke-miterlimit="10"/></g><g transform="translate(-30,-14) scale(1,1)"><path fill="#000000" stroke="none" d="M 533 124.5 C 533 120.357864 537.9248672 117 544 117 C 550.0751328 117 555 120.357864 555 124.5 C 555 128.642136 550.0751328 132 544 132 C 537.9248672 132 533 128.642136 533 124.5 Z"/></g><g transform="translate(-30,-14) scale(1,1)"><path fill="none" stroke="#000000" d="M 460 124 L 527 124" stroke-miterlimit="10"/></g><g transform="translate(-30,-14) scale(1,1)"><path fill="none" stroke="#000000" d="M 516.8373251423759 128.209517756016 L 527 124 L 516.8373251423758 119.79048224398402" stroke-miterlimit="10"/></g></g></svg>