<svg version="1.1" xmlns="http://www.w3.org/2000/svg" xmlns:xlink="http://www.w3.org/1999/xlink" width="818.6396484375" height="440"><defs/><g><g transform="translate(10,-18) scale(1,1)"><path fill="#C0C0C0" stroke="none" d="M 113 39 L 383.75341796875 39 Q 393.75341796875 39 393.75341796875 49 L 393.75341796875 76 Q 393.75341796875 86 383.75341796875 86 L 113 86 Q 103 86 103 76 L 103 49 Q 103 39 113 39 Z" opacity="0.2"/></g><g transform="translate(10,-18) scale(1,1)"><path fill="#ffffff" stroke="none" d="M 106 32 L 376.75341796875 32 Q 386.75341796875 32 386.75341796875 42 L 386.75341796875 69 Q 386.75341796875 79 376.75341796875 79 L 106 79 Q 96 79 96 69 L 96 42 Q 96 32 106 32 Z"/></g><g transform="translate(10,-18) scale(1,1)"><path fill="none" stroke="#000000" d="M 106 32 L 376.75341796875 32 Q 386.75341796875 32 386.75341796875 42 L 386.75341796875 69 Q 386.75341796875 79 376.75341796875 79 L 106 79 Q 96 79 96 69 L 96 42 Q 96 32 106 32 Z" stroke-miterlimit="10"/></g><g transform="translate(10,-18) scale(1,1)"><g><path fill="none" stroke="none"/><text fill="#000000" stroke="none" font-family="Arial" font-size="13px" font-style="normal" font-weight="bold" text-decoration="none" x="110.938720703125" y="51.5">Les banques externes envoient un fichier xml</text></g></g><g transform="translate(10,-18) scale(1,1)"><path fill="#C0C0C0" stroke="none" d="M 449 55 L 691.56982421875 55 Q 701.56982421875 55 701.56982421875 65 L 701.56982421875 100 Q 701.56982421875 110 691.56982421875 110 L 449 110 Q 439 110 439 100 L 439 65 Q 439 55 449 55 Z" opacity="0.2"/></g><g transform="translate(10,-18) scale(1,1)"><path fill="#ffffff" stroke="none" d="M 442 48 L 684.56982421875 48 Q 694.56982421875 48 694.56982421875 58 L 694.56982421875 93 Q 694.56982421875 103 684.56982421875 103 L 442 103 Q 432 103 432 93 L 432 58 Q 432 48 442 48 Z"/></g><g transform="translate(10,-18) scale(1,1)"><path fill="none" stroke="#000000" d="M 442 48 L 684.56982421875 48 Q 694.56982421875 48 694.56982421875 58 L 694.56982421875 93 Q 694.56982421875 103 684.56982421875 103 L 442 103 Q 432 103 432 93 L 432 58 Q 432 48 442 48 Z" stroke-miterlimit="10"/></g><g transform="translate(10,-18) scale(1,1)"><g><path fill="none" stroke="none"/><text fill="#000000" stroke="none" font-family="Arial" font-size="13px" font-style="normal" font-weight="bold" text-decoration="none" x="444.425048828125" y="67.5">API-RecupMouvement récupère le fichier</text></g></g><g transform="translate(10,-18) scale(1,1)"><path fill="#C0C0C0" stroke="none" d="M 17 135 L 550.73046875 135 Q 560.73046875 135 560.73046875 145 L 560.73046875 165 Q 560.73046875 175 550.73046875 175 L 17 175 Q 7 175 7 165 L 7 145 Q 7 135 17 135 Z" opacity="0.2"/></g><g transform="translate(10,-18) scale(1,1)"><path fill="#ffffff" stroke="none" d="M 10 128 L 543.73046875 128 Q 553.73046875 128 553.73046875 138 L 553.73046875 158 Q 553.73046875 168 543.73046875 168 L 10 168 Q 0 168 0 158 L 0 138 Q 0 128 10 128 Z"/></g><g transform="translate(10,-18) scale(1,1)"><path fill="none" stroke="#000000" d="M 10 128 L 543.73046875 128 Q 553.73046875 128 553.73046875 138 L 553.73046875 158 Q 553.73046875 168 543.73046875 168 L 10 168 Q 0 168 0 158 L 0 138 Q 0 128 10 128 Z" stroke-miterlimit="10"/></g><g transform="translate(10,-18) scale(1,1)"><g><path fill="none" stroke="none"/><text fill="#000000" stroke="none" font-family="Arial" font-size="13px" font-style="normal" font-weight="bold" text-decoration="none" x="20.327880859375" y="147.5">API-RecupMouvement envoie un message au ServiceKafka de la présence du document</text></g></g><g transform="translate(10,-18) scale(1,1)"><path fill="#C0C0C0" stroke="none" d="M 47 44.5 C 47 39.2532944 51.2532944 35 56.5 35 C 61.7467056 35 66 39.2532944 66 44.5 C 66 49.7467056 61.7467056 54 56.5 54 C 51.2532944 54 47 49.7467056 47 44.5 Z" opacity="0.2"/></g><g transform="translate(10,-18) scale(1,1)"><path fill="#000000" stroke="none" d="M 40 37.5 C 40 32.2532944 44.2532944 28 49.5 28 C 54.7467056 28 59 32.2532944 59 37.5 C 59 42.7467056 54.7467056 47 49.5 47 C 44.2532944 47 40 42.7467056 40 37.5 Z"/></g><g transform="translate(10,-18) scale(1,1)"><path fill="none" stroke="#000000" d="M 60 38 L 95 41" stroke-miterlimit="10"/></g><g transform="translate(10,-18) scale(1,1)"><path fill="none" stroke="#000000" d="M 84.51495533942347 44.32623487831445 L 95 41 L 85.23395058118717 35.93795705773789" stroke-miterlimit="10"/></g><g transform="translate(10,-18) scale(1,1)"><path fill="none" stroke="#000000" d="M 388 64 L 431 67" stroke-miterlimit="10"/></g><g transform="translate(10,-18) scale(1,1)"><path fill="none" stroke="#000000" d="M 420.56899348088893 70.49200558393927 L 431 67 L 421.15494372739073 62.09338538408025" stroke-miterlimit="10"/></g><g transform="translate(10,-18) scale(1,1)"><path fill="none" stroke="#000000" d="M 449 104 L 359 127" stroke-miterlimit="10"/></g><g transform="translate(10,-18) scale(1,1)"><path fill="none" stroke="#000000" d="M 367.80396817143196 120.40529421153502 L 359 127 L 369.8885067783238 128.5621844124163" stroke-miterlimit="10"/></g><g transform="translate(10,-18) scale(1,1)"><path fill="#C0C0C0" stroke="none" d="M 25 215 L 428 215 Q 438 215 438 225 L 438 245 Q 438 255 428 255 L 25 255 Q 15 255 15 245 L 15 225 Q 15 215 25 215 Z" opacity="0.2"/></g><g transform="translate(10,-18) scale(1,1)"><path fill="#ffffff" stroke="none" d="M 18 208 L 421 208 Q 431 208 431 218 L 431 238 Q 431 248 421 248 L 18 248 Q 8 248 8 238 L 8 218 Q 8 208 18 208 Z"/></g><g transform="translate(10,-18) scale(1,1)"><path fill="none" stroke="#000000" d="M 18 208 L 421 208 Q 431 208 431 218 L 431 238 Q 431 248 421 248 L 18 248 Q 8 248 8 238 L 8 218 Q 8 208 18 208 Z" stroke-miterlimit="10"/></g><g transform="translate(10,-18) scale(1,1)"><g><path fill="none" stroke="none"/><text fill="#000000" stroke="none" font-family="Arial" font-size="13px" font-style="normal" font-weight="bold" text-decoration="none" x="41.00390625" y="227.5">ServiceKafka réceptionne le message et le met dans la queue</text></g></g><g transform="translate(10,-18) scale(1,1)"><path fill="#C0C0C0" stroke="none" d="M 449 263 L 795.6396484375 263 Q 805.6396484375 263 805.6396484375 273 L 805.6396484375 293 Q 805.6396484375 303 795.6396484375 303 L 449 303 Q 439 303 439 293 L 439 273 Q 439 263 449 263 Z" opacity="0.2"/></g><g transform="translate(10,-18) scale(1,1)"><path fill="#ffffff" stroke="none" d="M 442 256 L 788.6396484375 256 Q 798.6396484375 256 798.6396484375 266 L 798.6396484375 286 Q 798.6396484375 296 788.6396484375 296 L 442 296 Q 432 296 432 286 L 432 266 Q 432 256 442 256 Z"/></g><g transform="translate(10,-18) scale(1,1)"><path fill="none" stroke="#000000" d="M 442 256 L 788.6396484375 256 Q 798.6396484375 256 798.6396484375 266 L 798.6396484375 286 Q 798.6396484375 296 788.6396484375 296 L 442 296 Q 432 296 432 286 L 432 266 Q 432 256 442 256 Z" stroke-miterlimit="10"/></g><g transform="translate(10,-18) scale(1,1)"><g><path fill="none" stroke="none"/><text fill="#000000" stroke="none" font-family="Arial" font-size="13px" font-style="normal" font-weight="bold" text-decoration="none" x="448.75732421875" y="275.5">ServiceTreatment reçoit la nouvelle activité dans la queue</text></g></g><g transform="translate(10,-18) scale(1,1)"><path fill="none" stroke="#000000" d="M 261 169 L 234 207" stroke-miterlimit="10"/></g><g transform="translate(10,-18) scale(1,1)"><path fill="none" stroke="#000000" d="M 236.45477735670246 196.27740385312302 L 234 207 L 243.31781016260896 201.15376926784606" stroke-miterlimit="10"/></g><g transform="translate(10,-18) scale(1,1)"><path fill="none" stroke="#000000" d="M 392 249 L 442 255" stroke-miterlimit="10"/></g><g transform="translate(10,-18) scale(1,1)"><path fill="none" stroke="#000000" d="M 431.4081715950539 257.9686985431627 L 442 255 L 432.4112594385293 249.60963318086726" stroke-miterlimit="10"/></g><g transform="translate(10,-18) scale(1,1)"><path fill="#C0C0C0" stroke="none" d="M 17 327 L 445 327 Q 455 327 455 337 L 455 357 Q 455 367 445 367 L 17 367 Q 7 367 7 357 L 7 337 Q 7 327 17 327 Z" opacity="0.2"/></g><g transform="translate(10,-18) scale(1,1)"><path fill="#ffffff" stroke="none" d="M 10 320 L 438 320 Q 448 320 448 330 L 448 350 Q 448 360 438 360 L 10 360 Q 0 360 0 350 L 0 330 Q 0 320 10 320 Z"/></g><g transform="translate(10,-18) scale(1,1)"><path fill="none" stroke="#000000" d="M 10 320 L 438 320 Q 448 320 448 330 L 448 350 Q 448 360 438 360 L 10 360 Q 0 360 0 350 L 0 330 Q 0 320 10 320 Z" stroke-miterlimit="10"/></g><g transform="translate(10,-18) scale(1,1)"><g><path fill="none" stroke="none"/><text fill="#000000" stroke="none" font-family="Arial" font-size="13px" font-style="normal" font-weight="bold" text-decoration="none" x="108.755126953125" y="339.5">ServiceTreatment execute le traitement </text></g></g><g transform="translate(10,-18) scale(1,1)"><path fill="none" stroke="#000000" d="M 487 297 L 352 319" stroke-miterlimit="10"/></g><g transform="translate(10,-18) scale(1,1)"><path fill="none" stroke="#000000" d="M 361.35329577811734 313.21071178062 L 352 319 L 362.7074238293173 321.5201339129833" stroke-miterlimit="10"/></g><g transform="translate(10,-18) scale(1,1)"><path fill="#C0C0C0" stroke="none" d="M 33 415 L 380 415 Q 390 415 390 425 L 390 445 Q 390 455 380 455 L 33 455 Q 23 455 23 445 L 23 425 Q 23 415 33 415 Z" opacity="0.2"/></g><g transform="translate(10,-18) scale(1,1)"><path fill="#ffffff" stroke="none" d="M 26 408 L 373 408 Q 383 408 383 418 L 383 438 Q 383 448 373 448 L 26 448 Q 16 448 16 438 L 16 418 Q 16 408 26 408 Z"/></g><g transform="translate(10,-18) scale(1,1)"><path fill="none" stroke="#000000" d="M 26 408 L 373 408 Q 383 408 383 418 L 383 438 Q 383 448 373 448 L 26 448 Q 16 448 16 438 L 16 418 Q 16 408 26 408 Z" stroke-miterlimit="10"/></g><g transform="translate(10,-18) scale(1,1)"><g><path fill="none" stroke="none"/><text fill="#000000" stroke="none" font-family="Arial" font-size="13px" font-style="normal" font-weight="bold" text-decoration="none" x="40.89111328125" y="427.5">ServiceTreatment envoie un message au ServiceKafka</text></g></g><g transform="translate(10,-18) scale(1,1)"><path fill="none" stroke="#000000" d="M 218 361 L 205 407" stroke-miterlimit="10"/></g><g transform="translate(10,-18) scale(1,1)"><path fill="none" stroke="#000000" d="M 203.7129521002036 396.0755545814156 L 205 407 L 211.8146691385254 398.3651702661587" stroke-miterlimit="10"/></g><g transform="translate(10,-18) scale(1,1)"><path fill="#C0C0C0" stroke="none" d="M 479 375 C 479 366.1634432 486.1634432 359 495 359 C 503.8365568 359 511 366.1634432 511 375 C 511 383.8365568 503.8365568 391 495 391 C 486.1634432 391 479 383.8365568 479 375 Z" opacity="0.2"/></g><g transform="translate(10,-18) scale(1,1)"><path fill="none" stroke="#000000" d="M 472 368 C 472 359.1634432 479.1634432 352 488 352 C 496.8365568 352 504 359.1634432 504 368 C 504 376.8365568 496.8365568 384 488 384 C 479.1634432 384 472 376.8365568 472 368 Z" stroke-miterlimit="10"/></g><g transform="translate(10,-18) scale(1,1)"><path fill="#000000" stroke="none" d="M 477 368 C 477 361.9248672 481.9248672 357 488 357 C 494.0751328 357 499 361.9248672 499 368 C 499 374.0751328 494.0751328 379 488 379 C 481.9248672 379 477 374.0751328 477 368 Z"/></g><g transform="translate(10,-18) scale(1,1)"><path fill="none" stroke="#000000" d="M 300 407 L 471 372" stroke-miterlimit="10"/></g><g transform="translate(10,-18) scale(1,1)"><path fill="none" stroke="#000000" d="M 461.88783318093857 378.1618516585192 L 471 372 L 460.1996379585341 369.91381214334314" stroke-miterlimit="10"/></g></g></svg>