<svg version="1.1" xmlns="http://www.w3.org/2000/svg" xmlns:xlink="http://www.w3.org/1999/xlink" width="935" height="839"><defs/><g><g transform="translate(10,10) scale(1,1)"><path fill="none" stroke="#000000" d="M 0 0 L 915 0 L 915 819 L 0 819 L 0 0" stroke-miterlimit="10"/></g><g transform="translate(10,10) scale(1,1)"><path fill="#ffffff" stroke="none" d="M 0 0 L 0 22 L 190.88427734375 22 L 201.88427734375 11 L 201.88427734375 0 L 0 0"/></g><g transform="translate(10,10) scale(1,1)"><path fill="none" stroke="#000000" d="M 0 0 L 0 22 L 190.88427734375 22 L 201.88427734375 11 L 201.88427734375 0 L 0 0 L 0 0" stroke-miterlimit="10"/></g><g transform="translate(10,10) scale(1,1)"><g><path fill="none" stroke="none"/><text fill="#000000" stroke="none" font-family="Arial" font-size="13px" font-style="normal" font-weight="normal" text-decoration="none" x="70.97900390625" y="17.5">SequenceDiagram1</text></g></g><g transform="translate(10,10) scale(1,1)"><g><path fill="none" stroke="none"/><text fill="#000000" stroke="none" font-family="Arial" font-size="13px" font-style="normal" font-weight="bold" text-decoration="none" x="5" y="17.5">interaction</text></g></g><g transform="translate(10,10) scale(1,1)"><rect fill="#C0C0C0" stroke="none" x="39" y="47" width="192" height="39" opacity="0.2"/></g><g transform="translate(10,10) scale(1,1)"><rect fill="#ffffff" stroke="none" x="32" y="40" width="192" height="39"/></g><g transform="translate(10,10) scale(1,1)"><path fill="none" stroke="#000000" d="M 32 40 L 224 40 L 224 79 L 32 79 L 32 40 Z Z" stroke-miterlimit="10"/></g><g transform="translate(10,10) scale(1,1)"><g><path fill="none" stroke="none"/><text fill="#000000" stroke="none" font-family="Arial" font-size="13px" font-style="normal" font-weight="bold" text-decoration="none" x="66.964111328125" y="59.5">Driver-JDBC-Postgre</text></g></g><g transform="translate(10,10) scale(1,1)"><path fill="none" stroke="#000000" d="M 129.5 80 L 129.5 464" stroke-miterlimit="10" stroke-dasharray="3"/></g><g transform="translate(10,10) scale(1,1)"><rect fill="#C0C0C0" stroke="none" x="631" y="47" width="231" height="39" opacity="0.2"/></g><g transform="translate(10,10) scale(1,1)"><rect fill="#ffffff" stroke="none" x="624" y="40" width="231" height="39"/></g><g transform="translate(10,10) scale(1,1)"><path fill="none" stroke="#000000" d="M 624 40 L 855 40 L 855 79 L 624 79 L 624 40 Z Z" stroke-miterlimit="10"/></g><g transform="translate(10,10) scale(1,1)"><g><path fill="none" stroke="none"/><text fill="#000000" stroke="none" font-family="Arial" font-size="13px" font-style="normal" font-weight="bold" text-decoration="none" x="669.431396484375" y="59.5">Driver-JDBC-Cassandra</text></g></g><g transform="translate(10,10) scale(1,1)"><path fill="none" stroke="#000000" d="M 740.5 80 L 740.5 472" stroke-miterlimit="10" stroke-dasharray="3"/></g><g transform="translate(10,10) scale(1,1)"><rect fill="#C0C0C0" stroke="none" x="319" y="47" width="239" height="39" opacity="0.2"/></g><g transform="translate(10,10) scale(1,1)"><rect fill="#ffffff" stroke="none" x="312" y="40" width="239" height="39"/></g><g transform="translate(10,10) scale(1,1)"><path fill="none" stroke="#000000" d="M 312 40 L 551 40 L 551 79 L 312 79 L 312 40 Z Z" stroke-miterlimit="10"/></g><g transform="translate(10,10) scale(1,1)"><g><path fill="none" stroke="none"/><text fill="#000000" stroke="none" font-family="Arial" font-size="13px" font-style="normal" font-weight="bold" text-decoration="none" x="397.905029296875" y="59.5">ServiceETL</text></g></g><g transform="translate(10,10) scale(1,1)"><path fill="none" stroke="#000000" d="M 432.5 80 L 432.5 464" stroke-miterlimit="10" stroke-dasharray="3"/></g><g transform="translate(10,10) scale(1,1)"><path fill="none" stroke="#000000" d="M 432 136 L 135 136" stroke-miterlimit="10"/></g><g transform="translate(10,10) scale(1,1)"><path fill="#000000" stroke="none" d="M 145.16267485762415 131.790482243984 L 135 136 L 145.16267485762415 140.209517756016"/></g><g transform="translate(10,10) scale(1,1)"><path fill="none" stroke="#000000" d="M 145.16267485762415 131.790482243984 L 135 136 L 145.16267485762415 140.209517756016 L 145.16267485762415 131.790482243984" stroke-miterlimit="10"/></g><g transform="translate(10,10) scale(1,1)"><g><path fill="none" stroke="none"/><text fill="#000000" stroke="none" font-family="Arial" font-size="13px" font-style="normal" font-weight="normal" text-decoration="none" x="217" y="132">1 : recoveryDatas()</text></g></g><g transform="translate(10,10) scale(1,1)"><rect fill="#ffffff" stroke="none" x="122" y="136" width="13" height="28"/></g><g transform="translate(10,10) scale(1,1)"><path fill="none" stroke="#000000" d="M 122 136 L 135 136 L 135 164 L 122 164 L 122 136 Z Z" stroke-miterlimit="10"/></g><g transform="translate(10,10) scale(1,1)"><path fill="none" stroke="#000000" d="M 129 176 L 425 176" stroke-miterlimit="10"/></g><g transform="translate(10,10) scale(1,1)"><path fill="none" stroke="#000000" d="M 414.83732514237585 180.209517756016 L 425 176 L 414.83732514237585 171.790482243984" stroke-miterlimit="10"/></g><g transform="translate(10,10) scale(1,1)"><g><path fill="none" stroke="none"/><text fill="#000000" stroke="none" font-family="Arial" font-size="13px" font-style="normal" font-weight="normal" text-decoration="none" x="235" y="173">2 : giveDatas()</text></g></g><g transform="translate(10,10) scale(1,1)"><rect fill="#ffffff" stroke="none" x="425" y="176" width="13" height="28"/></g><g transform="translate(10,10) scale(1,1)"><path fill="none" stroke="#000000" d="M 425 176 L 438 176 L 438 204 L 425 204 L 425 176 Z Z" stroke-miterlimit="10"/></g><g transform="translate(10,10) scale(1,1)"><path fill="none" stroke="#000000" d="M 438 200 L 468 200 L 468 220 L 438 220" stroke-miterlimit="10"/></g><g transform="translate(10,10) scale(1,1)"><path fill="#000000" stroke="none" d="M 448.16267485762415 215.790482243984 L 438 220 L 448.16267485762415 224.209517756016"/></g><g transform="translate(10,10) scale(1,1)"><path fill="none" stroke="#000000" d="M 448.16267485762415 215.790482243984 L 438 220 L 448.16267485762415 224.209517756016 L 448.16267485762415 215.790482243984" stroke-miterlimit="10"/></g><g transform="translate(10,10) scale(1,1)"><g><path fill="none" stroke="none"/><text fill="#000000" stroke="none" font-family="Arial" font-size="13px" font-style="normal" font-weight="normal" text-decoration="none" x="441" y="216">3 : treatment</text></g></g><g transform="translate(10,10) scale(1,1)"><rect fill="#ffffff" stroke="none" x="425" y="220" width="13" height="28"/></g><g transform="translate(10,10) scale(1,1)"><path fill="none" stroke="#000000" d="M 425 220 L 438 220 L 438 248 L 425 248 L 425 220 Z Z" stroke-miterlimit="10"/></g><g transform="translate(10,10) scale(1,1)"><path fill="none" stroke="#000000" d="M 432 304 L 733 304" stroke-miterlimit="10"/></g><g transform="translate(10,10) scale(1,1)"><path fill="#000000" stroke="none" d="M 722.8373251423759 308.209517756016 L 733 304 L 722.8373251423758 299.790482243984"/></g><g transform="translate(10,10) scale(1,1)"><path fill="none" stroke="#000000" d="M 722.8373251423759 308.209517756016 L 733 304 L 722.8373251423758 299.790482243984 L 722.8373251423759 308.209517756016" stroke-miterlimit="10"/></g><g transform="translate(10,10) scale(1,1)"><g><path fill="none" stroke="none"/><text fill="#000000" stroke="none" font-family="Arial" font-size="13px" font-style="normal" font-weight="normal" text-decoration="none" x="537" y="301">4 : injectDatas()</text></g></g><g transform="translate(10,10) scale(1,1)"><rect fill="#ffffff" stroke="none" x="733" y="304" width="13" height="28"/></g><g transform="translate(10,10) scale(1,1)"><path fill="none" stroke="#000000" d="M 733 304 L 746 304 L 746 332 L 733 332 L 733 304 Z Z" stroke-miterlimit="10"/></g><g transform="translate(10,10) scale(1,1)"><path fill="none" stroke="#000000" d="M 740 352 L 432 352" stroke-miterlimit="10" stroke-dasharray="3"/></g><g transform="translate(10,10) scale(1,1)"><path fill="none" stroke="#000000" d="M 442.16267485762415 347.790482243984 L 432 352 L 442.16267485762415 356.209517756016" stroke-miterlimit="10"/></g><g transform="translate(10,10) scale(1,1)"><g><path fill="none" stroke="none"/><text fill="#000000" stroke="none" font-family="Arial" font-size="13px" font-style="normal" font-weight="normal" text-decoration="none" x="558" y="369">5 : Result</text></g></g></g></svg>