<svg version="1.1" xmlns="http://www.w3.org/2000/svg" xmlns:xlink="http://www.w3.org/1999/xlink" width="789.115234375" height="372"><defs/><g><g transform="translate(-270,-86) scale(1,1)"><rect fill="#C0C0C0" stroke="none" x="287" y="207" width="156.4052734375" height="112" opacity="0.2"/></g><g transform="translate(-270,-86) scale(1,1)"><rect fill="#ffffff" stroke="none" x="280" y="200" width="156.4052734375" height="112"/></g><g transform="translate(-270,-86) scale(1,1)"><path fill="none" stroke="#000000" d="M 280 200 L 436.4052734375 200 L 436.4052734375 312 L 280 312 L 280 200 Z Z" stroke-miterlimit="10"/></g><g transform="translate(-270,-86) scale(1,1)"><path fill="none" stroke="#000000" d="M 280 225 L 436.4052734375 225" stroke-miterlimit="10"/></g><g transform="translate(-270,-86) scale(1,1)"><path fill="none" stroke="#000000" d="M 280 293 L 436.4052734375 293" stroke-miterlimit="10"/></g><g transform="translate(-270,-86) scale(1,1)"><g><path fill="none" stroke="none"/><text fill="#000000" stroke="none" font-family="Arial" font-size="13px" font-style="normal" font-weight="bold" text-decoration="none" x="307.986328125" y="219.5">TransactionEntity</text></g></g><g transform="translate(-270,-86) scale(1,1)"><g><path fill="none" stroke="none"/><text fill="#000000" stroke="none" font-family="Arial" font-size="13px" font-style="normal" font-weight="normal" text-decoration="none" x="285" y="242.5">-idTransaction: int</text></g></g><g transform="translate(-270,-86) scale(1,1)"><g><path fill="none" stroke="none"/><text fill="#000000" stroke="none" font-family="Arial" font-size="13px" font-style="normal" font-weight="normal" text-decoration="none" x="285" y="257.5">-valueDate: LocalDate</text></g></g><g transform="translate(-270,-86) scale(1,1)"><g><path fill="none" stroke="none"/><text fill="#000000" stroke="none" font-family="Arial" font-size="13px" font-style="normal" font-weight="normal" text-decoration="none" x="285" y="272.5">-amount: double</text></g></g><g transform="translate(-270,-86) scale(1,1)"><g><path fill="none" stroke="none"/><text fill="#000000" stroke="none" font-family="Arial" font-size="13px" font-style="normal" font-weight="normal" text-decoration="none" x="285" y="287.5">-wording: String</text></g></g><g transform="translate(-270,-86) scale(1,1)"><rect fill="#C0C0C0" stroke="none" x="559" y="231" width="208" height="80" opacity="0.2"/></g><g transform="translate(-270,-86) scale(1,1)"><rect fill="#ffffff" stroke="none" x="552" y="224" width="208" height="80"/></g><g transform="translate(-270,-86) scale(1,1)"><path fill="none" stroke="#000000" d="M 552 224 L 760 224 L 760 304 L 552 304 L 552 224 Z Z" stroke-miterlimit="10"/></g><g transform="translate(-270,-86) scale(1,1)"><path fill="none" stroke="#000000" d="M 552 249 L 760 249" stroke-miterlimit="10"/></g><g transform="translate(-270,-86) scale(1,1)"><path fill="none" stroke="#000000" d="M 552 287 L 760 287" stroke-miterlimit="10"/></g><g transform="translate(-270,-86) scale(1,1)"><g><path fill="none" stroke="none"/><text fill="#000000" stroke="none" font-family="Arial" font-size="13px" font-style="normal" font-weight="bold" text-decoration="none" x="616.25732421875" y="243.5">AccountEntity</text></g></g><g transform="translate(-270,-86) scale(1,1)"><g><path fill="none" stroke="none"/><text fill="#000000" stroke="none" font-family="Arial" font-size="13px" font-style="normal" font-weight="normal" text-decoration="none" x="557" y="266.5">-IBAN: String</text></g></g><g transform="translate(-270,-86) scale(1,1)"><g><path fill="none" stroke="none"/><text fill="#000000" stroke="none" font-family="Arial" font-size="13px" font-style="normal" font-weight="normal" text-decoration="none" x="557" y="281.5">-balance: double</text></g></g><g transform="translate(-270,-86) scale(1,1)"><path fill="none" stroke="#000000" d="M 437 270 L 496 280 L 551 275" stroke-miterlimit="10"/></g><g transform="translate(-270,-86) scale(1,1)"><g><path fill="none" stroke="none"/><text fill="#000000" stroke="none" font-family="Arial" font-size="13px" font-style="normal" font-weight="normal" text-decoration="none" x="450.94775390625" y="265.5">+0..*</text></g></g><g transform="translate(-270,-86) scale(1,1)"><g><path fill="none" stroke="none"/><text fill="#000000" stroke="none" font-family="Arial" font-size="13px" font-style="normal" font-weight="normal" text-decoration="none" x="515.089111328125" y="268.5">+1</text></g></g><g transform="translate(-270,-86) scale(1,1)"><rect fill="#C0C0C0" stroke="none" x="367" y="383" width="184.576171875" height="72" opacity="0.2"/></g><g transform="translate(-270,-86) scale(1,1)"><rect fill="#ffffff" stroke="none" x="360" y="376" width="184.576171875" height="72"/></g><g transform="translate(-270,-86) scale(1,1)"><path fill="none" stroke="#000000" d="M 360 376 L 544.576171875 376 L 544.576171875 448 L 360 448 L 360 376 Z Z" stroke-miterlimit="10"/></g><g transform="translate(-270,-86) scale(1,1)"><path fill="none" stroke="#000000" d="M 360 401 L 544.576171875 401" stroke-miterlimit="10"/></g><g transform="translate(-270,-86) scale(1,1)"><path fill="none" stroke="#000000" d="M 360 439 L 544.576171875 439" stroke-miterlimit="10"/></g><g transform="translate(-270,-86) scale(1,1)"><g><path fill="none" stroke="none"/><text fill="#000000" stroke="none" font-family="Arial" font-size="13px" font-style="normal" font-weight="bold" text-decoration="none" x="411.831298828125" y="395.5">TransferEntity</text></g></g><g transform="translate(-270,-86) scale(1,1)"><g><path fill="none" stroke="none"/><text fill="#000000" stroke="none" font-family="Arial" font-size="13px" font-style="normal" font-weight="normal" text-decoration="none" x="365" y="418.5">-idTransfer: int</text></g></g><g transform="translate(-270,-86) scale(1,1)"><g><path fill="none" stroke="none"/><text fill="#000000" stroke="none" font-family="Arial" font-size="13px" font-style="normal" font-weight="normal" text-decoration="none" x="365" y="433.5">-beneficiaryIban: String</text></g></g><g transform="translate(-270,-86) scale(1,1)"><path fill="none" stroke="#000000" d="M 430 375 L 392 313" stroke-miterlimit="10"/></g><g transform="translate(-270,-86) scale(1,1)"><path fill="#FFFFFF" stroke="none" d="M 409.79933679698325 325.92995009996395 L 392 313 L 395.44317635368196 334.72888714585827"/></g><g transform="translate(-270,-86) scale(1,1)"><path fill="none" stroke="#000000" d="M 409.79933679698325 325.92995009996395 L 392 313 L 395.44317635368196 334.72888714585827 L 409.79933679698325 325.92995009996395" stroke-miterlimit="10"/></g><g transform="translate(-270,-86) scale(1,1)"><rect fill="#C0C0C0" stroke="none" x="807" y="111" width="235.5478515625" height="87" opacity="0.2"/></g><g transform="translate(-270,-86) scale(1,1)"><rect fill="#ffffff" stroke="none" x="800" y="104" width="235.5478515625" height="87"/></g><g transform="translate(-270,-86) scale(1,1)"><path fill="none" stroke="#000000" d="M 800 104 L 1035.5478515625 104 L 1035.5478515625 191 L 800 191 L 800 104 Z Z" stroke-miterlimit="10"/></g><g transform="translate(-270,-86) scale(1,1)"><path fill="none" stroke="#000000" d="M 800 129 L 1035.5478515625 129" stroke-miterlimit="10"/></g><g transform="translate(-270,-86) scale(1,1)"><path fill="none" stroke="#000000" d="M 800 182 L 1035.5478515625 182" stroke-miterlimit="10"/></g><g transform="translate(-270,-86) scale(1,1)"><g><path fill="none" stroke="none"/><text fill="#000000" stroke="none" font-family="Arial" font-size="13px" font-style="normal" font-weight="bold" text-decoration="none" x="884.8994140625" y="123.5">ClientEntity</text></g></g><g transform="translate(-270,-86) scale(1,1)"><g><path fill="none" stroke="none"/><text fill="#000000" stroke="none" font-family="Arial" font-size="13px" font-style="normal" font-weight="normal" text-decoration="none" x="805" y="146.5">-idClient: int</text></g></g><g transform="translate(-270,-86) scale(1,1)"><g><path fill="none" stroke="none"/><text fill="#000000" stroke="none" font-family="Arial" font-size="13px" font-style="normal" font-weight="normal" text-decoration="none" x="805" y="161.5">-name: String</text></g></g><g transform="translate(-270,-86) scale(1,1)"><g><path fill="none" stroke="none"/><text fill="#000000" stroke="none" font-family="Arial" font-size="13px" font-style="normal" font-weight="normal" text-decoration="none" x="805" y="176.5">-lastName: String</text></g></g><g transform="translate(-270,-86) scale(1,1)"><path fill="none" stroke="#000000" d="M 747 223 L 817 192" stroke-miterlimit="10"/></g><g transform="translate(-270,-86) scale(1,1)"><g><path fill="none" stroke="none"/><text fill="#000000" stroke="none" font-family="Arial" font-size="13px" font-style="normal" font-weight="normal" text-decoration="none" x="746.94775390625" y="236.5">+1..*</text></g></g><g transform="translate(-270,-86) scale(1,1)"><g><path fill="none" stroke="none"/><text fill="#000000" stroke="none" font-family="Arial" font-size="13px" font-style="normal" font-weight="normal" text-decoration="none" x="798.089111328125" y="210.5">+1</text></g></g><g transform="translate(-270,-86) scale(1,1)"><rect fill="#C0C0C0" stroke="none" x="895" y="255" width="161.115234375" height="72" opacity="0.2"/></g><g transform="translate(-270,-86) scale(1,1)"><rect fill="#ffffff" stroke="none" x="888" y="248" width="161.115234375" height="72"/></g><g transform="translate(-270,-86) scale(1,1)"><path fill="none" stroke="#000000" d="M 888 248 L 1049.115234375 248 L 1049.115234375 320 L 888 320 L 888 248 Z Z" stroke-miterlimit="10"/></g><g transform="translate(-270,-86) scale(1,1)"><path fill="none" stroke="#000000" d="M 888 273 L 1049.115234375 273" stroke-miterlimit="10"/></g><g transform="translate(-270,-86) scale(1,1)"><path fill="none" stroke="#000000" d="M 888 311 L 1049.115234375 311" stroke-miterlimit="10"/></g><g transform="translate(-270,-86) scale(1,1)"><g><path fill="none" stroke="none"/><text fill="#000000" stroke="none" font-family="Arial" font-size="13px" font-style="normal" font-weight="bold" text-decoration="none" x="914.364501953125" y="267.5">AccountTypeEntity</text></g></g><g transform="translate(-270,-86) scale(1,1)"><g><path fill="none" stroke="none"/><text fill="#000000" stroke="none" font-family="Arial" font-size="13px" font-style="normal" font-weight="normal" text-decoration="none" x="893" y="290.5">-idTypeAccount: int</text></g></g><g transform="translate(-270,-86) scale(1,1)"><g><path fill="none" stroke="none"/><text fill="#000000" stroke="none" font-family="Arial" font-size="13px" font-style="normal" font-weight="normal" text-decoration="none" x="893" y="305.5">-label: String</text></g></g><g transform="translate(-270,-86) scale(1,1)"><path fill="none" stroke="#000000" d="M 761 271 L 887 279" stroke-miterlimit="10"/></g><g transform="translate(-270,-86) scale(1,1)"><g><path fill="none" stroke="none"/><text fill="#000000" stroke="none" font-family="Arial" font-size="13px" font-style="normal" font-weight="normal" text-decoration="none" x="772.94775390625" y="263.5">+0..*</text></g></g><g transform="translate(-270,-86) scale(1,1)"><g><path fill="none" stroke="none"/><text fill="#000000" stroke="none" font-family="Arial" font-size="13px" font-style="normal" font-weight="normal" text-decoration="none" x="854.089111328125" y="268.5">+1</text></g></g><g transform="translate(-270,-86) scale(1,1)"><rect fill="#C0C0C0" stroke="none" x="519" y="103" width="131.0908203125" height="102" opacity="0.2"/></g><g transform="translate(-270,-86) scale(1,1)"><rect fill="#ffffff" stroke="none" x="512" y="96" width="131.0908203125" height="102"/></g><g transform="translate(-270,-86) scale(1,1)"><path fill="none" stroke="#000000" d="M 512 96 L 643.0908203125 96 L 643.0908203125 198 L 512 198 L 512 96 Z Z" stroke-miterlimit="10"/></g><g transform="translate(-270,-86) scale(1,1)"><path fill="none" stroke="#000000" d="M 512 121 L 643.0908203125 121" stroke-miterlimit="10"/></g><g transform="translate(-270,-86) scale(1,1)"><path fill="none" stroke="#000000" d="M 512 174 L 643.0908203125 174" stroke-miterlimit="10"/></g><g transform="translate(-270,-86) scale(1,1)"><g><path fill="none" stroke="none"/><text fill="#000000" stroke="none" font-family="Arial" font-size="13px" font-style="normal" font-weight="bold" text-decoration="none" x="521.905029296875" y="115.5">BeneficiaryAccount</text></g></g><g transform="translate(-270,-86) scale(1,1)"><g><path fill="none" stroke="none"/><text fill="#000000" stroke="none" font-family="Arial" font-size="13px" font-style="normal" font-weight="normal" text-decoration="none" x="517" y="138.5">-idBeneficiary: int</text></g></g><g transform="translate(-270,-86) scale(1,1)"><g><path fill="none" stroke="none"/><text fill="#000000" stroke="none" font-family="Arial" font-size="13px" font-style="normal" font-weight="normal" text-decoration="none" x="517" y="153.5">-iban: String</text></g></g><g transform="translate(-270,-86) scale(1,1)"><g><path fill="none" stroke="none"/><text fill="#000000" stroke="none" font-family="Arial" font-size="13px" font-style="normal" font-weight="normal" text-decoration="none" x="517" y="168.5">-name: String</text></g></g><g transform="translate(-270,-86) scale(1,1)"><path fill="none" stroke="#000000" d="M 644 147 L 799 147" stroke-miterlimit="10"/></g><g transform="translate(-270,-86) scale(1,1)"><g><path fill="none" stroke="none"/><text fill="#000000" stroke="none" font-family="Arial" font-size="13px" font-style="normal" font-weight="normal" text-decoration="none" x="655.5" y="165.5">0..*</text></g></g><g transform="translate(-270,-86) scale(1,1)"><g><path fill="none" stroke="none"/><text fill="#000000" stroke="none" font-family="Arial" font-size="13px" font-style="normal" font-weight="normal" text-decoration="none" x="773.5" y="165.5">1</text></g></g></g></svg>