<svg version="1.1" xmlns="http://www.w3.org/2000/svg" xmlns:xlink="http://www.w3.org/1999/xlink" width="1048.49169921875" height="472"><defs/><g><g transform="translate(-126,-102) scale(1,1)"><path fill="#C0C0C0" stroke="none" d="M 199 377 L 246.72998046875 377 L 246.72998046875 410 L 199 410" opacity="0.2"/></g><g transform="translate(-126,-102) scale(1,1)"><path fill="#C0C0C0" stroke="none" d="M 199 377 L 209 367 L 256.72998046875 367 L 246.72998046875 377" opacity="0.2"/></g><g transform="translate(-126,-102) scale(1,1)"><path fill="#C0C0C0" stroke="none" d="M 256.72998046875 367 L 246.72998046875 377 L 246.72998046875 410 L 256.72998046875 400" opacity="0.2"/></g><g transform="translate(-126,-102) scale(1,1)"><path fill="#ffffff" stroke="none" d="M 192 370 L 239.72998046875 370 L 239.72998046875 403 L 192 403"/></g><g transform="translate(-126,-102) scale(1,1)"><path fill="#ffffff" stroke="none" d="M 192 370 L 202 360 L 249.72998046875 360 L 239.72998046875 370"/></g><g transform="translate(-126,-102) scale(1,1)"><path fill="#ffffff" stroke="none" d="M 249.72998046875 360 L 239.72998046875 370 L 239.72998046875 403 L 249.72998046875 393"/></g><g transform="translate(-126,-102) scale(1,1)"><path fill="none" stroke="#000000" d="M 192 370 L 239.72998046875 370 L 239.72998046875 403 L 192 403 L 192 370" stroke-miterlimit="10"/></g><g transform="translate(-126,-102) scale(1,1)"><path fill="none" stroke="#000000" d="M 192 370 L 202 360 L 249.72998046875 360 L 239.72998046875 370 L 192 370" stroke-miterlimit="10"/></g><g transform="translate(-126,-102) scale(1,1)"><path fill="none" stroke="#000000" d="M 249.72998046875 360 L 239.72998046875 370 L 239.72998046875 403 L 249.72998046875 393 L 249.72998046875 360" stroke-miterlimit="10"/></g><g transform="translate(-126,-102) scale(1,1)"><g><path fill="none" stroke="none"/><text fill="#000000" stroke="none" font-family="Arial" font-size="13px" font-style="normal" font-weight="bold" text-decoration="none" x="216.364990234375" y="389.5"></text></g></g><g transform="translate(-126,-102) scale(1,1)"><rect fill="#C0C0C0" stroke="none" x="721" y="351" width="136.0380859375" height="44" opacity="0.2"/></g><g transform="translate(-126,-102) scale(1,1)"><rect fill="#00a854" stroke="none" x="714" y="344" width="136.0380859375" height="44"/></g><g transform="translate(-126,-102) scale(1,1)"><path fill="none" stroke="#000000" d="M 714 344 L 850.0380859375 344 L 850.0380859375 388 L 714 388 L 714 344 Z Z" stroke-miterlimit="10"/></g><g transform="translate(-126,-102) scale(1,1)"><rect fill="#00a854" stroke="none" x="704" y="351" width="20" height="10"/></g><g transform="translate(-126,-102) scale(1,1)"><path fill="none" stroke="#000000" d="M 704 351 L 724 351 L 724 361 L 704 361 L 704 351 Z Z" stroke-miterlimit="10"/></g><g transform="translate(-126,-102) scale(1,1)"><rect fill="#00a854" stroke="none" x="704" y="371" width="20" height="10"/></g><g transform="translate(-126,-102) scale(1,1)"><path fill="none" stroke="#000000" d="M 704 371 L 724 371 L 724 381 L 704 381 L 704 371 Z Z" stroke-miterlimit="10"/></g><g transform="translate(-126,-102) scale(1,1)"><g><path fill="none" stroke="none"/><text fill="#000000" stroke="none" font-family="Arial" font-size="13px" font-style="normal" font-weight="normal" text-decoration="none" x="772.5654296875" y="361.5">«jar»</text></g></g><g transform="translate(-126,-102) scale(1,1)"><g><path fill="none" stroke="none"/><text fill="#000000" stroke="none" font-family="Arial" font-size="13px" font-style="normal" font-weight="bold" text-decoration="none" x="745.838623046875" y="376.5">back-transfers</text></g></g><g transform="translate(-126,-102) scale(1,1)"><rect fill="#C0C0C0" stroke="none" x="153" y="351" width="136.00634765625" height="44" opacity="0.2"/></g><g transform="translate(-126,-102) scale(1,1)"><rect fill="#00a854" stroke="none" x="146" y="344" width="136.00634765625" height="44"/></g><g transform="translate(-126,-102) scale(1,1)"><path fill="none" stroke="#000000" d="M 146 344 L 282.00634765625 344 L 282.00634765625 388 L 146 388 L 146 344 Z Z" stroke-miterlimit="10"/></g><g transform="translate(-126,-102) scale(1,1)"><rect fill="#00a854" stroke="none" x="136" y="351" width="20" height="10"/></g><g transform="translate(-126,-102) scale(1,1)"><path fill="none" stroke="#000000" d="M 136 351 L 156 351 L 156 361 L 136 361 L 136 351 Z Z" stroke-miterlimit="10"/></g><g transform="translate(-126,-102) scale(1,1)"><rect fill="#00a854" stroke="none" x="136" y="371" width="20" height="10"/></g><g transform="translate(-126,-102) scale(1,1)"><path fill="none" stroke="#000000" d="M 136 371 L 156 371 L 156 381 L 136 381 L 136 371 Z Z" stroke-miterlimit="10"/></g><g transform="translate(-126,-102) scale(1,1)"><g><path fill="none" stroke="none"/><text fill="#000000" stroke="none" font-family="Arial" font-size="13px" font-style="normal" font-weight="normal" text-decoration="none" x="204.549560546875" y="361.5">«jar»</text></g></g><g transform="translate(-126,-102) scale(1,1)"><g><path fill="none" stroke="none"/><text fill="#000000" stroke="none" font-family="Arial" font-size="13px" font-style="normal" font-weight="bold" text-decoration="none" x="165.898681640625" y="376.5">transfers-manager</text></g></g><g transform="translate(-126,-102) scale(1,1)"><rect fill="#C0C0C0" stroke="none" x="441" y="351" width="149.076171875" height="44" opacity="0.2"/></g><g transform="translate(-126,-102) scale(1,1)"><rect fill="#a3e0ff" stroke="none" x="434" y="344" width="149.076171875" height="44"/></g><g transform="translate(-126,-102) scale(1,1)"><path fill="none" stroke="#000000" d="M 434 344 L 583.076171875 344 L 583.076171875 388 L 434 388 L 434 344 Z Z" stroke-miterlimit="10"/></g><g transform="translate(-126,-102) scale(1,1)"><rect fill="#a3e0ff" stroke="none" x="424" y="351" width="20" height="10"/></g><g transform="translate(-126,-102) scale(1,1)"><path fill="none" stroke="#000000" d="M 424 351 L 444 351 L 444 361 L 424 361 L 424 351 Z Z" stroke-miterlimit="10"/></g><g transform="translate(-126,-102) scale(1,1)"><rect fill="#a3e0ff" stroke="none" x="424" y="371" width="20" height="10"/></g><g transform="translate(-126,-102) scale(1,1)"><path fill="none" stroke="#000000" d="M 424 371 L 444 371 L 444 381 L 424 381 L 424 371 Z Z" stroke-miterlimit="10"/></g><g transform="translate(-126,-102) scale(1,1)"><g><path fill="none" stroke="none"/><text fill="#000000" stroke="none" font-family="Arial" font-size="13px" font-style="normal" font-weight="normal" text-decoration="none" x="499.08447265625" y="361.5">«jar»</text></g></g><g transform="translate(-126,-102) scale(1,1)"><g><path fill="none" stroke="none"/><text fill="#000000" stroke="none" font-family="Arial" font-size="13px" font-style="normal" font-weight="bold" text-decoration="none" x="451.75634765625" y="376.5">kafka-clients-0.11.0.1</text></g></g><g transform="translate(-126,-102) scale(1,1)"><rect fill="#C0C0C0" stroke="none" x="1073" y="343" width="98.49169921875" height="44" opacity="0.2"/></g><g transform="translate(-126,-102) scale(1,1)"><rect fill="#00a854" stroke="none" x="1066" y="336" width="98.49169921875" height="44"/></g><g transform="translate(-126,-102) scale(1,1)"><path fill="none" stroke="#000000" d="M 1066 336 L 1164.49169921875 336 L 1164.49169921875 380 L 1066 380 L 1066 336 Z Z" stroke-miterlimit="10"/></g><g transform="translate(-126,-102) scale(1,1)"><rect fill="#00a854" stroke="none" x="1056" y="343" width="20" height="10"/></g><g transform="translate(-126,-102) scale(1,1)"><path fill="none" stroke="#000000" d="M 1056 343 L 1076 343 L 1076 353 L 1056 353 L 1056 343 Z Z" stroke-miterlimit="10"/></g><g transform="translate(-126,-102) scale(1,1)"><rect fill="#00a854" stroke="none" x="1056" y="363" width="20" height="10"/></g><g transform="translate(-126,-102) scale(1,1)"><path fill="none" stroke="#000000" d="M 1056 363 L 1076 363 L 1076 373 L 1056 373 L 1056 363 Z Z" stroke-miterlimit="10"/></g><g transform="translate(-126,-102) scale(1,1)"><g><path fill="none" stroke="none"/><text fill="#000000" stroke="none" font-family="Arial" font-size="13px" font-style="normal" font-weight="normal" text-decoration="none" x="1105.792236328125" y="353.5">«jar»</text></g></g><g transform="translate(-126,-102) scale(1,1)"><g><path fill="none" stroke="none"/><text fill="#000000" stroke="none" font-family="Arial" font-size="13px" font-style="normal" font-weight="bold" text-decoration="none" x="1085.562255859375" y="368.5">bankservice</text></g></g><g transform="translate(-126,-102) scale(1,1)"><path fill="#C0C0C0" stroke="none" d="M 951.853515625 370.5 C 951.853515625 364.1487248 957.002240425 359 963.353515625 359 C 969.704790825 359 974.853515625 364.1487248 974.853515625 370.5 C 974.853515625 376.8512752 969.704790825 382 963.353515625 382 C 957.002240425 382 951.853515625 376.8512752 951.853515625 370.5 Z" opacity="0.2"/></g><g transform="translate(-126,-102) scale(1,1)"><path fill="none" stroke="#000000" d="M 957.0775907437186 374.4494016520101 A 11.5 11.5 0 1 1 954.9224092562814 351.5505983479899" stroke-miterlimit="10"/></g><g transform="translate(-126,-102) scale(1,1)"><path fill="#ffffff" stroke="none" d="M 947.853515625 363.5 C 947.853515625 358.8055792 951.659094825 355 956.353515625 355 C 961.047936425 355 964.853515625 358.8055792 964.853515625 363.5 C 964.853515625 368.1944208 961.047936425 372 956.353515625 372 C 951.659094825 372 947.853515625 368.1944208 947.853515625 363.5 Z"/></g><g transform="translate(-126,-102) scale(1,1)"><path fill="none" stroke="#000000" d="M 947.853515625 363.5 C 947.853515625 358.8055792 951.659094825 355 956.353515625 355 C 961.047936425 355 964.853515625 358.8055792 964.853515625 363.5 C 964.853515625 368.1944208 961.047936425 372 956.353515625 372 C 951.659094825 372 947.853515625 368.1944208 947.853515625 363.5 Z" stroke-miterlimit="10"/></g><g transform="translate(-126,-102) scale(1,1)"><g><path fill="none" stroke="none"/><text fill="#000000" stroke="none" font-family="Arial" font-size="13px" font-style="normal" font-weight="bold" text-decoration="none" x="881.289306640625" y="394.5">API external bank "REST"</text></g></g><g transform="translate(-126,-102) scale(1,1)"><path fill="none" stroke="#000000" d="M 1055 364 L 967.853515625 363.41349473110466" stroke-miterlimit="10"/></g><g transform="translate(-126,-102) scale(1,1)"><path fill="none" stroke="#000000" d="M 851 370 L 944.853515625 364.04908088235294" stroke-miterlimit="10"/></g><g transform="translate(-126,-102) scale(1,1)"><path fill="#C0C0C0" stroke="none" d="M 199 521 L 244 521 L 244 554 L 199 554" opacity="0.2"/></g><g transform="translate(-126,-102) scale(1,1)"><path fill="#C0C0C0" stroke="none" d="M 199 521 L 209 511 L 254 511 L 244 521" opacity="0.2"/></g><g transform="translate(-126,-102) scale(1,1)"><path fill="#C0C0C0" stroke="none" d="M 254 511 L 244 521 L 244 554 L 254 544" opacity="0.2"/></g><g transform="translate(-126,-102) scale(1,1)"><path fill="#ffffff" stroke="none" d="M 192 514 L 237 514 L 237 547 L 192 547"/></g><g transform="translate(-126,-102) scale(1,1)"><path fill="#ffffff" stroke="none" d="M 192 514 L 202 504 L 247 504 L 237 514"/></g><g transform="translate(-126,-102) scale(1,1)"><path fill="#ffffff" stroke="none" d="M 247 504 L 237 514 L 237 547 L 247 537"/></g><g transform="translate(-126,-102) scale(1,1)"><path fill="none" stroke="#000000" d="M 192 514 L 237 514 L 237 547 L 192 547 L 192 514" stroke-miterlimit="10"/></g><g transform="translate(-126,-102) scale(1,1)"><path fill="none" stroke="#000000" d="M 192 514 L 202 504 L 247 504 L 237 514 L 192 514" stroke-miterlimit="10"/></g><g transform="translate(-126,-102) scale(1,1)"><path fill="none" stroke="#000000" d="M 247 504 L 237 514 L 237 547 L 247 537 L 247 504" stroke-miterlimit="10"/></g><g transform="translate(-126,-102) scale(1,1)"><g><path fill="none" stroke="none"/><text fill="#000000" stroke="none" font-family="Arial" font-size="13px" font-style="normal" font-weight="bold" text-decoration="none" x="215" y="533.5"></text></g></g><g transform="translate(-126,-102) scale(1,1)"><rect fill="#C0C0C0" stroke="none" x="177" y="527" width="98.44091796875" height="44" opacity="0.2"/></g><g transform="translate(-126,-102) scale(1,1)"><rect fill="#ffadad" stroke="none" x="170" y="520" width="98.44091796875" height="44"/></g><g transform="translate(-126,-102) scale(1,1)"><path fill="none" stroke="#000000" d="M 170 520 L 268.44091796875 520 L 268.44091796875 564 L 170 564 L 170 520 Z Z" stroke-miterlimit="10"/></g><g transform="translate(-126,-102) scale(1,1)"><rect fill="#ffadad" stroke="none" x="160" y="527" width="20" height="10"/></g><g transform="translate(-126,-102) scale(1,1)"><path fill="none" stroke="#000000" d="M 160 527 L 180 527 L 180 537 L 160 537 L 160 527 Z Z" stroke-miterlimit="10"/></g><g transform="translate(-126,-102) scale(1,1)"><rect fill="#ffadad" stroke="none" x="160" y="547" width="20" height="10"/></g><g transform="translate(-126,-102) scale(1,1)"><path fill="none" stroke="#000000" d="M 160 547 L 180 547 L 180 557 L 160 557 L 160 547 Z Z" stroke-miterlimit="10"/></g><g transform="translate(-126,-102) scale(1,1)"><g><path fill="none" stroke="none"/><text fill="#000000" stroke="none" font-family="Arial" font-size="13px" font-style="normal" font-weight="normal" text-decoration="none" x="190.24462890625" y="537.5">«database»</text></g></g><g transform="translate(-126,-102) scale(1,1)"><g><path fill="none" stroke="none"/><text fill="#000000" stroke="none" font-family="Arial" font-size="13px" font-style="normal" font-weight="bold" text-decoration="none" x="191.339599609375" y="552.5">postgre-9.6</text></g></g><g transform="translate(-126,-102) scale(1,1)"><path fill="none" stroke="#000000" d="M 221 405 L 220 503" stroke-miterlimit="10"/></g><g transform="translate(-126,-102) scale(1,1)"><g><path fill="none" stroke="none"/><text fill="#000000" stroke="none" font-family="Arial" font-size="13px" font-style="normal" font-weight="normal" text-decoration="none" x="216.7041015625" y="459.5">+TCP</text></g></g><g transform="translate(-126,-102) scale(1,1)"><rect fill="#C0C0C0" stroke="none" x="465" y="247" width="98.44091796875" height="44" opacity="0.2"/></g><g transform="translate(-126,-102) scale(1,1)"><rect fill="#00a854" stroke="none" x="458" y="240" width="98.44091796875" height="44"/></g><g transform="translate(-126,-102) scale(1,1)"><path fill="none" stroke="#000000" d="M 458 240 L 556.44091796875 240 L 556.44091796875 284 L 458 284 L 458 240 Z Z" stroke-miterlimit="10"/></g><g transform="translate(-126,-102) scale(1,1)"><rect fill="#00a854" stroke="none" x="448" y="247" width="20" height="10"/></g><g transform="translate(-126,-102) scale(1,1)"><path fill="none" stroke="#000000" d="M 448 247 L 468 247 L 468 257 L 448 257 L 448 247 Z Z" stroke-miterlimit="10"/></g><g transform="translate(-126,-102) scale(1,1)"><rect fill="#00a854" stroke="none" x="448" y="267" width="20" height="10"/></g><g transform="translate(-126,-102) scale(1,1)"><path fill="none" stroke="#000000" d="M 448 267 L 468 267 L 468 277 L 448 277 L 448 267 Z Z" stroke-miterlimit="10"/></g><g transform="translate(-126,-102) scale(1,1)"><g><path fill="none" stroke="none"/><text fill="#000000" stroke="none" font-family="Arial" font-size="13px" font-style="normal" font-weight="normal" text-decoration="none" x="497.766845703125" y="257.5">«jar»</text></g></g><g transform="translate(-126,-102) scale(1,1)"><g><path fill="none" stroke="none"/><text fill="#000000" stroke="none" font-family="Arial" font-size="13px" font-style="normal" font-weight="bold" text-decoration="none" x="491.266845703125" y="272.5">models</text></g></g><g transform="translate(-126,-102) scale(1,1)"><rect fill="#C0C0C0" stroke="none" x="465" y="119" width="98.44091796875" height="44" opacity="0.2"/></g><g transform="translate(-126,-102) scale(1,1)"><rect fill="#00a854" stroke="none" x="458" y="112" width="98.44091796875" height="44"/></g><g transform="translate(-126,-102) scale(1,1)"><path fill="none" stroke="#000000" d="M 458 112 L 556.44091796875 112 L 556.44091796875 156 L 458 156 L 458 112 Z Z" stroke-miterlimit="10"/></g><g transform="translate(-126,-102) scale(1,1)"><rect fill="#00a854" stroke="none" x="448" y="119" width="20" height="10"/></g><g transform="translate(-126,-102) scale(1,1)"><path fill="none" stroke="#000000" d="M 448 119 L 468 119 L 468 129 L 448 129 L 448 119 Z Z" stroke-miterlimit="10"/></g><g transform="translate(-126,-102) scale(1,1)"><rect fill="#00a854" stroke="none" x="448" y="139" width="20" height="10"/></g><g transform="translate(-126,-102) scale(1,1)"><path fill="none" stroke="#000000" d="M 448 139 L 468 139 L 468 149 L 448 149 L 448 139 Z Z" stroke-miterlimit="10"/></g><g transform="translate(-126,-102) scale(1,1)"><g><path fill="none" stroke="none"/><text fill="#000000" stroke="none" font-family="Arial" font-size="13px" font-style="normal" font-weight="normal" text-decoration="none" x="486.56005859375" y="129.5">«parent»</text></g></g><g transform="translate(-126,-102) scale(1,1)"><g><path fill="none" stroke="none"/><text fill="#000000" stroke="none" font-family="Arial" font-size="13px" font-style="normal" font-weight="bold" text-decoration="none" x="481.865966796875" y="144.5">eight-bank</text></g></g><g transform="translate(-126,-102) scale(1,1)"><path fill="none" stroke="#000000" d="M 238 343 L 473 157" stroke-miterlimit="10" stroke-dasharray="3"/></g><g transform="translate(-126,-102) scale(1,1)"><path fill="none" stroke="#000000" d="M 467.64380995243005 166.60787323887618 L 473 157 L 462.4188093760493 160.0063940160295" stroke-miterlimit="10"/></g><g transform="translate(-126,-102) scale(1,1)"><path fill="none" stroke="#000000" d="M 750 343 L 529 157" stroke-miterlimit="10" stroke-dasharray="3"/></g><g transform="translate(-126,-102) scale(1,1)"><path fill="none" stroke="#000000" d="M 539.4859714266863 160.32331208867265 L 529 157 L 534.0647649892386 166.76463801703795" stroke-miterlimit="10"/></g><g transform="translate(-126,-102) scale(1,1)"><path fill="#C0C0C0" stroke="none" d="M 623.0654296875 370.5 C 623.0654296875 364.1487248 628.2141544875 359 634.5654296875 359 C 640.9167048875 359 646.0654296875 364.1487248 646.0654296875 370.5 C 646.0654296875 376.8512752 640.9167048875 382 634.5654296875 382 C 628.2141544875 382 623.0654296875 376.8512752 623.0654296875 370.5 Z" opacity="0.2"/></g><g transform="translate(-126,-102) scale(1,1)"><path fill="none" stroke="#000000" d="M 630.2771580829541 351.9768319027909 A 11.5 11.5 0 0 1 623.7228419170459 374.0231680972091" stroke-miterlimit="10"/></g><g transform="translate(-126,-102) scale(1,1)"><path fill="#ffffff" stroke="none" d="M 619.0654296875 363.5 C 619.0654296875 358.8055792 622.8710088875 355 627.5654296875 355 C 632.2598504875 355 636.0654296875 358.8055792 636.0654296875 363.5 C 636.0654296875 368.1944208 632.2598504875 372 627.5654296875 372 C 622.8710088875 372 619.0654296875 368.1944208 619.0654296875 363.5 Z"/></g><g transform="translate(-126,-102) scale(1,1)"><path fill="none" stroke="#000000" d="M 619.0654296875 363.5 C 619.0654296875 358.8055792 622.8710088875 355 627.5654296875 355 C 632.2598504875 355 636.0654296875 358.8055792 636.0654296875 363.5 C 636.0654296875 368.1944208 632.2598504875 372 627.5654296875 372 C 622.8710088875 372 619.0654296875 368.1944208 619.0654296875 363.5 Z" stroke-miterlimit="10"/></g><g transform="translate(-126,-102) scale(1,1)"><g><path fill="none" stroke="none"/><text fill="#000000" stroke="none" font-family="Arial" font-size="13px" font-style="normal" font-weight="bold" text-decoration="none" x="599.0263671875" y="394.5">consumer</text></g></g><g transform="translate(-126,-102) scale(1,1)"><path fill="#C0C0C0" stroke="none" d="M 358.7099609375 370.5 C 358.7099609375 364.1487248 363.8586857375 359 370.2099609375 359 C 376.5612361375 359 381.7099609375 364.1487248 381.7099609375 370.5 C 381.7099609375 376.8512752 376.5612361375 382 370.2099609375 382 C 363.8586857375 382 358.7099609375 376.8512752 358.7099609375 370.5 Z" opacity="0.2"/></g><g transform="translate(-126,-102) scale(1,1)"><path fill="none" stroke="#000000" d="M 366.3605131593887 373.9980430670904 A 11.5 11.5 0 0 1 359.6394868406113 352.0019569329096" stroke-miterlimit="10"/></g><g transform="translate(-126,-102) scale(1,1)"><path fill="#ffffff" stroke="none" d="M 354.7099609375 363.5 C 354.7099609375 358.8055792 358.5155401375 355 363.2099609375 355 C 367.9043817375 355 371.7099609375 358.8055792 371.7099609375 363.5 C 371.7099609375 368.1944208 367.9043817375 372 363.2099609375 372 C 358.5155401375 372 354.7099609375 368.1944208 354.7099609375 363.5 Z"/></g><g transform="translate(-126,-102) scale(1,1)"><path fill="none" stroke="#000000" d="M 354.7099609375 363.5 C 354.7099609375 358.8055792 358.5155401375 355 363.2099609375 355 C 367.9043817375 355 371.7099609375 358.8055792 371.7099609375 363.5 C 371.7099609375 368.1944208 367.9043817375 372 363.2099609375 372 C 358.5155401375 372 354.7099609375 368.1944208 354.7099609375 363.5 Z" stroke-miterlimit="10"/></g><g transform="translate(-126,-102) scale(1,1)"><g><path fill="none" stroke="none"/><text fill="#000000" stroke="none" font-family="Arial" font-size="13px" font-style="normal" font-weight="bold" text-decoration="none" x="337.555908203125" y="394.5">producer</text></g></g><g transform="translate(-126,-102) scale(1,1)"><path fill="none" stroke="#000000" d="M 423 372 L 374.7099609375 366.2527669270833" stroke-miterlimit="10"/></g><g transform="translate(-126,-102) scale(1,1)"><path fill="none" stroke="#000000" d="M 283 371 L 351.7099609375 366.4497341579861" stroke-miterlimit="10"/></g><g transform="translate(-126,-102) scale(1,1)"><path fill="none" stroke="#000000" d="M 584 373 L 616.0654296875 366.0373806423611" stroke-miterlimit="10"/></g><g transform="translate(-126,-102) scale(1,1)"><path fill="none" stroke="#000000" d="M 703 371 L 639.0654296875 366.5870196368243" stroke-miterlimit="10"/></g><g transform="translate(-126,-102) scale(1,1)"><rect fill="#C0C0C0" stroke="none" x="169" y="215" width="98.44091796875" height="44" opacity="0.2"/></g><g transform="translate(-126,-102) scale(1,1)"><rect fill="#00a854" stroke="none" x="162" y="208" width="98.44091796875" height="44"/></g><g transform="translate(-126,-102) scale(1,1)"><path fill="none" stroke="#000000" d="M 162 208 L 260.44091796875 208 L 260.44091796875 252 L 162 252 L 162 208 Z Z" stroke-miterlimit="10"/></g><g transform="translate(-126,-102) scale(1,1)"><rect fill="#00a854" stroke="none" x="152" y="215" width="20" height="10"/></g><g transform="translate(-126,-102) scale(1,1)"><path fill="none" stroke="#000000" d="M 152 215 L 172 215 L 172 225 L 152 225 L 152 215 Z Z" stroke-miterlimit="10"/></g><g transform="translate(-126,-102) scale(1,1)"><rect fill="#00a854" stroke="none" x="152" y="235" width="20" height="10"/></g><g transform="translate(-126,-102) scale(1,1)"><path fill="none" stroke="#000000" d="M 152 235 L 172 235 L 172 245 L 152 245 L 152 235 Z Z" stroke-miterlimit="10"/></g><g transform="translate(-126,-102) scale(1,1)"><g><path fill="none" stroke="none"/><text fill="#000000" stroke="none" font-family="Arial" font-size="13px" font-style="normal" font-weight="normal" text-decoration="none" x="201.766845703125" y="225.5">«jar»</text></g></g><g transform="translate(-126,-102) scale(1,1)"><g><path fill="none" stroke="none"/><text fill="#000000" stroke="none" font-family="Arial" font-size="13px" font-style="normal" font-weight="bold" text-decoration="none" x="192.369140625" y="240.5">frontend</text></g></g><g transform="translate(-126,-102) scale(1,1)"><path fill="#C0C0C0" stroke="none" d="M 198.7099609375 298.5 C 198.7099609375 292.1487248 203.8586857375 287 210.2099609375 287 C 216.5612361375 287 221.7099609375 292.1487248 221.7099609375 298.5 C 221.7099609375 304.8512752 216.5612361375 310 210.2099609375 310 C 203.8586857375 310 198.7099609375 304.8512752 198.7099609375 298.5 Z" opacity="0.2"/></g><g transform="translate(-126,-102) scale(1,1)"><path fill="none" stroke="#000000" d="M 191.5397237801839 290.044976981682 A 11.5 11.5 0 0 1 214.4602762198161 291.955023018318" stroke-miterlimit="10"/></g><g transform="translate(-126,-102) scale(1,1)"><path fill="#ffffff" stroke="none" d="M 194.7099609375 291.5 C 194.7099609375 286.8055792 198.5155401375 283 203.2099609375 283 C 207.9043817375 283 211.7099609375 286.8055792 211.7099609375 291.5 C 211.7099609375 296.1944208 207.9043817375 300 203.2099609375 300 C 198.5155401375 300 194.7099609375 296.1944208 194.7099609375 291.5 Z"/></g><g transform="translate(-126,-102) scale(1,1)"><path fill="none" stroke="#000000" d="M 194.7099609375 291.5 C 194.7099609375 286.8055792 198.5155401375 283 203.2099609375 283 C 207.9043817375 283 211.7099609375 286.8055792 211.7099609375 291.5 C 211.7099609375 296.1944208 207.9043817375 300 203.2099609375 300 C 198.5155401375 300 194.7099609375 296.1944208 194.7099609375 291.5 Z" stroke-miterlimit="10"/></g><g transform="translate(-126,-102) scale(1,1)"><g><path fill="none" stroke="none"/><text fill="#000000" stroke="none" font-family="Arial" font-size="13px" font-style="normal" font-weight="bold" text-decoration="none" x="203.2099609375" y="322.5"></text></g></g><g transform="translate(-126,-102) scale(1,1)"><path fill="none" stroke="#000000" d="M 207 343 L 203.6315789473684 303" stroke-miterlimit="10"/></g><g transform="translate(-126,-102) scale(1,1)"><path fill="none" stroke="#000000" d="M 205 253 L 203.91666666666666 280" stroke-miterlimit="10"/></g><g transform="translate(-126,-102) scale(1,1)"><path fill="none" stroke="#000000" d="M 274 343 L 447 282" stroke-miterlimit="10" stroke-dasharray="3"/></g><g transform="translate(-126,-102) scale(1,1)"><path fill="none" stroke="#000000" d="M 438.8154852894191 289.3494026255393 L 447 282 L 436.0158617132381 281.40948658161625" stroke-miterlimit="10"/></g><g transform="translate(-126,-102) scale(1,1)"><path fill="none" stroke="#000000" d="M 716 343 L 557 283" stroke-miterlimit="10" stroke-dasharray="3"/></g><g transform="translate(-126,-102) scale(1,1)"><path fill="none" stroke="#000000" d="M 567.9944168389428 282.6495740141331 L 557 283 L 565.0220152929185 290.52643811109755" stroke-miterlimit="10"/></g><g transform="translate(-126,-102) scale(1,1)"><path fill="none" stroke="#000000" d="M 261 236 L 447 256" stroke-miterlimit="10" stroke-dasharray="3"/></g><g transform="translate(-126,-102) scale(1,1)"><path fill="none" stroke="#000000" d="M 436.44552902741515 259.0988937524323 L 447 256 L 437.3456132169272 250.72811078997015" stroke-miterlimit="10"/></g><g transform="translate(-126,-102) scale(1,1)"><path fill="none" stroke="#000000" d="M 261 212 L 447 152" stroke-miterlimit="10" stroke-dasharray="3"/></g><g transform="translate(-126,-102) scale(1,1)"><path fill="none" stroke="#000000" d="M 438.6204284117317 159.12620375775822 L 447 152 L 436.0357611052695 151.11373510772526" stroke-miterlimit="10"/></g><g transform="translate(-126,-102) scale(1,1)"><rect fill="#C0C0C0" stroke="none" x="665" y="159" width="112.92626953125" height="44" opacity="0.2"/></g><g transform="translate(-126,-102) scale(1,1)"><rect fill="#ffffff" stroke="none" x="658" y="152" width="112.92626953125" height="44"/></g><g transform="translate(-126,-102) scale(1,1)"><path fill="none" stroke="#000000" d="M 658 152 L 770.92626953125 152 L 770.92626953125 196 L 658 196 L 658 152 Z Z" stroke-miterlimit="10"/></g><g transform="translate(-126,-102) scale(1,1)"><rect fill="#ffffff" stroke="none" x="648" y="159" width="20" height="10"/></g><g transform="translate(-126,-102) scale(1,1)"><path fill="none" stroke="#000000" d="M 648 159 L 668 159 L 668 169 L 648 169 L 648 159 Z Z" stroke-miterlimit="10"/></g><g transform="translate(-126,-102) scale(1,1)"><rect fill="#ffffff" stroke="none" x="648" y="179" width="20" height="10"/></g><g transform="translate(-126,-102) scale(1,1)"><path fill="none" stroke="#000000" d="M 648 179 L 668 179 L 668 189 L 648 189 L 648 179 Z Z" stroke-miterlimit="10"/></g><g transform="translate(-126,-102) scale(1,1)"><g><path fill="none" stroke="none"/><text fill="#000000" stroke="none" font-family="Arial" font-size="13px" font-style="normal" font-weight="normal" text-decoration="none" x="705.009521484375" y="169.5">«jar»</text></g></g><g transform="translate(-126,-102) scale(1,1)"><g><path fill="none" stroke="none"/><text fill="#000000" stroke="none" font-family="Arial" font-size="13px" font-style="normal" font-weight="bold" text-decoration="none" x="674.658203125" y="184.5">lombok-1.16.18</text></g></g><g transform="translate(-126,-102) scale(1,1)"><path fill="none" stroke="#000000" d="M 556 239 L 655 197" stroke-miterlimit="10" stroke-dasharray="3"/></g><g transform="translate(-126,-102) scale(1,1)"><path fill="none" stroke="#000000" d="M 647.2884531858998 204.8442364659629 L 655 197 L 644.0004001559992 197.09382575262543" stroke-miterlimit="10"/></g><g transform="translate(-126,-102) scale(1,1)"><rect fill="#C0C0C0" stroke="none" x="417" y="511" width="166.3798828125" height="44" opacity="0.2"/></g><g transform="translate(-126,-102) scale(1,1)"><rect fill="#ffffff" stroke="none" x="410" y="504" width="166.3798828125" height="44"/></g><g transform="translate(-126,-102) scale(1,1)"><path fill="none" stroke="#000000" d="M 410 504 L 576.3798828125 504 L 576.3798828125 548 L 410 548 L 410 504 Z Z" stroke-miterlimit="10"/></g><g transform="translate(-126,-102) scale(1,1)"><rect fill="#ffffff" stroke="none" x="400" y="511" width="20" height="10"/></g><g transform="translate(-126,-102) scale(1,1)"><path fill="none" stroke="#000000" d="M 400 511 L 420 511 L 420 521 L 400 521 L 400 511 Z Z" stroke-miterlimit="10"/></g><g transform="translate(-126,-102) scale(1,1)"><rect fill="#ffffff" stroke="none" x="400" y="531" width="20" height="10"/></g><g transform="translate(-126,-102) scale(1,1)"><path fill="none" stroke="#000000" d="M 400 531 L 420 531 L 420 541 L 400 541 L 400 531 Z Z" stroke-miterlimit="10"/></g><g transform="translate(-126,-102) scale(1,1)"><g><path fill="none" stroke="none"/><text fill="#000000" stroke="none" font-family="Arial" font-size="13px" font-style="normal" font-weight="normal" text-decoration="none" x="483.736328125" y="521.5">«jar»</text></g></g><g transform="translate(-126,-102) scale(1,1)"><g><path fill="none" stroke="none"/><text fill="#000000" stroke="none" font-family="Arial" font-size="13px" font-style="normal" font-weight="bold" text-decoration="none" x="428.81005859375" y="536.5">jackson-databind-2.8.10</text></g></g><g transform="translate(-126,-102) scale(1,1)"><rect fill="#C0C0C0" stroke="none" x="769" y="511" width="143.26806640625" height="44" opacity="0.2"/></g><g transform="translate(-126,-102) scale(1,1)"><rect fill="#ffffff" stroke="none" x="762" y="504" width="143.26806640625" height="44"/></g><g transform="translate(-126,-102) scale(1,1)"><path fill="none" stroke="#000000" d="M 762 504 L 905.26806640625 504 L 905.26806640625 548 L 762 548 L 762 504 Z Z" stroke-miterlimit="10"/></g><g transform="translate(-126,-102) scale(1,1)"><rect fill="#ffffff" stroke="none" x="752" y="511" width="20" height="10"/></g><g transform="translate(-126,-102) scale(1,1)"><path fill="none" stroke="#000000" d="M 752 511 L 772 511 L 772 521 L 752 521 L 752 511 Z Z" stroke-miterlimit="10"/></g><g transform="translate(-126,-102) scale(1,1)"><rect fill="#ffffff" stroke="none" x="752" y="531" width="20" height="10"/></g><g transform="translate(-126,-102) scale(1,1)"><path fill="none" stroke="#000000" d="M 752 531 L 772 531 L 772 541 L 752 541 L 752 531 Z Z" stroke-miterlimit="10"/></g><g transform="translate(-126,-102) scale(1,1)"><g><path fill="none" stroke="none"/><text fill="#000000" stroke="none" font-family="Arial" font-size="13px" font-style="normal" font-weight="normal" text-decoration="none" x="824.180419921875" y="521.5">«jar»</text></g></g><g transform="translate(-126,-102) scale(1,1)"><g><path fill="none" stroke="none"/><text fill="#000000" stroke="none" font-family="Arial" font-size="13px" font-style="normal" font-weight="bold" text-decoration="none" x="778.658203125" y="536.5">dom-2.3.0-jaxb-1.0.6</text></g></g><g transform="translate(-126,-102) scale(1,1)"><path fill="none" stroke="#000000" d="M 249 389 L 448 503" stroke-miterlimit="10" stroke-dasharray="3"/></g><g transform="translate(-126,-102) scale(1,1)"><path fill="none" stroke="#000000" d="M 437.08932846317595 501.6009836971867 L 448 503 L 441.27424408372246 494.2957362543028" stroke-miterlimit="10"/></g><g transform="translate(-126,-102) scale(1,1)"><path fill="none" stroke="#000000" d="M 735 389 L 530 503" stroke-miterlimit="10" stroke-dasharray="3"/></g><g transform="translate(-126,-102) scale(1,1)"><path fill="none" stroke="#000000" d="M 536.8358856682461 494.3819568850772 L 530 503 L 540.9275778385527 501.7398243843128" stroke-miterlimit="10"/></g><g transform="translate(-126,-102) scale(1,1)"><path fill="none" stroke="#000000" d="M 784 389 L 821 503" stroke-miterlimit="10" stroke-dasharray="3"/></g><g transform="translate(-126,-102) scale(1,1)"><path fill="none" stroke="#000000" d="M 813.8587828750219 494.6332193781646 L 821 503 L 821.8666042594025 492.0341896306025" stroke-miterlimit="10"/></g></g></svg>