<svg version="1.1" xmlns="http://www.w3.org/2000/svg" xmlns:xlink="http://www.w3.org/1999/xlink" width="1052.08447265625" height="216"><defs/><g><g transform="translate(-62,-270) scale(1,1)"><rect fill="#C0C0C0" stroke="none" x="633" y="439" width="164.21533203125" height="44" opacity="0.2"/></g><g transform="translate(-62,-270) scale(1,1)"><rect fill="#6dff6d" stroke="none" x="626" y="432" width="164.21533203125" height="44"/></g><g transform="translate(-62,-270) scale(1,1)"><path fill="none" stroke="#000000" d="M 626 432 L 790.21533203125 432 L 790.21533203125 476 L 626 476 L 626 432 Z Z" stroke-miterlimit="10"/></g><g transform="translate(-62,-270) scale(1,1)"><rect fill="#6dff6d" stroke="none" x="616" y="439" width="20" height="10"/></g><g transform="translate(-62,-270) scale(1,1)"><path fill="none" stroke="#000000" d="M 616 439 L 636 439 L 636 449 L 616 449 L 616 439 Z Z" stroke-miterlimit="10"/></g><g transform="translate(-62,-270) scale(1,1)"><rect fill="#6dff6d" stroke="none" x="616" y="459" width="20" height="10"/></g><g transform="translate(-62,-270) scale(1,1)"><path fill="none" stroke="#000000" d="M 616 459 L 636 459 L 636 469 L 616 469 L 616 459 Z Z" stroke-miterlimit="10"/></g><g transform="translate(-62,-270) scale(1,1)"><g><path fill="none" stroke="none"/><text fill="#000000" stroke="none" font-family="Arial" font-size="13px" font-style="normal" font-weight="normal" text-decoration="none" x="698.654052734375" y="449.5">«jar»</text></g></g><g transform="translate(-62,-270) scale(1,1)"><g><path fill="none" stroke="none"/><text fill="#000000" stroke="none" font-family="Arial" font-size="13px" font-style="normal" font-weight="bold" text-decoration="none" x="645.187744140625" y="464.5">transfers-data-manager</text></g></g><g transform="translate(-62,-270) scale(1,1)"><rect fill="#C0C0C0" stroke="none" x="89" y="287" width="105.6962890625" height="44" opacity="0.2"/></g><g transform="translate(-62,-270) scale(1,1)"><rect fill="#6dff6d" stroke="none" x="82" y="280" width="105.6962890625" height="44"/></g><g transform="translate(-62,-270) scale(1,1)"><path fill="none" stroke="#000000" d="M 82 280 L 187.6962890625 280 L 187.6962890625 324 L 82 324 L 82 280 Z Z" stroke-miterlimit="10"/></g><g transform="translate(-62,-270) scale(1,1)"><rect fill="#6dff6d" stroke="none" x="72" y="287" width="20" height="10"/></g><g transform="translate(-62,-270) scale(1,1)"><path fill="none" stroke="#000000" d="M 72 287 L 92 287 L 92 297 L 72 297 L 72 287 Z Z" stroke-miterlimit="10"/></g><g transform="translate(-62,-270) scale(1,1)"><rect fill="#6dff6d" stroke="none" x="72" y="307" width="20" height="10"/></g><g transform="translate(-62,-270) scale(1,1)"><path fill="none" stroke="#000000" d="M 72 307 L 92 307 L 92 317 L 72 317 L 72 307 Z Z" stroke-miterlimit="10"/></g><g transform="translate(-62,-270) scale(1,1)"><g><path fill="none" stroke="none"/><text fill="#000000" stroke="none" font-family="Arial" font-size="13px" font-style="normal" font-weight="normal" text-decoration="none" x="125.39453125" y="297.5">«jar»</text></g></g><g transform="translate(-62,-270) scale(1,1)"><g><path fill="none" stroke="none"/><text fill="#000000" stroke="none" font-family="Arial" font-size="13px" font-style="normal" font-weight="bold" text-decoration="none" x="100.1181640625" y="312.5">transfer-mock</text></g></g><g transform="translate(-62,-270) scale(1,1)"><rect fill="#C0C0C0" stroke="none" x="633" y="287" width="147.578125" height="44" opacity="0.2"/></g><g transform="translate(-62,-270) scale(1,1)"><rect fill="#6dff6d" stroke="none" x="626" y="280" width="147.578125" height="44"/></g><g transform="translate(-62,-270) scale(1,1)"><path fill="none" stroke="#000000" d="M 626 280 L 773.578125 280 L 773.578125 324 L 626 324 L 626 280 Z Z" stroke-miterlimit="10"/></g><g transform="translate(-62,-270) scale(1,1)"><rect fill="#6dff6d" stroke="none" x="616" y="287" width="20" height="10"/></g><g transform="translate(-62,-270) scale(1,1)"><path fill="none" stroke="#000000" d="M 616 287 L 636 287 L 636 297 L 616 297 L 616 287 Z Z" stroke-miterlimit="10"/></g><g transform="translate(-62,-270) scale(1,1)"><rect fill="#6dff6d" stroke="none" x="616" y="307" width="20" height="10"/></g><g transform="translate(-62,-270) scale(1,1)"><path fill="none" stroke="#000000" d="M 616 307 L 636 307 L 636 317 L 616 317 L 616 307 Z Z" stroke-miterlimit="10"/></g><g transform="translate(-62,-270) scale(1,1)"><g><path fill="none" stroke="none"/><text fill="#000000" stroke="none" font-family="Arial" font-size="13px" font-style="normal" font-weight="normal" text-decoration="none" x="690.33544921875" y="297.5">«jar»</text></g></g><g transform="translate(-62,-270) scale(1,1)"><g><path fill="none" stroke="none"/><text fill="#000000" stroke="none" font-family="Arial" font-size="13px" font-style="normal" font-weight="bold" text-decoration="none" x="644.819580078125" y="312.5">twitter-data-manager</text></g></g><g transform="translate(-62,-270) scale(1,1)"><rect fill="#C0C0C0" stroke="none" x="89" y="423" width="118.6708984375" height="44" opacity="0.2"/></g><g transform="translate(-62,-270) scale(1,1)"><rect fill="#6dff6d" stroke="none" x="82" y="416" width="118.6708984375" height="44"/></g><g transform="translate(-62,-270) scale(1,1)"><path fill="none" stroke="#000000" d="M 82 416 L 200.6708984375 416 L 200.6708984375 460 L 82 460 L 82 416 Z Z" stroke-miterlimit="10"/></g><g transform="translate(-62,-270) scale(1,1)"><rect fill="#6dff6d" stroke="none" x="72" y="423" width="20" height="10"/></g><g transform="translate(-62,-270) scale(1,1)"><path fill="none" stroke="#000000" d="M 72 423 L 92 423 L 92 433 L 72 433 L 72 423 Z Z" stroke-miterlimit="10"/></g><g transform="translate(-62,-270) scale(1,1)"><rect fill="#6dff6d" stroke="none" x="72" y="443" width="20" height="10"/></g><g transform="translate(-62,-270) scale(1,1)"><path fill="none" stroke="#000000" d="M 72 443 L 92 443 L 92 453 L 72 453 L 72 443 Z Z" stroke-miterlimit="10"/></g><g transform="translate(-62,-270) scale(1,1)"><g><path fill="none" stroke="none"/><text fill="#000000" stroke="none" font-family="Arial" font-size="13px" font-style="normal" font-weight="normal" text-decoration="none" x="131.8818359375" y="433.5">«jar»</text></g></g><g transform="translate(-62,-270) scale(1,1)"><g><path fill="none" stroke="none"/><text fill="#000000" stroke="none" font-family="Arial" font-size="13px" font-style="normal" font-weight="bold" text-decoration="none" x="101.181396484375" y="448.5">twitter-producer</text></g></g><g transform="translate(-62,-270) scale(1,1)"><rect fill="#C0C0C0" stroke="none" x="337" y="367" width="149.076171875" height="44" opacity="0.2"/></g><g transform="translate(-62,-270) scale(1,1)"><rect fill="#ffc1ad" stroke="none" x="330" y="360" width="149.076171875" height="44"/></g><g transform="translate(-62,-270) scale(1,1)"><path fill="none" stroke="#000000" d="M 330 360 L 479.076171875 360 L 479.076171875 404 L 330 404 L 330 360 Z Z" stroke-miterlimit="10"/></g><g transform="translate(-62,-270) scale(1,1)"><rect fill="#ffc1ad" stroke="none" x="320" y="367" width="20" height="10"/></g><g transform="translate(-62,-270) scale(1,1)"><path fill="none" stroke="#000000" d="M 320 367 L 340 367 L 340 377 L 320 377 L 320 367 Z Z" stroke-miterlimit="10"/></g><g transform="translate(-62,-270) scale(1,1)"><rect fill="#ffc1ad" stroke="none" x="320" y="387" width="20" height="10"/></g><g transform="translate(-62,-270) scale(1,1)"><path fill="none" stroke="#000000" d="M 320 387 L 340 387 L 340 397 L 320 397 L 320 387 Z Z" stroke-miterlimit="10"/></g><g transform="translate(-62,-270) scale(1,1)"><g><path fill="none" stroke="none"/><text fill="#000000" stroke="none" font-family="Arial" font-size="13px" font-style="normal" font-weight="normal" text-decoration="none" x="395.08447265625" y="377.5">«jar»</text></g></g><g transform="translate(-62,-270) scale(1,1)"><g><path fill="none" stroke="none"/><text fill="#000000" stroke="none" font-family="Arial" font-size="13px" font-style="normal" font-weight="bold" text-decoration="none" x="347.75634765625" y="392.5">kafka-clients-0.11.0.1</text></g></g><g transform="translate(-62,-270) scale(1,1)"><path fill="#C0C0C0" stroke="none" d="M 255 394.5 C 255 388.1487248 260.1487248 383 266.5 383 C 272.8512752 383 278 388.1487248 278 394.5 C 278 400.8512752 272.8512752 406 266.5 406 C 260.1487248 406 255 400.8512752 255 394.5 Z" opacity="0.2"/></g><g transform="translate(-62,-270) scale(1,1)"><path fill="none" stroke="#000000" d="M 255.0699547745029 397.807624370117 A 11.5 11.5 0 0 1 262.9300452254971 376.192375629883" stroke-miterlimit="10"/></g><g transform="translate(-62,-270) scale(1,1)"><path fill="none" stroke="#000000" d="M 265.3790522565901 396.5685783848852 A 11.5 11.5 0 0 1 252.62094774340989 377.4314216151148" stroke-miterlimit="10"/></g><g transform="translate(-62,-270) scale(1,1)"><path fill="#ffffff" stroke="none" d="M 251 387.5 C 251 382.8055792 254.8055792 379 259.5 379 C 264.1944208 379 268 382.8055792 268 387.5 C 268 392.1944208 264.1944208 396 259.5 396 C 254.8055792 396 251 392.1944208 251 387.5 Z"/></g><g transform="translate(-62,-270) scale(1,1)"><path fill="none" stroke="#000000" d="M 251 387.5 C 251 382.8055792 254.8055792 379 259.5 379 C 264.1944208 379 268 382.8055792 268 387.5 C 268 392.1944208 264.1944208 396 259.5 396 C 254.8055792 396 251 392.1944208 251 387.5 Z" stroke-miterlimit="10"/></g><g transform="translate(-62,-270) scale(1,1)"><g><path fill="none" stroke="none"/><text fill="#000000" stroke="none" font-family="Arial" font-size="13px" font-style="normal" font-weight="bold" text-decoration="none" x="233.845947265625" y="418.5">producer</text></g></g><g transform="translate(-62,-270) scale(1,1)"><path fill="none" stroke="#000000" d="M 319 392 L 271 389.5945945945946" stroke-miterlimit="10"/></g><g transform="translate(-62,-270) scale(1,1)"><path fill="none" stroke="#000000" d="M 160 325 L 248 383" stroke-miterlimit="10"/></g><g transform="translate(-62,-270) scale(1,1)"><path fill="none" stroke="#000000" d="M 202 418 L 248 394.3333333333333" stroke-miterlimit="10"/></g><g transform="translate(-62,-270) scale(1,1)"><path fill="#C0C0C0" stroke="none" d="M 575.0654296875 386.5 C 575.0654296875 380.1487248 580.2141544875 375 586.5654296875 375 C 592.9167048875 375 598.0654296875 380.1487248 598.0654296875 386.5 C 598.0654296875 392.8512752 592.9167048875 398 586.5654296875 398 C 580.2141544875 398 575.0654296875 392.8512752 575.0654296875 386.5 Z" opacity="0.2"/></g><g transform="translate(-62,-270) scale(1,1)"><path fill="none" stroke="#000000" d="M 574.9620804217335 368.232214457956 A 11.5 11.5 0 0 1 583.0379195782665 389.767785542044" stroke-miterlimit="10"/></g><g transform="translate(-62,-270) scale(1,1)"><path fill="none" stroke="#000000" d="M 586.5227472287132 370.3018235168003 A 11.5 11.5 0 0 1 571.4772527712868 387.6981764831997" stroke-miterlimit="10"/></g><g transform="translate(-62,-270) scale(1,1)"><path fill="#ffffff" stroke="none" d="M 571.0654296875 379.5 C 571.0654296875 374.8055792 574.8710088875 371 579.5654296875 371 C 584.2598504875 371 588.0654296875 374.8055792 588.0654296875 379.5 C 588.0654296875 384.1944208 584.2598504875 388 579.5654296875 388 C 574.8710088875 388 571.0654296875 384.1944208 571.0654296875 379.5 Z"/></g><g transform="translate(-62,-270) scale(1,1)"><path fill="none" stroke="#000000" d="M 571.0654296875 379.5 C 571.0654296875 374.8055792 574.8710088875 371 579.5654296875 371 C 584.2598504875 371 588.0654296875 374.8055792 588.0654296875 379.5 C 588.0654296875 384.1944208 584.2598504875 388 579.5654296875 388 C 574.8710088875 388 571.0654296875 384.1944208 571.0654296875 379.5 Z" stroke-miterlimit="10"/></g><g transform="translate(-62,-270) scale(1,1)"><g><path fill="none" stroke="none"/><text fill="#000000" stroke="none" font-family="Arial" font-size="13px" font-style="normal" font-weight="bold" text-decoration="none" x="551.0263671875" y="410.5">consumer</text></g></g><g transform="translate(-62,-270) scale(1,1)"><path fill="none" stroke="#000000" d="M 480 387 L 568.0654296875 382.34111870659723" stroke-miterlimit="10"/></g><g transform="translate(-62,-270) scale(1,1)"><path fill="none" stroke="#000000" d="M 665 325 L 591.0654296875 374.4754638671875" stroke-miterlimit="10"/></g><g transform="translate(-62,-270) scale(1,1)"><path fill="none" stroke="#000000" d="M 657 431 L 591.0654296875 389.4349662162162" stroke-miterlimit="10"/></g><g transform="translate(-62,-270) scale(1,1)"><rect fill="#C0C0C0" stroke="none" x="905" y="367" width="206.08447265625" height="44" opacity="0.2"/></g><g transform="translate(-62,-270) scale(1,1)"><rect fill="#adc8ff" stroke="none" x="898" y="360" width="206.08447265625" height="44"/></g><g transform="translate(-62,-270) scale(1,1)"><path fill="none" stroke="#000000" d="M 898 360 L 1104.08447265625 360 L 1104.08447265625 404 L 898 404 L 898 360 Z Z" stroke-miterlimit="10"/></g><g transform="translate(-62,-270) scale(1,1)"><rect fill="#adc8ff" stroke="none" x="888" y="367" width="20" height="10"/></g><g transform="translate(-62,-270) scale(1,1)"><path fill="none" stroke="#000000" d="M 888 367 L 908 367 L 908 377 L 888 377 L 888 367 Z Z" stroke-miterlimit="10"/></g><g transform="translate(-62,-270) scale(1,1)"><rect fill="#adc8ff" stroke="none" x="888" y="387" width="20" height="10"/></g><g transform="translate(-62,-270) scale(1,1)"><path fill="none" stroke="#000000" d="M 888 387 L 908 387 L 908 397 L 888 397 L 888 387 Z Z" stroke-miterlimit="10"/></g><g transform="translate(-62,-270) scale(1,1)"><g><path fill="none" stroke="none"/><text fill="#000000" stroke="none" font-family="Arial" font-size="13px" font-style="normal" font-weight="bold" text-decoration="none" x="918.965087890625" y="379.5">transfers database (mongodb)</text></g></g><g transform="translate(-62,-270) scale(1,1)"><path fill="#C0C0C0" stroke="none" d="M 835.5 378.5 C 835.5 372.1487248 840.6487248 367 847 367 C 853.3512752 367 858.5 372.1487248 858.5 378.5 C 858.5 384.8512752 853.3512752 390 847 390 C 840.6487248 390 835.5 384.8512752 835.5 378.5 Z" opacity="0.2"/></g><g transform="translate(-62,-270) scale(1,1)"><path fill="none" stroke="#000000" d="M 837.0368795185561 382.1117018054143 A 11.5 11.5 0 0 1 842.9631204814439 359.8882981945857" stroke-miterlimit="10"/></g><g transform="translate(-62,-270) scale(1,1)"><path fill="none" stroke="#000000" d="M 847.0474704718797 380.0875277137395 A 11.5 11.5 0 0 1 832.9525295281203 361.9124722862605" stroke-miterlimit="10"/></g><g transform="translate(-62,-270) scale(1,1)"><path fill="#ffffff" stroke="none" d="M 831.5 371.5 C 831.5 366.8055792 835.3055792 363 840 363 C 844.6944208 363 848.5 366.8055792 848.5 371.5 C 848.5 376.1944208 844.6944208 380 840 380 C 835.3055792 380 831.5 376.1944208 831.5 371.5 Z"/></g><g transform="translate(-62,-270) scale(1,1)"><path fill="none" stroke="#000000" d="M 831.5 371.5 C 831.5 366.8055792 835.3055792 363 840 363 C 844.6944208 363 848.5 366.8055792 848.5 371.5 C 848.5 376.1944208 844.6944208 380 840 380 C 835.3055792 380 831.5 376.1944208 831.5 371.5 Z" stroke-miterlimit="10"/></g><g transform="translate(-62,-270) scale(1,1)"><g><path fill="none" stroke="none"/><text fill="#000000" stroke="none" font-family="Arial" font-size="13px" font-style="normal" font-weight="bold" text-decoration="none" x="840" y="402.5"></text></g></g><g transform="translate(-62,-270) scale(1,1)"><path fill="none" stroke="#000000" d="M 887 383 L 840 383" stroke-miterlimit="10"/></g><g transform="translate(-62,-270) scale(1,1)"><path fill="none" stroke="#000000" d="M 735 325 L 828.5 367.93333333333334" stroke-miterlimit="10"/></g><g transform="translate(-62,-270) scale(1,1)"><path fill="none" stroke="#000000" d="M 748 431 L 828.5 379.9183673469388" stroke-miterlimit="10"/></g></g></svg>