<svg version="1.1" xmlns="http://www.w3.org/2000/svg" xmlns:xlink="http://www.w3.org/1999/xlink" width="1140.08447265625" height="360"><defs/><g><g transform="translate(-62,-230) scale(1,1)"><rect fill="#C0C0C0" stroke="none" x="665" y="543" width="164.21533203125" height="44" opacity="0.2"/></g><g transform="translate(-62,-230) scale(1,1)"><rect fill="#6dff6d" stroke="none" x="658" y="536" width="164.21533203125" height="44"/></g><g transform="translate(-62,-230) scale(1,1)"><path fill="none" stroke="#000000" d="M 658 536 L 822.21533203125 536 L 822.21533203125 580 L 658 580 L 658 536 Z Z" stroke-miterlimit="10"/></g><g transform="translate(-62,-230) scale(1,1)"><rect fill="#6dff6d" stroke="none" x="648" y="543" width="20" height="10"/></g><g transform="translate(-62,-230) scale(1,1)"><path fill="none" stroke="#000000" d="M 648 543 L 668 543 L 668 553 L 648 553 L 648 543 Z Z" stroke-miterlimit="10"/></g><g transform="translate(-62,-230) scale(1,1)"><rect fill="#6dff6d" stroke="none" x="648" y="563" width="20" height="10"/></g><g transform="translate(-62,-230) scale(1,1)"><path fill="none" stroke="#000000" d="M 648 563 L 668 563 L 668 573 L 648 573 L 648 563 Z Z" stroke-miterlimit="10"/></g><g transform="translate(-62,-230) scale(1,1)"><g><path fill="none" stroke="none"/><text fill="#000000" stroke="none" font-family="Arial" font-size="13px" font-style="normal" font-weight="normal" text-decoration="none" x="730.654052734375" y="553.5">«jar»</text></g></g><g transform="translate(-62,-230) scale(1,1)"><g><path fill="none" stroke="none"/><text fill="#000000" stroke="none" font-family="Arial" font-size="13px" font-style="normal" font-weight="bold" text-decoration="none" x="677.187744140625" y="568.5">transfers-data-manager</text></g></g><g transform="translate(-62,-230) scale(1,1)"><rect fill="#C0C0C0" stroke="none" x="89" y="287" width="105.6962890625" height="44" opacity="0.2"/></g><g transform="translate(-62,-230) scale(1,1)"><rect fill="#6dff6d" stroke="none" x="82" y="280" width="105.6962890625" height="44"/></g><g transform="translate(-62,-230) scale(1,1)"><path fill="none" stroke="#000000" d="M 82 280 L 187.6962890625 280 L 187.6962890625 324 L 82 324 L 82 280 Z Z" stroke-miterlimit="10"/></g><g transform="translate(-62,-230) scale(1,1)"><rect fill="#6dff6d" stroke="none" x="72" y="287" width="20" height="10"/></g><g transform="translate(-62,-230) scale(1,1)"><path fill="none" stroke="#000000" d="M 72 287 L 92 287 L 92 297 L 72 297 L 72 287 Z Z" stroke-miterlimit="10"/></g><g transform="translate(-62,-230) scale(1,1)"><rect fill="#6dff6d" stroke="none" x="72" y="307" width="20" height="10"/></g><g transform="translate(-62,-230) scale(1,1)"><path fill="none" stroke="#000000" d="M 72 307 L 92 307 L 92 317 L 72 317 L 72 307 Z Z" stroke-miterlimit="10"/></g><g transform="translate(-62,-230) scale(1,1)"><g><path fill="none" stroke="none"/><text fill="#000000" stroke="none" font-family="Arial" font-size="13px" font-style="normal" font-weight="normal" text-decoration="none" x="125.39453125" y="297.5">«jar»</text></g></g><g transform="translate(-62,-230) scale(1,1)"><g><path fill="none" stroke="none"/><text fill="#000000" stroke="none" font-family="Arial" font-size="13px" font-style="normal" font-weight="bold" text-decoration="none" x="100.1181640625" y="312.5">transfer-mock</text></g></g><g transform="translate(-62,-230) scale(1,1)"><rect fill="#C0C0C0" stroke="none" x="729" y="255" width="147.578125" height="44" opacity="0.2"/></g><g transform="translate(-62,-230) scale(1,1)"><rect fill="#6dff6d" stroke="none" x="722" y="248" width="147.578125" height="44"/></g><g transform="translate(-62,-230) scale(1,1)"><path fill="none" stroke="#000000" d="M 722 248 L 869.578125 248 L 869.578125 292 L 722 292 L 722 248 Z Z" stroke-miterlimit="10"/></g><g transform="translate(-62,-230) scale(1,1)"><rect fill="#6dff6d" stroke="none" x="712" y="255" width="20" height="10"/></g><g transform="translate(-62,-230) scale(1,1)"><path fill="none" stroke="#000000" d="M 712 255 L 732 255 L 732 265 L 712 265 L 712 255 Z Z" stroke-miterlimit="10"/></g><g transform="translate(-62,-230) scale(1,1)"><rect fill="#6dff6d" stroke="none" x="712" y="275" width="20" height="10"/></g><g transform="translate(-62,-230) scale(1,1)"><path fill="none" stroke="#000000" d="M 712 275 L 732 275 L 732 285 L 712 285 L 712 275 Z Z" stroke-miterlimit="10"/></g><g transform="translate(-62,-230) scale(1,1)"><g><path fill="none" stroke="none"/><text fill="#000000" stroke="none" font-family="Arial" font-size="13px" font-style="normal" font-weight="normal" text-decoration="none" x="786.33544921875" y="265.5">«jar»</text></g></g><g transform="translate(-62,-230) scale(1,1)"><g><path fill="none" stroke="none"/><text fill="#000000" stroke="none" font-family="Arial" font-size="13px" font-style="normal" font-weight="bold" text-decoration="none" x="740.819580078125" y="280.5">twitter-data-manager</text></g></g><g transform="translate(-62,-230) scale(1,1)"><rect fill="#C0C0C0" stroke="none" x="89" y="423" width="118.6708984375" height="44" opacity="0.2"/></g><g transform="translate(-62,-230) scale(1,1)"><rect fill="#6dff6d" stroke="none" x="82" y="416" width="118.6708984375" height="44"/></g><g transform="translate(-62,-230) scale(1,1)"><path fill="none" stroke="#000000" d="M 82 416 L 200.6708984375 416 L 200.6708984375 460 L 82 460 L 82 416 Z Z" stroke-miterlimit="10"/></g><g transform="translate(-62,-230) scale(1,1)"><rect fill="#6dff6d" stroke="none" x="72" y="423" width="20" height="10"/></g><g transform="translate(-62,-230) scale(1,1)"><path fill="none" stroke="#000000" d="M 72 423 L 92 423 L 92 433 L 72 433 L 72 423 Z Z" stroke-miterlimit="10"/></g><g transform="translate(-62,-230) scale(1,1)"><rect fill="#6dff6d" stroke="none" x="72" y="443" width="20" height="10"/></g><g transform="translate(-62,-230) scale(1,1)"><path fill="none" stroke="#000000" d="M 72 443 L 92 443 L 92 453 L 72 453 L 72 443 Z Z" stroke-miterlimit="10"/></g><g transform="translate(-62,-230) scale(1,1)"><g><path fill="none" stroke="none"/><text fill="#000000" stroke="none" font-family="Arial" font-size="13px" font-style="normal" font-weight="normal" text-decoration="none" x="131.8818359375" y="433.5">«jar»</text></g></g><g transform="translate(-62,-230) scale(1,1)"><g><path fill="none" stroke="none"/><text fill="#000000" stroke="none" font-family="Arial" font-size="13px" font-style="normal" font-weight="bold" text-decoration="none" x="101.181396484375" y="448.5">twitter-producer</text></g></g><g transform="translate(-62,-230) scale(1,1)"><rect fill="#C0C0C0" stroke="none" x="337" y="367" width="149.076171875" height="44" opacity="0.2"/></g><g transform="translate(-62,-230) scale(1,1)"><rect fill="#ffc1ad" stroke="none" x="330" y="360" width="149.076171875" height="44"/></g><g transform="translate(-62,-230) scale(1,1)"><path fill="none" stroke="#000000" d="M 330 360 L 479.076171875 360 L 479.076171875 404 L 330 404 L 330 360 Z Z" stroke-miterlimit="10"/></g><g transform="translate(-62,-230) scale(1,1)"><rect fill="#ffc1ad" stroke="none" x="320" y="367" width="20" height="10"/></g><g transform="translate(-62,-230) scale(1,1)"><path fill="none" stroke="#000000" d="M 320 367 L 340 367 L 340 377 L 320 377 L 320 367 Z Z" stroke-miterlimit="10"/></g><g transform="translate(-62,-230) scale(1,1)"><rect fill="#ffc1ad" stroke="none" x="320" y="387" width="20" height="10"/></g><g transform="translate(-62,-230) scale(1,1)"><path fill="none" stroke="#000000" d="M 320 387 L 340 387 L 340 397 L 320 397 L 320 387 Z Z" stroke-miterlimit="10"/></g><g transform="translate(-62,-230) scale(1,1)"><g><path fill="none" stroke="none"/><text fill="#000000" stroke="none" font-family="Arial" font-size="13px" font-style="normal" font-weight="normal" text-decoration="none" x="395.08447265625" y="377.5">«jar»</text></g></g><g transform="translate(-62,-230) scale(1,1)"><g><path fill="none" stroke="none"/><text fill="#000000" stroke="none" font-family="Arial" font-size="13px" font-style="normal" font-weight="bold" text-decoration="none" x="347.75634765625" y="392.5">kafka-clients-0.11.0.1</text></g></g><g transform="translate(-62,-230) scale(1,1)"><path fill="#C0C0C0" stroke="none" d="M 255 394.5 C 255 388.1487248 260.1487248 383 266.5 383 C 272.8512752 383 278 388.1487248 278 394.5 C 278 400.8512752 272.8512752 406 266.5 406 C 260.1487248 406 255 400.8512752 255 394.5 Z" opacity="0.2"/></g><g transform="translate(-62,-230) scale(1,1)"><path fill="none" stroke="#000000" d="M 255.0699547745029 397.807624370117 A 11.5 11.5 0 0 1 262.9300452254971 376.192375629883" stroke-miterlimit="10"/></g><g transform="translate(-62,-230) scale(1,1)"><path fill="none" stroke="#000000" d="M 265.3790522565901 396.5685783848852 A 11.5 11.5 0 0 1 252.62094774340989 377.4314216151148" stroke-miterlimit="10"/></g><g transform="translate(-62,-230) scale(1,1)"><path fill="#ffffff" stroke="none" d="M 251 387.5 C 251 382.8055792 254.8055792 379 259.5 379 C 264.1944208 379 268 382.8055792 268 387.5 C 268 392.1944208 264.1944208 396 259.5 396 C 254.8055792 396 251 392.1944208 251 387.5 Z"/></g><g transform="translate(-62,-230) scale(1,1)"><path fill="none" stroke="#000000" d="M 251 387.5 C 251 382.8055792 254.8055792 379 259.5 379 C 264.1944208 379 268 382.8055792 268 387.5 C 268 392.1944208 264.1944208 396 259.5 396 C 254.8055792 396 251 392.1944208 251 387.5 Z" stroke-miterlimit="10"/></g><g transform="translate(-62,-230) scale(1,1)"><g><path fill="none" stroke="none"/><text fill="#000000" stroke="none" font-family="Arial" font-size="13px" font-style="normal" font-weight="bold" text-decoration="none" x="233.845947265625" y="418.5">producer</text></g></g><g transform="translate(-62,-230) scale(1,1)"><path fill="none" stroke="#000000" d="M 319 392 L 271 389.5945945945946" stroke-miterlimit="10"/></g><g transform="translate(-62,-230) scale(1,1)"><path fill="none" stroke="#000000" d="M 160 325 L 248 383" stroke-miterlimit="10"/></g><g transform="translate(-62,-230) scale(1,1)"><path fill="none" stroke="#000000" d="M 202 418 L 248 394.3333333333333" stroke-miterlimit="10"/></g><g transform="translate(-62,-230) scale(1,1)"><path fill="#C0C0C0" stroke="none" d="M 575.0654296875 386.5 C 575.0654296875 380.1487248 580.2141544875 375 586.5654296875 375 C 592.9167048875 375 598.0654296875 380.1487248 598.0654296875 386.5 C 598.0654296875 392.8512752 592.9167048875 398 586.5654296875 398 C 580.2141544875 398 575.0654296875 392.8512752 575.0654296875 386.5 Z" opacity="0.2"/></g><g transform="translate(-62,-230) scale(1,1)"><path fill="none" stroke="#000000" d="M 576.5696728859333 367.75973709744153 A 11.5 11.5 0 0 1 581.4303271140667 390.24026290255847" stroke-miterlimit="10"/></g><g transform="translate(-62,-230) scale(1,1)"><path fill="none" stroke="#000000" d="M 588.8382509087097 373.0452691868336 A 11.5 11.5 0 0 1 569.1617490912903 384.9547308131664" stroke-miterlimit="10"/></g><g transform="translate(-62,-230) scale(1,1)"><path fill="#ffffff" stroke="none" d="M 571.0654296875 379.5 C 571.0654296875 374.8055792 574.8710088875 371 579.5654296875 371 C 584.2598504875 371 588.0654296875 374.8055792 588.0654296875 379.5 C 588.0654296875 384.1944208 584.2598504875 388 579.5654296875 388 C 574.8710088875 388 571.0654296875 384.1944208 571.0654296875 379.5 Z"/></g><g transform="translate(-62,-230) scale(1,1)"><path fill="none" stroke="#000000" d="M 571.0654296875 379.5 C 571.0654296875 374.8055792 574.8710088875 371 579.5654296875 371 C 584.2598504875 371 588.0654296875 374.8055792 588.0654296875 379.5 C 588.0654296875 384.1944208 584.2598504875 388 579.5654296875 388 C 574.8710088875 388 571.0654296875 384.1944208 571.0654296875 379.5 Z" stroke-miterlimit="10"/></g><g transform="translate(-62,-230) scale(1,1)"><g><path fill="none" stroke="none"/><text fill="#000000" stroke="none" font-family="Arial" font-size="13px" font-style="normal" font-weight="bold" text-decoration="none" x="551.0263671875" y="410.5">consumer</text></g></g><g transform="translate(-62,-230) scale(1,1)"><path fill="none" stroke="#000000" d="M 480 387 L 568.0654296875 382.34111870659723" stroke-miterlimit="10"/></g><g transform="translate(-62,-230) scale(1,1)"><path fill="none" stroke="#000000" d="M 750 293 L 591.0654296875 376.39125844594594" stroke-miterlimit="10"/></g><g transform="translate(-62,-230) scale(1,1)"><path fill="none" stroke="#000000" d="M 713 535 L 586.2631578947369 391" stroke-miterlimit="10"/></g><g transform="translate(-62,-230) scale(1,1)"><rect fill="#C0C0C0" stroke="none" x="993" y="383" width="206.08447265625" height="44" opacity="0.2"/></g><g transform="translate(-62,-230) scale(1,1)"><rect fill="#adc8ff" stroke="none" x="986" y="376" width="206.08447265625" height="44"/></g><g transform="translate(-62,-230) scale(1,1)"><path fill="none" stroke="#000000" d="M 986 376 L 1192.08447265625 376 L 1192.08447265625 420 L 986 420 L 986 376 Z Z" stroke-miterlimit="10"/></g><g transform="translate(-62,-230) scale(1,1)"><rect fill="#adc8ff" stroke="none" x="976" y="383" width="20" height="10"/></g><g transform="translate(-62,-230) scale(1,1)"><path fill="none" stroke="#000000" d="M 976 383 L 996 383 L 996 393 L 976 393 L 976 383 Z Z" stroke-miterlimit="10"/></g><g transform="translate(-62,-230) scale(1,1)"><rect fill="#adc8ff" stroke="none" x="976" y="403" width="20" height="10"/></g><g transform="translate(-62,-230) scale(1,1)"><path fill="none" stroke="#000000" d="M 976 403 L 996 403 L 996 413 L 976 413 L 976 403 Z Z" stroke-miterlimit="10"/></g><g transform="translate(-62,-230) scale(1,1)"><g><path fill="none" stroke="none"/><text fill="#000000" stroke="none" font-family="Arial" font-size="13px" font-style="normal" font-weight="bold" text-decoration="none" x="1006.965087890625" y="395.5">transfers database (mongodb)</text></g></g><g transform="translate(-62,-230) scale(1,1)"><path fill="#C0C0C0" stroke="none" d="M 907.5 402.5 C 907.5 396.1487248 912.6487248 391 919 391 C 925.3512752 391 930.5 396.1487248 930.5 402.5 C 930.5 408.8512752 925.3512752 414 919 414 C 912.6487248 414 907.5 408.8512752 907.5 402.5 Z" opacity="0.2"/></g><g transform="translate(-62,-230) scale(1,1)"><path fill="none" stroke="#000000" d="M 906.4932004971735 405.09579908851543 A 11.5 11.5 0 1 1 917.5067995028265 384.90420091148457" stroke-miterlimit="10"/></g><g transform="translate(-62,-230) scale(1,1)"><path fill="none" stroke="#000000" d="M 921.1419393295184 401.97674317252716 A 11.5 11.5 0 0 1 902.8580606704816 388.02325682747284" stroke-miterlimit="10"/></g><g transform="translate(-62,-230) scale(1,1)"><path fill="#ffffff" stroke="none" d="M 903.5 395.5 C 903.5 390.8055792 907.3055792 387 912 387 C 916.6944208 387 920.5 390.8055792 920.5 395.5 C 920.5 400.1944208 916.6944208 404 912 404 C 907.3055792 404 903.5 400.1944208 903.5 395.5 Z"/></g><g transform="translate(-62,-230) scale(1,1)"><path fill="none" stroke="#000000" d="M 903.5 395.5 C 903.5 390.8055792 907.3055792 387 912 387 C 916.6944208 387 920.5 390.8055792 920.5 395.5 C 920.5 400.1944208 916.6944208 404 912 404 C 907.3055792 404 903.5 400.1944208 903.5 395.5 Z" stroke-miterlimit="10"/></g><g transform="translate(-62,-230) scale(1,1)"><g><path fill="none" stroke="none"/><text fill="#000000" stroke="none" font-family="Arial" font-size="13px" font-style="normal" font-weight="bold" text-decoration="none" x="912" y="426.5"></text></g></g><g transform="translate(-62,-230) scale(1,1)"><path fill="none" stroke="#000000" d="M 975 404 L 912 407" stroke-miterlimit="10"/></g><g transform="translate(-62,-230) scale(1,1)"><path fill="none" stroke="#000000" d="M 810 293 L 900.5 388.72727272727275" stroke-miterlimit="10"/></g><g transform="translate(-62,-230) scale(1,1)"><path fill="none" stroke="#000000" d="M 762 535 L 902.8421052631579 407" stroke-miterlimit="10"/></g><g transform="translate(-62,-230) scale(1,1)"><rect fill="#C0C0C0" stroke="none" x="345" y="247" width="136" height="44" opacity="0.2"/></g><g transform="translate(-62,-230) scale(1,1)"><rect fill="#ffffff" stroke="none" x="338" y="240" width="136" height="44"/></g><g transform="translate(-62,-230) scale(1,1)"><path fill="none" stroke="#000000" d="M 338 240 L 474 240 L 474 284 L 338 284 L 338 240 Z Z" stroke-miterlimit="10"/></g><g transform="translate(-62,-230) scale(1,1)"><rect fill="#ffffff" stroke="none" x="328" y="247" width="20" height="10"/></g><g transform="translate(-62,-230) scale(1,1)"><path fill="none" stroke="#000000" d="M 328 247 L 348 247 L 348 257 L 328 257 L 328 247 Z Z" stroke-miterlimit="10"/></g><g transform="translate(-62,-230) scale(1,1)"><rect fill="#ffffff" stroke="none" x="328" y="267" width="20" height="10"/></g><g transform="translate(-62,-230) scale(1,1)"><path fill="none" stroke="#000000" d="M 328 267 L 348 267 L 348 277 L 328 277 L 328 267 Z Z" stroke-miterlimit="10"/></g><g transform="translate(-62,-230) scale(1,1)"><g><path fill="none" stroke="none"/><text fill="#000000" stroke="none" font-family="Arial" font-size="13px" font-style="normal" font-weight="normal" text-decoration="none" x="396.54638671875" y="257.5">«jar»</text></g></g><g transform="translate(-62,-230) scale(1,1)"><g><path fill="none" stroke="none"/><text fill="#000000" stroke="none" font-family="Arial" font-size="13px" font-style="normal" font-weight="bold" text-decoration="none" x="357.8955078125" y="272.5">spring-boot-starter</text></g></g><g transform="translate(-62,-230) scale(1,1)"><rect fill="#C0C0C0" stroke="none" x="641" y="383" width="230.5927734375" height="44" opacity="0.2"/></g><g transform="translate(-62,-230) scale(1,1)"><rect fill="#ffffff" stroke="none" x="634" y="376" width="230.5927734375" height="44"/></g><g transform="translate(-62,-230) scale(1,1)"><path fill="none" stroke="#000000" d="M 634 376 L 864.5927734375 376 L 864.5927734375 420 L 634 420 L 634 376 Z Z" stroke-miterlimit="10"/></g><g transform="translate(-62,-230) scale(1,1)"><rect fill="#ffffff" stroke="none" x="624" y="383" width="20" height="10"/></g><g transform="translate(-62,-230) scale(1,1)"><path fill="none" stroke="#000000" d="M 624 383 L 644 383 L 644 393 L 624 393 L 624 383 Z Z" stroke-miterlimit="10"/></g><g transform="translate(-62,-230) scale(1,1)"><rect fill="#ffffff" stroke="none" x="624" y="403" width="20" height="10"/></g><g transform="translate(-62,-230) scale(1,1)"><path fill="none" stroke="#000000" d="M 624 403 L 644 403 L 644 413 L 624 413 L 624 403 Z Z" stroke-miterlimit="10"/></g><g transform="translate(-62,-230) scale(1,1)"><g><path fill="none" stroke="none"/><text fill="#000000" stroke="none" font-family="Arial" font-size="13px" font-style="normal" font-weight="normal" text-decoration="none" x="739.8427734375" y="393.5">«jar»</text></g></g><g transform="translate(-62,-230) scale(1,1)"><g><path fill="none" stroke="none"/><text fill="#000000" stroke="none" font-family="Arial" font-size="13px" font-style="normal" font-weight="bold" text-decoration="none" x="657.107421875" y="408.5">spring-boot-starter-data-mongodb</text></g></g><g transform="translate(-62,-230) scale(1,1)"><path fill="none" stroke="#000000" d="M 711 268 L 475 264" stroke-miterlimit="10" stroke-dasharray="3"/></g><g transform="translate(-62,-230) scale(1,1)"><path fill="none" stroke="#000000" d="M 485.23255294970124 259.96331074622276 L 475 264 L 485.0898779244729 268.3811372346954" stroke-miterlimit="10"/></g><g transform="translate(-62,-230) scale(1,1)"><path fill="none" stroke="#000000" d="M 709 535 L 427 285" stroke-miterlimit="10" stroke-dasharray="3"/></g><g transform="translate(-62,-230) scale(1,1)"><path fill="none" stroke="#000000" d="M 437.3970872323605 288.5917373348683 L 427 285 L 431.8121090608639 294.8915927123164" stroke-miterlimit="10"/></g><g transform="translate(-62,-230) scale(1,1)"><path fill="none" stroke="#000000" d="M 189 293 L 327 273" stroke-miterlimit="10" stroke-dasharray="3"/></g><g transform="translate(-62,-230) scale(1,1)"><path fill="none" stroke="#000000" d="M 317.54616833961313 278.623616891029 L 327 273 L 316.33863388630255 270.29162916318614" stroke-miterlimit="10"/></g><g transform="translate(-62,-230) scale(1,1)"><path fill="none" stroke="#000000" d="M 171 415 L 366 285" stroke-miterlimit="10" stroke-dasharray="3"/></g><g transform="translate(-62,-230) scale(1,1)"><path fill="none" stroke="#000000" d="M 359.87916371872967 294.1397682256108 L 366 285 L 355.20912306817837 287.13470724978384" stroke-miterlimit="10"/></g><g transform="translate(-62,-230) scale(1,1)"><path fill="none" stroke="#000000" d="M 736 535 L 743 421" stroke-miterlimit="10" stroke-dasharray="3"/></g><g transform="translate(-62,-230) scale(1,1)"><path fill="none" stroke="#000000" d="M 746.5787535587591 431.40156348659514 L 743 421 L 738.1755448332802 430.88557698590785" stroke-miterlimit="10"/></g><g transform="translate(-62,-230) scale(1,1)"><path fill="none" stroke="#000000" d="M 782 293 L 752 375" stroke-miterlimit="10" stroke-dasharray="3"/></g><g transform="translate(-62,-230) scale(1,1)"><path fill="none" stroke="#000000" d="M 751.5384530682351 364.00968724604354 L 752 375 L 759.4449617103968 366.9023123590295" stroke-miterlimit="10"/></g></g></svg>