<svg version="1.1" xmlns="http://www.w3.org/2000/svg" xmlns:xlink="http://www.w3.org/1999/xlink" width="781.8671875" height="440"><defs/><g><g transform="translate(-46,-14) scale(1,1)"><rect fill="#C0C0C0" stroke="none" x="369" y="199" width="98.44091796875" height="44" opacity="0.2"/></g><g transform="translate(-46,-14) scale(1,1)"><rect fill="#ffffff" stroke="none" x="362" y="192" width="98.44091796875" height="44"/></g><g transform="translate(-46,-14) scale(1,1)"><path fill="none" stroke="#000000" d="M 362 192 L 460.44091796875 192 L 460.44091796875 236 L 362 236 L 362 192 Z Z" stroke-miterlimit="10"/></g><g transform="translate(-46,-14) scale(1,1)"><rect fill="#ffffff" stroke="none" x="352" y="199" width="20" height="10"/></g><g transform="translate(-46,-14) scale(1,1)"><path fill="none" stroke="#000000" d="M 352 199 L 372 199 L 372 209 L 352 209 L 352 199 Z Z" stroke-miterlimit="10"/></g><g transform="translate(-46,-14) scale(1,1)"><rect fill="#ffffff" stroke="none" x="352" y="219" width="20" height="10"/></g><g transform="translate(-46,-14) scale(1,1)"><path fill="none" stroke="#000000" d="M 352 219 L 372 219 L 372 229 L 352 229 L 352 219 Z Z" stroke-miterlimit="10"/></g><g transform="translate(-46,-14) scale(1,1)"><g><path fill="none" stroke="none"/><text fill="#000000" stroke="none" font-family="Arial" font-size="13px" font-style="normal" font-weight="normal" text-decoration="none" x="396.345947265625" y="209.5">«pom»</text></g></g><g transform="translate(-46,-14) scale(1,1)"><g><path fill="none" stroke="none"/><text fill="#000000" stroke="none" font-family="Arial" font-size="13px" font-style="normal" font-weight="bold" text-decoration="none" x="385.865966796875" y="224.5">eight-bank</text></g></g><g transform="translate(-46,-14) scale(1,1)"><rect fill="#C0C0C0" stroke="none" x="121" y="199" width="178.6689453125" height="44" opacity="0.2"/></g><g transform="translate(-46,-14) scale(1,1)"><rect fill="#ffffff" stroke="none" x="114" y="192" width="178.6689453125" height="44"/></g><g transform="translate(-46,-14) scale(1,1)"><path fill="none" stroke="#000000" d="M 114 192 L 292.6689453125 192 L 292.6689453125 236 L 114 236 L 114 192 Z Z" stroke-miterlimit="10"/></g><g transform="translate(-46,-14) scale(1,1)"><rect fill="#ffffff" stroke="none" x="104" y="199" width="20" height="10"/></g><g transform="translate(-46,-14) scale(1,1)"><path fill="none" stroke="#000000" d="M 104 199 L 124 199 L 124 209 L 104 209 L 104 199 Z Z" stroke-miterlimit="10"/></g><g transform="translate(-46,-14) scale(1,1)"><rect fill="#ffffff" stroke="none" x="104" y="219" width="20" height="10"/></g><g transform="translate(-46,-14) scale(1,1)"><path fill="none" stroke="#000000" d="M 104 219 L 124 219 L 124 229 L 104 229 L 104 219 Z Z" stroke-miterlimit="10"/></g><g transform="translate(-46,-14) scale(1,1)"><g><path fill="none" stroke="none"/><text fill="#000000" stroke="none" font-family="Arial" font-size="13px" font-style="normal" font-weight="normal" text-decoration="none" x="193.880859375" y="209.5">«jar»</text></g></g><g transform="translate(-46,-14) scale(1,1)"><g><path fill="none" stroke="none"/><text fill="#000000" stroke="none" font-family="Arial" font-size="13px" font-style="normal" font-weight="bold" text-decoration="none" x="133.9208984375" y="224.5">stock-market-api-gateway</text></g></g><g transform="translate(-46,-14) scale(1,1)"><rect fill="#C0C0C0" stroke="none" x="89" y="31" width="115.07177734375" height="44" opacity="0.2"/></g><g transform="translate(-46,-14) scale(1,1)"><rect fill="#ffffff" stroke="none" x="82" y="24" width="115.07177734375" height="44"/></g><g transform="translate(-46,-14) scale(1,1)"><path fill="none" stroke="#000000" d="M 82 24 L 197.07177734375 24 L 197.07177734375 68 L 82 68 L 82 24 Z Z" stroke-miterlimit="10"/></g><g transform="translate(-46,-14) scale(1,1)"><rect fill="#ffffff" stroke="none" x="72" y="31" width="20" height="10"/></g><g transform="translate(-46,-14) scale(1,1)"><path fill="none" stroke="#000000" d="M 72 31 L 92 31 L 92 41 L 72 41 L 72 31 Z Z" stroke-miterlimit="10"/></g><g transform="translate(-46,-14) scale(1,1)"><rect fill="#ffffff" stroke="none" x="72" y="51" width="20" height="10"/></g><g transform="translate(-46,-14) scale(1,1)"><path fill="none" stroke="#000000" d="M 72 51 L 92 51 L 92 61 L 72 61 L 72 51 Z Z" stroke-miterlimit="10"/></g><g transform="translate(-46,-14) scale(1,1)"><g><path fill="none" stroke="none"/><text fill="#000000" stroke="none" font-family="Arial" font-size="13px" font-style="normal" font-weight="normal" text-decoration="none" x="130.082275390625" y="41.5">«jar»</text></g></g><g transform="translate(-46,-14) scale(1,1)"><g><path fill="none" stroke="none"/><text fill="#000000" stroke="none" font-family="Arial" font-size="13px" font-style="normal" font-weight="bold" text-decoration="none" x="100.108642578125" y="56.5">market-flow-api</text></g></g><g transform="translate(-46,-14) scale(1,1)"><path fill="none" stroke="#000000" d="M 294 214 L 351 214" stroke-miterlimit="10" stroke-dasharray="3"/></g><g transform="translate(-46,-14) scale(1,1)"><path fill="#FFFFFF" stroke="none" d="M 330.6746502847517 222.41903551203197 L 351 214 L 330.6746502847517 205.58096448796803"/></g><g transform="translate(-46,-14) scale(1,1)"><path fill="none" stroke="#000000" d="M 330.6746502847517 222.41903551203197 L 351 214 L 330.6746502847517 205.58096448796803 L 330.6746502847517 222.41903551203197" stroke-miterlimit="10"/></g><g transform="translate(-46,-14) scale(1,1)"><rect fill="#C0C0C0" stroke="none" x="337" y="87" width="278.314453125" height="44" opacity="0.2"/></g><g transform="translate(-46,-14) scale(1,1)"><rect fill="#ffffff" stroke="none" x="330" y="80" width="278.314453125" height="44"/></g><g transform="translate(-46,-14) scale(1,1)"><path fill="none" stroke="#000000" d="M 330 80 L 608.314453125 80 L 608.314453125 124 L 330 124 L 330 80 Z Z" stroke-miterlimit="10"/></g><g transform="translate(-46,-14) scale(1,1)"><rect fill="#ffffff" stroke="none" x="320" y="87" width="20" height="10"/></g><g transform="translate(-46,-14) scale(1,1)"><path fill="none" stroke="#000000" d="M 320 87 L 340 87 L 340 97 L 320 97 L 320 87 Z Z" stroke-miterlimit="10"/></g><g transform="translate(-46,-14) scale(1,1)"><rect fill="#ffffff" stroke="none" x="320" y="107" width="20" height="10"/></g><g transform="translate(-46,-14) scale(1,1)"><path fill="none" stroke="#000000" d="M 320 107 L 340 107 L 340 117 L 320 117 L 320 107 Z Z" stroke-miterlimit="10"/></g><g transform="translate(-46,-14) scale(1,1)"><g><path fill="none" stroke="none"/><text fill="#000000" stroke="none" font-family="Arial" font-size="13px" font-style="normal" font-weight="normal" text-decoration="none" x="459.70361328125" y="97.5">«jar»</text></g></g><g transform="translate(-46,-14) scale(1,1)"><g><path fill="none" stroke="none"/><text fill="#000000" stroke="none" font-family="Arial" font-size="13px" font-style="normal" font-weight="bold" text-decoration="none" x="352.044189453125" y="112.5">spring-boot-starter-parent 1.5.8-RELEASE</text></g></g><g transform="translate(-46,-14) scale(1,1)"><path fill="none" stroke="#000000" d="M 418 191 L 452 125" stroke-miterlimit="10" stroke-dasharray="3"/></g><g transform="translate(-46,-14) scale(1,1)"><path fill="#FFFFFF" stroke="none" d="M 450.1761805203156 146.9242715387655 L 452 125 L 435.20756380061874 139.21316595589138"/></g><g transform="translate(-46,-14) scale(1,1)"><path fill="none" stroke="#000000" d="M 450.1761805203156 146.9242715387655 L 452 125 L 435.20756380061874 139.21316595589138 L 450.1761805203156 146.9242715387655" stroke-miterlimit="10"/></g><g transform="translate(-46,-14) scale(1,1)"><rect fill="#C0C0C0" stroke="none" x="561" y="151" width="263.8671875" height="44" opacity="0.2"/></g><g transform="translate(-46,-14) scale(1,1)"><rect fill="#ffffff" stroke="none" x="554" y="144" width="263.8671875" height="44"/></g><g transform="translate(-46,-14) scale(1,1)"><path fill="none" stroke="#000000" d="M 554 144 L 817.8671875 144 L 817.8671875 188 L 554 188 L 554 144 Z Z" stroke-miterlimit="10"/></g><g transform="translate(-46,-14) scale(1,1)"><rect fill="#ffffff" stroke="none" x="544" y="151" width="20" height="10"/></g><g transform="translate(-46,-14) scale(1,1)"><path fill="none" stroke="#000000" d="M 544 151 L 564 151 L 564 161 L 544 161 L 544 151 Z Z" stroke-miterlimit="10"/></g><g transform="translate(-46,-14) scale(1,1)"><rect fill="#ffffff" stroke="none" x="544" y="171" width="20" height="10"/></g><g transform="translate(-46,-14) scale(1,1)"><path fill="none" stroke="#000000" d="M 544 171 L 564 171 L 564 181 L 544 181 L 544 171 Z Z" stroke-miterlimit="10"/></g><g transform="translate(-46,-14) scale(1,1)"><g><path fill="none" stroke="none"/><text fill="#000000" stroke="none" font-family="Arial" font-size="13px" font-style="normal" font-weight="normal" text-decoration="none" x="676.47998046875" y="161.5">«jar»</text></g></g><g transform="translate(-46,-14) scale(1,1)"><g><path fill="none" stroke="none"/><text fill="#000000" stroke="none" font-family="Arial" font-size="13px" font-style="normal" font-weight="bold" text-decoration="none" x="575.326904296875" y="176.5">spring-boot-starter-web 1.5.8-RELEASE</text></g></g><g transform="translate(-46,-14) scale(1,1)"><path fill="none" stroke="#000000" d="M 461 204 L 549 189" stroke-miterlimit="10" stroke-dasharray="3"/></g><g transform="translate(-46,-14) scale(1,1)"><path fill="none" stroke="#000000" d="M 539.6891503093294 194.85730979526775 L 549 189 L 538.2744915693739 186.55797852086238" stroke-miterlimit="10"/></g><g transform="translate(-46,-14) scale(1,1)"><rect fill="#C0C0C0" stroke="none" x="649" y="223" width="113.64990234375" height="44" opacity="0.2"/></g><g transform="translate(-46,-14) scale(1,1)"><rect fill="#ffffff" stroke="none" x="642" y="216" width="113.64990234375" height="44"/></g><g transform="translate(-46,-14) scale(1,1)"><path fill="none" stroke="#000000" d="M 642 216 L 755.64990234375 216 L 755.64990234375 260 L 642 260 L 642 216 Z Z" stroke-miterlimit="10"/></g><g transform="translate(-46,-14) scale(1,1)"><rect fill="#ffffff" stroke="none" x="632" y="223" width="20" height="10"/></g><g transform="translate(-46,-14) scale(1,1)"><path fill="none" stroke="#000000" d="M 632 223 L 652 223 L 652 233 L 632 233 L 632 223 Z Z" stroke-miterlimit="10"/></g><g transform="translate(-46,-14) scale(1,1)"><rect fill="#ffffff" stroke="none" x="632" y="243" width="20" height="10"/></g><g transform="translate(-46,-14) scale(1,1)"><path fill="none" stroke="#000000" d="M 632 243 L 652 243 L 652 253 L 632 253 L 632 243 Z Z" stroke-miterlimit="10"/></g><g transform="translate(-46,-14) scale(1,1)"><g><path fill="none" stroke="none"/><text fill="#000000" stroke="none" font-family="Arial" font-size="13px" font-style="normal" font-weight="normal" text-decoration="none" x="689.371337890625" y="233.5">«jar»</text></g></g><g transform="translate(-46,-14) scale(1,1)"><g><path fill="none" stroke="none"/><text fill="#000000" stroke="none" font-family="Arial" font-size="13px" font-style="normal" font-weight="bold" text-decoration="none" x="659.02001953125" y="248.5">log4j-core 2.9.1</text></g></g><g transform="translate(-46,-14) scale(1,1)"><path fill="none" stroke="#000000" d="M 461 219 L 631 233" stroke-miterlimit="10" stroke-dasharray="3"/></g><g transform="translate(-46,-14) scale(1,1)"><path fill="none" stroke="#000000" d="M 620.5261159355831 236.36121296634934 L 631 233 L 621.2171090711713 227.9705820342069" stroke-miterlimit="10"/></g><g transform="translate(-46,-14) scale(1,1)"><path fill="#C0C0C0" stroke="none" d="M 86.7099609375 138.5 C 86.7099609375 132.1487248 91.8586857375 127 98.2099609375 127 C 104.5612361375 127 109.7099609375 132.1487248 109.7099609375 138.5 C 109.7099609375 144.8512752 104.5612361375 150 98.2099609375 150 C 91.8586857375 150 86.7099609375 144.8512752 86.7099609375 138.5 Z" opacity="0.2"/></g><g transform="translate(-46,-14) scale(1,1)"><path fill="none" stroke="#000000" d="M 99.2423482054547 122.98041796226028 A 11.5 11.5 0 0 1 82.7576517945453 139.01958203773972" stroke-miterlimit="10"/></g><g transform="translate(-46,-14) scale(1,1)"><path fill="#ffffff" stroke="none" d="M 82.7099609375 131.5 C 82.7099609375 126.8055792 86.5155401375 123 91.2099609375 123 C 95.9043817375 123 99.7099609375 126.8055792 99.7099609375 131.5 C 99.7099609375 136.1944208 95.9043817375 140 91.2099609375 140 C 86.5155401375 140 82.7099609375 136.1944208 82.7099609375 131.5 Z"/></g><g transform="translate(-46,-14) scale(1,1)"><path fill="none" stroke="#000000" d="M 82.7099609375 131.5 C 82.7099609375 126.8055792 86.5155401375 123 91.2099609375 123 C 95.9043817375 123 99.7099609375 126.8055792 99.7099609375 131.5 C 99.7099609375 136.1944208 95.9043817375 140 91.2099609375 140 C 86.5155401375 140 82.7099609375 136.1944208 82.7099609375 131.5 Z" stroke-miterlimit="10"/></g><g transform="translate(-46,-14) scale(1,1)"><g><path fill="none" stroke="none"/><text fill="#000000" stroke="none" font-family="Arial" font-size="13px" font-style="normal" font-weight="bold" text-decoration="none" x="91.2099609375" y="162.5"></text></g></g><g transform="translate(-46,-14) scale(1,1)"><path fill="none" stroke="#000000" d="M 124 69 L 101.08333333333333 120" stroke-miterlimit="10"/></g><g transform="translate(-46,-14) scale(1,1)"><path fill="none" stroke="#000000" d="M 163 191 L 102.67567567567568 143" stroke-miterlimit="10"/></g><g transform="translate(-46,-14) scale(1,1)"><rect fill="#C0C0C0" stroke="none" x="257" y="335" width="98.44091796875" height="44" opacity="0.2"/></g><g transform="translate(-46,-14) scale(1,1)"><rect fill="#ffffff" stroke="none" x="250" y="328" width="98.44091796875" height="44"/></g><g transform="translate(-46,-14) scale(1,1)"><path fill="none" stroke="#000000" d="M 250 328 L 348.44091796875 328 L 348.44091796875 372 L 250 372 L 250 328 Z Z" stroke-miterlimit="10"/></g><g transform="translate(-46,-14) scale(1,1)"><rect fill="#ffffff" stroke="none" x="240" y="335" width="20" height="10"/></g><g transform="translate(-46,-14) scale(1,1)"><path fill="none" stroke="#000000" d="M 240 335 L 260 335 L 260 345 L 240 345 L 240 335 Z Z" stroke-miterlimit="10"/></g><g transform="translate(-46,-14) scale(1,1)"><rect fill="#ffffff" stroke="none" x="240" y="355" width="20" height="10"/></g><g transform="translate(-46,-14) scale(1,1)"><path fill="none" stroke="#000000" d="M 240 355 L 260 355 L 260 365 L 240 365 L 240 355 Z Z" stroke-miterlimit="10"/></g><g transform="translate(-46,-14) scale(1,1)"><g><path fill="none" stroke="none"/><text fill="#000000" stroke="none" font-family="Arial" font-size="13px" font-style="normal" font-weight="normal" text-decoration="none" x="289.766845703125" y="345.5">«jar»</text></g></g><g transform="translate(-46,-14) scale(1,1)"><g><path fill="none" stroke="none"/><text fill="#000000" stroke="none" font-family="Arial" font-size="13px" font-style="normal" font-weight="bold" text-decoration="none" x="277.48095703125" y="360.5">back-end</text></g></g><g transform="translate(-46,-14) scale(1,1)"><path fill="none" stroke="#000000" d="M 313 327 L 387 237" stroke-miterlimit="10" stroke-dasharray="3"/></g><g transform="translate(-46,-14) scale(1,1)"><path fill="#FFFFFF" stroke="none" d="M 380.594338244195 258.0467930447899 L 387 237 L 367.58818305028217 247.3528432186838"/></g><g transform="translate(-46,-14) scale(1,1)"><path fill="none" stroke="#000000" d="M 380.594338244195 258.0467930447899 L 387 237 L 367.58818305028217 247.3528432186838 L 380.594338244195 258.0467930447899" stroke-miterlimit="10"/></g><g transform="translate(-46,-14) scale(1,1)"><path fill="#C0C0C0" stroke="none" d="M 198.7099609375 290.5 C 198.7099609375 284.1487248 203.8586857375 279 210.2099609375 279 C 216.5612361375 279 221.7099609375 284.1487248 221.7099609375 290.5 C 221.7099609375 296.8512752 216.5612361375 302 210.2099609375 302 C 203.8586857375 302 198.7099609375 296.8512752 198.7099609375 290.5 Z" opacity="0.2"/></g><g transform="translate(-46,-14) scale(1,1)"><path fill="none" stroke="#000000" d="M 211.0164015228558 274.75455843363403 A 11.5 11.5 0 0 1 194.9835984771442 291.24544156636597" stroke-miterlimit="10"/></g><g transform="translate(-46,-14) scale(1,1)"><path fill="#ffffff" stroke="none" d="M 194.7099609375 283.5 C 194.7099609375 278.8055792 198.5155401375 275 203.2099609375 275 C 207.9043817375 275 211.7099609375 278.8055792 211.7099609375 283.5 C 211.7099609375 288.1944208 207.9043817375 292 203.2099609375 292 C 198.5155401375 292 194.7099609375 288.1944208 194.7099609375 283.5 Z"/></g><g transform="translate(-46,-14) scale(1,1)"><path fill="none" stroke="#000000" d="M 194.7099609375 283.5 C 194.7099609375 278.8055792 198.5155401375 275 203.2099609375 275 C 207.9043817375 275 211.7099609375 278.8055792 211.7099609375 283.5 C 211.7099609375 288.1944208 207.9043817375 292 203.2099609375 292 C 198.5155401375 292 194.7099609375 288.1944208 194.7099609375 283.5 Z" stroke-miterlimit="10"/></g><g transform="translate(-46,-14) scale(1,1)"><g><path fill="none" stroke="none"/><text fill="#000000" stroke="none" font-family="Arial" font-size="13px" font-style="normal" font-weight="bold" text-decoration="none" x="203.2099609375" y="314.5"></text></g></g><g transform="translate(-46,-14) scale(1,1)"><path fill="none" stroke="#000000" d="M 199 237 L 201.16666666666666 272" stroke-miterlimit="10"/></g><g transform="translate(-46,-14) scale(1,1)"><path fill="none" stroke="#000000" d="M 255 327 L 214.7099609375 294.3846842447917" stroke-miterlimit="10"/></g><g transform="translate(-46,-14) scale(1,1)"><rect fill="#C0C0C0" stroke="none" x="465" y="343" width="98.44091796875" height="44" opacity="0.2"/></g><g transform="translate(-46,-14) scale(1,1)"><rect fill="#ffffff" stroke="none" x="458" y="336" width="98.44091796875" height="44"/></g><g transform="translate(-46,-14) scale(1,1)"><path fill="none" stroke="#000000" d="M 458 336 L 556.44091796875 336 L 556.44091796875 380 L 458 380 L 458 336 Z Z" stroke-miterlimit="10"/></g><g transform="translate(-46,-14) scale(1,1)"><rect fill="#ffffff" stroke="none" x="448" y="343" width="20" height="10"/></g><g transform="translate(-46,-14) scale(1,1)"><path fill="none" stroke="#000000" d="M 448 343 L 468 343 L 468 353 L 448 353 L 448 343 Z Z" stroke-miterlimit="10"/></g><g transform="translate(-46,-14) scale(1,1)"><rect fill="#ffffff" stroke="none" x="448" y="363" width="20" height="10"/></g><g transform="translate(-46,-14) scale(1,1)"><path fill="none" stroke="#000000" d="M 448 363 L 468 363 L 468 373 L 448 373 L 448 363 Z Z" stroke-miterlimit="10"/></g><g transform="translate(-46,-14) scale(1,1)"><g><path fill="none" stroke="none"/><text fill="#000000" stroke="none" font-family="Arial" font-size="13px" font-style="normal" font-weight="normal" text-decoration="none" x="497.766845703125" y="353.5">«jar»</text></g></g><g transform="translate(-46,-14) scale(1,1)"><g><path fill="none" stroke="none"/><text fill="#000000" stroke="none" font-family="Arial" font-size="13px" font-style="normal" font-weight="bold" text-decoration="none" x="485.12548828125" y="368.5">front-web</text></g></g><g transform="translate(-46,-14) scale(1,1)"><path fill="none" stroke="#000000" d="M 487 335 L 421 237" stroke-miterlimit="10" stroke-dasharray="3"/></g><g transform="translate(-46,-14) scale(1,1)"><path fill="#FFFFFF" stroke="none" d="M 439.3368070082724 249.15571917828692 L 421 237 L 425.3706891196924 258.56147204202443"/></g><g transform="translate(-46,-14) scale(1,1)"><path fill="none" stroke="#000000" d="M 439.3368070082724 249.15571917828692 L 421 237 L 425.3706891196924 258.56147204202443 L 439.3368070082724 249.15571917828692" stroke-miterlimit="10"/></g><g transform="translate(-46,-14) scale(1,1)"><path fill="#C0C0C0" stroke="none" d="M 398.7099609375 362.5 C 398.7099609375 356.1487248 403.8586857375 351 410.2099609375 351 C 416.5612361375 351 421.7099609375 356.1487248 421.7099609375 362.5 C 421.7099609375 368.8512752 416.5612361375 374 410.2099609375 374 C 403.8586857375 374 398.7099609375 368.8512752 398.7099609375 362.5 Z" opacity="0.2"/></g><g transform="translate(-46,-14) scale(1,1)"><path fill="none" stroke="#000000" d="M 403 343.5 A 11.5 11.5 0 0 1 403 366.5" stroke-miterlimit="10"/></g><g transform="translate(-46,-14) scale(1,1)"><path fill="#ffffff" stroke="none" d="M 394.7099609375 355.5 C 394.7099609375 350.8055792 398.5155401375 347 403.2099609375 347 C 407.9043817375 347 411.7099609375 350.8055792 411.7099609375 355.5 C 411.7099609375 360.1944208 407.9043817375 364 403.2099609375 364 C 398.5155401375 364 394.7099609375 360.1944208 394.7099609375 355.5 Z"/></g><g transform="translate(-46,-14) scale(1,1)"><path fill="none" stroke="#000000" d="M 394.7099609375 355.5 C 394.7099609375 350.8055792 398.5155401375 347 403.2099609375 347 C 407.9043817375 347 411.7099609375 350.8055792 411.7099609375 355.5 C 411.7099609375 360.1944208 407.9043817375 364 403.2099609375 364 C 398.5155401375 364 394.7099609375 360.1944208 394.7099609375 355.5 Z" stroke-miterlimit="10"/></g><g transform="translate(-46,-14) scale(1,1)"><g><path fill="none" stroke="none"/><text fill="#000000" stroke="none" font-family="Arial" font-size="13px" font-style="normal" font-weight="bold" text-decoration="none" x="403.2099609375" y="386.5"></text></g></g><g transform="translate(-46,-14) scale(1,1)"><path fill="none" stroke="#000000" d="M 349 359 L 391.7099609375 357.1952853732639" stroke-miterlimit="10"/></g><g transform="translate(-46,-14) scale(1,1)"><path fill="none" stroke="#000000" d="M 448 355 L 414.7099609375 355" stroke-miterlimit="10"/></g><g transform="translate(-46,-14) scale(1,1)"><rect fill="#C0C0C0" stroke="none" x="521" y="279" width="299.2744140625" height="44" opacity="0.2"/></g><g transform="translate(-46,-14) scale(1,1)"><rect fill="#ffffff" stroke="none" x="514" y="272" width="299.2744140625" height="44"/></g><g transform="translate(-46,-14) scale(1,1)"><path fill="none" stroke="#000000" d="M 514 272 L 813.2744140625 272 L 813.2744140625 316 L 514 316 L 514 272 Z Z" stroke-miterlimit="10"/></g><g transform="translate(-46,-14) scale(1,1)"><rect fill="#ffffff" stroke="none" x="504" y="279" width="20" height="10"/></g><g transform="translate(-46,-14) scale(1,1)"><path fill="none" stroke="#000000" d="M 504 279 L 524 279 L 524 289 L 504 289 L 504 279 Z Z" stroke-miterlimit="10"/></g><g transform="translate(-46,-14) scale(1,1)"><rect fill="#ffffff" stroke="none" x="504" y="299" width="20" height="10"/></g><g transform="translate(-46,-14) scale(1,1)"><path fill="none" stroke="#000000" d="M 504 299 L 524 299 L 524 309 L 504 309 L 504 299 Z Z" stroke-miterlimit="10"/></g><g transform="translate(-46,-14) scale(1,1)"><g><path fill="none" stroke="none"/><text fill="#000000" stroke="none" font-family="Arial" font-size="13px" font-style="normal" font-weight="normal" text-decoration="none" x="654.18359375" y="289.5">«jar»</text></g></g><g transform="translate(-46,-14) scale(1,1)"><g><path fill="none" stroke="none"/><text fill="#000000" stroke="none" font-family="Arial" font-size="13px" font-style="normal" font-weight="bold" text-decoration="none" x="536.774169921875" y="304.5">spring-boot-starter-thymeleaf 1.2.8-RELEASE</text></g></g><g transform="translate(-46,-14) scale(1,1)"><path fill="none" stroke="#000000" d="M 557 335 L 602 317" stroke-miterlimit="10" stroke-dasharray="3"/></g><g transform="translate(-46,-14) scale(1,1)"><path fill="none" stroke="#000000" d="M 594.1275689241817 324.68276180526834 L 602 317 L 591.0008176311189 316.86588357261144" stroke-miterlimit="10"/></g><g transform="translate(-46,-14) scale(1,1)"><rect fill="#C0C0C0" stroke="none" x="593" y="407" width="111.46630859375" height="44" opacity="0.2"/></g><g transform="translate(-46,-14) scale(1,1)"><rect fill="#ffffff" stroke="none" x="586" y="400" width="111.46630859375" height="44"/></g><g transform="translate(-46,-14) scale(1,1)"><path fill="none" stroke="#000000" d="M 586 400 L 697.46630859375 400 L 697.46630859375 444 L 586 444 L 586 400 Z Z" stroke-miterlimit="10"/></g><g transform="translate(-46,-14) scale(1,1)"><rect fill="#ffffff" stroke="none" x="576" y="407" width="20" height="10"/></g><g transform="translate(-46,-14) scale(1,1)"><path fill="none" stroke="#000000" d="M 576 407 L 596 407 L 596 417 L 576 417 L 576 407 Z Z" stroke-miterlimit="10"/></g><g transform="translate(-46,-14) scale(1,1)"><rect fill="#ffffff" stroke="none" x="576" y="427" width="20" height="10"/></g><g transform="translate(-46,-14) scale(1,1)"><path fill="none" stroke="#000000" d="M 576 427 L 596 427 L 596 437 L 576 437 L 576 427 Z Z" stroke-miterlimit="10"/></g><g transform="translate(-46,-14) scale(1,1)"><g><path fill="none" stroke="none"/><text fill="#000000" stroke="none" font-family="Arial" font-size="13px" font-style="normal" font-weight="normal" text-decoration="none" x="632.279541015625" y="417.5">«jar»</text></g></g><g transform="translate(-46,-14) scale(1,1)"><g><path fill="none" stroke="none"/><text fill="#000000" stroke="none" font-family="Arial" font-size="13px" font-style="normal" font-weight="bold" text-decoration="none" x="603.369140625" y="432.5">bootstrap 3.3.5</text></g></g><g transform="translate(-46,-14) scale(1,1)"><path fill="none" stroke="#000000" d="M 550 381 L 588 399" stroke-miterlimit="10" stroke-dasharray="3"/></g><g transform="translate(-46,-14) scale(1,1)"><path fill="none" stroke="#000000" d="M 577.0135691175061 398.45379814703415 L 588 399 L 580.61764325608 390.8451971878224" stroke-miterlimit="10"/></g><g transform="translate(-46,-14) scale(1,1)"><rect fill="#C0C0C0" stroke="none" x="441" y="407" width="98.44091796875" height="44" opacity="0.2"/></g><g transform="translate(-46,-14) scale(1,1)"><rect fill="#ffffff" stroke="none" x="434" y="400" width="98.44091796875" height="44"/></g><g transform="translate(-46,-14) scale(1,1)"><path fill="none" stroke="#000000" d="M 434 400 L 532.44091796875 400 L 532.44091796875 444 L 434 444 L 434 400 Z Z" stroke-miterlimit="10"/></g><g transform="translate(-46,-14) scale(1,1)"><rect fill="#ffffff" stroke="none" x="424" y="407" width="20" height="10"/></g><g transform="translate(-46,-14) scale(1,1)"><path fill="none" stroke="#000000" d="M 424 407 L 444 407 L 444 417 L 424 417 L 424 407 Z Z" stroke-miterlimit="10"/></g><g transform="translate(-46,-14) scale(1,1)"><rect fill="#ffffff" stroke="none" x="424" y="427" width="20" height="10"/></g><g transform="translate(-46,-14) scale(1,1)"><path fill="none" stroke="#000000" d="M 424 427 L 444 427 L 444 437 L 424 437 L 424 427 Z Z" stroke-miterlimit="10"/></g><g transform="translate(-46,-14) scale(1,1)"><g><path fill="none" stroke="none"/><text fill="#000000" stroke="none" font-family="Arial" font-size="13px" font-style="normal" font-weight="normal" text-decoration="none" x="473.766845703125" y="417.5">«jar»</text></g></g><g transform="translate(-46,-14) scale(1,1)"><g><path fill="none" stroke="none"/><text fill="#000000" stroke="none" font-family="Arial" font-size="13px" font-style="normal" font-weight="bold" text-decoration="none" x="454.254150390625" y="432.5">jquery 2.1.4</text></g></g><g transform="translate(-46,-14) scale(1,1)"><path fill="none" stroke="#000000" d="M 493 381 L 487 399" stroke-miterlimit="10" stroke-dasharray="3"/></g><g transform="translate(-46,-14) scale(1,1)"><path fill="none" stroke="#000000" d="M 486.22022077900255 388.02767370306094 L 487 399 L 494.2072191549614 390.6900064950472" stroke-miterlimit="10"/></g><g transform="translate(-46,-14) scale(1,1)"><rect fill="#C0C0C0" stroke="none" x="233" y="31" width="127.341796875" height="44" opacity="0.2"/></g><g transform="translate(-46,-14) scale(1,1)"><rect fill="#ffffff" stroke="none" x="226" y="24" width="127.341796875" height="44"/></g><g transform="translate(-46,-14) scale(1,1)"><path fill="none" stroke="#000000" d="M 226 24 L 353.341796875 24 L 353.341796875 68 L 226 68 L 226 24 Z Z" stroke-miterlimit="10"/></g><g transform="translate(-46,-14) scale(1,1)"><rect fill="#ffffff" stroke="none" x="216" y="31" width="20" height="10"/></g><g transform="translate(-46,-14) scale(1,1)"><path fill="none" stroke="#000000" d="M 216 31 L 236 31 L 236 41 L 216 41 L 216 31 Z Z" stroke-miterlimit="10"/></g><g transform="translate(-46,-14) scale(1,1)"><rect fill="#ffffff" stroke="none" x="216" y="51" width="20" height="10"/></g><g transform="translate(-46,-14) scale(1,1)"><path fill="none" stroke="#000000" d="M 216 51 L 236 51 L 236 61 L 216 61 L 216 51 Z Z" stroke-miterlimit="10"/></g><g transform="translate(-46,-14) scale(1,1)"><g><path fill="none" stroke="none"/><text fill="#000000" stroke="none" font-family="Arial" font-size="13px" font-style="normal" font-weight="normal" text-decoration="none" x="280.21728515625" y="41.5">«jar»</text></g></g><g transform="translate(-46,-14) scale(1,1)"><g><path fill="none" stroke="none"/><text fill="#000000" stroke="none" font-family="Arial" font-size="13px" font-style="normal" font-weight="bold" text-decoration="none" x="244.464111328125" y="56.5">market-flow-api-b</text></g></g><g transform="translate(-46,-14) scale(1,1)"><path fill="none" stroke="#000000" d="M 204 191 L 216.78947368421052 135" stroke-miterlimit="10"/></g><g transform="translate(-46,-14) scale(1,1)"><path fill="#C0C0C0" stroke="none" d="M 214.7099609375 130.5 C 214.7099609375 124.1487248 219.8586857375 119 226.2099609375 119 C 232.5612361375 119 237.7099609375 124.1487248 237.7099609375 130.5 C 237.7099609375 136.8512752 232.5612361375 142 226.2099609375 142 C 219.8586857375 142 214.7099609375 136.8512752 214.7099609375 130.5 Z" opacity="0.2"/></g><g transform="translate(-46,-14) scale(1,1)"><path fill="none" stroke="#000000" d="M 230.30971166877433 125.08336793898475 A 11.5 11.5 0 0 1 207.69028833122567 120.91663206101525" stroke-miterlimit="10"/></g><g transform="translate(-46,-14) scale(1,1)"><path fill="#ffffff" stroke="none" d="M 210.7099609375 123.5 C 210.7099609375 118.8055792 214.5155401375 115 219.2099609375 115 C 223.9043817375 115 227.7099609375 118.8055792 227.7099609375 123.5 C 227.7099609375 128.1944208 223.9043817375 132 219.2099609375 132 C 214.5155401375 132 210.7099609375 128.1944208 210.7099609375 123.5 Z"/></g><g transform="translate(-46,-14) scale(1,1)"><path fill="none" stroke="#000000" d="M 210.7099609375 123.5 C 210.7099609375 118.8055792 214.5155401375 115 219.2099609375 115 C 223.9043817375 115 227.7099609375 118.8055792 227.7099609375 123.5 C 227.7099609375 128.1944208 223.9043817375 132 219.2099609375 132 C 214.5155401375 132 210.7099609375 128.1944208 210.7099609375 123.5 Z" stroke-miterlimit="10"/></g><g transform="translate(-46,-14) scale(1,1)"><g><path fill="none" stroke="none"/><text fill="#000000" stroke="none" font-family="Arial" font-size="13px" font-style="normal" font-weight="bold" text-decoration="none" x="219.2099609375" y="154.5"></text></g></g><g transform="translate(-46,-14) scale(1,1)"><path fill="none" stroke="#000000" d="M 267 69 L 230.7099609375 115.193359375" stroke-miterlimit="10"/></g></g></svg>