<svg version="1.1" xmlns="http://www.w3.org/2000/svg" xmlns:xlink="http://www.w3.org/1999/xlink" width="965.8671875" height="384"><defs/><g><g transform="translate(-6,-6) scale(1,1)"><rect fill="#C0C0C0" stroke="none" x="401" y="103" width="98.44091796875" height="44" opacity="0.2"/></g><g transform="translate(-6,-6) scale(1,1)"><rect fill="#a3ffd1" stroke="none" x="394" y="96" width="98.44091796875" height="44"/></g><g transform="translate(-6,-6) scale(1,1)"><path fill="none" stroke="#000000" d="M 394 96 L 492.44091796875 96 L 492.44091796875 140 L 394 140 L 394 96 Z Z" stroke-miterlimit="10"/></g><g transform="translate(-6,-6) scale(1,1)"><rect fill="#a3ffd1" stroke="none" x="384" y="103" width="20" height="10"/></g><g transform="translate(-6,-6) scale(1,1)"><path fill="none" stroke="#000000" d="M 384 103 L 404 103 L 404 113 L 384 113 L 384 103 Z Z" stroke-miterlimit="10"/></g><g transform="translate(-6,-6) scale(1,1)"><rect fill="#a3ffd1" stroke="none" x="384" y="123" width="20" height="10"/></g><g transform="translate(-6,-6) scale(1,1)"><path fill="none" stroke="#000000" d="M 384 123 L 404 123 L 404 133 L 384 133 L 384 123 Z Z" stroke-miterlimit="10"/></g><g transform="translate(-6,-6) scale(1,1)"><g><path fill="none" stroke="none"/><text fill="#000000" stroke="none" font-family="Arial" font-size="13px" font-style="normal" font-weight="normal" text-decoration="none" x="428.345947265625" y="113.5">«pom»</text></g></g><g transform="translate(-6,-6) scale(1,1)"><g><path fill="none" stroke="none"/><text fill="#000000" stroke="none" font-family="Arial" font-size="13px" font-style="normal" font-weight="bold" text-decoration="none" x="417.865966796875" y="128.5">eight-bank</text></g></g><g transform="translate(-6,-6) scale(1,1)"><rect fill="#C0C0C0" stroke="none" x="121" y="191" width="178.6689453125" height="44" opacity="0.2"/></g><g transform="translate(-6,-6) scale(1,1)"><rect fill="#a3ffd1" stroke="none" x="114" y="184" width="178.6689453125" height="44"/></g><g transform="translate(-6,-6) scale(1,1)"><path fill="none" stroke="#000000" d="M 114 184 L 292.6689453125 184 L 292.6689453125 228 L 114 228 L 114 184 Z Z" stroke-miterlimit="10"/></g><g transform="translate(-6,-6) scale(1,1)"><rect fill="#a3ffd1" stroke="none" x="104" y="191" width="20" height="10"/></g><g transform="translate(-6,-6) scale(1,1)"><path fill="none" stroke="#000000" d="M 104 191 L 124 191 L 124 201 L 104 201 L 104 191 Z Z" stroke-miterlimit="10"/></g><g transform="translate(-6,-6) scale(1,1)"><rect fill="#a3ffd1" stroke="none" x="104" y="211" width="20" height="10"/></g><g transform="translate(-6,-6) scale(1,1)"><path fill="none" stroke="#000000" d="M 104 211 L 124 211 L 124 221 L 104 221 L 104 211 Z Z" stroke-miterlimit="10"/></g><g transform="translate(-6,-6) scale(1,1)"><g><path fill="none" stroke="none"/><text fill="#000000" stroke="none" font-family="Arial" font-size="13px" font-style="normal" font-weight="normal" text-decoration="none" x="193.880859375" y="201.5">«jar»</text></g></g><g transform="translate(-6,-6) scale(1,1)"><g><path fill="none" stroke="none"/><text fill="#000000" stroke="none" font-family="Arial" font-size="13px" font-style="normal" font-weight="bold" text-decoration="none" x="133.9208984375" y="216.5">stock-market-api-gateway</text></g></g><g transform="translate(-6,-6) scale(1,1)"><rect fill="#C0C0C0" stroke="none" x="41" y="343" width="115.07177734375" height="44" opacity="0.2"/></g><g transform="translate(-6,-6) scale(1,1)"><rect fill="#ffadad" stroke="none" x="34" y="336" width="115.07177734375" height="44"/></g><g transform="translate(-6,-6) scale(1,1)"><path fill="none" stroke="#000000" d="M 34 336 L 149.07177734375 336 L 149.07177734375 380 L 34 380 L 34 336 Z Z" stroke-miterlimit="10"/></g><g transform="translate(-6,-6) scale(1,1)"><rect fill="#ffadad" stroke="none" x="24" y="343" width="20" height="10"/></g><g transform="translate(-6,-6) scale(1,1)"><path fill="none" stroke="#000000" d="M 24 343 L 44 343 L 44 353 L 24 353 L 24 343 Z Z" stroke-miterlimit="10"/></g><g transform="translate(-6,-6) scale(1,1)"><rect fill="#ffadad" stroke="none" x="24" y="363" width="20" height="10"/></g><g transform="translate(-6,-6) scale(1,1)"><path fill="none" stroke="#000000" d="M 24 363 L 44 363 L 44 373 L 24 373 L 24 363 Z Z" stroke-miterlimit="10"/></g><g transform="translate(-6,-6) scale(1,1)"><g><path fill="none" stroke="none"/><text fill="#000000" stroke="none" font-family="Arial" font-size="13px" font-style="normal" font-weight="normal" text-decoration="none" x="82.082275390625" y="353.5">«jar»</text></g></g><g transform="translate(-6,-6) scale(1,1)"><g><path fill="none" stroke="none"/><text fill="#000000" stroke="none" font-family="Arial" font-size="13px" font-style="normal" font-weight="bold" text-decoration="none" x="52.108642578125" y="368.5">market-flow-api</text></g></g><g transform="translate(-6,-6) scale(1,1)"><path fill="none" stroke="#000000" d="M 261 183 L 383 138" stroke-miterlimit="10" stroke-dasharray="3"/></g><g transform="translate(-6,-6) scale(1,1)"><path fill="#FFFFFF" stroke="none" d="M 366.844023874405 152.9326633735983 L 383 138 L 361.01701219225646 137.13498725755116"/></g><g transform="translate(-6,-6) scale(1,1)"><path fill="none" stroke="#000000" d="M 366.844023874405 152.9326633735983 L 383 138 L 361.01701219225646 137.13498725755116 L 366.844023874405 152.9326633735983" stroke-miterlimit="10"/></g><g transform="translate(-6,-6) scale(1,1)"><rect fill="#C0C0C0" stroke="none" x="337" y="23" width="278.314453125" height="44" opacity="0.2"/></g><g transform="translate(-6,-6) scale(1,1)"><rect fill="#ffffff" stroke="none" x="330" y="16" width="278.314453125" height="44"/></g><g transform="translate(-6,-6) scale(1,1)"><path fill="none" stroke="#000000" d="M 330 16 L 608.314453125 16 L 608.314453125 60 L 330 60 L 330 16 Z Z" stroke-miterlimit="10"/></g><g transform="translate(-6,-6) scale(1,1)"><rect fill="#ffffff" stroke="none" x="320" y="23" width="20" height="10"/></g><g transform="translate(-6,-6) scale(1,1)"><path fill="none" stroke="#000000" d="M 320 23 L 340 23 L 340 33 L 320 33 L 320 23 Z Z" stroke-miterlimit="10"/></g><g transform="translate(-6,-6) scale(1,1)"><rect fill="#ffffff" stroke="none" x="320" y="43" width="20" height="10"/></g><g transform="translate(-6,-6) scale(1,1)"><path fill="none" stroke="#000000" d="M 320 43 L 340 43 L 340 53 L 320 53 L 320 43 Z Z" stroke-miterlimit="10"/></g><g transform="translate(-6,-6) scale(1,1)"><g><path fill="none" stroke="none"/><text fill="#000000" stroke="none" font-family="Arial" font-size="13px" font-style="normal" font-weight="normal" text-decoration="none" x="459.70361328125" y="33.5">«jar»</text></g></g><g transform="translate(-6,-6) scale(1,1)"><g><path fill="none" stroke="none"/><text fill="#000000" stroke="none" font-family="Arial" font-size="13px" font-style="normal" font-weight="bold" text-decoration="none" x="352.044189453125" y="48.5">spring-boot-starter-parent 1.5.8-RELEASE</text></g></g><g transform="translate(-6,-6) scale(1,1)"><path fill="none" stroke="#000000" d="M 445 95 L 457 61" stroke-miterlimit="10" stroke-dasharray="3"/></g><g transform="translate(-6,-6) scale(1,1)"><path fill="#FFFFFF" stroke="none" d="M 458.1743838207004 82.96863269850168 L 457 61 L 442.296245608826 77.36458391784011"/></g><g transform="translate(-6,-6) scale(1,1)"><path fill="none" stroke="#000000" d="M 458.1743838207004 82.96863269850168 L 457 61 L 442.296245608826 77.36458391784011 L 458.1743838207004 82.96863269850168" stroke-miterlimit="10"/></g><g transform="translate(-6,-6) scale(1,1)"><rect fill="#C0C0C0" stroke="none" x="705" y="95" width="263.8671875" height="44" opacity="0.2"/></g><g transform="translate(-6,-6) scale(1,1)"><rect fill="#ffffff" stroke="none" x="698" y="88" width="263.8671875" height="44"/></g><g transform="translate(-6,-6) scale(1,1)"><path fill="none" stroke="#000000" d="M 698 88 L 961.8671875 88 L 961.8671875 132 L 698 132 L 698 88 Z Z" stroke-miterlimit="10"/></g><g transform="translate(-6,-6) scale(1,1)"><rect fill="#ffffff" stroke="none" x="688" y="95" width="20" height="10"/></g><g transform="translate(-6,-6) scale(1,1)"><path fill="none" stroke="#000000" d="M 688 95 L 708 95 L 708 105 L 688 105 L 688 95 Z Z" stroke-miterlimit="10"/></g><g transform="translate(-6,-6) scale(1,1)"><rect fill="#ffffff" stroke="none" x="688" y="115" width="20" height="10"/></g><g transform="translate(-6,-6) scale(1,1)"><path fill="none" stroke="#000000" d="M 688 115 L 708 115 L 708 125 L 688 125 L 688 115 Z Z" stroke-miterlimit="10"/></g><g transform="translate(-6,-6) scale(1,1)"><g><path fill="none" stroke="none"/><text fill="#000000" stroke="none" font-family="Arial" font-size="13px" font-style="normal" font-weight="normal" text-decoration="none" x="820.47998046875" y="105.5">«jar»</text></g></g><g transform="translate(-6,-6) scale(1,1)"><g><path fill="none" stroke="none"/><text fill="#000000" stroke="none" font-family="Arial" font-size="13px" font-style="normal" font-weight="bold" text-decoration="none" x="719.326904296875" y="120.5">spring-boot-starter-web 1.5.8-RELEASE</text></g></g><g transform="translate(-6,-6) scale(1,1)"><path fill="none" stroke="#000000" d="M 493 117 L 687 113" stroke-miterlimit="10" stroke-dasharray="3"/></g><g transform="translate(-6,-6) scale(1,1)"><path fill="none" stroke="#000000" d="M 676.9262603940535 117.41811841756031 L 687 113 L 676.7527089195856 109.00087190586983" stroke-miterlimit="10"/></g><g transform="translate(-6,-6) scale(1,1)"><rect fill="#C0C0C0" stroke="none" x="673" y="31" width="113.64990234375" height="44" opacity="0.2"/></g><g transform="translate(-6,-6) scale(1,1)"><rect fill="#ffffff" stroke="none" x="666" y="24" width="113.64990234375" height="44"/></g><g transform="translate(-6,-6) scale(1,1)"><path fill="none" stroke="#000000" d="M 666 24 L 779.64990234375 24 L 779.64990234375 68 L 666 68 L 666 24 Z Z" stroke-miterlimit="10"/></g><g transform="translate(-6,-6) scale(1,1)"><rect fill="#ffffff" stroke="none" x="656" y="31" width="20" height="10"/></g><g transform="translate(-6,-6) scale(1,1)"><path fill="none" stroke="#000000" d="M 656 31 L 676 31 L 676 41 L 656 41 L 656 31 Z Z" stroke-miterlimit="10"/></g><g transform="translate(-6,-6) scale(1,1)"><rect fill="#ffffff" stroke="none" x="656" y="51" width="20" height="10"/></g><g transform="translate(-6,-6) scale(1,1)"><path fill="none" stroke="#000000" d="M 656 51 L 676 51 L 676 61 L 656 61 L 656 51 Z Z" stroke-miterlimit="10"/></g><g transform="translate(-6,-6) scale(1,1)"><g><path fill="none" stroke="none"/><text fill="#000000" stroke="none" font-family="Arial" font-size="13px" font-style="normal" font-weight="normal" text-decoration="none" x="713.371337890625" y="41.5">«jar»</text></g></g><g transform="translate(-6,-6) scale(1,1)"><g><path fill="none" stroke="none"/><text fill="#000000" stroke="none" font-family="Arial" font-size="13px" font-style="normal" font-weight="bold" text-decoration="none" x="683.02001953125" y="56.5">log4j-core 2.9.1</text></g></g><g transform="translate(-6,-6) scale(1,1)"><path fill="none" stroke="#000000" d="M 493 104 L 655 62" stroke-miterlimit="10" stroke-dasharray="3"/></g><g transform="translate(-6,-6) scale(1,1)"><path fill="none" stroke="#000000" d="M 646.2189919242404 68.6252469518838 L 655 62 L 644.106132597264 60.47564669068912" stroke-miterlimit="10"/></g><g transform="translate(-6,-6) scale(1,1)"><path fill="#C0C0C0" stroke="none" d="M 126.7099609375 274.5 C 126.7099609375 268.1487248 131.8586857375 263 138.2099609375 263 C 144.5612361375 263 149.7099609375 268.1487248 149.7099609375 274.5 C 149.7099609375 280.8512752 144.5612361375 286 138.2099609375 286 C 131.8586857375 286 126.7099609375 280.8512752 126.7099609375 274.5 Z" opacity="0.2"/></g><g transform="translate(-6,-6) scale(1,1)"><path fill="none" stroke="#000000" d="M 125.68049092300728 256.8042742690973 A 11.5 11.5 0 0 1 136.31950907699272 277.1957257309027" stroke-miterlimit="10"/></g><g transform="translate(-6,-6) scale(1,1)"><path fill="#ffffff" stroke="none" d="M 122.7099609375 267.5 C 122.7099609375 262.8055792 126.5155401375 259 131.2099609375 259 C 135.9043817375 259 139.7099609375 262.8055792 139.7099609375 267.5 C 139.7099609375 272.1944208 135.9043817375 276 131.2099609375 276 C 126.5155401375 276 122.7099609375 272.1944208 122.7099609375 267.5 Z"/></g><g transform="translate(-6,-6) scale(1,1)"><path fill="none" stroke="#000000" d="M 122.7099609375 267.5 C 122.7099609375 262.8055792 126.5155401375 259 131.2099609375 259 C 135.9043817375 259 139.7099609375 262.8055792 139.7099609375 267.5 C 139.7099609375 272.1944208 135.9043817375 276 131.2099609375 276 C 126.5155401375 276 122.7099609375 272.1944208 122.7099609375 267.5 Z" stroke-miterlimit="10"/></g><g transform="translate(-6,-6) scale(1,1)"><g><path fill="none" stroke="none"/><text fill="#000000" stroke="none" font-family="Arial" font-size="13px" font-style="normal" font-weight="bold" text-decoration="none" x="131.2099609375" y="298.5"></text></g></g><g transform="translate(-6,-6) scale(1,1)"><path fill="none" stroke="#000000" d="M 99 335 L 126.57894736842105 279" stroke-miterlimit="10"/></g><g transform="translate(-6,-6) scale(1,1)"><path fill="none" stroke="#000000" d="M 177 229 L 142.7099609375 260.8904551630435" stroke-miterlimit="10"/></g><g transform="translate(-6,-6) scale(1,1)"><path fill="#C0C0C0" stroke="none" d="M 350.7099609375 218.5 C 350.7099609375 212.1487248 355.8586857375 207 362.2099609375 207 C 368.5612361375 207 373.7099609375 212.1487248 373.7099609375 218.5 C 373.7099609375 224.8512752 368.5612361375 230 362.2099609375 230 C 355.8586857375 230 350.7099609375 224.8512752 350.7099609375 218.5 Z" opacity="0.2"/></g><g transform="translate(-6,-6) scale(1,1)"><path fill="none" stroke="#000000" d="M 360.3677241249184 200.82957534225986 A 11.5 11.5 0 0 1 349.6322758750816 221.17042465774014" stroke-miterlimit="10"/></g><g transform="translate(-6,-6) scale(1,1)"><path fill="#ffffff" stroke="none" d="M 346.7099609375 211.5 C 346.7099609375 206.8055792 350.5155401375 203 355.2099609375 203 C 359.9043817375 203 363.7099609375 206.8055792 363.7099609375 211.5 C 363.7099609375 216.1944208 359.9043817375 220 355.2099609375 220 C 350.5155401375 220 346.7099609375 216.1944208 346.7099609375 211.5 Z"/></g><g transform="translate(-6,-6) scale(1,1)"><path fill="none" stroke="#000000" d="M 346.7099609375 211.5 C 346.7099609375 206.8055792 350.5155401375 203 355.2099609375 203 C 359.9043817375 203 363.7099609375 206.8055792 363.7099609375 211.5 C 363.7099609375 216.1944208 359.9043817375 220 355.2099609375 220 C 350.5155401375 220 346.7099609375 216.1944208 346.7099609375 211.5 Z" stroke-miterlimit="10"/></g><g transform="translate(-6,-6) scale(1,1)"><g><path fill="none" stroke="none"/><text fill="#000000" stroke="none" font-family="Arial" font-size="13px" font-style="normal" font-weight="bold" text-decoration="none" x="355.2099609375" y="242.5"></text></g></g><g transform="translate(-6,-6) scale(1,1)"><path fill="none" stroke="#000000" d="M 294 217 L 343.7099609375 213.822509765625" stroke-miterlimit="10"/></g><g transform="translate(-6,-6) scale(1,1)"><path fill="none" stroke="#000000" d="M 407 233 L 366.7099609375 217.18025716145834" stroke-miterlimit="10"/></g><g transform="translate(-6,-6) scale(1,1)"><rect fill="#C0C0C0" stroke="none" x="641" y="199" width="299.2744140625" height="44" opacity="0.2"/></g><g transform="translate(-6,-6) scale(1,1)"><rect fill="#ffffff" stroke="none" x="634" y="192" width="299.2744140625" height="44"/></g><g transform="translate(-6,-6) scale(1,1)"><path fill="none" stroke="#000000" d="M 634 192 L 933.2744140625 192 L 933.2744140625 236 L 634 236 L 634 192 Z Z" stroke-miterlimit="10"/></g><g transform="translate(-6,-6) scale(1,1)"><rect fill="#ffffff" stroke="none" x="624" y="199" width="20" height="10"/></g><g transform="translate(-6,-6) scale(1,1)"><path fill="none" stroke="#000000" d="M 624 199 L 644 199 L 644 209 L 624 209 L 624 199 Z Z" stroke-miterlimit="10"/></g><g transform="translate(-6,-6) scale(1,1)"><rect fill="#ffffff" stroke="none" x="624" y="219" width="20" height="10"/></g><g transform="translate(-6,-6) scale(1,1)"><path fill="none" stroke="#000000" d="M 624 219 L 644 219 L 644 229 L 624 229 L 624 219 Z Z" stroke-miterlimit="10"/></g><g transform="translate(-6,-6) scale(1,1)"><g><path fill="none" stroke="none"/><text fill="#000000" stroke="none" font-family="Arial" font-size="13px" font-style="normal" font-weight="normal" text-decoration="none" x="774.18359375" y="209.5">«jar»</text></g></g><g transform="translate(-6,-6) scale(1,1)"><g><path fill="none" stroke="none"/><text fill="#000000" stroke="none" font-family="Arial" font-size="13px" font-style="normal" font-weight="bold" text-decoration="none" x="656.774169921875" y="224.5">spring-boot-starter-thymeleaf 1.2.8-RELEASE</text></g></g><g transform="translate(-6,-6) scale(1,1)"><rect fill="#C0C0C0" stroke="none" x="633" y="263" width="111.46630859375" height="44" opacity="0.2"/></g><g transform="translate(-6,-6) scale(1,1)"><rect fill="#ffffff" stroke="none" x="626" y="256" width="111.46630859375" height="44"/></g><g transform="translate(-6,-6) scale(1,1)"><path fill="none" stroke="#000000" d="M 626 256 L 737.46630859375 256 L 737.46630859375 300 L 626 300 L 626 256 Z Z" stroke-miterlimit="10"/></g><g transform="translate(-6,-6) scale(1,1)"><rect fill="#ffffff" stroke="none" x="616" y="263" width="20" height="10"/></g><g transform="translate(-6,-6) scale(1,1)"><path fill="none" stroke="#000000" d="M 616 263 L 636 263 L 636 273 L 616 273 L 616 263 Z Z" stroke-miterlimit="10"/></g><g transform="translate(-6,-6) scale(1,1)"><rect fill="#ffffff" stroke="none" x="616" y="283" width="20" height="10"/></g><g transform="translate(-6,-6) scale(1,1)"><path fill="none" stroke="#000000" d="M 616 283 L 636 283 L 636 293 L 616 293 L 616 283 Z Z" stroke-miterlimit="10"/></g><g transform="translate(-6,-6) scale(1,1)"><g><path fill="none" stroke="none"/><text fill="#000000" stroke="none" font-family="Arial" font-size="13px" font-style="normal" font-weight="normal" text-decoration="none" x="672.279541015625" y="273.5">«jar»</text></g></g><g transform="translate(-6,-6) scale(1,1)"><g><path fill="none" stroke="none"/><text fill="#000000" stroke="none" font-family="Arial" font-size="13px" font-style="normal" font-weight="bold" text-decoration="none" x="643.369140625" y="288.5">bootstrap 3.3.7</text></g></g><g transform="translate(-6,-6) scale(1,1)"><rect fill="#C0C0C0" stroke="none" x="425" y="335" width="98.44091796875" height="44" opacity="0.2"/></g><g transform="translate(-6,-6) scale(1,1)"><rect fill="#ffffff" stroke="none" x="418" y="328" width="98.44091796875" height="44"/></g><g transform="translate(-6,-6) scale(1,1)"><path fill="none" stroke="#000000" d="M 418 328 L 516.44091796875 328 L 516.44091796875 372 L 418 372 L 418 328 Z Z" stroke-miterlimit="10"/></g><g transform="translate(-6,-6) scale(1,1)"><rect fill="#ffffff" stroke="none" x="408" y="335" width="20" height="10"/></g><g transform="translate(-6,-6) scale(1,1)"><path fill="none" stroke="#000000" d="M 408 335 L 428 335 L 428 345 L 408 345 L 408 335 Z Z" stroke-miterlimit="10"/></g><g transform="translate(-6,-6) scale(1,1)"><rect fill="#ffffff" stroke="none" x="408" y="355" width="20" height="10"/></g><g transform="translate(-6,-6) scale(1,1)"><path fill="none" stroke="#000000" d="M 408 355 L 428 355 L 428 365 L 408 365 L 408 355 Z Z" stroke-miterlimit="10"/></g><g transform="translate(-6,-6) scale(1,1)"><g><path fill="none" stroke="none"/><text fill="#000000" stroke="none" font-family="Arial" font-size="13px" font-style="normal" font-weight="normal" text-decoration="none" x="457.766845703125" y="345.5">«jar»</text></g></g><g transform="translate(-6,-6) scale(1,1)"><g><path fill="none" stroke="none"/><text fill="#000000" stroke="none" font-family="Arial" font-size="13px" font-style="normal" font-weight="bold" text-decoration="none" x="438.254150390625" y="360.5">jquery 3.2.1</text></g></g><g transform="translate(-6,-6) scale(1,1)"><rect fill="#C0C0C0" stroke="none" x="185" y="343" width="127.341796875" height="44" opacity="0.2"/></g><g transform="translate(-6,-6) scale(1,1)"><rect fill="#ffadad" stroke="none" x="178" y="336" width="127.341796875" height="44"/></g><g transform="translate(-6,-6) scale(1,1)"><path fill="none" stroke="#000000" d="M 178 336 L 305.341796875 336 L 305.341796875 380 L 178 380 L 178 336 Z Z" stroke-miterlimit="10"/></g><g transform="translate(-6,-6) scale(1,1)"><rect fill="#ffadad" stroke="none" x="168" y="343" width="20" height="10"/></g><g transform="translate(-6,-6) scale(1,1)"><path fill="none" stroke="#000000" d="M 168 343 L 188 343 L 188 353 L 168 353 L 168 343 Z Z" stroke-miterlimit="10"/></g><g transform="translate(-6,-6) scale(1,1)"><rect fill="#ffadad" stroke="none" x="168" y="363" width="20" height="10"/></g><g transform="translate(-6,-6) scale(1,1)"><path fill="none" stroke="#000000" d="M 168 363 L 188 363 L 188 373 L 168 373 L 168 363 Z Z" stroke-miterlimit="10"/></g><g transform="translate(-6,-6) scale(1,1)"><g><path fill="none" stroke="none"/><text fill="#000000" stroke="none" font-family="Arial" font-size="13px" font-style="normal" font-weight="normal" text-decoration="none" x="232.21728515625" y="353.5">«jar»</text></g></g><g transform="translate(-6,-6) scale(1,1)"><g><path fill="none" stroke="none"/><text fill="#000000" stroke="none" font-family="Arial" font-size="13px" font-style="normal" font-weight="bold" text-decoration="none" x="196.464111328125" y="368.5">market-flow-api-b</text></g></g><g transform="translate(-6,-6) scale(1,1)"><path fill="none" stroke="#000000" d="M 201 229 L 207.33333333333334 272" stroke-miterlimit="10"/></g><g transform="translate(-6,-6) scale(1,1)"><path fill="#C0C0C0" stroke="none" d="M 206.7099609375 290.5 C 206.7099609375 284.1487248 211.8586857375 279 218.2099609375 279 C 224.5612361375 279 229.7099609375 284.1487248 229.7099609375 290.5 C 229.7099609375 296.8512752 224.5612361375 302 218.2099609375 302 C 211.8586857375 302 206.7099609375 296.8512752 206.7099609375 290.5 Z" opacity="0.2"/></g><g transform="translate(-6,-6) scale(1,1)"><path fill="none" stroke="#000000" d="M 200.0901420724191 286.63661930919363 A 11.5 11.5 0 0 1 221.9098579275809 279.36338069080637" stroke-miterlimit="10"/></g><g transform="translate(-6,-6) scale(1,1)"><path fill="#ffffff" stroke="none" d="M 202.7099609375 283.5 C 202.7099609375 278.8055792 206.5155401375 275 211.2099609375 275 C 215.9043817375 275 219.7099609375 278.8055792 219.7099609375 283.5 C 219.7099609375 288.1944208 215.9043817375 292 211.2099609375 292 C 206.5155401375 292 202.7099609375 288.1944208 202.7099609375 283.5 Z"/></g><g transform="translate(-6,-6) scale(1,1)"><path fill="none" stroke="#000000" d="M 202.7099609375 283.5 C 202.7099609375 278.8055792 206.5155401375 275 211.2099609375 275 C 215.9043817375 275 219.7099609375 278.8055792 219.7099609375 283.5 C 219.7099609375 288.1944208 215.9043817375 292 211.2099609375 292 C 206.5155401375 292 202.7099609375 288.1944208 202.7099609375 283.5 Z" stroke-miterlimit="10"/></g><g transform="translate(-6,-6) scale(1,1)"><g><path fill="none" stroke="none"/><text fill="#000000" stroke="none" font-family="Arial" font-size="13px" font-style="normal" font-weight="bold" text-decoration="none" x="211.2099609375" y="314.5"></text></g></g><g transform="translate(-6,-6) scale(1,1)"><path fill="none" stroke="#000000" d="M 227 335 L 214.1578947368421 295" stroke-miterlimit="10"/></g><g transform="translate(-6,-6) scale(1,1)"><rect fill="#C0C0C0" stroke="none" x="33" y="23" width="270.3798828125" height="44" opacity="0.2"/></g><g transform="translate(-6,-6) scale(1,1)"><rect fill="#ffffff" stroke="none" x="26" y="16" width="270.3798828125" height="44"/></g><g transform="translate(-6,-6) scale(1,1)"><path fill="none" stroke="#000000" d="M 26 16 L 296.3798828125 16 L 296.3798828125 60 L 26 60 L 26 16 Z Z" stroke-miterlimit="10"/></g><g transform="translate(-6,-6) scale(1,1)"><rect fill="#ffffff" stroke="none" x="16" y="23" width="20" height="10"/></g><g transform="translate(-6,-6) scale(1,1)"><path fill="none" stroke="#000000" d="M 16 23 L 36 23 L 36 33 L 16 33 L 16 23 Z Z" stroke-miterlimit="10"/></g><g transform="translate(-6,-6) scale(1,1)"><rect fill="#ffffff" stroke="none" x="16" y="43" width="20" height="10"/></g><g transform="translate(-6,-6) scale(1,1)"><path fill="none" stroke="#000000" d="M 16 43 L 36 43 L 36 53 L 16 53 L 16 43 Z Z" stroke-miterlimit="10"/></g><g transform="translate(-6,-6) scale(1,1)"><g><path fill="none" stroke="none"/><text fill="#000000" stroke="none" font-family="Arial" font-size="13px" font-style="normal" font-weight="normal" text-decoration="none" x="151.736328125" y="33.5">«jar»</text></g></g><g transform="translate(-6,-6) scale(1,1)"><g><path fill="none" stroke="none"/><text fill="#000000" stroke="none" font-family="Arial" font-size="13px" font-style="normal" font-weight="bold" text-decoration="none" x="47.326904296875" y="48.5">spring-boot-starter-web 1.5.10.RELEASE</text></g></g><g transform="translate(-6,-6) scale(1,1)"><path fill="none" stroke="#000000" d="M 192 183 L 162 61" stroke-miterlimit="10" stroke-dasharray="3"/></g><g transform="translate(-6,-6) scale(1,1)"><path fill="none" stroke="#000000" d="M 168.5144695706628 69.8635030441078 L 162 61 L 160.33898250169287 71.87386871680533" stroke-miterlimit="10"/></g><g transform="translate(-6,-6) scale(1,1)"><rect fill="#C0C0C0" stroke="none" x="41" y="111" width="131.72802734375" height="44" opacity="0.2"/></g><g transform="translate(-6,-6) scale(1,1)"><rect fill="#ffffff" stroke="none" x="34" y="104" width="131.72802734375" height="44"/></g><g transform="translate(-6,-6) scale(1,1)"><path fill="none" stroke="#000000" d="M 34 104 L 165.72802734375 104 L 165.72802734375 148 L 34 148 L 34 104 Z Z" stroke-miterlimit="10"/></g><g transform="translate(-6,-6) scale(1,1)"><rect fill="#ffffff" stroke="none" x="24" y="111" width="20" height="10"/></g><g transform="translate(-6,-6) scale(1,1)"><path fill="none" stroke="#000000" d="M 24 111 L 44 111 L 44 121 L 24 121 L 24 111 Z Z" stroke-miterlimit="10"/></g><g transform="translate(-6,-6) scale(1,1)"><rect fill="#ffffff" stroke="none" x="24" y="131" width="20" height="10"/></g><g transform="translate(-6,-6) scale(1,1)"><path fill="none" stroke="#000000" d="M 24 131 L 44 131 L 44 141 L 24 141 L 24 131 Z Z" stroke-miterlimit="10"/></g><g transform="translate(-6,-6) scale(1,1)"><g><path fill="none" stroke="none"/><text fill="#000000" stroke="none" font-family="Arial" font-size="13px" font-style="normal" font-weight="normal" text-decoration="none" x="90.410400390625" y="121.5">«jar»</text></g></g><g transform="translate(-6,-6) scale(1,1)"><g><path fill="none" stroke="none"/><text fill="#000000" stroke="none" font-family="Arial" font-size="13px" font-style="normal" font-weight="bold" text-decoration="none" x="51.753173828125" y="136.5">jackson-core 2.9.4</text></g></g><g transform="translate(-6,-6) scale(1,1)"><path fill="none" stroke="#000000" d="M 168 183 L 124 149" stroke-miterlimit="10" stroke-dasharray="3"/></g><g transform="translate(-6,-6) scale(1,1)"><path fill="none" stroke="#000000" d="M 134.6154713015133 151.88301388251034 L 124 149 L 129.46767307621323 158.54487040936925" stroke-miterlimit="10"/></g><g transform="translate(-6,-6) scale(1,1)"><rect fill="#C0C0C0" stroke="none" x="425" y="231" width="138.208984375" height="44" opacity="0.2"/></g><g transform="translate(-6,-6) scale(1,1)"><rect fill="#a3ffd1" stroke="none" x="418" y="224" width="138.208984375" height="44"/></g><g transform="translate(-6,-6) scale(1,1)"><path fill="none" stroke="#000000" d="M 418 224 L 556.208984375 224 L 556.208984375 268 L 418 268 L 418 224 Z Z" stroke-miterlimit="10"/></g><g transform="translate(-6,-6) scale(1,1)"><rect fill="#a3ffd1" stroke="none" x="408" y="231" width="20" height="10"/></g><g transform="translate(-6,-6) scale(1,1)"><path fill="none" stroke="#000000" d="M 408 231 L 428 231 L 428 241 L 408 241 L 408 231 Z Z" stroke-miterlimit="10"/></g><g transform="translate(-6,-6) scale(1,1)"><rect fill="#a3ffd1" stroke="none" x="408" y="251" width="20" height="10"/></g><g transform="translate(-6,-6) scale(1,1)"><path fill="none" stroke="#000000" d="M 408 251 L 428 251 L 428 261 L 408 261 L 408 251 Z Z" stroke-miterlimit="10"/></g><g transform="translate(-6,-6) scale(1,1)"><g><path fill="none" stroke="none"/><text fill="#000000" stroke="none" font-family="Arial" font-size="13px" font-style="normal" font-weight="normal" text-decoration="none" x="477.65087890625" y="241.5">«jar»</text></g></g><g transform="translate(-6,-6) scale(1,1)"><g><path fill="none" stroke="none"/><text fill="#000000" stroke="none" font-family="Arial" font-size="13px" font-style="normal" font-weight="bold" text-decoration="none" x="437.5654296875" y="256.5">stock-market-client</text></g></g><g transform="translate(-6,-6) scale(1,1)"><path fill="none" stroke="#000000" d="M 474 223 L 446 141" stroke-miterlimit="10" stroke-dasharray="3"/></g><g transform="translate(-6,-6) scale(1,1)"><path fill="#FFFFFF" stroke="none" d="M 460.53536487152564 157.51433220120083 L 446 141 L 444.6006587814401 162.95545135391296"/></g><g transform="translate(-6,-6) scale(1,1)"><path fill="none" stroke="#000000" d="M 460.53536487152564 157.51433220120083 L 446 141 L 444.6006587814401 162.95545135391296 L 460.53536487152564 157.51433220120083" stroke-miterlimit="10"/></g><g transform="translate(-6,-6) scale(1,1)"><path fill="none" stroke="#000000" d="M 557 238 L 623 231" stroke-miterlimit="10" stroke-dasharray="3"/></g><g transform="translate(-6,-6) scale(1,1)"><path fill="none" stroke="#000000" d="M 613.3379804898892 236.25788731205205 L 623 231 L 612.4500327113772 227.8858082575106" stroke-miterlimit="10"/></g><g transform="translate(-6,-6) scale(1,1)"><path fill="none" stroke="#000000" d="M 557 258 L 615 268" stroke-miterlimit="10" stroke-dasharray="3"/></g><g transform="translate(-6,-6) scale(1,1)"><path fill="none" stroke="#000000" d="M 604.2698630766247 270.4216031065427 L 615 268 L 605.7003154404424 262.1249793963999" stroke-miterlimit="10"/></g><g transform="translate(-6,-6) scale(1,1)"><path fill="none" stroke="#000000" d="M 478 269 L 466 327" stroke-miterlimit="10" stroke-dasharray="3"/></g><g transform="translate(-6,-6) scale(1,1)"><path fill="none" stroke="#000000" d="M 463.9368007544711 316.195222867951 L 466 327 L 472.18122900182874 317.9009666432664" stroke-miterlimit="10"/></g><g transform="translate(-6,-6) scale(1,1)"><rect fill="#C0C0C0" stroke="none" x="593" y="343" width="99.22802734375" height="44" opacity="0.2"/></g><g transform="translate(-6,-6) scale(1,1)"><rect fill="#ffffff" stroke="none" x="586" y="336" width="99.22802734375" height="44"/></g><g transform="translate(-6,-6) scale(1,1)"><path fill="none" stroke="#000000" d="M 586 336 L 685.22802734375 336 L 685.22802734375 380 L 586 380 L 586 336 Z Z" stroke-miterlimit="10"/></g><g transform="translate(-6,-6) scale(1,1)"><rect fill="#ffffff" stroke="none" x="576" y="343" width="20" height="10"/></g><g transform="translate(-6,-6) scale(1,1)"><path fill="none" stroke="#000000" d="M 576 343 L 596 343 L 596 353 L 576 353 L 576 343 Z Z" stroke-miterlimit="10"/></g><g transform="translate(-6,-6) scale(1,1)"><rect fill="#ffffff" stroke="none" x="576" y="363" width="20" height="10"/></g><g transform="translate(-6,-6) scale(1,1)"><path fill="none" stroke="#000000" d="M 576 363 L 596 363 L 596 373 L 576 373 L 576 363 Z Z" stroke-miterlimit="10"/></g><g transform="translate(-6,-6) scale(1,1)"><g><path fill="none" stroke="none"/><text fill="#000000" stroke="none" font-family="Arial" font-size="13px" font-style="normal" font-weight="bold" text-decoration="none" x="602.67724609375" y="355.5">canvasjs  2.0</text></g></g><g transform="translate(-6,-6) scale(1,1)"><path fill="none" stroke="#000000" d="M 512 269 L 600 335" stroke-miterlimit="10" stroke-dasharray="3"/></g><g transform="translate(-6,-6) scale(1,1)"><path fill="none" stroke="#000000" d="M 589.3441494602911 332.2700092902383 L 600 335 L 594.3955707675103 325.53478088061274" stroke-miterlimit="10"/></g></g></svg>