<svg version="1.1" xmlns="http://www.w3.org/2000/svg" xmlns:xlink="http://www.w3.org/1999/xlink" width="937.2744140625" height="392"><defs/><g><g transform="translate(-6,-6) scale(1,1)"><rect fill="#C0C0C0" stroke="none" x="401" y="103" width="98.44091796875" height="44" opacity="0.2"/></g><g transform="translate(-6,-6) scale(1,1)"><rect fill="#a3ffd1" stroke="none" x="394" y="96" width="98.44091796875" height="44"/></g><g transform="translate(-6,-6) scale(1,1)"><path fill="none" stroke="#000000" d="M 394 96 L 492.44091796875 96 L 492.44091796875 140 L 394 140 L 394 96 Z Z" stroke-miterlimit="10"/></g><g transform="translate(-6,-6) scale(1,1)"><rect fill="#a3ffd1" stroke="none" x="384" y="103" width="20" height="10"/></g><g transform="translate(-6,-6) scale(1,1)"><path fill="none" stroke="#000000" d="M 384 103 L 404 103 L 404 113 L 384 113 L 384 103 Z Z" stroke-miterlimit="10"/></g><g transform="translate(-6,-6) scale(1,1)"><rect fill="#a3ffd1" stroke="none" x="384" y="123" width="20" height="10"/></g><g transform="translate(-6,-6) scale(1,1)"><path fill="none" stroke="#000000" d="M 384 123 L 404 123 L 404 133 L 384 133 L 384 123 Z Z" stroke-miterlimit="10"/></g><g transform="translate(-6,-6) scale(1,1)"><g><path fill="none" stroke="none"/><text fill="#000000" stroke="none" font-family="Arial" font-size="13px" font-style="normal" font-weight="normal" text-decoration="none" x="428.345947265625" y="113.5">«pom»</text></g></g><g transform="translate(-6,-6) scale(1,1)"><g><path fill="none" stroke="none"/><text fill="#000000" stroke="none" font-family="Arial" font-size="13px" font-style="normal" font-weight="bold" text-decoration="none" x="417.865966796875" y="128.5">eight-bank</text></g></g><g transform="translate(-6,-6) scale(1,1)"><rect fill="#C0C0C0" stroke="none" x="161" y="103" width="178.6689453125" height="44" opacity="0.2"/></g><g transform="translate(-6,-6) scale(1,1)"><rect fill="#a3ffd1" stroke="none" x="154" y="96" width="178.6689453125" height="44"/></g><g transform="translate(-6,-6) scale(1,1)"><path fill="none" stroke="#000000" d="M 154 96 L 332.6689453125 96 L 332.6689453125 140 L 154 140 L 154 96 Z Z" stroke-miterlimit="10"/></g><g transform="translate(-6,-6) scale(1,1)"><rect fill="#a3ffd1" stroke="none" x="144" y="103" width="20" height="10"/></g><g transform="translate(-6,-6) scale(1,1)"><path fill="none" stroke="#000000" d="M 144 103 L 164 103 L 164 113 L 144 113 L 144 103 Z Z" stroke-miterlimit="10"/></g><g transform="translate(-6,-6) scale(1,1)"><rect fill="#a3ffd1" stroke="none" x="144" y="123" width="20" height="10"/></g><g transform="translate(-6,-6) scale(1,1)"><path fill="none" stroke="#000000" d="M 144 123 L 164 123 L 164 133 L 144 133 L 144 123 Z Z" stroke-miterlimit="10"/></g><g transform="translate(-6,-6) scale(1,1)"><g><path fill="none" stroke="none"/><text fill="#000000" stroke="none" font-family="Arial" font-size="13px" font-style="normal" font-weight="normal" text-decoration="none" x="233.880859375" y="113.5">«jar»</text></g></g><g transform="translate(-6,-6) scale(1,1)"><g><path fill="none" stroke="none"/><text fill="#000000" stroke="none" font-family="Arial" font-size="13px" font-style="normal" font-weight="bold" text-decoration="none" x="173.9208984375" y="128.5">stock-market-api-gateway</text></g></g><g transform="translate(-6,-6) scale(1,1)"><rect fill="#C0C0C0" stroke="none" x="49" y="231" width="115.07177734375" height="44" opacity="0.2"/></g><g transform="translate(-6,-6) scale(1,1)"><rect fill="#ffadad" stroke="none" x="42" y="224" width="115.07177734375" height="44"/></g><g transform="translate(-6,-6) scale(1,1)"><path fill="none" stroke="#000000" d="M 42 224 L 157.07177734375 224 L 157.07177734375 268 L 42 268 L 42 224 Z Z" stroke-miterlimit="10"/></g><g transform="translate(-6,-6) scale(1,1)"><rect fill="#ffadad" stroke="none" x="32" y="231" width="20" height="10"/></g><g transform="translate(-6,-6) scale(1,1)"><path fill="none" stroke="#000000" d="M 32 231 L 52 231 L 52 241 L 32 241 L 32 231 Z Z" stroke-miterlimit="10"/></g><g transform="translate(-6,-6) scale(1,1)"><rect fill="#ffadad" stroke="none" x="32" y="251" width="20" height="10"/></g><g transform="translate(-6,-6) scale(1,1)"><path fill="none" stroke="#000000" d="M 32 251 L 52 251 L 52 261 L 32 261 L 32 251 Z Z" stroke-miterlimit="10"/></g><g transform="translate(-6,-6) scale(1,1)"><g><path fill="none" stroke="none"/><text fill="#000000" stroke="none" font-family="Arial" font-size="13px" font-style="normal" font-weight="normal" text-decoration="none" x="90.082275390625" y="241.5">«jar»</text></g></g><g transform="translate(-6,-6) scale(1,1)"><g><path fill="none" stroke="none"/><text fill="#000000" stroke="none" font-family="Arial" font-size="13px" font-style="normal" font-weight="bold" text-decoration="none" x="60.108642578125" y="256.5">market-flow-api</text></g></g><g transform="translate(-6,-6) scale(1,1)"><path fill="none" stroke="#000000" d="M 334 118 L 383 118" stroke-miterlimit="10" stroke-dasharray="3"/></g><g transform="translate(-6,-6) scale(1,1)"><path fill="#FFFFFF" stroke="none" d="M 362.6746502847517 126.41903551203198 L 383 118 L 362.6746502847517 109.58096448796803"/></g><g transform="translate(-6,-6) scale(1,1)"><path fill="none" stroke="#000000" d="M 362.6746502847517 126.41903551203198 L 383 118 L 362.6746502847517 109.58096448796803 L 362.6746502847517 126.41903551203198" stroke-miterlimit="10"/></g><g transform="translate(-6,-6) scale(1,1)"><rect fill="#C0C0C0" stroke="none" x="393" y="31" width="278.314453125" height="44" opacity="0.2"/></g><g transform="translate(-6,-6) scale(1,1)"><rect fill="#ffffff" stroke="none" x="386" y="24" width="278.314453125" height="44"/></g><g transform="translate(-6,-6) scale(1,1)"><path fill="none" stroke="#000000" d="M 386 24 L 664.314453125 24 L 664.314453125 68 L 386 68 L 386 24 Z Z" stroke-miterlimit="10"/></g><g transform="translate(-6,-6) scale(1,1)"><rect fill="#ffffff" stroke="none" x="376" y="31" width="20" height="10"/></g><g transform="translate(-6,-6) scale(1,1)"><path fill="none" stroke="#000000" d="M 376 31 L 396 31 L 396 41 L 376 41 L 376 31 Z Z" stroke-miterlimit="10"/></g><g transform="translate(-6,-6) scale(1,1)"><rect fill="#ffffff" stroke="none" x="376" y="51" width="20" height="10"/></g><g transform="translate(-6,-6) scale(1,1)"><path fill="none" stroke="#000000" d="M 376 51 L 396 51 L 396 61 L 376 61 L 376 51 Z Z" stroke-miterlimit="10"/></g><g transform="translate(-6,-6) scale(1,1)"><g><path fill="none" stroke="none"/><text fill="#000000" stroke="none" font-family="Arial" font-size="13px" font-style="normal" font-weight="normal" text-decoration="none" x="515.70361328125" y="41.5">«jar»</text></g></g><g transform="translate(-6,-6) scale(1,1)"><g><path fill="none" stroke="none"/><text fill="#000000" stroke="none" font-family="Arial" font-size="13px" font-style="normal" font-weight="bold" text-decoration="none" x="408.044189453125" y="56.5">spring-boot-starter-parent 1.5.8-RELEASE</text></g></g><g transform="translate(-6,-6) scale(1,1)"><path fill="none" stroke="#000000" d="M 464 95 L 494 69" stroke-miterlimit="10" stroke-dasharray="3"/></g><g transform="translate(-6,-6) scale(1,1)"><path fill="#FFFFFF" stroke="none" d="M 484.15423857715575 88.67386545660085 L 494 69 L 473.1264716554477 75.94951900847616"/></g><g transform="translate(-6,-6) scale(1,1)"><path fill="none" stroke="#000000" d="M 484.15423857715575 88.67386545660085 L 494 69 L 473.1264716554477 75.94951900847616 L 484.15423857715575 88.67386545660085" stroke-miterlimit="10"/></g><g transform="translate(-6,-6) scale(1,1)"><rect fill="#C0C0C0" stroke="none" x="561" y="151" width="263.8671875" height="44" opacity="0.2"/></g><g transform="translate(-6,-6) scale(1,1)"><rect fill="#ffffff" stroke="none" x="554" y="144" width="263.8671875" height="44"/></g><g transform="translate(-6,-6) scale(1,1)"><path fill="none" stroke="#000000" d="M 554 144 L 817.8671875 144 L 817.8671875 188 L 554 188 L 554 144 Z Z" stroke-miterlimit="10"/></g><g transform="translate(-6,-6) scale(1,1)"><rect fill="#ffffff" stroke="none" x="544" y="151" width="20" height="10"/></g><g transform="translate(-6,-6) scale(1,1)"><path fill="none" stroke="#000000" d="M 544 151 L 564 151 L 564 161 L 544 161 L 544 151 Z Z" stroke-miterlimit="10"/></g><g transform="translate(-6,-6) scale(1,1)"><rect fill="#ffffff" stroke="none" x="544" y="171" width="20" height="10"/></g><g transform="translate(-6,-6) scale(1,1)"><path fill="none" stroke="#000000" d="M 544 171 L 564 171 L 564 181 L 544 181 L 544 171 Z Z" stroke-miterlimit="10"/></g><g transform="translate(-6,-6) scale(1,1)"><g><path fill="none" stroke="none"/><text fill="#000000" stroke="none" font-family="Arial" font-size="13px" font-style="normal" font-weight="normal" text-decoration="none" x="676.47998046875" y="161.5">«jar»</text></g></g><g transform="translate(-6,-6) scale(1,1)"><g><path fill="none" stroke="none"/><text fill="#000000" stroke="none" font-family="Arial" font-size="13px" font-style="normal" font-weight="bold" text-decoration="none" x="575.326904296875" y="176.5">spring-boot-starter-web 1.5.8-RELEASE</text></g></g><g transform="translate(-6,-6) scale(1,1)"><path fill="none" stroke="#000000" d="M 493 129 L 564 143" stroke-miterlimit="10" stroke-dasharray="3"/></g><g transform="translate(-6,-6) scale(1,1)"><path fill="none" stroke="#000000" d="M 553.2149477866468 145.16394287245402 L 564 143 L 554.8436777652744 136.90395512369946" stroke-miterlimit="10"/></g><g transform="translate(-6,-6) scale(1,1)"><rect fill="#C0C0C0" stroke="none" x="633" y="87" width="113.64990234375" height="44" opacity="0.2"/></g><g transform="translate(-6,-6) scale(1,1)"><rect fill="#ffffff" stroke="none" x="626" y="80" width="113.64990234375" height="44"/></g><g transform="translate(-6,-6) scale(1,1)"><path fill="none" stroke="#000000" d="M 626 80 L 739.64990234375 80 L 739.64990234375 124 L 626 124 L 626 80 Z Z" stroke-miterlimit="10"/></g><g transform="translate(-6,-6) scale(1,1)"><rect fill="#ffffff" stroke="none" x="616" y="87" width="20" height="10"/></g><g transform="translate(-6,-6) scale(1,1)"><path fill="none" stroke="#000000" d="M 616 87 L 636 87 L 636 97 L 616 97 L 616 87 Z Z" stroke-miterlimit="10"/></g><g transform="translate(-6,-6) scale(1,1)"><rect fill="#ffffff" stroke="none" x="616" y="107" width="20" height="10"/></g><g transform="translate(-6,-6) scale(1,1)"><path fill="none" stroke="#000000" d="M 616 107 L 636 107 L 636 117 L 616 117 L 616 107 Z Z" stroke-miterlimit="10"/></g><g transform="translate(-6,-6) scale(1,1)"><g><path fill="none" stroke="none"/><text fill="#000000" stroke="none" font-family="Arial" font-size="13px" font-style="normal" font-weight="normal" text-decoration="none" x="673.371337890625" y="97.5">«jar»</text></g></g><g transform="translate(-6,-6) scale(1,1)"><g><path fill="none" stroke="none"/><text fill="#000000" stroke="none" font-family="Arial" font-size="13px" font-style="normal" font-weight="bold" text-decoration="none" x="643.02001953125" y="112.5">log4j-core 2.9.1</text></g></g><g transform="translate(-6,-6) scale(1,1)"><path fill="none" stroke="#000000" d="M 493 114 L 615 106" stroke-miterlimit="10" stroke-dasharray="3"/></g><g transform="translate(-6,-6) scale(1,1)"><path fill="none" stroke="#000000" d="M 605.1345466687737 110.86547331401543 L 615 106 L 604.583661875988 102.46448022403298" stroke-miterlimit="10"/></g><g transform="translate(-6,-6) scale(1,1)"><path fill="#C0C0C0" stroke="none" d="M 198.7099609375 202.5 C 198.7099609375 196.1487248 203.8586857375 191 210.2099609375 191 C 216.5612361375 191 221.7099609375 196.1487248 221.7099609375 202.5 C 221.7099609375 208.8512752 216.5612361375 214 210.2099609375 214 C 203.8586857375 214 198.7099609375 208.8512752 198.7099609375 202.5 Z" opacity="0.2"/></g><g transform="translate(-6,-6) scale(1,1)"><path fill="none" stroke="#000000" d="M 194.16545528463018 187.63787940385848 A 11.5 11.5 0 0 1 211.83454471536982 202.36212059614152" stroke-miterlimit="10"/></g><g transform="translate(-6,-6) scale(1,1)"><path fill="#ffffff" stroke="none" d="M 194.7099609375 195.5 C 194.7099609375 190.8055792 198.5155401375 187 203.2099609375 187 C 207.9043817375 187 211.7099609375 190.8055792 211.7099609375 195.5 C 211.7099609375 200.1944208 207.9043817375 204 203.2099609375 204 C 198.5155401375 204 194.7099609375 200.1944208 194.7099609375 195.5 Z"/></g><g transform="translate(-6,-6) scale(1,1)"><path fill="none" stroke="#000000" d="M 194.7099609375 195.5 C 194.7099609375 190.8055792 198.5155401375 187 203.2099609375 187 C 207.9043817375 187 211.7099609375 190.8055792 211.7099609375 195.5 C 211.7099609375 200.1944208 207.9043817375 204 203.2099609375 204 C 198.5155401375 204 194.7099609375 200.1944208 194.7099609375 195.5 Z" stroke-miterlimit="10"/></g><g transform="translate(-6,-6) scale(1,1)"><g><path fill="none" stroke="none"/><text fill="#000000" stroke="none" font-family="Arial" font-size="13px" font-style="normal" font-weight="bold" text-decoration="none" x="203.2099609375" y="226.5"></text></g></g><g transform="translate(-6,-6) scale(1,1)"><path fill="none" stroke="#000000" d="M 158 224 L 191.7099609375 203.15391710069446" stroke-miterlimit="10"/></g><g transform="translate(-6,-6) scale(1,1)"><path fill="none" stroke="#000000" d="M 229 141 L 212.16666666666666 184" stroke-miterlimit="10"/></g><g transform="translate(-6,-6) scale(1,1)"><rect fill="#C0C0C0" stroke="none" x="337" y="183" width="98.44091796875" height="44" opacity="0.2"/></g><g transform="translate(-6,-6) scale(1,1)"><rect fill="#a3ffd1" stroke="none" x="330" y="176" width="98.44091796875" height="44"/></g><g transform="translate(-6,-6) scale(1,1)"><path fill="none" stroke="#000000" d="M 330 176 L 428.44091796875 176 L 428.44091796875 220 L 330 220 L 330 176 Z Z" stroke-miterlimit="10"/></g><g transform="translate(-6,-6) scale(1,1)"><rect fill="#a3ffd1" stroke="none" x="320" y="183" width="20" height="10"/></g><g transform="translate(-6,-6) scale(1,1)"><path fill="none" stroke="#000000" d="M 320 183 L 340 183 L 340 193 L 320 193 L 320 183 Z Z" stroke-miterlimit="10"/></g><g transform="translate(-6,-6) scale(1,1)"><rect fill="#a3ffd1" stroke="none" x="320" y="203" width="20" height="10"/></g><g transform="translate(-6,-6) scale(1,1)"><path fill="none" stroke="#000000" d="M 320 203 L 340 203 L 340 213 L 320 213 L 320 203 Z Z" stroke-miterlimit="10"/></g><g transform="translate(-6,-6) scale(1,1)"><g><path fill="none" stroke="none"/><text fill="#000000" stroke="none" font-family="Arial" font-size="13px" font-style="normal" font-weight="normal" text-decoration="none" x="369.766845703125" y="193.5">«jar»</text></g></g><g transform="translate(-6,-6) scale(1,1)"><g><path fill="none" stroke="none"/><text fill="#000000" stroke="none" font-family="Arial" font-size="13px" font-style="normal" font-weight="bold" text-decoration="none" x="357.48095703125" y="208.5">back-end</text></g></g><g transform="translate(-6,-6) scale(1,1)"><path fill="none" stroke="#000000" d="M 392 175 L 420 141" stroke-miterlimit="10" stroke-dasharray="3"/></g><g transform="translate(-6,-6) scale(1,1)"><path fill="#FFFFFF" stroke="none" d="M 413.5779358355495 162.04179393178444 L 420 141 L 400.5801197026072 151.33771005759667"/></g><g transform="translate(-6,-6) scale(1,1)"><path fill="none" stroke="#000000" d="M 413.5779358355495 162.04179393178444 L 420 141 L 400.5801197026072 151.33771005759667 L 413.5779358355495 162.04179393178444" stroke-miterlimit="10"/></g><g transform="translate(-6,-6) scale(1,1)"><path fill="#C0C0C0" stroke="none" d="M 278.7099609375 170.5 C 278.7099609375 164.1487248 283.8586857375 159 290.2099609375 159 C 296.5612361375 159 301.7099609375 164.1487248 301.7099609375 170.5 C 301.7099609375 176.8512752 296.5612361375 182 290.2099609375 182 C 283.8586857375 182 278.7099609375 176.8512752 278.7099609375 170.5 Z" opacity="0.2"/></g><g transform="translate(-6,-6) scale(1,1)"><path fill="none" stroke="#000000" d="M 294.5 163 A 11.5 11.5 0 0 1 271.5 163" stroke-miterlimit="10"/></g><g transform="translate(-6,-6) scale(1,1)"><path fill="#ffffff" stroke="none" d="M 274.7099609375 163.5 C 274.7099609375 158.8055792 278.5155401375 155 283.2099609375 155 C 287.9043817375 155 291.7099609375 158.8055792 291.7099609375 163.5 C 291.7099609375 168.1944208 287.9043817375 172 283.2099609375 172 C 278.5155401375 172 274.7099609375 168.1944208 274.7099609375 163.5 Z"/></g><g transform="translate(-6,-6) scale(1,1)"><path fill="none" stroke="#000000" d="M 274.7099609375 163.5 C 274.7099609375 158.8055792 278.5155401375 155 283.2099609375 155 C 287.9043817375 155 291.7099609375 158.8055792 291.7099609375 163.5 C 291.7099609375 168.1944208 287.9043817375 172 283.2099609375 172 C 278.5155401375 172 274.7099609375 168.1944208 274.7099609375 163.5 Z" stroke-miterlimit="10"/></g><g transform="translate(-6,-6) scale(1,1)"><g><path fill="none" stroke="none"/><text fill="#000000" stroke="none" font-family="Arial" font-size="13px" font-style="normal" font-weight="bold" text-decoration="none" x="283.2099609375" y="194.5"></text></g></g><g transform="translate(-6,-6) scale(1,1)"><path fill="none" stroke="#000000" d="M 256 141 L 271.7099609375 155.8694490131579" stroke-miterlimit="10"/></g><g transform="translate(-6,-6) scale(1,1)"><path fill="none" stroke="#000000" d="M 319 185 L 283 175" stroke-miterlimit="10"/></g><g transform="translate(-6,-6) scale(1,1)"><rect fill="#C0C0C0" stroke="none" x="497" y="223" width="98.44091796875" height="44" opacity="0.2"/></g><g transform="translate(-6,-6) scale(1,1)"><rect fill="#a3ffd1" stroke="none" x="490" y="216" width="98.44091796875" height="44"/></g><g transform="translate(-6,-6) scale(1,1)"><path fill="none" stroke="#000000" d="M 490 216 L 588.44091796875 216 L 588.44091796875 260 L 490 260 L 490 216 Z Z" stroke-miterlimit="10"/></g><g transform="translate(-6,-6) scale(1,1)"><rect fill="#a3ffd1" stroke="none" x="480" y="223" width="20" height="10"/></g><g transform="translate(-6,-6) scale(1,1)"><path fill="none" stroke="#000000" d="M 480 223 L 500 223 L 500 233 L 480 233 L 480 223 Z Z" stroke-miterlimit="10"/></g><g transform="translate(-6,-6) scale(1,1)"><rect fill="#a3ffd1" stroke="none" x="480" y="243" width="20" height="10"/></g><g transform="translate(-6,-6) scale(1,1)"><path fill="none" stroke="#000000" d="M 480 243 L 500 243 L 500 253 L 480 253 L 480 243 Z Z" stroke-miterlimit="10"/></g><g transform="translate(-6,-6) scale(1,1)"><g><path fill="none" stroke="none"/><text fill="#000000" stroke="none" font-family="Arial" font-size="13px" font-style="normal" font-weight="normal" text-decoration="none" x="529.766845703125" y="233.5">«jar»</text></g></g><g transform="translate(-6,-6) scale(1,1)"><g><path fill="none" stroke="none"/><text fill="#000000" stroke="none" font-family="Arial" font-size="13px" font-style="normal" font-weight="bold" text-decoration="none" x="517.12548828125" y="248.5">front-web</text></g></g><g transform="translate(-6,-6) scale(1,1)"><path fill="none" stroke="#000000" d="M 516 215 L 456 141" stroke-miterlimit="10" stroke-dasharray="3"/></g><g transform="translate(-6,-6) scale(1,1)"><path fill="#FFFFFF" stroke="none" d="M 475.340479288904 151.4855071825579 L 456 141 L 462.26141082361505 162.09015728954898"/></g><g transform="translate(-6,-6) scale(1,1)"><path fill="none" stroke="#000000" d="M 475.340479288904 151.4855071825579 L 456 141 L 462.26141082361505 162.09015728954898 L 475.340479288904 151.4855071825579" stroke-miterlimit="10"/></g><g transform="translate(-6,-6) scale(1,1)"><path fill="#C0C0C0" stroke="none" d="M 438.7099609375 242.5 C 438.7099609375 236.1487248 443.8586857375 231 450.2099609375 231 C 456.5612361375 231 461.7099609375 236.1487248 461.7099609375 242.5 C 461.7099609375 248.8512752 456.5612361375 254 450.2099609375 254 C 443.8586857375 254 438.7099609375 248.8512752 438.7099609375 242.5 Z" opacity="0.2"/></g><g transform="translate(-6,-6) scale(1,1)"><path fill="none" stroke="#000000" d="M 443 223.5 A 11.5 11.5 0 0 1 443 246.5" stroke-miterlimit="10"/></g><g transform="translate(-6,-6) scale(1,1)"><path fill="#ffffff" stroke="none" d="M 434.7099609375 235.5 C 434.7099609375 230.8055792 438.5155401375 227 443.2099609375 227 C 447.9043817375 227 451.7099609375 230.8055792 451.7099609375 235.5 C 451.7099609375 240.1944208 447.9043817375 244 443.2099609375 244 C 438.5155401375 244 434.7099609375 240.1944208 434.7099609375 235.5 Z"/></g><g transform="translate(-6,-6) scale(1,1)"><path fill="none" stroke="#000000" d="M 434.7099609375 235.5 C 434.7099609375 230.8055792 438.5155401375 227 443.2099609375 227 C 447.9043817375 227 451.7099609375 230.8055792 451.7099609375 235.5 C 451.7099609375 240.1944208 447.9043817375 244 443.2099609375 244 C 438.5155401375 244 434.7099609375 240.1944208 434.7099609375 235.5 Z" stroke-miterlimit="10"/></g><g transform="translate(-6,-6) scale(1,1)"><g><path fill="none" stroke="none"/><text fill="#000000" stroke="none" font-family="Arial" font-size="13px" font-style="normal" font-weight="bold" text-decoration="none" x="443.2099609375" y="266.5"></text></g></g><g transform="translate(-6,-6) scale(1,1)"><path fill="none" stroke="#000000" d="M 406 221 L 431.7099609375 231.01528033088235" stroke-miterlimit="10"/></g><g transform="translate(-6,-6) scale(1,1)"><path fill="none" stroke="#000000" d="M 480 235 L 454.7099609375 235" stroke-miterlimit="10"/></g><g transform="translate(-6,-6) scale(1,1)"><rect fill="#C0C0C0" stroke="none" x="641" y="263" width="299.2744140625" height="44" opacity="0.2"/></g><g transform="translate(-6,-6) scale(1,1)"><rect fill="#ffffff" stroke="none" x="634" y="256" width="299.2744140625" height="44"/></g><g transform="translate(-6,-6) scale(1,1)"><path fill="none" stroke="#000000" d="M 634 256 L 933.2744140625 256 L 933.2744140625 300 L 634 300 L 634 256 Z Z" stroke-miterlimit="10"/></g><g transform="translate(-6,-6) scale(1,1)"><rect fill="#ffffff" stroke="none" x="624" y="263" width="20" height="10"/></g><g transform="translate(-6,-6) scale(1,1)"><path fill="none" stroke="#000000" d="M 624 263 L 644 263 L 644 273 L 624 273 L 624 263 Z Z" stroke-miterlimit="10"/></g><g transform="translate(-6,-6) scale(1,1)"><rect fill="#ffffff" stroke="none" x="624" y="283" width="20" height="10"/></g><g transform="translate(-6,-6) scale(1,1)"><path fill="none" stroke="#000000" d="M 624 283 L 644 283 L 644 293 L 624 293 L 624 283 Z Z" stroke-miterlimit="10"/></g><g transform="translate(-6,-6) scale(1,1)"><g><path fill="none" stroke="none"/><text fill="#000000" stroke="none" font-family="Arial" font-size="13px" font-style="normal" font-weight="normal" text-decoration="none" x="774.18359375" y="273.5">«jar»</text></g></g><g transform="translate(-6,-6) scale(1,1)"><g><path fill="none" stroke="none"/><text fill="#000000" stroke="none" font-family="Arial" font-size="13px" font-style="normal" font-weight="bold" text-decoration="none" x="656.774169921875" y="288.5">spring-boot-starter-thymeleaf 1.2.8-RELEASE</text></g></g><g transform="translate(-6,-6) scale(1,1)"><path fill="none" stroke="#000000" d="M 589 247 L 638 255" stroke-miterlimit="10" stroke-dasharray="3"/></g><g transform="translate(-6,-6) scale(1,1)"><path fill="none" stroke="#000000" d="M 627.2918344368892 257.5169803878871 L 638 255 L 628.6484096158675 249.20795741664463" stroke-miterlimit="10"/></g><g transform="translate(-6,-6) scale(1,1)"><rect fill="#C0C0C0" stroke="none" x="569" y="351" width="111.46630859375" height="44" opacity="0.2"/></g><g transform="translate(-6,-6) scale(1,1)"><rect fill="#ffffff" stroke="none" x="562" y="344" width="111.46630859375" height="44"/></g><g transform="translate(-6,-6) scale(1,1)"><path fill="none" stroke="#000000" d="M 562 344 L 673.46630859375 344 L 673.46630859375 388 L 562 388 L 562 344 Z Z" stroke-miterlimit="10"/></g><g transform="translate(-6,-6) scale(1,1)"><rect fill="#ffffff" stroke="none" x="552" y="351" width="20" height="10"/></g><g transform="translate(-6,-6) scale(1,1)"><path fill="none" stroke="#000000" d="M 552 351 L 572 351 L 572 361 L 552 361 L 552 351 Z Z" stroke-miterlimit="10"/></g><g transform="translate(-6,-6) scale(1,1)"><rect fill="#ffffff" stroke="none" x="552" y="371" width="20" height="10"/></g><g transform="translate(-6,-6) scale(1,1)"><path fill="none" stroke="#000000" d="M 552 371 L 572 371 L 572 381 L 552 381 L 552 371 Z Z" stroke-miterlimit="10"/></g><g transform="translate(-6,-6) scale(1,1)"><g><path fill="none" stroke="none"/><text fill="#000000" stroke="none" font-family="Arial" font-size="13px" font-style="normal" font-weight="normal" text-decoration="none" x="608.279541015625" y="361.5">«jar»</text></g></g><g transform="translate(-6,-6) scale(1,1)"><g><path fill="none" stroke="none"/><text fill="#000000" stroke="none" font-family="Arial" font-size="13px" font-style="normal" font-weight="bold" text-decoration="none" x="579.369140625" y="376.5">bootstrap 3.3.5</text></g></g><g transform="translate(-6,-6) scale(1,1)"><path fill="none" stroke="#000000" d="M 548 261 L 598 343" stroke-miterlimit="10" stroke-dasharray="3"/></g><g transform="translate(-6,-6) scale(1,1)"><path fill="none" stroke="#000000" d="M 589.1151658567096 336.51465326707813 L 598 343 L 596.3033061807566 332.1316408743665" stroke-miterlimit="10"/></g><g transform="translate(-6,-6) scale(1,1)"><rect fill="#C0C0C0" stroke="none" x="441" y="311" width="98.44091796875" height="44" opacity="0.2"/></g><g transform="translate(-6,-6) scale(1,1)"><rect fill="#ffffff" stroke="none" x="434" y="304" width="98.44091796875" height="44"/></g><g transform="translate(-6,-6) scale(1,1)"><path fill="none" stroke="#000000" d="M 434 304 L 532.44091796875 304 L 532.44091796875 348 L 434 348 L 434 304 Z Z" stroke-miterlimit="10"/></g><g transform="translate(-6,-6) scale(1,1)"><rect fill="#ffffff" stroke="none" x="424" y="311" width="20" height="10"/></g><g transform="translate(-6,-6) scale(1,1)"><path fill="none" stroke="#000000" d="M 424 311 L 444 311 L 444 321 L 424 321 L 424 311 Z Z" stroke-miterlimit="10"/></g><g transform="translate(-6,-6) scale(1,1)"><rect fill="#ffffff" stroke="none" x="424" y="331" width="20" height="10"/></g><g transform="translate(-6,-6) scale(1,1)"><path fill="none" stroke="#000000" d="M 424 331 L 444 331 L 444 341 L 424 341 L 424 331 Z Z" stroke-miterlimit="10"/></g><g transform="translate(-6,-6) scale(1,1)"><g><path fill="none" stroke="none"/><text fill="#000000" stroke="none" font-family="Arial" font-size="13px" font-style="normal" font-weight="normal" text-decoration="none" x="473.766845703125" y="321.5">«jar»</text></g></g><g transform="translate(-6,-6) scale(1,1)"><g><path fill="none" stroke="none"/><text fill="#000000" stroke="none" font-family="Arial" font-size="13px" font-style="normal" font-weight="bold" text-decoration="none" x="454.254150390625" y="336.5">jquery 2.1.4</text></g></g><g transform="translate(-6,-6) scale(1,1)"><path fill="none" stroke="#000000" d="M 519 261 L 493 303" stroke-miterlimit="10" stroke-dasharray="3"/></g><g transform="translate(-6,-6) scale(1,1)"><path fill="none" stroke="#000000" d="M 494.76996457585136 292.1433326752529 L 493 303 L 501.92837704045957 296.5747308676294" stroke-miterlimit="10"/></g><g transform="translate(-6,-6) scale(1,1)"><rect fill="#C0C0C0" stroke="none" x="201" y="231" width="127.341796875" height="44" opacity="0.2"/></g><g transform="translate(-6,-6) scale(1,1)"><rect fill="#ffadad" stroke="none" x="194" y="224" width="127.341796875" height="44"/></g><g transform="translate(-6,-6) scale(1,1)"><path fill="none" stroke="#000000" d="M 194 224 L 321.341796875 224 L 321.341796875 268 L 194 268 L 194 224 Z Z" stroke-miterlimit="10"/></g><g transform="translate(-6,-6) scale(1,1)"><rect fill="#ffadad" stroke="none" x="184" y="231" width="20" height="10"/></g><g transform="translate(-6,-6) scale(1,1)"><path fill="none" stroke="#000000" d="M 184 231 L 204 231 L 204 241 L 184 241 L 184 231 Z Z" stroke-miterlimit="10"/></g><g transform="translate(-6,-6) scale(1,1)"><rect fill="#ffadad" stroke="none" x="184" y="251" width="20" height="10"/></g><g transform="translate(-6,-6) scale(1,1)"><path fill="none" stroke="#000000" d="M 184 251 L 204 251 L 204 261 L 184 261 L 184 251 Z Z" stroke-miterlimit="10"/></g><g transform="translate(-6,-6) scale(1,1)"><g><path fill="none" stroke="none"/><text fill="#000000" stroke="none" font-family="Arial" font-size="13px" font-style="normal" font-weight="normal" text-decoration="none" x="248.21728515625" y="241.5">«jar»</text></g></g><g transform="translate(-6,-6) scale(1,1)"><g><path fill="none" stroke="none"/><text fill="#000000" stroke="none" font-family="Arial" font-size="13px" font-style="normal" font-weight="bold" text-decoration="none" x="212.464111328125" y="256.5">market-flow-api-b</text></g></g><g transform="translate(-6,-6) scale(1,1)"><path fill="none" stroke="#000000" d="M 239 141 L 241.16666666666666 176" stroke-miterlimit="10"/></g><g transform="translate(-6,-6) scale(1,1)"><path fill="#C0C0C0" stroke="none" d="M 238.7099609375 194.5 C 238.7099609375 188.1487248 243.8586857375 183 250.2099609375 183 C 256.5612361375 183 261.7099609375 188.1487248 261.7099609375 194.5 C 261.7099609375 200.8512752 256.5612361375 206 250.2099609375 206 C 243.8586857375 206 238.7099609375 200.8512752 238.7099609375 194.5 Z" opacity="0.2"/></g><g transform="translate(-6,-6) scale(1,1)"><path fill="none" stroke="#000000" d="M 231.65646987593036 188.8905883540116 A 11.5 11.5 0 0 1 254.34353012406964 185.1094116459884" stroke-miterlimit="10"/></g><g transform="translate(-6,-6) scale(1,1)"><path fill="#ffffff" stroke="none" d="M 234.7099609375 187.5 C 234.7099609375 182.8055792 238.5155401375 179 243.2099609375 179 C 247.9043817375 179 251.7099609375 182.8055792 251.7099609375 187.5 C 251.7099609375 192.1944208 247.9043817375 196 243.2099609375 196 C 238.5155401375 196 234.7099609375 192.1944208 234.7099609375 187.5 Z"/></g><g transform="translate(-6,-6) scale(1,1)"><path fill="none" stroke="#000000" d="M 234.7099609375 187.5 C 234.7099609375 182.8055792 238.5155401375 179 243.2099609375 179 C 247.9043817375 179 251.7099609375 182.8055792 251.7099609375 187.5 C 251.7099609375 192.1944208 247.9043817375 196 243.2099609375 196 C 238.5155401375 196 234.7099609375 192.1944208 234.7099609375 187.5 Z" stroke-miterlimit="10"/></g><g transform="translate(-6,-6) scale(1,1)"><g><path fill="none" stroke="none"/><text fill="#000000" stroke="none" font-family="Arial" font-size="13px" font-style="normal" font-weight="bold" text-decoration="none" x="243.2099609375" y="218.5"></text></g></g><g transform="translate(-6,-6) scale(1,1)"><path fill="none" stroke="#000000" d="M 248 223 L 243 199" stroke-miterlimit="10"/></g><g transform="translate(-6,-6) scale(1,1)"><rect fill="#C0C0C0" stroke="none" x="33" y="23" width="270.3798828125" height="44" opacity="0.2"/></g><g transform="translate(-6,-6) scale(1,1)"><rect fill="#ffffff" stroke="none" x="26" y="16" width="270.3798828125" height="44"/></g><g transform="translate(-6,-6) scale(1,1)"><path fill="none" stroke="#000000" d="M 26 16 L 296.3798828125 16 L 296.3798828125 60 L 26 60 L 26 16 Z Z" stroke-miterlimit="10"/></g><g transform="translate(-6,-6) scale(1,1)"><rect fill="#ffffff" stroke="none" x="16" y="23" width="20" height="10"/></g><g transform="translate(-6,-6) scale(1,1)"><path fill="none" stroke="#000000" d="M 16 23 L 36 23 L 36 33 L 16 33 L 16 23 Z Z" stroke-miterlimit="10"/></g><g transform="translate(-6,-6) scale(1,1)"><rect fill="#ffffff" stroke="none" x="16" y="43" width="20" height="10"/></g><g transform="translate(-6,-6) scale(1,1)"><path fill="none" stroke="#000000" d="M 16 43 L 36 43 L 36 53 L 16 53 L 16 43 Z Z" stroke-miterlimit="10"/></g><g transform="translate(-6,-6) scale(1,1)"><g><path fill="none" stroke="none"/><text fill="#000000" stroke="none" font-family="Arial" font-size="13px" font-style="normal" font-weight="normal" text-decoration="none" x="151.736328125" y="33.5">«jar»</text></g></g><g transform="translate(-6,-6) scale(1,1)"><g><path fill="none" stroke="none"/><text fill="#000000" stroke="none" font-family="Arial" font-size="13px" font-style="normal" font-weight="bold" text-decoration="none" x="47.326904296875" y="48.5">spring-boot-starter-web 1.5.10.RELEASE</text></g></g><g transform="translate(-6,-6) scale(1,1)"><path fill="none" stroke="#000000" d="M 214 95 L 180 61" stroke-miterlimit="10" stroke-dasharray="3"/></g><g transform="translate(-6,-6) scale(1,1)"><path fill="none" stroke="#000000" d="M 190.16267485762415 65.20951775601598 L 180 61 L 184.209517756016 71.16267485762415" stroke-miterlimit="10"/></g><g transform="translate(-6,-6) scale(1,1)"><rect fill="#C0C0C0" stroke="none" x="33" y="159" width="131.72802734375" height="44" opacity="0.2"/></g><g transform="translate(-6,-6) scale(1,1)"><rect fill="#ffffff" stroke="none" x="26" y="152" width="131.72802734375" height="44"/></g><g transform="translate(-6,-6) scale(1,1)"><path fill="none" stroke="#000000" d="M 26 152 L 157.72802734375 152 L 157.72802734375 196 L 26 196 L 26 152 Z Z" stroke-miterlimit="10"/></g><g transform="translate(-6,-6) scale(1,1)"><rect fill="#ffffff" stroke="none" x="16" y="159" width="20" height="10"/></g><g transform="translate(-6,-6) scale(1,1)"><path fill="none" stroke="#000000" d="M 16 159 L 36 159 L 36 169 L 16 169 L 16 159 Z Z" stroke-miterlimit="10"/></g><g transform="translate(-6,-6) scale(1,1)"><rect fill="#ffffff" stroke="none" x="16" y="179" width="20" height="10"/></g><g transform="translate(-6,-6) scale(1,1)"><path fill="none" stroke="#000000" d="M 16 179 L 36 179 L 36 189 L 16 189 L 16 179 Z Z" stroke-miterlimit="10"/></g><g transform="translate(-6,-6) scale(1,1)"><g><path fill="none" stroke="none"/><text fill="#000000" stroke="none" font-family="Arial" font-size="13px" font-style="normal" font-weight="normal" text-decoration="none" x="82.410400390625" y="169.5">«jar»</text></g></g><g transform="translate(-6,-6) scale(1,1)"><g><path fill="none" stroke="none"/><text fill="#000000" stroke="none" font-family="Arial" font-size="13px" font-style="normal" font-weight="bold" text-decoration="none" x="43.753173828125" y="184.5">jackson-core 2.9.4</text></g></g><g transform="translate(-6,-6) scale(1,1)"><path fill="none" stroke="#000000" d="M 176 141 L 148 151" stroke-miterlimit="10" stroke-dasharray="3"/></g><g transform="translate(-6,-6) scale(1,1)"><path fill="none" stroke="#000000" d="M 156.1548028121776 143.61764325608004 L 148 151 L 158.98643088249395 151.54620185296585" stroke-miterlimit="10"/></g></g></svg>