<svg version="1.1" xmlns="http://www.w3.org/2000/svg" xmlns:xlink="http://www.w3.org/1999/xlink" width="1419.31884765625" height="784"><defs/><g><g transform="translate(10,-14) scale(1,1)"><path fill="#C0C0C0" stroke="none" d="M 1039 185 L 1086.72998046875 185 L 1086.72998046875 218 L 1039 218" opacity="0.2"/></g><g transform="translate(10,-14) scale(1,1)"><path fill="#C0C0C0" stroke="none" d="M 1039 185 L 1049 175 L 1096.72998046875 175 L 1086.72998046875 185" opacity="0.2"/></g><g transform="translate(10,-14) scale(1,1)"><path fill="#C0C0C0" stroke="none" d="M 1096.72998046875 175 L 1086.72998046875 185 L 1086.72998046875 218 L 1096.72998046875 208" opacity="0.2"/></g><g transform="translate(10,-14) scale(1,1)"><path fill="#ffffff" stroke="none" d="M 1032 178 L 1079.72998046875 178 L 1079.72998046875 211 L 1032 211"/></g><g transform="translate(10,-14) scale(1,1)"><path fill="#ffffff" stroke="none" d="M 1032 178 L 1042 168 L 1089.72998046875 168 L 1079.72998046875 178"/></g><g transform="translate(10,-14) scale(1,1)"><path fill="#ffffff" stroke="none" d="M 1089.72998046875 168 L 1079.72998046875 178 L 1079.72998046875 211 L 1089.72998046875 201"/></g><g transform="translate(10,-14) scale(1,1)"><path fill="none" stroke="#000000" d="M 1032 178 L 1079.72998046875 178 L 1079.72998046875 211 L 1032 211 L 1032 178" stroke-miterlimit="10"/></g><g transform="translate(10,-14) scale(1,1)"><path fill="none" stroke="#000000" d="M 1032 178 L 1042 168 L 1089.72998046875 168 L 1079.72998046875 178 L 1032 178" stroke-miterlimit="10"/></g><g transform="translate(10,-14) scale(1,1)"><path fill="none" stroke="#000000" d="M 1089.72998046875 168 L 1079.72998046875 178 L 1079.72998046875 211 L 1089.72998046875 201 L 1089.72998046875 168" stroke-miterlimit="10"/></g><g transform="translate(10,-14) scale(1,1)"><g><path fill="none" stroke="none"/><text fill="#000000" stroke="none" font-family="Arial" font-size="13px" font-style="normal" font-weight="bold" text-decoration="none" x="1043.364990234375" y="197.5">TCP</text></g></g><g transform="translate(10,-14) scale(1,1)"><rect fill="#C0C0C0" stroke="none" x="449" y="127" width="193.80810546875" height="44" opacity="0.2"/></g><g transform="translate(10,-14) scale(1,1)"><rect fill="#87ab63" stroke="none" x="442" y="120" width="193.80810546875" height="44"/></g><g transform="translate(10,-14) scale(1,1)"><path fill="none" stroke="#000000" d="M 442 120 L 635.80810546875 120 L 635.80810546875 164 L 442 164 L 442 120 Z Z" stroke-miterlimit="10"/></g><g transform="translate(10,-14) scale(1,1)"><rect fill="#87ab63" stroke="none" x="432" y="127" width="20" height="10"/></g><g transform="translate(10,-14) scale(1,1)"><path fill="none" stroke="#000000" d="M 432 127 L 452 127 L 452 137 L 432 137 L 432 127 Z Z" stroke-miterlimit="10"/></g><g transform="translate(10,-14) scale(1,1)"><rect fill="#87ab63" stroke="none" x="432" y="147" width="20" height="10"/></g><g transform="translate(10,-14) scale(1,1)"><path fill="none" stroke="#000000" d="M 432 147 L 452 147 L 452 157 L 432 157 L 432 147 Z Z" stroke-miterlimit="10"/></g><g transform="translate(10,-14) scale(1,1)"><g><path fill="none" stroke="none"/><text fill="#000000" stroke="none" font-family="Arial" font-size="13px" font-style="normal" font-weight="normal" text-decoration="none" x="518.24365234375" y="137.5">«parent»</text></g></g><g transform="translate(10,-14) scale(1,1)"><g><path fill="none" stroke="none"/><text fill="#000000" stroke="none" font-family="Arial" font-size="13px" font-style="normal" font-weight="bold" text-decoration="none" x="465.135986328125" y="152.5">eight-bank 0.0.1-RELEASE</text></g></g><g transform="translate(10,-14) scale(1,1)"><rect fill="#C0C0C0" stroke="none" x="185" y="31" width="277.59716796875" height="44" opacity="0.2"/></g><g transform="translate(10,-14) scale(1,1)"><rect fill="#ffffff" stroke="none" x="178" y="24" width="277.59716796875" height="44"/></g><g transform="translate(10,-14) scale(1,1)"><path fill="none" stroke="#000000" d="M 178 24 L 455.59716796875 24 L 455.59716796875 68 L 178 68 L 178 24 Z Z" stroke-miterlimit="10"/></g><g transform="translate(10,-14) scale(1,1)"><rect fill="#ffffff" stroke="none" x="168" y="31" width="20" height="10"/></g><g transform="translate(10,-14) scale(1,1)"><path fill="none" stroke="#000000" d="M 168 31 L 188 31 L 188 41 L 168 41 L 168 31 Z Z" stroke-miterlimit="10"/></g><g transform="translate(10,-14) scale(1,1)"><rect fill="#ffffff" stroke="none" x="168" y="51" width="20" height="10"/></g><g transform="translate(10,-14) scale(1,1)"><path fill="none" stroke="#000000" d="M 168 51 L 188 51 L 188 61 L 168 61 L 168 51 Z Z" stroke-miterlimit="10"/></g><g transform="translate(10,-14) scale(1,1)"><g><path fill="none" stroke="none"/><text fill="#000000" stroke="none" font-family="Arial" font-size="13px" font-style="normal" font-weight="normal" text-decoration="none" x="307.344970703125" y="41.5">«jar»</text></g></g><g transform="translate(10,-14) scale(1,1)"><g><path fill="none" stroke="none"/><text fill="#000000" stroke="none" font-family="Arial" font-size="13px" font-style="normal" font-weight="bold" text-decoration="none" x="200.044189453125" y="56.5">spring-boot-starter-parent 1.5.8.RELEASE</text></g></g><g transform="translate(10,-14) scale(1,1)"><path fill="none" stroke="#000000" d="M 480 119 L 364 69" stroke-miterlimit="10" stroke-dasharray="3"/></g><g transform="translate(10,-14) scale(1,1)"><path fill="none" stroke="#000000" d="M 374.9988797706233 69.15698341114043 L 364 69 L 371.6663784367121 76.88838650581448" stroke-miterlimit="10"/></g><g transform="translate(10,-14) scale(1,1)"><rect fill="#C0C0C0" stroke="none" x="721" y="39" width="263.14990234375" height="44" opacity="0.2"/></g><g transform="translate(10,-14) scale(1,1)"><rect fill="#ffffff" stroke="none" x="714" y="32" width="263.14990234375" height="44"/></g><g transform="translate(10,-14) scale(1,1)"><path fill="none" stroke="#000000" d="M 714 32 L 977.14990234375 32 L 977.14990234375 76 L 714 76 L 714 32 Z Z" stroke-miterlimit="10"/></g><g transform="translate(10,-14) scale(1,1)"><rect fill="#ffffff" stroke="none" x="704" y="39" width="20" height="10"/></g><g transform="translate(10,-14) scale(1,1)"><path fill="none" stroke="#000000" d="M 704 39 L 724 39 L 724 49 L 704 49 L 704 39 Z Z" stroke-miterlimit="10"/></g><g transform="translate(10,-14) scale(1,1)"><rect fill="#ffffff" stroke="none" x="704" y="59" width="20" height="10"/></g><g transform="translate(10,-14) scale(1,1)"><path fill="none" stroke="#000000" d="M 704 59 L 724 59 L 724 69 L 704 69 L 704 59 Z Z" stroke-miterlimit="10"/></g><g transform="translate(10,-14) scale(1,1)"><g><path fill="none" stroke="none"/><text fill="#000000" stroke="none" font-family="Arial" font-size="13px" font-style="normal" font-weight="normal" text-decoration="none" x="834.3154296875" y="49.5">«jar »</text></g></g><g transform="translate(10,-14) scale(1,1)"><g><path fill="none" stroke="none"/><text fill="#000000" stroke="none" font-family="Arial" font-size="13px" font-style="normal" font-weight="bold" text-decoration="none" x="735.326904296875" y="64.5">spring-boot-starter-web 1.5.8.RELEASE</text></g></g><g transform="translate(10,-14) scale(1,1)"><path fill="none" stroke="#000000" d="M 613 119 L 760 77" stroke-miterlimit="10" stroke-dasharray="3"/></g><g transform="translate(10,-14) scale(1,1)"><path fill="none" stroke="#000000" d="M 751.3847882181439 83.83945362976947 L 760 77 L 749.0719012864703 75.74434936891221" stroke-miterlimit="10"/></g><g transform="translate(10,-14) scale(1,1)"><rect fill="#C0C0C0" stroke="none" x="113" y="103" width="233.5380859375" height="44" opacity="0.2"/></g><g transform="translate(10,-14) scale(1,1)"><rect fill="#ffffff" stroke="none" x="106" y="96" width="233.5380859375" height="44"/></g><g transform="translate(10,-14) scale(1,1)"><path fill="none" stroke="#000000" d="M 106 96 L 339.5380859375 96 L 339.5380859375 140 L 106 140 L 106 96 Z Z" stroke-miterlimit="10"/></g><g transform="translate(10,-14) scale(1,1)"><rect fill="#ffffff" stroke="none" x="96" y="103" width="20" height="10"/></g><g transform="translate(10,-14) scale(1,1)"><path fill="none" stroke="#000000" d="M 96 103 L 116 103 L 116 113 L 96 113 L 96 103 Z Z" stroke-miterlimit="10"/></g><g transform="translate(10,-14) scale(1,1)"><rect fill="#ffffff" stroke="none" x="96" y="123" width="20" height="10"/></g><g transform="translate(10,-14) scale(1,1)"><path fill="none" stroke="#000000" d="M 96 123 L 116 123 L 116 133 L 96 133 L 96 123 Z Z" stroke-miterlimit="10"/></g><g transform="translate(10,-14) scale(1,1)"><g><path fill="none" stroke="none"/><text fill="#000000" stroke="none" font-family="Arial" font-size="13px" font-style="normal" font-weight="normal" text-decoration="none" x="213.3154296875" y="113.5">«jar»</text></g></g><g transform="translate(10,-14) scale(1,1)"><g><path fill="none" stroke="none"/><text fill="#000000" stroke="none" font-family="Arial" font-size="13px" font-style="normal" font-weight="bold" text-decoration="none" x="126.609619140625" y="128.5">spring-boot-starter 1.5.8.RELEASE</text></g></g><g transform="translate(10,-14) scale(1,1)"><path fill="none" stroke="#000000" d="M 431 134 L 341 127" stroke-miterlimit="10" stroke-dasharray="3"/></g><g transform="translate(10,-14) scale(1,1)"><path fill="none" stroke="#000000" d="M 351.4584957693942 123.59120750975298 L 341 127 L 350.8056535650609 131.98489299403798" stroke-miterlimit="10"/></g><g transform="translate(10,-14) scale(1,1)"><rect fill="#C0C0C0" stroke="none" x="665" y="319" width="287.708984375" height="44" opacity="0.2"/></g><g transform="translate(10,-14) scale(1,1)"><rect fill="#ffffff" stroke="none" x="658" y="312" width="287.708984375" height="44"/></g><g transform="translate(10,-14) scale(1,1)"><path fill="none" stroke="#000000" d="M 658 312 L 945.708984375 312 L 945.708984375 356 L 658 356 L 658 312 Z Z" stroke-miterlimit="10"/></g><g transform="translate(10,-14) scale(1,1)"><rect fill="#ffffff" stroke="none" x="648" y="319" width="20" height="10"/></g><g transform="translate(10,-14) scale(1,1)"><path fill="none" stroke="#000000" d="M 648 319 L 668 319 L 668 329 L 648 329 L 648 319 Z Z" stroke-miterlimit="10"/></g><g transform="translate(10,-14) scale(1,1)"><rect fill="#ffffff" stroke="none" x="648" y="339" width="20" height="10"/></g><g transform="translate(10,-14) scale(1,1)"><path fill="none" stroke="#000000" d="M 648 339 L 668 339 L 668 349 L 648 349 L 648 339 Z Z" stroke-miterlimit="10"/></g><g transform="translate(10,-14) scale(1,1)"><g><path fill="none" stroke="none"/><text fill="#000000" stroke="none" font-family="Arial" font-size="13px" font-style="normal" font-weight="normal" text-decoration="none" x="792.40087890625" y="329.5">«jar»</text></g></g><g transform="translate(10,-14) scale(1,1)"><g><path fill="none" stroke="none"/><text fill="#000000" stroke="none" font-family="Arial" font-size="13px" font-style="normal" font-weight="bold" text-decoration="none" x="680.041015625" y="344.5">spring-boot-starter-data-jpa 1.5.8.RELEASE</text></g></g><g transform="translate(10,-14) scale(1,1)"><path fill="none" stroke="#000000" d="M 697 277 L 756 311" stroke-miterlimit="10" stroke-dasharray="3"/></g><g transform="translate(10,-14) scale(1,1)"><path fill="none" stroke="#000000" d="M 745.0929475563661 309.5730427505288 L 756 311 L 749.2965604019134 302.27853810678477" stroke-miterlimit="10"/></g><g transform="translate(10,-14) scale(1,1)"><rect fill="#C0C0C0" stroke="none" x="993" y="143" width="170.7216796875" height="44" opacity="0.2"/></g><g transform="translate(10,-14) scale(1,1)"><rect fill="#ffffff" stroke="none" x="986" y="136" width="170.7216796875" height="44"/></g><g transform="translate(10,-14) scale(1,1)"><path fill="none" stroke="#000000" d="M 986 136 L 1156.7216796875 136 L 1156.7216796875 180 L 986 180 L 986 136 Z Z" stroke-miterlimit="10"/></g><g transform="translate(10,-14) scale(1,1)"><rect fill="#ffffff" stroke="none" x="976" y="143" width="20" height="10"/></g><g transform="translate(10,-14) scale(1,1)"><path fill="none" stroke="#000000" d="M 976 143 L 996 143 L 996 153 L 976 153 L 976 143 Z Z" stroke-miterlimit="10"/></g><g transform="translate(10,-14) scale(1,1)"><rect fill="#ffffff" stroke="none" x="976" y="163" width="20" height="10"/></g><g transform="translate(10,-14) scale(1,1)"><path fill="none" stroke="#000000" d="M 976 163 L 996 163 L 996 173 L 976 173 L 976 163 Z Z" stroke-miterlimit="10"/></g><g transform="translate(10,-14) scale(1,1)"><g><path fill="none" stroke="none"/><text fill="#000000" stroke="none" font-family="Arial" font-size="13px" font-style="normal" font-weight="normal" text-decoration="none" x="1061.9072265625" y="153.5">«jar»</text></g></g><g transform="translate(10,-14) scale(1,1)"><g><path fill="none" stroke="none"/><text fill="#000000" stroke="none" font-family="Arial" font-size="13px" font-style="normal" font-weight="bold" text-decoration="none" x="1026.135009765625" y="168.5">postgresql-42.1.3</text></g></g><g transform="translate(10,-14) scale(1,1)"><path fill="none" stroke="#000000" d="M 935 153 L 975 155" stroke-miterlimit="10" stroke-dasharray="3"/></g><g transform="translate(10,-14) scale(1,1)"><path fill="none" stroke="#000000" d="M 964.6397914314744 158.69676594020342 L 975 155 L 965.0602180019113 150.28823453146586" stroke-miterlimit="10"/></g><g transform="translate(10,-14) scale(1,1)"><rect fill="#C0C0C0" stroke="none" x="553" y="31" width="98.44091796875" height="44" opacity="0.2"/></g><g transform="translate(10,-14) scale(1,1)"><rect fill="#ffffff" stroke="none" x="546" y="24" width="98.44091796875" height="44"/></g><g transform="translate(10,-14) scale(1,1)"><path fill="none" stroke="#000000" d="M 546 24 L 644.44091796875 24 L 644.44091796875 68 L 546 68 L 546 24 Z Z" stroke-miterlimit="10"/></g><g transform="translate(10,-14) scale(1,1)"><rect fill="#ffffff" stroke="none" x="536" y="31" width="20" height="10"/></g><g transform="translate(10,-14) scale(1,1)"><path fill="none" stroke="#000000" d="M 536 31 L 556 31 L 556 41 L 536 41 L 536 31 Z Z" stroke-miterlimit="10"/></g><g transform="translate(10,-14) scale(1,1)"><rect fill="#ffffff" stroke="none" x="536" y="51" width="20" height="10"/></g><g transform="translate(10,-14) scale(1,1)"><path fill="none" stroke="#000000" d="M 536 51 L 556 51 L 556 61 L 536 61 L 536 51 Z Z" stroke-miterlimit="10"/></g><g transform="translate(10,-14) scale(1,1)"><g><path fill="none" stroke="none"/><text fill="#000000" stroke="none" font-family="Arial" font-size="13px" font-style="normal" font-weight="bold" text-decoration="none" x="571.67822265625" y="43.5">JRE 1.8.0</text></g></g><g transform="translate(10,-14) scale(1,1)"><path fill="none" stroke="#000000" d="M 547 119 L 576 69" stroke-miterlimit="10" stroke-dasharray="3"/></g><g transform="translate(10,-14) scale(1,1)"><path fill="none" stroke="#000000" d="M 574.5425663341656 79.90302192558066 L 576 69 L 567.2598380327553 75.67903951076264" stroke-miterlimit="10"/></g><g transform="translate(10,-14) scale(1,1)"><rect fill="#C0C0C0" stroke="none" x="297" y="239" width="187.29541015625" height="44" opacity="0.2"/></g><g transform="translate(10,-14) scale(1,1)"><rect fill="#d1ffa3" stroke="none" x="290" y="232" width="187.29541015625" height="44"/></g><g transform="translate(10,-14) scale(1,1)"><path fill="none" stroke="#000000" d="M 290 232 L 477.29541015625 232 L 477.29541015625 276 L 290 276 L 290 232 Z Z" stroke-miterlimit="10"/></g><g transform="translate(10,-14) scale(1,1)"><rect fill="#d1ffa3" stroke="none" x="280" y="239" width="20" height="10"/></g><g transform="translate(10,-14) scale(1,1)"><path fill="none" stroke="#000000" d="M 280 239 L 300 239 L 300 249 L 280 249 L 280 239 Z Z" stroke-miterlimit="10"/></g><g transform="translate(10,-14) scale(1,1)"><rect fill="#d1ffa3" stroke="none" x="280" y="259" width="20" height="10"/></g><g transform="translate(10,-14) scale(1,1)"><path fill="none" stroke="#000000" d="M 280 259 L 300 259 L 300 269 L 280 269 L 280 259 Z Z" stroke-miterlimit="10"/></g><g transform="translate(10,-14) scale(1,1)"><g><path fill="none" stroke="none"/><text fill="#000000" stroke="none" font-family="Arial" font-size="13px" font-style="normal" font-weight="normal" text-decoration="none" x="374.194091796875" y="249.5">«jar»</text></g></g><g transform="translate(10,-14) scale(1,1)"><g><path fill="none" stroke="none"/><text fill="#000000" stroke="none" font-family="Arial" font-size="13px" font-style="normal" font-weight="bold" text-decoration="none" x="313.13916015625" y="264.5">front-web 1.0.0-RELEASE</text></g></g><g transform="translate(10,-14) scale(1,1)"><path fill="none" stroke="#000000" d="M 410 231 L 501 165" stroke-miterlimit="10" stroke-dasharray="3"/></g><g transform="translate(10,-14) scale(1,1)"><path fill="none" stroke="#000000" d="M 495.24473046396815 174.37426650824608 L 501 165 L 490.3018024668848 167.55901730014628" stroke-miterlimit="10"/></g><g transform="translate(10,-14) scale(1,1)"><rect fill="#C0C0C0" stroke="none" x="17" y="343" width="298.55712890625" height="44" opacity="0.2"/></g><g transform="translate(10,-14) scale(1,1)"><rect fill="#ffffff" stroke="none" x="10" y="336" width="298.55712890625" height="44"/></g><g transform="translate(10,-14) scale(1,1)"><path fill="none" stroke="#000000" d="M 10 336 L 308.55712890625 336 L 308.55712890625 380 L 10 380 L 10 336 Z Z" stroke-miterlimit="10"/></g><g transform="translate(10,-14) scale(1,1)"><rect fill="#ffffff" stroke="none" x="0" y="343" width="20" height="10"/></g><g transform="translate(10,-14) scale(1,1)"><path fill="none" stroke="#000000" d="M 0 343 L 20 343 L 20 353 L 0 353 L 0 343 Z Z" stroke-miterlimit="10"/></g><g transform="translate(10,-14) scale(1,1)"><rect fill="#ffffff" stroke="none" x="0" y="363" width="20" height="10"/></g><g transform="translate(10,-14) scale(1,1)"><path fill="none" stroke="#000000" d="M 0 363 L 20 363 L 20 373 L 0 373 L 0 363 Z Z" stroke-miterlimit="10"/></g><g transform="translate(10,-14) scale(1,1)"><g><path fill="none" stroke="none"/><text fill="#000000" stroke="none" font-family="Arial" font-size="13px" font-style="normal" font-weight="normal" text-decoration="none" x="149.824951171875" y="353.5">«jar»</text></g></g><g transform="translate(10,-14) scale(1,1)"><g><path fill="none" stroke="none"/><text fill="#000000" stroke="none" font-family="Arial" font-size="13px" font-style="normal" font-weight="bold" text-decoration="none" x="32.774169921875" y="368.5">spring-boot-starter-thymeleaf 1.5.8.RELEASE</text></g></g><g transform="translate(10,-14) scale(1,1)"><path fill="none" stroke="#000000" d="M 328 277 L 204 335" stroke-miterlimit="10" stroke-dasharray="3"/></g><g transform="translate(10,-14) scale(1,1)"><path fill="none" stroke="#000000" d="M 211.42193788127486 326.8812046406812 L 204 335 L 214.988957859035 334.50724735175453" stroke-miterlimit="10"/></g><g transform="translate(10,-14) scale(1,1)"><rect fill="#C0C0C0" stroke="none" x="577" y="239" width="185.15625" height="44" opacity="0.2"/></g><g transform="translate(10,-14) scale(1,1)"><rect fill="#d1ffa3" stroke="none" x="570" y="232" width="185.15625" height="44"/></g><g transform="translate(10,-14) scale(1,1)"><path fill="none" stroke="#000000" d="M 570 232 L 755.15625 232 L 755.15625 276 L 570 276 L 570 232 Z Z" stroke-miterlimit="10"/></g><g transform="translate(10,-14) scale(1,1)"><rect fill="#d1ffa3" stroke="none" x="560" y="239" width="20" height="10"/></g><g transform="translate(10,-14) scale(1,1)"><path fill="none" stroke="#000000" d="M 560 239 L 580 239 L 580 249 L 560 249 L 560 239 Z Z" stroke-miterlimit="10"/></g><g transform="translate(10,-14) scale(1,1)"><rect fill="#d1ffa3" stroke="none" x="560" y="259" width="20" height="10"/></g><g transform="translate(10,-14) scale(1,1)"><path fill="none" stroke="#000000" d="M 560 259 L 580 259 L 580 269 L 560 269 L 560 259 Z Z" stroke-miterlimit="10"/></g><g transform="translate(10,-14) scale(1,1)"><g><path fill="none" stroke="none"/><text fill="#000000" stroke="none" font-family="Arial" font-size="13px" font-style="normal" font-weight="normal" text-decoration="none" x="653.12451171875" y="249.5">«jar»</text></g></g><g transform="translate(10,-14) scale(1,1)"><g><path fill="none" stroke="none"/><text fill="#000000" stroke="none" font-family="Arial" font-size="13px" font-style="normal" font-weight="bold" text-decoration="none" x="592.425048828125" y="264.5">back-end 1.0.0-RELEASE</text></g></g><g transform="translate(10,-14) scale(1,1)"><path fill="none" stroke="#000000" d="M 632 231 L 558 165" stroke-miterlimit="10" stroke-dasharray="3"/></g><g transform="translate(10,-14) scale(1,1)"><path fill="none" stroke="#000000" d="M 568.3862753651721 168.62288338741664 L 558 165 L 562.7824403312936 174.90597115267437" stroke-miterlimit="10"/></g><g transform="translate(10,-14) scale(1,1)"><rect fill="#C0C0C0" stroke="none" x="409" y="535" width="172.83544921875" height="44" opacity="0.2"/></g><g transform="translate(10,-14) scale(1,1)"><rect fill="#d1ffa3" stroke="none" x="402" y="528" width="172.83544921875" height="44"/></g><g transform="translate(10,-14) scale(1,1)"><path fill="none" stroke="#000000" d="M 402 528 L 574.83544921875 528 L 574.83544921875 572 L 402 572 L 402 528 Z Z" stroke-miterlimit="10"/></g><g transform="translate(10,-14) scale(1,1)"><rect fill="#d1ffa3" stroke="none" x="392" y="535" width="20" height="10"/></g><g transform="translate(10,-14) scale(1,1)"><path fill="none" stroke="#000000" d="M 392 535 L 412 535 L 412 545 L 392 545 L 392 535 Z Z" stroke-miterlimit="10"/></g><g transform="translate(10,-14) scale(1,1)"><rect fill="#d1ffa3" stroke="none" x="392" y="555" width="20" height="10"/></g><g transform="translate(10,-14) scale(1,1)"><path fill="none" stroke="#000000" d="M 392 555 L 412 555 L 412 565 L 392 565 L 392 555 Z Z" stroke-miterlimit="10"/></g><g transform="translate(10,-14) scale(1,1)"><g><path fill="none" stroke="none"/><text fill="#000000" stroke="none" font-family="Arial" font-size="13px" font-style="normal" font-weight="normal" text-decoration="none" x="475.707763671875" y="545.5">«apk»</text></g></g><g transform="translate(10,-14) scale(1,1)"><g><path fill="none" stroke="none"/><text fill="#000000" stroke="none" font-family="Arial" font-size="13px" font-style="normal" font-weight="bold" text-decoration="none" x="423.314208984375" y="560.5">fr.eight.bank.android 1.0</text></g></g><g transform="translate(10,-14) scale(1,1)"><rect fill="#C0C0C0" stroke="none" x="113" y="591" width="136.40625" height="44" opacity="0.2"/></g><g transform="translate(10,-14) scale(1,1)"><rect fill="#ffffff" stroke="none" x="106" y="584" width="136.40625" height="44"/></g><g transform="translate(10,-14) scale(1,1)"><path fill="none" stroke="#000000" d="M 106 584 L 242.40625 584 L 242.40625 628 L 106 628 L 106 584 Z Z" stroke-miterlimit="10"/></g><g transform="translate(10,-14) scale(1,1)"><rect fill="#ffffff" stroke="none" x="96" y="591" width="20" height="10"/></g><g transform="translate(10,-14) scale(1,1)"><path fill="none" stroke="#000000" d="M 96 591 L 116 591 L 116 601 L 96 601 L 96 591 Z Z" stroke-miterlimit="10"/></g><g transform="translate(10,-14) scale(1,1)"><rect fill="#ffffff" stroke="none" x="96" y="611" width="20" height="10"/></g><g transform="translate(10,-14) scale(1,1)"><path fill="none" stroke="#000000" d="M 96 611 L 116 611 L 116 621 L 96 621 L 96 611 Z Z" stroke-miterlimit="10"/></g><g transform="translate(10,-14) scale(1,1)"><g><path fill="none" stroke="none"/><text fill="#000000" stroke="none" font-family="Arial" font-size="13px" font-style="normal" font-weight="normal" text-decoration="none" x="164.74951171875" y="601.5">«jar»</text></g></g><g transform="translate(10,-14) scale(1,1)"><g><path fill="none" stroke="none"/><text fill="#000000" stroke="none" font-family="Arial" font-size="13px" font-style="normal" font-weight="bold" text-decoration="none" x="123.37548828125" y="616.5">appcompat-v7 26.+</text></g></g><g transform="translate(10,-14) scale(1,1)"><rect fill="#C0C0C0" stroke="none" x="225" y="687" width="156.97900390625" height="44" opacity="0.2"/></g><g transform="translate(10,-14) scale(1,1)"><rect fill="#ffffff" stroke="none" x="218" y="680" width="156.97900390625" height="44"/></g><g transform="translate(10,-14) scale(1,1)"><path fill="none" stroke="#000000" d="M 218 680 L 374.97900390625 680 L 374.97900390625 724 L 218 724 L 218 680 Z Z" stroke-miterlimit="10"/></g><g transform="translate(10,-14) scale(1,1)"><rect fill="#ffffff" stroke="none" x="208" y="687" width="20" height="10"/></g><g transform="translate(10,-14) scale(1,1)"><path fill="none" stroke="#000000" d="M 208 687 L 228 687 L 228 697 L 208 697 L 208 687 Z Z" stroke-miterlimit="10"/></g><g transform="translate(10,-14) scale(1,1)"><rect fill="#ffffff" stroke="none" x="208" y="707" width="20" height="10"/></g><g transform="translate(10,-14) scale(1,1)"><path fill="none" stroke="#000000" d="M 208 707 L 228 707 L 228 717 L 208 717 L 208 707 Z Z" stroke-miterlimit="10"/></g><g transform="translate(10,-14) scale(1,1)"><g><path fill="none" stroke="none"/><text fill="#000000" stroke="none" font-family="Arial" font-size="13px" font-style="normal" font-weight="normal" text-decoration="none" x="287.035888671875" y="697.5">«jar»</text></g></g><g transform="translate(10,-14) scale(1,1)"><g><path fill="none" stroke="none"/><text fill="#000000" stroke="none" font-family="Arial" font-size="13px" font-style="normal" font-weight="bold" text-decoration="none" x="237.536865234375" y="712.5">constraint-layout 1.0.2</text></g></g><g transform="translate(10,-14) scale(1,1)"><path fill="none" stroke="#000000" d="M 454 573 L 320 679" stroke-miterlimit="10" stroke-dasharray="3"/></g><g transform="translate(10,-14) scale(1,1)"><path fill="none" stroke="#000000" d="M 325.35881669228803 669.3935915317713 L 320 679 L 330.5820121929849 675.9964990515202" stroke-miterlimit="10"/></g><g transform="translate(10,-14) scale(1,1)"><path fill="none" stroke="#000000" d="M 391 566 L 243 593" stroke-miterlimit="10" stroke-dasharray="3"/></g><g transform="translate(10,-14) scale(1,1)"><path fill="none" stroke="#000000" d="M 252.24218379025652 587.0349317868846 L 243 593 L 253.75315101479697 595.3172706473285" stroke-miterlimit="10"/></g><g transform="translate(10,-14) scale(1,1)"><rect fill="#C0C0C0" stroke="none" x="425" y="735" width="145.1279296875" height="44" opacity="0.2"/></g><g transform="translate(10,-14) scale(1,1)"><rect fill="#ffffff" stroke="none" x="418" y="728" width="145.1279296875" height="44"/></g><g transform="translate(10,-14) scale(1,1)"><path fill="none" stroke="#000000" d="M 418 728 L 563.1279296875 728 L 563.1279296875 772 L 418 772 L 418 728 Z Z" stroke-miterlimit="10"/></g><g transform="translate(10,-14) scale(1,1)"><rect fill="#ffffff" stroke="none" x="408" y="735" width="20" height="10"/></g><g transform="translate(10,-14) scale(1,1)"><path fill="none" stroke="#000000" d="M 408 735 L 428 735 L 428 745 L 408 745 L 408 735 Z Z" stroke-miterlimit="10"/></g><g transform="translate(10,-14) scale(1,1)"><rect fill="#ffffff" stroke="none" x="408" y="755" width="20" height="10"/></g><g transform="translate(10,-14) scale(1,1)"><path fill="none" stroke="#000000" d="M 408 755 L 428 755 L 428 765 L 408 765 L 408 755 Z Z" stroke-miterlimit="10"/></g><g transform="translate(10,-14) scale(1,1)"><g><path fill="none" stroke="none"/><text fill="#000000" stroke="none" font-family="Arial" font-size="13px" font-style="normal" font-weight="normal" text-decoration="none" x="481.1103515625" y="745.5">«jar»</text></g></g><g transform="translate(10,-14) scale(1,1)"><g><path fill="none" stroke="none"/><text fill="#000000" stroke="none" font-family="Arial" font-size="13px" font-style="normal" font-weight="bold" text-decoration="none" x="436.140380859375" y="760.5">recyclerview-v7 26.+</text></g></g><g transform="translate(10,-14) scale(1,1)"><path fill="none" stroke="#000000" d="M 483 573 L 485 727" stroke-miterlimit="10" stroke-dasharray="3"/></g><g transform="translate(10,-14) scale(1,1)"><path fill="none" stroke="#000000" d="M 480.6588655314999 716.8928465171246 L 485 727 L 489.0771911455153 716.7835176130465" stroke-miterlimit="10"/></g><g transform="translate(10,-14) scale(1,1)"><rect fill="#C0C0C0" stroke="none" x="617" y="751" width="98.44091796875" height="44" opacity="0.2"/></g><g transform="translate(10,-14) scale(1,1)"><rect fill="#ffffff" stroke="none" x="610" y="744" width="98.44091796875" height="44"/></g><g transform="translate(10,-14) scale(1,1)"><path fill="none" stroke="#000000" d="M 610 744 L 708.44091796875 744 L 708.44091796875 788 L 610 788 L 610 744 Z Z" stroke-miterlimit="10"/></g><g transform="translate(10,-14) scale(1,1)"><rect fill="#ffffff" stroke="none" x="600" y="751" width="20" height="10"/></g><g transform="translate(10,-14) scale(1,1)"><path fill="none" stroke="#000000" d="M 600 751 L 620 751 L 620 761 L 600 761 L 600 751 Z Z" stroke-miterlimit="10"/></g><g transform="translate(10,-14) scale(1,1)"><rect fill="#ffffff" stroke="none" x="600" y="771" width="20" height="10"/></g><g transform="translate(10,-14) scale(1,1)"><path fill="none" stroke="#000000" d="M 600 771 L 620 771 L 620 781 L 600 781 L 600 771 Z Z" stroke-miterlimit="10"/></g><g transform="translate(10,-14) scale(1,1)"><g><path fill="none" stroke="none"/><text fill="#000000" stroke="none" font-family="Arial" font-size="13px" font-style="normal" font-weight="normal" text-decoration="none" x="649.766845703125" y="761.5">«jar»</text></g></g><g transform="translate(10,-14) scale(1,1)"><g><path fill="none" stroke="none"/><text fill="#000000" stroke="none" font-family="Arial" font-size="13px" font-style="normal" font-weight="bold" text-decoration="none" x="629.536865234375" y="776.5">retrofit 2.3.0</text></g></g><g transform="translate(10,-14) scale(1,1)"><path fill="none" stroke="#000000" d="M 501 573 L 636 743" stroke-miterlimit="10" stroke-dasharray="3"/></g><g transform="translate(10,-14) scale(1,1)"><path fill="none" stroke="#000000" d="M 626.3834949573419 737.6593230050365 L 636 743 L 632.9765329922875 732.4236751537562" stroke-miterlimit="10"/></g><g transform="translate(10,-14) scale(1,1)"><rect fill="#C0C0C0" stroke="none" x="785" y="711" width="146.15625" height="44" opacity="0.2"/></g><g transform="translate(10,-14) scale(1,1)"><rect fill="#ffffff" stroke="none" x="778" y="704" width="146.15625" height="44"/></g><g transform="translate(10,-14) scale(1,1)"><path fill="none" stroke="#000000" d="M 778 704 L 924.15625 704 L 924.15625 748 L 778 748 L 778 704 Z Z" stroke-miterlimit="10"/></g><g transform="translate(10,-14) scale(1,1)"><rect fill="#ffffff" stroke="none" x="768" y="711" width="20" height="10"/></g><g transform="translate(10,-14) scale(1,1)"><path fill="none" stroke="#000000" d="M 768 711 L 788 711 L 788 721 L 768 721 L 768 711 Z Z" stroke-miterlimit="10"/></g><g transform="translate(10,-14) scale(1,1)"><rect fill="#ffffff" stroke="none" x="768" y="731" width="20" height="10"/></g><g transform="translate(10,-14) scale(1,1)"><path fill="none" stroke="#000000" d="M 768 731 L 788 731 L 788 741 L 768 741 L 768 731 Z Z" stroke-miterlimit="10"/></g><g transform="translate(10,-14) scale(1,1)"><g><path fill="none" stroke="none"/><text fill="#000000" stroke="none" font-family="Arial" font-size="13px" font-style="normal" font-weight="normal" text-decoration="none" x="841.62451171875" y="721.5">«jar»</text></g></g><g transform="translate(10,-14) scale(1,1)"><g><path fill="none" stroke="none"/><text fill="#000000" stroke="none" font-family="Arial" font-size="13px" font-style="normal" font-weight="bold" text-decoration="none" x="796.4609375" y="736.5">converter-gson 2.3.0</text></g></g><g transform="translate(10,-14) scale(1,1)"><path fill="none" stroke="#000000" d="M 530 573 L 799 703" stroke-miterlimit="10" stroke-dasharray="3"/></g><g transform="translate(10,-14) scale(1,1)"><path fill="none" stroke="#000000" d="M 788.0181643792328 702.3681088713656 L 799 703 L 791.6814840647085 694.7878550606505" stroke-miterlimit="10"/></g><g transform="translate(10,-14) scale(1,1)"><rect fill="#C0C0C0" stroke="none" x="49" y="175" width="111.46630859375" height="44" opacity="0.2"/></g><g transform="translate(10,-14) scale(1,1)"><rect fill="#ffffff" stroke="none" x="42" y="168" width="111.46630859375" height="44"/></g><g transform="translate(10,-14) scale(1,1)"><path fill="none" stroke="#000000" d="M 42 168 L 153.46630859375 168 L 153.46630859375 212 L 42 212 L 42 168 Z Z" stroke-miterlimit="10"/></g><g transform="translate(10,-14) scale(1,1)"><rect fill="#ffffff" stroke="none" x="32" y="175" width="20" height="10"/></g><g transform="translate(10,-14) scale(1,1)"><path fill="none" stroke="#000000" d="M 32 175 L 52 175 L 52 185 L 32 185 L 32 175 Z Z" stroke-miterlimit="10"/></g><g transform="translate(10,-14) scale(1,1)"><rect fill="#ffffff" stroke="none" x="32" y="195" width="20" height="10"/></g><g transform="translate(10,-14) scale(1,1)"><path fill="none" stroke="#000000" d="M 32 195 L 52 195 L 52 205 L 32 205 L 32 195 Z Z" stroke-miterlimit="10"/></g><g transform="translate(10,-14) scale(1,1)"><g><path fill="none" stroke="none"/><text fill="#000000" stroke="none" font-family="Arial" font-size="13px" font-style="normal" font-weight="normal" text-decoration="none" x="88.279541015625" y="185.5">«jar»</text></g></g><g transform="translate(10,-14) scale(1,1)"><g><path fill="none" stroke="none"/><text fill="#000000" stroke="none" font-family="Arial" font-size="13px" font-style="normal" font-weight="bold" text-decoration="none" x="59.369140625" y="200.5">bootstrap 3.3.5</text></g></g><g transform="translate(10,-14) scale(1,1)"><rect fill="#C0C0C0" stroke="none" x="49" y="263" width="98.44091796875" height="44" opacity="0.2"/></g><g transform="translate(10,-14) scale(1,1)"><rect fill="#ffffff" stroke="none" x="42" y="256" width="98.44091796875" height="44"/></g><g transform="translate(10,-14) scale(1,1)"><path fill="none" stroke="#000000" d="M 42 256 L 140.44091796875 256 L 140.44091796875 300 L 42 300 L 42 256 Z Z" stroke-miterlimit="10"/></g><g transform="translate(10,-14) scale(1,1)"><rect fill="#ffffff" stroke="none" x="32" y="263" width="20" height="10"/></g><g transform="translate(10,-14) scale(1,1)"><path fill="none" stroke="#000000" d="M 32 263 L 52 263 L 52 273 L 32 273 L 32 263 Z Z" stroke-miterlimit="10"/></g><g transform="translate(10,-14) scale(1,1)"><rect fill="#ffffff" stroke="none" x="32" y="283" width="20" height="10"/></g><g transform="translate(10,-14) scale(1,1)"><path fill="none" stroke="#000000" d="M 32 283 L 52 283 L 52 293 L 32 293 L 32 283 Z Z" stroke-miterlimit="10"/></g><g transform="translate(10,-14) scale(1,1)"><g><path fill="none" stroke="none"/><text fill="#000000" stroke="none" font-family="Arial" font-size="13px" font-style="normal" font-weight="normal" text-decoration="none" x="81.766845703125" y="273.5">«jar»</text></g></g><g transform="translate(10,-14) scale(1,1)"><g><path fill="none" stroke="none"/><text fill="#000000" stroke="none" font-family="Arial" font-size="13px" font-style="normal" font-weight="bold" text-decoration="none" x="62.254150390625" y="288.5">jquery 2.1.4</text></g></g><g transform="translate(10,-14) scale(1,1)"><path fill="none" stroke="#000000" d="M 279 262 L 141 273" stroke-miterlimit="10" stroke-dasharray="3"/></g><g transform="translate(10,-14) scale(1,1)"><path fill="none" stroke="#000000" d="M 150.79606220816694 267.99628485885506 L 141 273 L 151.4650229237495 276.38870110889076" stroke-miterlimit="10"/></g><g transform="translate(10,-14) scale(1,1)"><path fill="none" stroke="#000000" d="M 279 232 L 154 204" stroke-miterlimit="10" stroke-dasharray="3"/></g><g transform="translate(10,-14) scale(1,1)"><path fill="none" stroke="#000000" d="M 164.83705431008215 202.11366655112897 L 154 204 L 162.9967937640217 210.3291154174703" stroke-miterlimit="10"/></g><g transform="translate(10,-14) scale(1,1)"><path fill="#C0C0C0" stroke="none" d="M 597.042236328125 386.5 C 597.042236328125 380.1487248 602.190961128125 375 608.542236328125 375 C 614.893511528125 375 620.042236328125 380.1487248 620.042236328125 386.5 C 620.042236328125 392.8512752 614.893511528125 398 608.542236328125 398 C 602.190961128125 398 597.042236328125 392.8512752 597.042236328125 386.5 Z" opacity="0.2"/></g><g transform="translate(10,-14) scale(1,1)"><path fill="#ffffff" stroke="none" d="M 590.042236328125 379.5 C 590.042236328125 373.1487248 595.190961128125 368 601.542236328125 368 C 607.893511528125 368 613.042236328125 373.1487248 613.042236328125 379.5 C 613.042236328125 385.8512752 607.893511528125 391 601.542236328125 391 C 595.190961128125 391 590.042236328125 385.8512752 590.042236328125 379.5 Z"/></g><g transform="translate(10,-14) scale(1,1)"><path fill="none" stroke="#000000" d="M 590.042236328125 379.5 C 590.042236328125 373.1487248 595.190961128125 368 601.542236328125 368 C 607.893511528125 368 613.042236328125 373.1487248 613.042236328125 379.5 C 613.042236328125 385.8512752 607.893511528125 391 601.542236328125 391 C 595.190961128125 391 590.042236328125 385.8512752 590.042236328125 379.5 Z" stroke-miterlimit="10"/></g><g transform="translate(10,-14) scale(1,1)"><g><path fill="none" stroke="none"/><text fill="#000000" stroke="none" font-family="Arial" font-size="13px" font-style="normal" font-weight="bold" text-decoration="none" x="542.658203125" y="410.5">API Back-end REST</text></g></g><g transform="translate(10,-14) scale(1,1)"><path fill="none" stroke="#000000" d="M 500 527 L 582 417" stroke-miterlimit="10" stroke-dasharray="3"/></g><g transform="translate(10,-14) scale(1,1)"><path fill="#FFFFFF" stroke="none" d="M 576.6021747601052 438.3275287522853 L 582 417 L 563.1023209625185 428.26400137590247"/></g><g transform="translate(10,-14) scale(1,1)"><path fill="none" stroke="#000000" d="M 576.6021747601052 438.3275287522853 L 582 417 L 563.1023209625185 428.26400137590247 L 576.6021747601052 438.3275287522853" stroke-miterlimit="10"/></g><g transform="translate(10,-14) scale(1,1)"><path fill="none" stroke="#000000" d="M 415 277 L 561 367" stroke-miterlimit="10" stroke-dasharray="3"/></g><g transform="translate(10,-14) scale(1,1)"><path fill="#FFFFFF" stroke="none" d="M 539.2800186663271 363.5010843301242 L 561 367 L 548.1157609086838 349.1675469147456"/></g><g transform="translate(10,-14) scale(1,1)"><path fill="none" stroke="#000000" d="M 539.2800186663271 363.5010843301242 L 561 367 L 548.1157609086838 349.1675469147456 L 539.2800186663271 363.5010843301242" stroke-miterlimit="10"/></g><g transform="translate(10,-14) scale(1,1)"><path fill="#C0C0C0" stroke="none" d="M 1311 177 L 1358.72998046875 177 L 1358.72998046875 210 L 1311 210" opacity="0.2"/></g><g transform="translate(10,-14) scale(1,1)"><path fill="#C0C0C0" stroke="none" d="M 1311 177 L 1321 167 L 1368.72998046875 167 L 1358.72998046875 177" opacity="0.2"/></g><g transform="translate(10,-14) scale(1,1)"><path fill="#C0C0C0" stroke="none" d="M 1368.72998046875 167 L 1358.72998046875 177 L 1358.72998046875 210 L 1368.72998046875 200" opacity="0.2"/></g><g transform="translate(10,-14) scale(1,1)"><path fill="#ffffff" stroke="none" d="M 1304 170 L 1351.72998046875 170 L 1351.72998046875 203 L 1304 203"/></g><g transform="translate(10,-14) scale(1,1)"><path fill="#ffffff" stroke="none" d="M 1304 170 L 1314 160 L 1361.72998046875 160 L 1351.72998046875 170"/></g><g transform="translate(10,-14) scale(1,1)"><path fill="#ffffff" stroke="none" d="M 1361.72998046875 160 L 1351.72998046875 170 L 1351.72998046875 203 L 1361.72998046875 193"/></g><g transform="translate(10,-14) scale(1,1)"><path fill="none" stroke="#000000" d="M 1304 170 L 1351.72998046875 170 L 1351.72998046875 203 L 1304 203 L 1304 170" stroke-miterlimit="10"/></g><g transform="translate(10,-14) scale(1,1)"><path fill="none" stroke="#000000" d="M 1304 170 L 1314 160 L 1361.72998046875 160 L 1351.72998046875 170 L 1304 170" stroke-miterlimit="10"/></g><g transform="translate(10,-14) scale(1,1)"><path fill="none" stroke="#000000" d="M 1361.72998046875 160 L 1351.72998046875 170 L 1351.72998046875 203 L 1361.72998046875 193 L 1361.72998046875 160" stroke-miterlimit="10"/></g><g transform="translate(10,-14) scale(1,1)"><g><path fill="none" stroke="none"/><text fill="#000000" stroke="none" font-family="Arial" font-size="13px" font-style="normal" font-weight="bold" text-decoration="none" x="1315.364990234375" y="189.5">TCP</text></g></g><g transform="translate(10,-14) scale(1,1)"><path fill="none" stroke="#000000" d="M 1092 189 L 1303 183" stroke-miterlimit="10"/></g><g transform="translate(10,-14) scale(1,1)"><rect fill="#C0C0C0" stroke="none" x="1289" y="135" width="117.31884765625" height="44" opacity="0.2"/></g><g transform="translate(10,-14) scale(1,1)"><rect fill="#ffffff" stroke="none" x="1282" y="128" width="117.31884765625" height="44"/></g><g transform="translate(10,-14) scale(1,1)"><path fill="none" stroke="#000000" d="M 1282 128 L 1399.31884765625 128 L 1399.31884765625 172 L 1282 172 L 1282 128 Z Z" stroke-miterlimit="10"/></g><g transform="translate(10,-14) scale(1,1)"><rect fill="#ffffff" stroke="none" x="1272" y="135" width="20" height="10"/></g><g transform="translate(10,-14) scale(1,1)"><path fill="none" stroke="#000000" d="M 1272 135 L 1292 135 L 1292 145 L 1272 145 L 1272 135 Z Z" stroke-miterlimit="10"/></g><g transform="translate(10,-14) scale(1,1)"><rect fill="#ffffff" stroke="none" x="1272" y="155" width="20" height="10"/></g><g transform="translate(10,-14) scale(1,1)"><path fill="none" stroke="#000000" d="M 1272 155 L 1292 155 L 1292 165 L 1272 165 L 1272 155 Z Z" stroke-miterlimit="10"/></g><g transform="translate(10,-14) scale(1,1)"><g><path fill="none" stroke="none"/><text fill="#000000" stroke="none" font-family="Arial" font-size="13px" font-style="normal" font-weight="normal" text-decoration="none" x="1311.68359375" y="145.5">«database»</text></g></g><g transform="translate(10,-14) scale(1,1)"><g><path fill="none" stroke="none"/><text fill="#000000" stroke="none" font-family="Arial" font-size="13px" font-style="normal" font-weight="bold" text-decoration="none" x="1309.528564453125" y="160.5">postgres-9.6</text></g></g><g transform="translate(10,-14) scale(1,1)"><rect fill="#C0C0C0" stroke="none" x="1113" y="335" width="151.25341796875" height="44" opacity="0.2"/></g><g transform="translate(10,-14) scale(1,1)"><rect fill="#ffffff" stroke="none" x="1106" y="328" width="151.25341796875" height="44"/></g><g transform="translate(10,-14) scale(1,1)"><path fill="none" stroke="#000000" d="M 1106 328 L 1257.25341796875 328 L 1257.25341796875 372 L 1106 372 L 1106 328 Z Z" stroke-miterlimit="10"/></g><g transform="translate(10,-14) scale(1,1)"><rect fill="#ffffff" stroke="none" x="1096" y="335" width="20" height="10"/></g><g transform="translate(10,-14) scale(1,1)"><path fill="none" stroke="#000000" d="M 1096 335 L 1116 335 L 1116 345 L 1096 345 L 1096 335 Z Z" stroke-miterlimit="10"/></g><g transform="translate(10,-14) scale(1,1)"><rect fill="#ffffff" stroke="none" x="1096" y="355" width="20" height="10"/></g><g transform="translate(10,-14) scale(1,1)"><path fill="none" stroke="#000000" d="M 1096 355 L 1116 355 L 1116 365 L 1096 365 L 1096 355 Z Z" stroke-miterlimit="10"/></g><g transform="translate(10,-14) scale(1,1)"><g><path fill="none" stroke="none"/><text fill="#000000" stroke="none" font-family="Arial" font-size="13px" font-style="normal" font-weight="normal" text-decoration="none" x="1172.173095703125" y="345.5">«jar»</text></g></g><g transform="translate(10,-14) scale(1,1)"><g><path fill="none" stroke="none"/><text fill="#000000" stroke="none" font-family="Arial" font-size="13px" font-style="normal" font-weight="bold" text-decoration="none" x="1124.844970703125" y="360.5">kafka-clients-0.11.0.1</text></g></g><g transform="translate(10,-14) scale(1,1)"><rect fill="#C0C0C0" stroke="none" x="1153" y="399" width="157.76611328125" height="44" opacity="0.2"/></g><g transform="translate(10,-14) scale(1,1)"><rect fill="#ffffff" stroke="none" x="1146" y="392" width="157.76611328125" height="44"/></g><g transform="translate(10,-14) scale(1,1)"><path fill="none" stroke="#000000" d="M 1146 392 L 1303.76611328125 392 L 1303.76611328125 436 L 1146 436 L 1146 392 Z Z" stroke-miterlimit="10"/></g><g transform="translate(10,-14) scale(1,1)"><rect fill="#ffffff" stroke="none" x="1136" y="399" width="20" height="10"/></g><g transform="translate(10,-14) scale(1,1)"><path fill="none" stroke="#000000" d="M 1136 399 L 1156 399 L 1156 409 L 1136 409 L 1136 399 Z Z" stroke-miterlimit="10"/></g><g transform="translate(10,-14) scale(1,1)"><rect fill="#ffffff" stroke="none" x="1136" y="419" width="20" height="10"/></g><g transform="translate(10,-14) scale(1,1)"><path fill="none" stroke="#000000" d="M 1136 419 L 1156 419 L 1156 429 L 1136 429 L 1136 419 Z Z" stroke-miterlimit="10"/></g><g transform="translate(10,-14) scale(1,1)"><g><path fill="none" stroke="none"/><text fill="#000000" stroke="none" font-family="Arial" font-size="13px" font-style="normal" font-weight="normal" text-decoration="none" x="1215.429443359375" y="409.5">«jar»</text></g></g><g transform="translate(10,-14) scale(1,1)"><g><path fill="none" stroke="none"/><text fill="#000000" stroke="none" font-family="Arial" font-size="13px" font-style="normal" font-weight="bold" text-decoration="none" x="1164.486328125" y="424.5">spark-core_2.1.0-2.2.0</text></g></g><g transform="translate(10,-14) scale(1,1)"><rect fill="#C0C0C0" stroke="none" x="1193" y="455" width="160.6416015625" height="44" opacity="0.2"/></g><g transform="translate(10,-14) scale(1,1)"><rect fill="#ffffff" stroke="none" x="1186" y="448" width="160.6416015625" height="44"/></g><g transform="translate(10,-14) scale(1,1)"><path fill="none" stroke="#000000" d="M 1186 448 L 1346.6416015625 448 L 1346.6416015625 492 L 1186 492 L 1186 448 Z Z" stroke-miterlimit="10"/></g><g transform="translate(10,-14) scale(1,1)"><rect fill="#ffffff" stroke="none" x="1176" y="455" width="20" height="10"/></g><g transform="translate(10,-14) scale(1,1)"><path fill="none" stroke="#000000" d="M 1176 455 L 1196 455 L 1196 465 L 1176 465 L 1176 455 Z Z" stroke-miterlimit="10"/></g><g transform="translate(10,-14) scale(1,1)"><rect fill="#ffffff" stroke="none" x="1176" y="475" width="20" height="10"/></g><g transform="translate(10,-14) scale(1,1)"><path fill="none" stroke="#000000" d="M 1176 475 L 1196 475 L 1196 485 L 1176 485 L 1176 475 Z Z" stroke-miterlimit="10"/></g><g transform="translate(10,-14) scale(1,1)"><g><path fill="none" stroke="none"/><text fill="#000000" stroke="none" font-family="Arial" font-size="13px" font-style="normal" font-weight="normal" text-decoration="none" x="1256.8671875" y="465.5">«jar»</text></g></g><g transform="translate(10,-14) scale(1,1)"><g><path fill="none" stroke="none"/><text fill="#000000" stroke="none" font-family="Arial" font-size="13px" font-style="normal" font-weight="bold" text-decoration="none" x="1203.75634765625" y="480.5">spark-mllib_2.1.0_2.2.0</text></g></g><g transform="translate(10,-14) scale(1,1)"><rect fill="#C0C0C0" stroke="none" x="1209" y="511" width="142.576171875" height="44" opacity="0.2"/></g><g transform="translate(10,-14) scale(1,1)"><rect fill="#ffffff" stroke="none" x="1202" y="504" width="142.576171875" height="44"/></g><g transform="translate(10,-14) scale(1,1)"><path fill="none" stroke="#000000" d="M 1202 504 L 1344.576171875 504 L 1344.576171875 548 L 1202 548 L 1202 504 Z Z" stroke-miterlimit="10"/></g><g transform="translate(10,-14) scale(1,1)"><rect fill="#ffffff" stroke="none" x="1192" y="511" width="20" height="10"/></g><g transform="translate(10,-14) scale(1,1)"><path fill="none" stroke="#000000" d="M 1192 511 L 1212 511 L 1212 521 L 1192 521 L 1192 511 Z Z" stroke-miterlimit="10"/></g><g transform="translate(10,-14) scale(1,1)"><rect fill="#ffffff" stroke="none" x="1192" y="531" width="20" height="10"/></g><g transform="translate(10,-14) scale(1,1)"><path fill="none" stroke="#000000" d="M 1192 531 L 1212 531 L 1212 541 L 1192 541 L 1192 531 Z Z" stroke-miterlimit="10"/></g><g transform="translate(10,-14) scale(1,1)"><g><path fill="none" stroke="none"/><text fill="#000000" stroke="none" font-family="Arial" font-size="13px" font-style="normal" font-weight="normal" text-decoration="none" x="1263.83447265625" y="521.5">«jar»</text></g></g><g transform="translate(10,-14) scale(1,1)"><g><path fill="none" stroke="none"/><text fill="#000000" stroke="none" font-family="Arial" font-size="13px" font-style="normal" font-weight="bold" text-decoration="none" x="1219.39453125" y="536.5">cassandra-all-3.11.1</text></g></g><g transform="translate(10,-14) scale(1,1)"><rect fill="#C0C0C0" stroke="none" x="801" y="263" width="98.44091796875" height="44" opacity="0.2"/></g><g transform="translate(10,-14) scale(1,1)"><rect fill="#ffffff" stroke="none" x="794" y="256" width="98.44091796875" height="44"/></g><g transform="translate(10,-14) scale(1,1)"><path fill="none" stroke="#000000" d="M 794 256 L 892.44091796875 256 L 892.44091796875 300 L 794 300 L 794 256 Z Z" stroke-miterlimit="10"/></g><g transform="translate(10,-14) scale(1,1)"><rect fill="#ffffff" stroke="none" x="784" y="263" width="20" height="10"/></g><g transform="translate(10,-14) scale(1,1)"><path fill="none" stroke="#000000" d="M 784 263 L 804 263 L 804 273 L 784 273 L 784 263 Z Z" stroke-miterlimit="10"/></g><g transform="translate(10,-14) scale(1,1)"><rect fill="#ffffff" stroke="none" x="784" y="283" width="20" height="10"/></g><g transform="translate(10,-14) scale(1,1)"><path fill="none" stroke="#000000" d="M 784 283 L 804 283 L 804 293 L 784 293 L 784 283 Z Z" stroke-miterlimit="10"/></g><g transform="translate(10,-14) scale(1,1)"><g><path fill="none" stroke="none"/><text fill="#000000" stroke="none" font-family="Arial" font-size="13px" font-style="normal" font-weight="normal" text-decoration="none" x="833.766845703125" y="273.5">«jar»</text></g></g><g transform="translate(10,-14) scale(1,1)"><g><path fill="none" stroke="none"/><text fill="#000000" stroke="none" font-family="Arial" font-size="13px" font-style="normal" font-weight="bold" text-decoration="none" x="824.00732421875" y="288.5">Rengine</text></g></g><g transform="translate(10,-14) scale(1,1)"><rect fill="#C0C0C0" stroke="none" x="817" y="607" width="164.1962890625" height="44" opacity="0.2"/></g><g transform="translate(10,-14) scale(1,1)"><rect fill="#d1ffa3" stroke="none" x="810" y="600" width="164.1962890625" height="44"/></g><g transform="translate(10,-14) scale(1,1)"><path fill="none" stroke="#000000" d="M 810 600 L 974.1962890625 600 L 974.1962890625 644 L 810 644 L 810 600 Z Z" stroke-miterlimit="10"/></g><g transform="translate(10,-14) scale(1,1)"><rect fill="#d1ffa3" stroke="none" x="800" y="607" width="20" height="10"/></g><g transform="translate(10,-14) scale(1,1)"><path fill="none" stroke="#000000" d="M 800 607 L 820 607 L 820 617 L 800 617 L 800 607 Z Z" stroke-miterlimit="10"/></g><g transform="translate(10,-14) scale(1,1)"><rect fill="#d1ffa3" stroke="none" x="800" y="627" width="20" height="10"/></g><g transform="translate(10,-14) scale(1,1)"><path fill="none" stroke="#000000" d="M 800 627 L 820 627 L 820 637 L 800 637 L 800 627 Z Z" stroke-miterlimit="10"/></g><g transform="translate(10,-14) scale(1,1)"><g><path fill="none" stroke="none"/><text fill="#000000" stroke="none" font-family="Arial" font-size="13px" font-style="normal" font-weight="normal" text-decoration="none" x="882.64453125" y="617.5">«jar»</text></g></g><g transform="translate(10,-14) scale(1,1)"><g><path fill="none" stroke="none"/><text fill="#000000" stroke="none" font-family="Arial" font-size="13px" font-style="normal" font-weight="bold" text-decoration="none" x="827.0009765625" y="632.5">big-data-1.0.0RELEASE</text></g></g><g transform="translate(10,-14) scale(1,1)"><path fill="none" stroke="#000000" d="M 756 267 L 783 271" stroke-miterlimit="10" stroke-dasharray="3"/></g><g transform="translate(10,-14) scale(1,1)"><path fill="none" stroke="#000000" d="M 772.3301476530851 273.6747431456188 L 783 271 L 773.563946035038 265.34660406743654" stroke-miterlimit="10"/></g><g transform="translate(10,-14) scale(1,1)"><path fill="none" stroke="#000000" d="M 975 600 L 1191 545" stroke-miterlimit="10" stroke-dasharray="3"/></g><g transform="translate(10,-14) scale(1,1)"><path fill="none" stroke="#000000" d="M 1182.190302015702 551.5870495235314 L 1191 545 L 1180.1128554289967 543.4283502011981" stroke-miterlimit="10"/></g><g transform="translate(10,-14) scale(1,1)"><path fill="none" stroke="#000000" d="M 944 599 L 1204 493" stroke-miterlimit="10" stroke-dasharray="3"/></g><g transform="translate(10,-14) scale(1,1)"><path fill="none" stroke="#000000" d="M 1196.17855190103 500.7346589863497 L 1204 493 L 1193.0001711911063 492.9386308299331" stroke-miterlimit="10"/></g><g transform="translate(10,-14) scale(1,1)"><path fill="none" stroke="#000000" d="M 924 599 L 1182 437" stroke-miterlimit="10" stroke-dasharray="3"/></g><g transform="translate(10,-14) scale(1,1)"><path fill="none" stroke="#000000" d="M 1175.6318197991015 445.96918507607495 L 1182 437 L 1171.154845007117 438.8391881851366" stroke-miterlimit="10"/></g><g transform="translate(10,-14) scale(1,1)"><path fill="none" stroke="#000000" d="M 911 599 L 1152 373" stroke-miterlimit="10" stroke-dasharray="3"/></g><g transform="translate(10,-14) scale(1,1)"><path fill="none" stroke="#000000" d="M 1147.4663960295882 383.0222968943983 L 1152 373 L 1141.7074237922136 376.88109198640154" stroke-miterlimit="10"/></g><g transform="translate(10,-14) scale(1,1)"><rect fill="#C0C0C0" stroke="none" x="753" y="135" width="188.08251953125" height="44" opacity="0.2"/></g><g transform="translate(10,-14) scale(1,1)"><rect fill="#d1ffa3" stroke="none" x="746" y="128" width="188.08251953125" height="44"/></g><g transform="translate(10,-14) scale(1,1)"><path fill="none" stroke="#000000" d="M 746 128 L 934.08251953125 128 L 934.08251953125 172 L 746 172 L 746 128 Z Z" stroke-miterlimit="10"/></g><g transform="translate(10,-14) scale(1,1)"><rect fill="#d1ffa3" stroke="none" x="736" y="135" width="20" height="10"/></g><g transform="translate(10,-14) scale(1,1)"><path fill="none" stroke="#000000" d="M 736 135 L 756 135 L 756 145 L 736 145 L 736 135 Z Z" stroke-miterlimit="10"/></g><g transform="translate(10,-14) scale(1,1)"><rect fill="#d1ffa3" stroke="none" x="736" y="155" width="20" height="10"/></g><g transform="translate(10,-14) scale(1,1)"><path fill="none" stroke="#000000" d="M 736 155 L 756 155 L 756 165 L 736 165 L 736 155 Z Z" stroke-miterlimit="10"/></g><g transform="translate(10,-14) scale(1,1)"><g><path fill="none" stroke="none"/><text fill="#000000" stroke="none" font-family="Arial" font-size="13px" font-style="normal" font-weight="normal" text-decoration="none" x="830.587646484375" y="145.5">«jar»</text></g></g><g transform="translate(10,-14) scale(1,1)"><g><path fill="none" stroke="none"/><text fill="#000000" stroke="none" font-family="Arial" font-size="13px" font-style="normal" font-weight="bold" text-decoration="none" x="763.38818359375" y="160.5">data-access-1.0.0RELEASE</text></g></g><g transform="translate(10,-14) scale(1,1)"><path fill="none" stroke="#000000" d="M 873 599 L 671 277" stroke-miterlimit="10" stroke-dasharray="3"/></g><g transform="translate(10,-14) scale(1,1)"><path fill="none" stroke="#000000" d="M 679.9665446455871 283.37189745042195 L 671 277 L 672.8346926264878 287.8459164189252" stroke-miterlimit="10"/></g><g transform="translate(10,-14) scale(1,1)"><path fill="none" stroke="#000000" d="M 374 277 L 352 407" stroke-miterlimit="10" stroke-dasharray="3"/></g><g transform="translate(10,-14) scale(1,1)"><path fill="none" stroke="#000000" d="M 349.5452226432975 396.277403853123 L 352 407 L 357.8462307321539 397.68218983739104" stroke-miterlimit="10"/></g><g transform="translate(10,-14) scale(1,1)"><path fill="none" stroke="#000000" d="M 696 231 L 796 173" stroke-miterlimit="10" stroke-dasharray="3"/></g><g transform="translate(10,-14) scale(1,1)"><path fill="none" stroke="#000000" d="M 789.3209604892373 181.74016196724475 L 796 173 L 785.0969780744193 174.45743366583437" stroke-miterlimit="10"/></g><g transform="translate(10,-14) scale(1,1)"><rect fill="#C0C0C0" stroke="none" x="265" y="415" width="190.92626953125" height="44" opacity="0.2"/></g><g transform="translate(10,-14) scale(1,1)"><rect fill="#d1ffa3" stroke="none" x="258" y="408" width="190.92626953125" height="44"/></g><g transform="translate(10,-14) scale(1,1)"><path fill="none" stroke="#000000" d="M 258 408 L 448.92626953125 408 L 448.92626953125 452 L 258 452 L 258 408 Z Z" stroke-miterlimit="10"/></g><g transform="translate(10,-14) scale(1,1)"><rect fill="#d1ffa3" stroke="none" x="248" y="415" width="20" height="10"/></g><g transform="translate(10,-14) scale(1,1)"><path fill="none" stroke="#000000" d="M 248 415 L 268 415 L 268 425 L 248 425 L 248 415 Z Z" stroke-miterlimit="10"/></g><g transform="translate(10,-14) scale(1,1)"><rect fill="#d1ffa3" stroke="none" x="248" y="435" width="20" height="10"/></g><g transform="translate(10,-14) scale(1,1)"><path fill="none" stroke="#000000" d="M 248 435 L 268 435 L 268 445 L 248 445 L 248 435 Z Z" stroke-miterlimit="10"/></g><g transform="translate(10,-14) scale(1,1)"><g><path fill="none" stroke="none"/><text fill="#000000" stroke="none" font-family="Arial" font-size="13px" font-style="normal" font-weight="normal" text-decoration="none" x="344.009521484375" y="425.5">«jar»</text></g></g><g transform="translate(10,-14) scale(1,1)"><g><path fill="none" stroke="none"/><text fill="#000000" stroke="none" font-family="Arial" font-size="13px" font-style="normal" font-weight="bold" text-decoration="none" x="275.727783203125" y="440.5">app-models-1.0.0-RELEASE</text></g></g><g transform="translate(10,-14) scale(1,1)"><path fill="none" stroke="#000000" d="M 617 277 L 388 407" stroke-miterlimit="10" stroke-dasharray="3"/></g><g transform="translate(10,-14) scale(1,1)"><path fill="none" stroke="#000000" d="M 394.75971940682865 398.3220858761483 L 388 407 L 398.91605535501685 405.6436315079568" stroke-miterlimit="10"/></g><g transform="translate(10,-14) scale(1,1)"><rect fill="#C0C0C0" stroke="none" x="937" y="239" width="155.5634765625" height="44" opacity="0.2"/></g><g transform="translate(10,-14) scale(1,1)"><rect fill="#d1ffa3" stroke="none" x="930" y="232" width="155.5634765625" height="44"/></g><g transform="translate(10,-14) scale(1,1)"><path fill="none" stroke="#000000" d="M 930 232 L 1085.5634765625 232 L 1085.5634765625 276 L 930 276 L 930 232 Z Z" stroke-miterlimit="10"/></g><g transform="translate(10,-14) scale(1,1)"><rect fill="#d1ffa3" stroke="none" x="920" y="239" width="20" height="10"/></g><g transform="translate(10,-14) scale(1,1)"><path fill="none" stroke="#000000" d="M 920 239 L 940 239 L 940 249 L 920 249 L 920 239 Z Z" stroke-miterlimit="10"/></g><g transform="translate(10,-14) scale(1,1)"><rect fill="#d1ffa3" stroke="none" x="920" y="259" width="20" height="10"/></g><g transform="translate(10,-14) scale(1,1)"><path fill="none" stroke="#000000" d="M 920 259 L 940 259 L 940 269 L 920 269 L 920 259 Z Z" stroke-miterlimit="10"/></g><g transform="translate(10,-14) scale(1,1)"><g><path fill="none" stroke="none"/><text fill="#000000" stroke="none" font-family="Arial" font-size="13px" font-style="normal" font-weight="bold" text-decoration="none" x="948.47998046875" y="251.5">stock-market-api 1.0.0</text></g></g><g transform="translate(10,-14) scale(1,1)"><path fill="#C0C0C0" stroke="none" d="M 963.436767578125 426.5 C 963.436767578125 420.1487248 968.585492378125 415 974.936767578125 415 C 981.288042778125 415 986.436767578125 420.1487248 986.436767578125 426.5 C 986.436767578125 432.8512752 981.288042778125 438 974.936767578125 438 C 968.585492378125 438 963.436767578125 432.8512752 963.436767578125 426.5 Z" opacity="0.2"/></g><g transform="translate(10,-14) scale(1,1)"><path fill="#ffffff" stroke="none" d="M 956.436767578125 419.5 C 956.436767578125 413.1487248 961.585492378125 408 967.936767578125 408 C 974.288042778125 408 979.436767578125 413.1487248 979.436767578125 419.5 C 979.436767578125 425.8512752 974.288042778125 431 967.936767578125 431 C 961.585492378125 431 956.436767578125 425.8512752 956.436767578125 419.5 Z"/></g><g transform="translate(10,-14) scale(1,1)"><path fill="none" stroke="#000000" d="M 956.436767578125 419.5 C 956.436767578125 413.1487248 961.585492378125 408 967.936767578125 408 C 974.288042778125 408 979.436767578125 413.1487248 979.436767578125 419.5 C 979.436767578125 425.8512752 974.288042778125 431 967.936767578125 431 C 961.585492378125 431 956.436767578125 425.8512752 956.436767578125 419.5 Z" stroke-miterlimit="10"/></g><g transform="translate(10,-14) scale(1,1)"><g><path fill="none" stroke="none"/><text fill="#000000" stroke="none" font-family="Arial" font-size="13px" font-style="normal" font-weight="bold" text-decoration="none" x="918.45361328125" y="450.5">API stock-market</text></g></g><g transform="translate(10,-14) scale(1,1)"><g><path fill="none" stroke="none"/><text fill="#000000" stroke="none" font-family="Arial" font-size="13px" font-style="normal" font-weight="normal" text-decoration="none" x="884.5" y="465.5">(from stock-market-api 1.0.0)</text></g></g><g transform="translate(10,-14) scale(1,1)"><path fill="none" stroke="#000000" d="M 998 277 L 972.5 408" stroke-miterlimit="10"/></g><g transform="translate(10,-14) scale(1,1)"><path fill="none" stroke="#000000" d="M 648 277 L 610.1666666666666 368" stroke-miterlimit="10"/></g><g transform="translate(10,-14) scale(1,1)"><path fill="none" stroke="#000000" d="M 897 599 L 953 472" stroke-miterlimit="10" stroke-dasharray="3"/></g><g transform="translate(10,-14) scale(1,1)"><path fill="#FFFFFF" stroke="none" d="M 952.5028612247661 493.9943823063563 L 953 472 L 937.0960929240074 487.2008466776753"/></g><g transform="translate(10,-14) scale(1,1)"><path fill="none" stroke="#000000" d="M 952.5028612247661 493.9943823063563 L 953 472 L 937.0960929240074 487.2008466776753 L 952.5028612247661 493.9943823063563" stroke-miterlimit="10"/></g><g transform="translate(10,-14) scale(1,1)"><path fill="none" stroke="#000000" d="M 919 234 L 629 165" stroke-miterlimit="10" stroke-dasharray="3"/></g><g transform="translate(10,-14) scale(1,1)"><path fill="none" stroke="#000000" d="M 639.8610532738548 163.2571512450916 L 629 165 L 637.9123045939494 171.44754424759287" stroke-miterlimit="10"/></g><g transform="translate(10,-14) scale(1,1)"><rect fill="#C0C0C0" stroke="none" x="1065" y="727" width="98.44091796875" height="44" opacity="0.2"/></g><g transform="translate(10,-14) scale(1,1)"><rect fill="#ffffff" stroke="none" x="1058" y="720" width="98.44091796875" height="44"/></g><g transform="translate(10,-14) scale(1,1)"><path fill="none" stroke="#000000" d="M 1058 720 L 1156.44091796875 720 L 1156.44091796875 764 L 1058 764 L 1058 720 Z Z" stroke-miterlimit="10"/></g><g transform="translate(10,-14) scale(1,1)"><rect fill="#ffffff" stroke="none" x="1048" y="727" width="20" height="10"/></g><g transform="translate(10,-14) scale(1,1)"><path fill="none" stroke="#000000" d="M 1048 727 L 1068 727 L 1068 737 L 1048 737 L 1048 727 Z Z" stroke-miterlimit="10"/></g><g transform="translate(10,-14) scale(1,1)"><rect fill="#ffffff" stroke="none" x="1048" y="747" width="20" height="10"/></g><g transform="translate(10,-14) scale(1,1)"><path fill="none" stroke="#000000" d="M 1048 747 L 1068 747 L 1068 757 L 1048 757 L 1048 747 Z Z" stroke-miterlimit="10"/></g><g transform="translate(10,-14) scale(1,1)"><g><path fill="none" stroke="none"/><text fill="#000000" stroke="none" font-family="Arial" font-size="13px" font-style="normal" font-weight="normal" text-decoration="none" x="1080.41552734375" y="737.5">«package»</text></g></g><g transform="translate(10,-14) scale(1,1)"><g><path fill="none" stroke="none"/><text fill="#000000" stroke="none" font-family="Arial" font-size="13px" font-style="normal" font-weight="bold" text-decoration="none" x="1090.905029296875" y="752.5">R-3.4.2</text></g></g><g transform="translate(10,-14) scale(1,1)"><rect fill="#C0C0C0" stroke="none" x="1201" y="623" width="103.525390625" height="44" opacity="0.2"/></g><g transform="translate(10,-14) scale(1,1)"><rect fill="#ffffff" stroke="none" x="1194" y="616" width="103.525390625" height="44"/></g><g transform="translate(10,-14) scale(1,1)"><path fill="none" stroke="#000000" d="M 1194 616 L 1297.525390625 616 L 1297.525390625 660 L 1194 660 L 1194 616 Z Z" stroke-miterlimit="10"/></g><g transform="translate(10,-14) scale(1,1)"><rect fill="#ffffff" stroke="none" x="1184" y="623" width="20" height="10"/></g><g transform="translate(10,-14) scale(1,1)"><path fill="none" stroke="#000000" d="M 1184 623 L 1204 623 L 1204 633 L 1184 633 L 1184 623 Z Z" stroke-miterlimit="10"/></g><g transform="translate(10,-14) scale(1,1)"><rect fill="#ffffff" stroke="none" x="1184" y="643" width="20" height="10"/></g><g transform="translate(10,-14) scale(1,1)"><path fill="none" stroke="#000000" d="M 1184 643 L 1204 643 L 1204 653 L 1184 653 L 1184 643 Z Z" stroke-miterlimit="10"/></g><g transform="translate(10,-14) scale(1,1)"><g><path fill="none" stroke="none"/><text fill="#000000" stroke="none" font-family="Arial" font-size="13px" font-style="normal" font-weight="normal" text-decoration="none" x="1224.391357421875" y="633.5">«librairy»</text></g></g><g transform="translate(10,-14) scale(1,1)"><g><path fill="none" stroke="none"/><text fill="#000000" stroke="none" font-family="Arial" font-size="13px" font-style="normal" font-weight="bold" text-decoration="none" x="1210.658203125" y="648.5">plumber-0.4.2</text></g></g><g transform="translate(10,-14) scale(1,1)"><path fill="none" stroke="#000000" d="M 1133 719 L 1209 661" stroke-miterlimit="10" stroke-dasharray="3"/></g><g transform="translate(10,-14) scale(1,1)"><path fill="none" stroke="#000000" d="M 1203.4749710686865 670.5117850747454 L 1209 661 L 1198.367366848875 663.8190623039578" stroke-miterlimit="10"/></g></g></svg>